<?xml version="1.0" encoding="UTF-8"?><svg id="Layer_2" xmlns="http://www.w3.org/2000/svg" viewBox="0 0 530.33 691.25"><defs><style>.cls-1{fill:none;stroke:#0f4d20;stroke-miterlimit:10;}</style></defs><g id="Layer_1-2"><polygon class="cls-1" points="186.09 652.43 262.85 652.43 339.6 652.43 332.77 503.61 325.88 502.1 262.85 502.1 199.81 502.1 192.93 503.61 186.09 652.43"/><polygon class="cls-1" points="171.19 506.57 198.82 500.49 198.82 487.54 193.88 487.54 171.19 493.49 171.19 506.57"/><polygon class="cls-1" points="161.09 510.72 151.1 652.43 184.31 652.43 191.13 504.01 162.52 510.3 161.09 510.72"/><polygon class="cls-1" points="137.33 690.75 176.84 690.75 179.16 654.21 140.86 654.21 137.33 690.75"/><polygon class="cls-1" points="326.87 487.54 326.87 500.49 354.5 506.57 354.5 493.49 331.81 487.54 326.87 487.54"/><polygon class="cls-1" points="200.61 500.32 262.85 500.32 325.09 500.32 325.09 487.54 262.85 487.54 200.61 487.54 200.61 500.32"/><polygon class="cls-1" points="347.07 690.75 344.75 654.21 262.85 654.21 180.94 654.21 178.63 690.75 262.85 690.75 347.07 690.75"/><polygon class="cls-1" points="374.6 652.43 364.6 510.72 363.17 510.3 334.57 504.01 341.39 652.43 374.6 652.43"/><polygon class="cls-1" points="388.37 690.75 384.83 654.21 346.54 654.21 348.85 690.75 388.37 690.75"/><polygon class="cls-1" points="195.81 81.95 169.43 85.49 239.77 111.08 195.81 81.95"/><path class="cls-1" d="m189.81,235.85l4.31-3.88c.26-.23.63-.3.95-.17l5.41,2.21,8.78-103.45-13.71-8.35-5.75,113.64Z"/><polygon class="cls-1" points="275.77 113.64 292.13 101.46 292.27 78.26 222.42 78.38 198.54 81.59 246.93 113.64 275.77 113.64"/><path class="cls-1" d="m298.73,312.24h18.64c.33,0,.64.18.8.47l3.01,5.47h9.86c.17,0,.34.05.49.14l2.08,1.34c.31.2.47.57.4.94l-1.58,8.07,2.57-6.31-16-242.5-12.2-1.64-12.71.02-1.36,227.98,6,6.01Z"/><polygon class="cls-1" points="189.48 242.28 194.37 248.09 194.37 254.92 198.44 258.13 200.15 238.02 200.32 235.91 194.91 233.7 189.68 238.41 189.48 242.28"/><path class="cls-1" d="m202.13,236.06l-.47,5.59,3.54-2.07c.2-.12.45-.15.67-.1l12.18,2.96c.27.07.5.26.62.52l2.81,6.38,2.57-109.77-13.05-7.94-8.87,104.45Z"/><path class="cls-1" d="m222.83,314.81l-10.14-5.05v176h10.11v-170.83s.02-.08.03-.12Z"/><path class="cls-1" d="m367.53,86.38l-46.69-6.26,3.75,56.92c6-5.86,30-29.82,42.94-50.66Z"/><path class="cls-1" d="m287.06,324.46c-.2,0-.41-.07-.58-.21-31.93-26.1-55.72-103.21-62.01-125.27l-1.27,54.48c0,.1-.03.19-.06.28,0,.02-.02.05-.03.07-.03.08-.08.15-.13.21-.02.02-.03.04-.05.06-.06.07-.14.13-.22.17l-15.63,8.11-3.19,20.05c-.02.12-.06.24-.13.34l-6.55,10.44-.39,4.36,4.7,8.97c.13-.08.25-.15.39-.22,2.49-1.19,6.35-.59,11.46,1.78l84.07,41.88v-36.43l-6.27-6.28c-.17-.17-.27-.41-.27-.65l1.02-170.64-66.06,3.95-.69,29.47c.27.06.51.23.63.5.33.76,33.8,75.79,61.81,97.09.4.3.48.88.17,1.27-.18.24-.45.36-.73.36-.19,0-.38-.06-.55-.18-26.05-19.81-55.67-83.05-61.42-95.69l-.47,19.95c1.05,3.99,26.82,100.57,63.01,130.16.39.32.45.89.13,1.28-.18.22-.44.33-.7.33Z"/><path class="cls-1" d="m299.26,350.86l23.86,11.89c.28.14.47.41.5.72l2.35,22.3,4.85,5.69,2.49-3.73-2.15-44.14-5.43-10.31h-2.85l-2.99,3.9c-.1.13-.24.24-.4.3l-20.21,7.7v5.69Z"/><path class="cls-1" d="m324.75,139.42l1.14,17.3c8.22-5.52,53.37-36.52,74.3-65l-15.5.69-14.26-5.64-.9-.12c-13.99,22.99-41.32,49.47-44.78,52.77Z"/><path class="cls-1" d="m192.15,153.5l.51-10.01c-6.3-3.34-60.08-32.11-81.58-52.61l-32.42-1.44c27.59,29.98,103.2,60.07,113.49,64.07Z"/><path class="cls-1" d="m193.79,121.14l-36.14-22.01s-.09-.06-.13-.09c-3.22-2.84-13.04-5.5-19.23-6.95l-24.39-1.09c21.39,19.38,70.4,45.95,78.86,50.48l1.03-20.34Z"/><path class="cls-1" d="m225.2,138.13l66.74-3.99.18-30.4-15.5,11.54c-.16.12-.35.18-.54.18h-29.41s-.02,0-.04,0c-.09,0-.17-.02-.25-.04,0,0-.02,0-.02,0l-80.8-29.39-5.64.76-13.81,5.47c5.05,1.47,10.21,3.35,12.57,5.38l66.54,40.51Z"/><path class="cls-1" d="m205.83,260.95l15.29-7.93-3.93-8.92-11.39-2.76-4.33,2.53-2.31,27.17-1.61,18.16,4.56-7.27,3.24-20.32c.05-.29.22-.53.48-.66Z"/><path class="cls-1" d="m293.14,76.07l-3.22-60.6s-4.63-17.9-24.75-14.55c-20.12-3.35-24.75,14.55-24.75,14.55l-3.24,61.07,55.3-.1c.16-.21.4-.35.66-.37Z"/><path class="cls-1" d="m5.12,98.65c24.36,12.77,54.07,10.7,54.07,10.7l12.78,1.49,35.06,43.97h42.48l41.71,17.14.84-16.53c-8.57-3.28-88.37-34.42-115.95-66.1l-3.84-.17-3.86,2.38h-5.05l-13.67-8.91-19.01-2.38c-11.59,0-6.83,6.83-6.83,6.83H5.12c-10.4,2.38,0,11.59,0,11.59Z"/><polygon class="cls-1" points="342.2 240.66 337.46 172.78 327.21 176.8 335.96 309.47 335.96 254.92 335.96 248.09 342.2 240.66"/><path class="cls-1" d="m210.87,485.76v-176.79c-4.5-1.82-6.9-1.63-8.12-1.07-.15.07-.28.14-.4.22l.93,1.77-5.85,175.88h13.44Z"/><path class="cls-1" d="m326.03,158.82l1.06,16.08,53.4-20.94c.12-.05.24-.06.36-.06l26.14.91h16.32l35.06-43.97,12.77-1.49s29.71,2.08,54.07-10.7c0,0,10.4-9.21,0-11.59h-18.72s4.75-6.83-6.83-6.83l-19.01,2.38-13.67,8.91h-5.05l-3.86-2.38-55.56,2.47c-21.61,30.28-71.25,63.72-76.48,67.2Z"/><path class="cls-1" d="m330.76,320h-10.13c-.33,0-.64-.18-.8-.47l-3.01-5.47h-17.57v29.16l19.32-7.36,3.11-4.05c.17-.22.44-.36.72-.36h3.85c.34,0,.65.19.8.49l3.87,7.35-.26-5.32h-.04c-.27,0-.53-.12-.7-.33-.17-.21-.24-.49-.19-.75l2.36-12.02-1.34-.86Z"/><path class="cls-1" d="m329.82,393.09l-5.42-6.36c-.12-.14-.19-.31-.21-.5l-2.32-22.08-1.8-.9v122.51h12.84l-3.08-92.67Z"/><polygon class="cls-1" points="284.27 345.42 284.27 485.76 294.38 485.76 294.38 350.46 284.27 345.42"/><polygon class="cls-1" points="308.13 357.31 308.13 485.76 318.24 485.76 318.24 362.35 308.13 357.31"/><polygon class="cls-1" points="236.55 321.65 236.55 485.76 246.66 485.76 246.66 326.69 236.55 321.65"/><polygon class="cls-1" points="270.52 338.57 260.41 333.54 260.41 485.76 270.52 485.76 270.52 338.57"/><polygon class="cls-1" points="248.48 327.59 248.48 485.76 258.59 485.76 258.59 332.63 248.48 327.59"/><polygon class="cls-1" points="296.2 485.76 306.31 485.76 306.31 356.4 296.2 351.36 296.2 485.76"/><polygon class="cls-1" points="224.62 315.71 224.62 485.76 234.73 485.76 234.73 320.74 224.62 315.71"/><path class="cls-1" d="m282.45,344.52l-10.12-5.04v146.28h10.11v-141.22s0-.02,0-.03Z"/></g></svg>