<?xml version="1.0" encoding="UTF-8"?><svg id="Layer_2" xmlns="http://www.w3.org/2000/svg" viewBox="0 0 1907.16 1069.28"><defs><style>.cls-1{opacity:.28;}.cls-2{fill:none;stroke:#d9d9d9;stroke-miterlimit:10;}</style></defs><g id="Layer_1-2"><g class="cls-1"><rect class="cls-2" x="138.41" y="1024.31" width="6.15" height="44.47"/><rect class="cls-2" x=".5" y="889" width="25.31" height="132.47"/><rect class="cls-2" x="117.28" y="1024.31" width="18.29" height="44.47"/><rect class="cls-2" x="28.65" y="1024.31" width="85.79" height="44.47"/><rect class="cls-2" x="343.74" y="770.73" width="19.87" height="57.48"/><path class="cls-2" d="m893.5,373.18h-4.26c-.5,0-.96-.26-1.22-.69l-10.36-17.34-1.83,3.12v1.01h-.59l-7.73,13.2c-.25.44-.72.7-1.22.7h-3.08v72.99h30.28v-72.99Z"/><rect class="cls-2" x=".5" y="831.05" width="25.31" height="9.7"/><polygon class="cls-2" points="117.28 769.31 117.28 828.21 135.57 828.21 135.57 739.5 117.28 739.5 117.28 769.31"/><path class="cls-2" d="m899.17,257.87v39.74c0,.78-.64,1.42-1.42,1.42h-1.42v18.69h114.49v-18.69h-1.42c-.78,0-1.42-.64-1.42-1.42v-39.74c0-.08,0-.16.02-.24l3.76-21.8v-8.38l-8.2-8.39-7.41,8.81v62.88c0,.78-.64,1.42-1.42,1.42h-82.32c-.78,0-1.42-.64-1.42-1.42v-62.88l-7.41-8.81-8.2,8.39v8.38l3.76,21.8c.01.08.02.16.02.24Z"/><rect class="cls-2" x="441.83" y="770.73" width="19.24" height="57.48"/><path class="cls-2" d="m870.79,970.14c0-.31.1-.6.28-.85l9.7-13.01c.29-.39.77-.61,1.26-.57.49.04.92.34,1.14.78l10.96,21.92h2.2v-67.65h-33.12v94.62h7.57v-35.25Z"/><rect class="cls-2" x="343.74" y="1026.66" width="19.87" height="42.13"/><path class="cls-2" d="m240.19,1049.78c.1,8.29.12,14.42.09,19h100.62v-42.13h-101.09c.12,5.91.27,14.52.37,23.13Z"/><polygon class="cls-2" points="463.91 1068.78 498.92 1068.78 498.92 785.41 463.91 771.4 463.91 1068.78"/><rect class="cls-2" x="441.83" y="1026.66" width="19.24" height="42.13"/><rect class="cls-2" x="366.45" y="1026.66" width="72.54" height="42.13"/><rect class="cls-2" x="28.65" y="831.05" width="85.79" height="9.7"/><rect class="cls-2" x=".5" y="843.58" width="25.31" height="42.58"/><rect class="cls-2" x="343.74" y="738.32" width="19.87" height="29.57"/><rect class="cls-2" x="366.45" y="843.58" width="72.54" height="42.58"/><polygon class="cls-2" points="343.74 886.16 350.43 886.16 363.61 886.16 363.61 843.58 343.74 843.58 343.74 886.16"/><path class="cls-2" d="m207.41,1011.48c-.38-.11-.69-.37-.87-.71-.09-.17-2.53-4.49-10.95-4.91h-7.97c-.41,0-.81-.18-1.08-.49l-4.84-5.64-4.84,5.64c-.27.31-.66.5-1.08.5h-8.04c-8.48.43-10.86,4.86-10.88,4.91-.18.35-.49.61-.87.71-.37.11-.78.06-1.11-.14l-7.48-4.41v10.29h68.6v-10.29l-7.48,4.41c-.34.2-.74.25-1.11.14Z"/><path class="cls-2" d="m236.95,1025.24s0-.01,0-.02c-.04-1.85-.08-3.65-.12-5.36l-18-12.68v61.61h18.6c.06-11.59-.19-29.24-.48-43.52,0-.01,0-.02,0-.03Z"/><rect class="cls-2" x="28.65" y="751.49" width="85.79" height="16.4"/><rect class="cls-2" x=".5" y="770.73" width="25.31" height="57.48"/><rect class="cls-2" x="117.28" y="889" width="18.29" height="132.47"/><polygon class="cls-2" points="343.74 889 343.74 1023.82 363.61 1023.82 363.61 889 350.43 889 343.74 889"/><rect class="cls-2" x="441.83" y="889" width="19.24" height="134.81"/><rect class="cls-2" x="441.83" y="737.92" width="19.24" height="29.96"/><rect class="cls-2" x="117.28" y="843.58" width="18.29" height="42.58"/><rect class="cls-2" x="441.83" y="831.05" width="19.24" height="9.7"/><rect class="cls-2" x="366.45" y="831.05" width="72.54" height="9.7"/><rect class="cls-2" x="441.83" y="843.58" width="19.24" height="42.58"/><polygon class="cls-2" points="117.28 840.75 135.57 840.75 135.57 832.7 135.57 831.05 117.28 831.05 117.28 840.75"/><rect class="cls-2" x="343.74" y="831.05" width="19.87" height="9.7"/><path class="cls-2" d="m878.71,677.2c.22-.51.72-.85,1.27-.86.54-.03,1.07.3,1.31.8l8.6,17.88h6.44v-162.75h-33.12v162.75h7.82l7.67-17.83Z"/><path class="cls-2" d="m913.84,174.6v31.7h10.17v-26.97c0-.28.09-.56.25-.8l4.02-5.91c.26-.39.7-.62,1.17-.62h10.17c.52,0,1,.28,1.25.74l2.84,5.2c.11.21.17.44.17.68v27.68h19.4v-27.68c0-.24.06-.47.17-.68l2.84-5.2c.25-.46.73-.74,1.25-.74h10.17c.47,0,.91.23,1.17.62l4.02,5.91c.16.24.25.51.25.8v26.97h10.17v-31.7c0-.29.09-.57.25-.81l5.29-7.6-27.31-143.93V.5h-4.73v21.76h-26.49V.5h-4.73v21.76l-27.31,143.93,5.29,7.6c.17.24.25.52.25.81Z"/><polygon class="cls-2" points="848.41 752.61 834 708.27 819.22 708.27 804.44 708.27 790.03 752.61 790.03 762.52 848.41 762.52 848.41 752.61"/><rect class="cls-2" x="875.83" y="320.56" width="17.66" height="10.41"/><polygon class="cls-2" points="599.55 752.61 585.14 708.27 570.36 708.27 555.58 708.27 541.17 752.61 541.17 762.52 599.55 762.52 599.55 752.61"/><path class="cls-2" d="m138.41,823.96l20.26-60.78c-.24-.25-.39-.59-.39-.97,0-.7.51-1.28,1.18-1.39l.24-.73v-52.99l-14.67-10.17h-7.81l-10.17-31.94h-9.78v71.68h19.71c.78,0,1.42.64,1.42,1.42v85.88Z"/><rect class="cls-2" x=".5" y="739.26" width="25.31" height="28.62"/><rect class="cls-2" x=".5" y="1024.31" width="25.31" height="44.47"/><polygon class="cls-2" points="716.55 763.87 716.55 712.53 700.15 712.53 700.15 785.55 711.49 785.55 716.55 763.87"/><rect class="cls-2" x="863.22" y="822.53" width="33.12" height="4.49"/><polygon class="cls-2" points="770.02 762.53 770.02 762.52 770.02 712.53 753.46 712.53 753.46 764.89 753.3 764.89 753.3 785.55 764.63 785.55 770.02 762.53"/><polygon class="cls-2" points="251.19 752.61 236.78 708.27 222 708.27 207.23 708.27 192.82 752.61 192.82 760.79 251.19 760.79 251.19 752.61"/><path class="cls-2" d="m899.17,723.41h19.28v-12.54c0-.22.05-.44.15-.63l6.19-12.38h-25.62v25.55Z"/><rect class="cls-2" x="912.42" y="608.45" width="32.64" height="4.49"/><rect class="cls-2" x="912.42" y="651.26" width="32.64" height="4.49"/><rect class="cls-2" x="863.22" y="829.86" width="33.12" height="44.24"/><rect class="cls-2" x="899.17" y="532.28" width="10.41" height="162.75"/><path class="cls-2" d="m896.34,697.87h-7.33c-.55,0-1.04-.31-1.28-.8l-7.64-15.88-6.81,15.83c-.22.52-.74.86-1.3.86h-8.75v38.8h33.12v-38.8Z"/><rect class="cls-2" x="863.22" y="739.5" width="33.12" height="12.06"/><rect class="cls-2" x="863.22" y="876.94" width="33.12" height="30.99"/><path class="cls-2" d="m875.83,352.65l.59-1.01c.25-.43.72-.7,1.22-.7h0c.5,0,.96.26,1.22.69l11.18,18.71h3.45v-36.53h-17.66v18.84Z"/><polygon class="cls-2" points="871.96 359.28 868.74 359.28 863.22 359.28 863.22 370.34 865.48 370.34 871.96 359.28"/><path class="cls-2" d="m896.34,494.58l-.09-.16h-5.11c-.5,0-.96-.26-1.22-.69l-10.36-17.34-10.14,17.33c-.25.44-.72.7-1.22.7h-4.97v35.01h33.12v-34.85Z"/><path class="cls-2" d="m878.32,472.89c.25-.43.72-.7,1.22-.7h0c.5,0,.96.26,1.22.69l11.18,18.71h2.6l-.84-1.4c-.13-.22-.2-.47-.2-.73v-40.45h-30.28v42.58h4.15l10.94-18.7Z"/><rect class="cls-2" x="863.22" y="754.4" width="33.12" height="65.29"/><path class="cls-2" d="m903.72,215.53c.4.01.78.2,1.03.5l8.33,9.9h2.89v-8.04h4.26v8.04h4.39v-8.04h4.26v8.04h4.39v-8.04h4.26v8.04h4.39v-8.04h4.26v8.04h4.39v-8.04h2.35v-.12s1.33,0,1.33,0v.12s2.34,0,2.34,0v8.04h4.39v-8.04h4.26v8.04h4.39v-8.04h4.26v8.04h4.39v-8.04h4.26v8.04h4.39v-8.04h4.26v8.04h2.89l8.33-9.9c.26-.31.63-.49,1.03-.5.41-.01.79.14,1.07.43l7.26,7.43v-53.99h-11.68l-3.93,5.65v32.67c0,.78-.64,1.42-1.42,1.42h-13.01c-.78,0-1.42-.64-1.42-1.42v-27.95l-3.35-4.93h-8.58l-2.26,4.15v28.73c0,.78-.64,1.42-1.42,1.42h-10.27v.1c-.57,0-1.13,0-1.69,0v-.1h-10.28c-.78,0-1.42-.64-1.42-1.42v-28.73l-2.26-4.15h-8.58l-3.35,4.93v27.95c0,.78-.64,1.42-1.42,1.42h-13.01c-.78,0-1.42-.64-1.42-1.42v-32.67l-3.93-5.65h-11.68v53.99l7.26-7.43c.28-.29.66-.44,1.07-.43Zm65.95-36.19h7.01v19.63h-7.01v-19.63Zm-39.18,0h7.01v19.63h-7.01v-19.63Z"/><path class="cls-2" d="m875.83,317.72h17.66v-20.11c0-.78.64-1.42,1.42-1.42h1.42v-38.2l-5.66-32.76c-.01-.08-.02-.16-.02-.24v-1.93l-1.89-11.08h3.63l-3.63-6.78h-3.47l-2.52,6.62h3.31l-12.62,39.74v46.52h2.37v19.63Zm13.72-58.67h3.94v32.88h-3.94v-32.88Zm-6.86,0h3.94v32.88h-3.94v-32.88Zm-6.86,0h3.94v32.88h-3.94v-32.88Z"/><path class="cls-2" d="m945.07,485.73c-.77-1.76-5.99-12.74-16.32-14.69-10.34,1.95-15.55,12.93-16.32,14.69v43.71h32.64v-43.71Zm-17.86,40.87h-8.99v-29.33l4.49-5.68,4.49,5.68v29.33Zm-2.95-40.15l4.48-5.66,4.48,5.66-4.48,5.66-4.48-5.66Zm15.01,40.15h-8.99v-29.33l4.49-5.68,4.49,5.68v29.33Z"/><path class="cls-2" d="m912.42,568.12h32.64v-35.84h-32.64v35.84Zm26.92-8.49v5.65h-8.99v-5.65l4.49-5.68,4.49,5.68Zm-10.53-16.48l4.48,5.66-4.48,5.66-4.48-5.66,4.48-5.66Zm-10.53,16.48l4.49-5.68,4.49,5.68v5.65h-8.99v-5.65Z"/><path class="cls-2" d="m912.42,605.61h32.64v-34.66h-32.64v34.66Zm22.34-28.92h3.26v3.26h-3.26v-3.26Zm0,4.98h3.26v3.26h-3.26v-3.26Zm0,4.98h3.26v3.26h-3.26v-3.26Zm0,4.98h3.26v3.26h-3.26v-3.26Zm0,4.98h3.26v3.26h-3.26v-3.26Zm-5.1-19.93h3.26v3.26h-3.26v-3.26Zm0,4.98h3.26v3.26h-3.26v-3.26Zm0,4.98h3.26v3.26h-3.26v-3.26Zm0,4.98h3.26v3.26h-3.26v-3.26Zm0,4.98h3.26v3.26h-3.26v-3.26Zm-5.1-19.93h3.26v3.26h-3.26v-3.26Zm0,4.98h3.26v3.26h-3.26v-3.26Zm0,4.98h3.26v3.26h-3.26v-3.26Zm0,4.98h3.26v3.26h-3.26v-3.26Zm0,4.98h3.26v3.26h-3.26v-3.26Zm-5.1-19.93h3.26v3.26h-3.26v-3.26Zm0,4.98h3.26v3.26h-3.26v-3.26Zm0,4.98h3.26v3.26h-3.26v-3.26Zm0,4.98h3.26v3.26h-3.26v-3.26Zm0,4.98h3.26v3.26h-3.26v-3.26Z"/><path class="cls-2" d="m912.42,648.43h32.64v-32.64h-32.64v32.64Zm22.34-27.91h3.26v3.26h-3.26v-3.26Zm0,4.98h3.26v3.26h-3.26v-3.26Zm0,4.98h3.26v3.26h-3.26v-3.26Zm0,4.98h3.26v3.26h-3.26v-3.26Zm0,4.98h3.26v3.26h-3.26v-3.26Zm-5.1-19.93h3.26v3.26h-3.26v-3.26Zm0,4.98h3.26v3.26h-3.26v-3.26Zm0,4.98h3.26v3.26h-3.26v-3.26Zm0,4.98h3.26v3.26h-3.26v-3.26Zm0,4.98h3.26v3.26h-3.26v-3.26Zm-5.1-19.93h3.26v3.26h-3.26v-3.26Zm0,4.98h3.26v3.26h-3.26v-3.26Zm0,4.98h3.26v3.26h-3.26v-3.26Zm0,4.98h3.26v3.26h-3.26v-3.26Zm0,4.98h3.26v3.26h-3.26v-3.26Zm-5.1-19.93h3.26v3.26h-3.26v-3.26Zm0,4.98h3.26v3.26h-3.26v-3.26Zm0,4.98h3.26v3.26h-3.26v-3.26Zm0,4.98h3.26v3.26h-3.26v-3.26Zm0,4.98h3.26v3.26h-3.26v-3.26Z"/><path class="cls-2" d="m912.42,695.03h82.32v-36.43h-32.64v.68l-2.64-127h-11.75l-2.64,127v-.68h-32.64v36.43Zm72.02-29.81h3.26v3.26h-3.26v-3.26Zm0,4.98h3.26v3.26h-3.26v-3.26Zm0,4.98h3.26v3.26h-3.26v-3.26Zm0,4.98h3.26v3.26h-3.26v-3.26Zm0,4.98h3.26v3.26h-3.26v-3.26Zm-5.1-19.93h3.26v3.26h-3.26v-3.26Zm0,4.98h3.26v3.26h-3.26v-3.26Zm0,4.98h3.26v3.26h-3.26v-3.26Zm0,4.98h3.26v3.26h-3.26v-3.26Zm0,4.98h3.26v3.26h-3.26v-3.26Zm-5.1-19.93h3.26v3.26h-3.26v-3.26Zm0,4.98h3.26v3.26h-3.26v-3.26Zm0,4.98h3.26v3.26h-3.26v-3.26Zm0,4.98h3.26v3.26h-3.26v-3.26Zm0,4.98h3.26v3.26h-3.26v-3.26Zm-5.1-19.93h3.26v3.26h-3.26v-3.26Zm0,4.98h3.26v3.26h-3.26v-3.26Zm0,4.98h3.26v3.26h-3.26v-3.26Zm0,4.98h3.26v3.26h-3.26v-3.26Zm0,4.98h3.26v3.26h-3.26v-3.26Zm-34.38-19.93h3.26v3.26h-3.26v-3.26Zm0,4.98h3.26v3.26h-3.26v-3.26Zm0,4.98h3.26v3.26h-3.26v-3.26Zm0,4.98h3.26v3.26h-3.26v-3.26Zm0,4.98h3.26v3.26h-3.26v-3.26Zm-5.1-19.93h3.26v3.26h-3.26v-3.26Zm0,4.98h3.26v3.26h-3.26v-3.26Zm0,4.98h3.26v3.26h-3.26v-3.26Zm0,4.98h3.26v3.26h-3.26v-3.26Zm0,4.98h3.26v3.26h-3.26v-3.26Zm-5.1-19.93h3.26v3.26h-3.26v-3.26Zm0,4.98h3.26v3.26h-3.26v-3.26Zm0,4.98h3.26v3.26h-3.26v-3.26Zm0,4.98h3.26v3.26h-3.26v-3.26Zm0,4.98h3.26v3.26h-3.26v-3.26Zm-5.1-19.93h3.26v3.26h-3.26v-3.26Zm0,4.98h3.26v3.26h-3.26v-3.26Zm0,4.98h3.26v3.26h-3.26v-3.26Zm0,4.98h3.26v3.26h-3.26v-3.26Zm0,4.98h3.26v3.26h-3.26v-3.26Z"/><polygon class="cls-2" points="236.52 803.85 248.16 803.85 242.34 795.69 236.52 803.85"/><polygon class="cls-2" points="169.24 795.69 163.42 803.85 175.06 803.85 169.24 795.69"/><polygon class="cls-2" points="273.07 803.85 284.71 803.85 278.89 795.69 273.07 803.85"/><polygon class="cls-2" points="199.97 803.85 211.61 803.85 205.79 795.69 199.97 803.85"/><path class="cls-2" d="m138.96,831.28h201.94v-67.65h-179.39l-22.55,67.65Zm166.78-27.43h1.03l8.66-12.15,8.66,12.15h1.03v19.39h-19.39v-19.39Zm-36.55,0h1.03l8.66-12.15,8.66,12.15h1.03v19.39h-19.39v-19.39Zm-36.55,0h1.03l8.66-12.15,8.66,12.15h1.03v19.39h-19.39v-19.39Zm-36.55,0h1.03l8.66-12.15,8.66,12.15h1.03v19.39h-19.39v-19.39Zm-18.19,0h1.03v19.39h-19.39v-19.39h1.03l8.66-12.15,8.66,12.15Z"/><polygon class="cls-2" points="309.61 803.85 321.25 803.85 315.43 795.69 309.61 803.85"/><polygon class="cls-2" points="630.22 829.47 639.74 829.47 634.98 822.79 630.22 829.47"/><polygon class="cls-2" points="670.37 796.5 678.68 796.5 674.53 790.67 670.37 796.5"/><polygon class="cls-2" points="662.4 829.47 671.91 829.47 667.15 822.79 662.4 829.47"/><polygon class="cls-2" points="722.32 829.47 731.84 829.47 727.08 822.79 722.32 829.47"/><polygon class="cls-2" points="730.85 796.5 739.16 796.5 735.01 790.67 730.85 796.5"/><polygon class="cls-2" points="578.82 796.5 587.13 796.5 582.98 790.67 578.82 796.5"/><polygon class="cls-2" points="533.05 796.5 541.36 796.5 537.21 790.67 533.05 796.5"/><polygon class="cls-2" points="570.3 829.47 579.81 829.47 575.05 822.79 570.3 829.47"/><polygon class="cls-2" points="624.6 796.5 632.91 796.5 628.75 790.67 624.6 796.5"/><polygon class="cls-2" points="511.63 829.47 521.15 829.47 516.39 822.79 511.63 829.47"/><polygon class="cls-2" points="778.95 796.5 787.26 796.5 783.11 790.67 778.95 796.5"/><polygon class="cls-2" points="782.25 829.47 791.77 829.47 787.01 822.79 782.25 829.47"/><polygon class="cls-2" points="826.89 796.5 835.21 796.5 831.05 790.67 826.89 796.5"/><polygon class="cls-2" points="814.42 829.47 823.94 829.47 819.18 822.79 814.42 829.47"/><path class="cls-2" d="m767.14,787.29c-.15.64-.72,1.1-1.38,1.1h-13.88c-.78,0-1.42-.64-1.42-1.42v-22.08h-31.23l-5.24,22.4c-.15.64-.72,1.1-1.38,1.1h-13.88c-.78,0-1.42-.64-1.42-1.42v-21.61h-176.51v-49.99h-16.56v49.52h-2.25l-.24-.78v96.98h358.62v-95.73h-88.11l-5.13,21.93Zm-242.83,58.03h-15.85v-15.85h.84l7.08-9.94,7.08,9.94h.84v15.85Zm19.81-34.97h-13.85v-13.85h.74l6.19-8.68,6.19,8.68h.74v13.85Zm38.85,34.97h-15.85v-15.85h.84l7.08-9.94,7.08,9.94h.84v15.85Zm6.92-34.97h-13.85v-13.85h.74l6.19-8.68,6.19,8.68h.74v13.85Zm31.93-13.85h.74l6.19-8.68,6.19,8.68h.74v13.85h-13.85v-13.85Zm21.08,48.82h-15.85v-15.85h.84l7.08-9.94,7.08,9.94h.84v15.85Zm32.17,0h-15.85v-15.85h.84l7.08-9.94,7.08,9.94h.84v15.85Zm6.37-34.97h-13.85v-13.85h.74l6.19-8.68,6.19,8.68h.74v13.85Zm53.56,34.97h-15.85v-15.85h.84l7.08-9.94,7.08,9.94h.84v15.85Zm6.92-34.97h-13.85v-13.85h.74l6.19-8.68,6.19,8.68h.74v13.85Zm82.2-13.85h.74l6.19-8.68,6.19,8.68h.74v13.85h-13.85v-13.85Zm-12.87,32.97h.84l7.08-9.94,7.08,9.94h.84v15.85h-15.85v-15.85Zm-16.32,0v15.85h-15.85v-15.85h.84l7.08-9.94,7.08,9.94h.84Zm-18.75-32.97h.74l6.19-8.68,6.19,8.68h.74v13.85h-13.85v-13.85Z"/><path class="cls-2" d="m501.76,907.93h358.62v-44h-358.62v44Zm334.25-27.37l3.12-4.32,3.12,4.32v22.86h-6.23v-22.86Zm-9.3,0l3.12-4.32,3.12,4.32v22.86h-6.23v-22.86Zm-9.3,0l3.12-4.32,3.12,4.32v22.86h-6.23v-22.86Zm-32.1,0l3.12-4.32,3.12,4.32v22.86h-6.23v-22.86Zm-9.3,0l3.12-4.32,3.12,4.32v22.86h-6.23v-22.86Zm-9.3,0l3.12-4.32,3.12,4.32v22.86h-6.23v-22.86Zm-32.1,0l3.12-4.32,3.12,4.32v22.86h-6.23v-22.86Zm-9.3,0l3.12-4.32,3.12,4.32v22.86h-6.23v-22.86Zm-9.3,0l3.12-4.32,3.12,4.32v22.86h-6.23v-22.86Zm-32.1,0l3.12-4.32,3.12,4.32v22.86h-6.23v-22.86Zm-9.3,0l3.12-4.32,3.12,4.32v22.86h-6.23v-22.86Zm-9.3,0l3.12-4.32,3.12,4.32v22.86h-6.23v-22.86Zm-32.1,0l3.12-4.32,3.12,4.32v22.86h-6.23v-22.86Zm-9.3,0l3.12-4.32,3.12,4.32v22.86h-6.23v-22.86Zm-9.3,0l3.12-4.32,3.12,4.32v22.86h-6.23v-22.86Zm-32.1,0l3.12-4.32,3.12,4.32v22.86h-6.23v-22.86Zm-9.3,0l3.12-4.32,3.12,4.32v22.86h-6.23v-22.86Zm-9.3,0l3.12-4.32,3.12,4.32v22.86h-6.23v-22.86Zm-32.1,0l3.12-4.32,3.12,4.32v22.86h-6.23v-22.86Zm-9.3,0l3.12-4.32,3.12,4.32v22.86h-6.23v-22.86Zm-9.3,0l3.12-4.32,3.12,4.32v22.86h-6.24v-22.86Z"/><path class="cls-2" d="m28.65,886.16h85.79v-42.58H28.65v42.58Zm64.91-30.56l3.12-4.32,3.12,4.32v22.86h-6.23v-22.86Zm-9.3,0l3.12-4.32,3.12,4.32v22.86h-6.23v-22.86Zm-32.1,0l3.12-4.32,3.12,4.32v22.86h-6.23v-22.86Zm-9.3,0l3.12-4.32,3.12,4.32v22.86h-6.23v-22.86Z"/><path class="cls-2" d="m138.41,886.16h202.49v-52.04h-202.49v52.04Zm183.28-30.56l3.12-4.32,3.12,4.32v22.86h-6.24v-22.86Zm-9.3,0l3.12-4.32,3.12,4.32v22.86h-6.24v-22.86Zm-9.3,0l3.12-4.32,3.12,4.32v22.86h-6.23v-22.86Zm-32.1,0l3.12-4.32,3.12,4.32v22.86h-6.24v-22.86Zm-9.3,0l3.12-4.32,3.12,4.32v22.86h-6.23v-22.86Zm-9.3,0l3.12-4.32,3.12,4.32v22.86h-6.23v-22.86Zm-32.1,0l3.12-4.32,3.12,4.32v22.86h-6.23v-22.86Zm-9.3,0l3.12-4.32,3.12,4.32v22.86h-6.23v-22.86Zm-9.3,0l3.12-4.32,3.12,4.32v22.86h-6.23v-22.86Zm-32.1,0l3.12-4.32,3.12,4.32v22.86h-6.23v-22.86Zm-9.3,0l3.12-4.32,3.12,4.32v22.86h-6.23v-22.86Zm-9.3,0l3.12-4.32,3.12,4.32v22.86h-6.23v-22.86Z"/><path class="cls-2" d="m28.65,828.21h85.79v-57.48H28.65v57.48Zm69.48-20.77v16.52h-4.51v-16.52l2.25-3.13,2.25,3.13Zm-5.36-7.09l2.41,2.41-2.41,2.41-2.41-2.41,2.41-2.41Zm-5.86,7.09l2.25-3.13,2.25,3.13v16.52h-4.51v-16.52Zm-9.75,0v16.52h-4.51v-16.52l2.25-3.13,2.25,3.13Zm-5.36-7.09l2.41,2.41-2.41,2.41-2.41-2.41,2.41-2.41Zm-5.86,7.09l2.25-3.13,2.25,3.13v16.52h-4.51v-16.52Zm-9.75,0v16.52h-4.51v-16.52l2.25-3.13,2.25,3.13Zm-5.36-7.09l2.41,2.41-2.41,2.41-2.41-2.41,2.41-2.41Zm-5.86,7.09l2.25-3.13,2.25,3.13v16.52h-4.51v-16.52Z"/><path class="cls-2" d="m366.45,1023.82h72.54v-134.81h-72.54v134.81Zm64.69-48.88v29.35h-8v-29.35l4-5.55,4,5.55Zm-9.52-12.6l4.28,4.28-4.28,4.28-4.28-4.28,4.28-4.28Zm-10.42,12.6l4-5.55,4,5.55v29.35h-8v-29.35Zm-15.07,0v29.35h-8v-29.35l4-5.55,4,5.55Zm-9.52-12.6l4.28,4.28-4.28,4.28-4.28-4.28,4.28-4.28Zm-10.42,12.6l4-5.55,4,5.55v29.35h-8v-29.35Z"/><path class="cls-2" d="m366.45,828.21h72.54v-57.48h-72.54v57.48Zm62.86-20.77v16.52h-4.51v-16.52l2.25-3.13,2.25,3.13Zm-5.36-7.09l2.41,2.41-2.41,2.41-2.41-2.41,2.41-2.41Zm-5.86,7.09l2.25-3.13,2.25,3.13v16.52h-4.51v-16.52Zm-9.75,0v16.52h-4.51v-16.52l2.25-3.13,2.25,3.13Zm-5.36-7.09l2.41,2.41-2.41,2.41-2.41-2.41,2.41-2.41Zm-5.86,7.09l2.25-3.13,2.25,3.13v16.52h-4.51v-16.52Zm-9.75,0v16.52h-4.51v-16.52l2.25-3.13,2.25,3.13Zm-5.36-7.09l2.41,2.41-2.41,2.41-2.41-2.41,2.41-2.41Zm-5.86,7.09l2.25-3.13,2.25,3.13v16.52h-4.51v-16.52Z"/><path class="cls-2" d="m739.26,1046.08c0,.78-.64,1.42-1.42,1.42h-34.54c-.78,0-1.42-.64-1.42-1.42v-8.52h-200.13v31.23h358.62v-31.23h-121.12v8.52Z"/><path class="cls-2" d="m28.65,1021.47h85.79v-132.47H28.65v132.47Zm69.9-17.19h-8.01v-29.35l4-5.55,4,5.55v29.35Zm-13.44-90.21s1.26-8.83,6.15-11.35c4.89,2.52,6.15,11.35,6.15,11.35v23.34h-12.3v-23.34Zm3.91,48.26l4.28,4.28-4.28,4.28-4.28-4.28,4.28-4.28Zm-10.42,12.6l4-5.55,4,5.55v29.35h-8v-29.35Zm-13.21-60.86s1.26-8.83,6.15-11.35c4.89,2.52,6.15,11.35,6.15,11.35v23.34h-12.3v-23.34Zm-1.86,60.86v29.35h-8.01v-29.35l4-5.55,4,5.55Zm-9.52-4.03l-4.28-4.28,4.28-4.28,4.28,4.28-4.28,4.28Zm-8.33-56.83s1.26-8.83,6.15-11.35c4.89,2.52,6.15,11.35,6.15,11.35v23.34h-12.3v-23.34Zm-2.09,60.86l4-5.55,4,5.55v29.35h-8v-29.35Z"/><path class="cls-2" d="m138.41,1021.47h6.15v-17.03c0-.51.27-.98.72-1.23.44-.25.99-.25,1.42.01l8.5,5.02c1.42-1.68,4.77-4.54,11.4-5.13v-28.17l4-5.55,4,5.55v28.09h.53l3.4-3.97v-24.11l4-5.55,4,5.55v26.07l1.72,2.01h7.39c7.4.37,11.04,3.45,12.54,5.22l6.7-3.95h-3.29v-29.35l4-5.55,4,5.55v29.31l19.44,13.7c.37.26.59.68.6,1.13,0,.05.04,1.83.1,4.74h101.14v-134.81h-202.49v132.47Zm138.15-17.19h-8v-29.35l4-5.55,4,5.55v29.35Zm45.01,0h-8v-29.35l4-5.55,4,5.55v29.35Zm-7.71-90.21s1.26-8.83,6.15-11.35c4.89,2.52,6.15,11.35,6.15,11.35v23.34h-12.3v-23.34Zm-1.82,48.26l4.28,4.28-4.28,4.28-4.28-4.28,4.28-4.28Zm-2.41,12.6v29.35h-8v-29.35l4-5.55,4,5.55Zm-16.35-60.86s1.26-8.83,6.15-11.35c4.89,2.52,6.15,11.35,6.15,11.35v23.34h-12.3v-23.34Zm-26.02,0s1.26-8.83,6.15-11.35c4.89,2.52,6.15,11.35,6.15,11.35v23.34h-12.3v-23.34Zm-.22,48.26l4.28,4.28-4.28,4.28-4.28-4.28,4.28-4.28Zm-2.41,12.6v29.35h-8v-29.35l4-5.55,4,5.55Zm-17.94-60.86s1.26-8.83,6.15-11.35c4.89,2.52,6.15,11.35,6.15,11.35v23.34h-12.3v-23.34Zm-15.13,90.21h-8.01v-29.35l4-5.55,4,5.55v29.35Zm-10.89-90.21s1.26-8.83,6.15-11.35c4.89,2.52,6.15,11.35,6.15,11.35v23.34h-12.3v-23.34Zm1.37,48.26l4.28,4.28-4.28,4.28-4.28-4.28,4.28-4.28Zm-21.95-48.26s1.26-8.83,6.15-11.35c4.89,2.52,6.15,11.35,6.15,11.35v23.34h-12.3v-23.34Zm-26.02,0s1.26-8.83,6.15-11.35c4.89,2.52,6.15,11.35,6.15,11.35v23.34h-12.3v-23.34Zm2.97,48.26l4.28,4.28-4.28,4.28-4.28-4.28,4.28-4.28Zm-23.55-48.26s1.26-8.83,6.15-11.35c4.89,2.52,6.15,11.35,6.15,11.35v23.34h-12.3v-23.34Z"/><path class="cls-2" d="m501.76,1034.72h201.55c.78,0,1.42.64,1.42,1.42v8.52h31.7v-8.52c0-.78.64-1.42,1.42-1.42h122.54v-123.95h-358.62v123.95Zm271.36-9.46h-8v-29.35l4-5.55,4,5.55v29.35Zm45.01,0h-8.01v-29.35l4-5.55,4,5.55v29.35Zm10.71-90.09s1.26-8.83,6.15-11.35c4.89,2.52,6.15,11.35,6.15,11.35v23.34h-12.3v-23.34Zm1.23,60.74v29.35h-8.01v-29.35l4-5.55,4,5.55Zm-9.52-4.03l-4.28-4.28,4.28-4.28,4.28,4.28-4.28,4.28Zm-12.28-56.7s1.26-8.83,6.15-11.35c4.89,2.52,6.15,11.35,6.15,11.35v23.34h-12.3v-23.34Zm-26.02,0s1.26-8.83,6.15-11.35c4.89,2.52,6.15,11.35,6.15,11.35v23.34h-12.3v-23.34Zm2.82,60.74v29.35h-8v-29.35l4-5.55,4,5.55Zm-5.24-8.32l-4.28,4.28-4.28-4.28,4.28-4.28,4.28,4.28Zm-18.16-52.42s1.26-8.83,6.15-11.35c4.89,2.52,6.15,11.35,6.15,11.35v23.34h-12.3v-23.34Zm-35.48,88.64h6.62v16.74h-6.62v-16.74Zm-9.15,0h6.62v16.74h-6.62v-16.74Zm-9.15,0h6.62v16.74h-6.62v-16.74Zm-179.01,1.44h-8v-29.35l4-5.55,4,5.55v29.35Zm11.94,0h-8v-29.35l4-5.55,4,5.55v29.35Zm33.07,0h-8.01v-29.35l4-5.55,4,5.55v29.35Zm45.01,0h-8v-29.35l4-5.55,4,5.55v29.35Zm45.01,0h-8.01v-29.35l4-5.55,4,5.55v29.35Zm12.21-90.09s1.26-8.83,6.15-11.35c4.89,2.52,6.15,11.35,6.15,11.35v23.34h-12.3v-23.34Zm-.27,60.74v29.35h-8.01v-29.35l4-5.55,4,5.55Zm-9.52-4.03l-4.28-4.28,4.28-4.28,4.28,4.28-4.28,4.28Zm-10.79-56.7s1.26-8.83,6.15-11.35c4.89,2.52,6.15,11.35,6.15,11.35v23.34h-12.3v-23.34Zm-26.02,0s1.26-8.83,6.15-11.35c4.89,2.52,6.15,11.35,6.15,11.35v23.34h-12.3v-23.34Zm1.32,60.74v29.35h-8v-29.35l4-5.55,4,5.55Zm-5.24-8.32l-4.28,4.28-4.28-4.28,4.28-4.28,4.28,4.28Zm-16.66-52.42s1.26-8.83,6.15-11.35c4.89,2.52,6.15,11.35,6.15,11.35v23.34h-12.3v-23.34Zm-26.02,0s1.26-8.83,6.15-11.35c4.89,2.52,6.15,11.35,6.15,11.35v23.34h-12.3v-23.34Zm2.92,60.74v29.35h-8.01v-29.35l4-5.55,4,5.55Zm-5.24-8.32l-4.28,4.28-4.28-4.28,4.28-4.28,4.28,4.28Zm-18.26-52.42s1.26-8.83,6.15-11.35c4.89,2.52,6.15,11.35,6.15,11.35v23.34h-12.3v-23.34Zm-26.02,0s1.26-8.83,6.15-11.35c4.89,2.52,6.15,11.35,6.15,11.35v23.34h-12.3v-23.34Zm-.73,52.42l-4.28,4.28-4.28-4.28,4.28-4.28,4.28,4.28Zm-19.85-52.42s1.26-8.83,6.15-11.35c4.89,2.52,6.15,11.35,6.15,11.35v23.34h-12.3v-23.34Z"/><path class="cls-2" d="m147.4,1068.78h18.17v-26.02s4.49-10.1,15.22-13.46v-.26c.15.04.29.09.43.13.14-.04.29-.09.43-.13v.26c10.73,3.37,15.22,13.46,15.22,13.46v26.02h19.12v-48.73h-68.6v48.73Z"/><polygon class="cls-2" points="81.02 723.48 87.62 723.48 84.36 719.35 81.02 723.48"/><path class="cls-2" d="m28.65,738.24v10.41h85.79v-83.66h-51.96l-33.83,73.25Zm51.26-14.75l4.45-5.75,4.45,5.75v9.39h-8.9v-9.39Zm-11.44,0v9.39h-8.9v-9.39l4.45-5.75,4.45,5.75Z"/><polygon class="cls-2" points="64.02 719.35 60.68 723.48 67.27 723.48 64.02 719.35"/><polygon class="cls-2" points="403.83 724.19 410.43 724.19 407.17 720.06 403.83 724.19"/><polygon class="cls-2" points="424.18 724.19 430.78 724.19 427.52 720.06 424.18 724.19"/><polygon class="cls-2" points="368.11 700.47 366.45 700.47 366.45 763.2 385.61 700.47 368.11 700.47"/><polygon class="cls-2" points="483.87 648.19 465.33 648.19 465.33 689.66 480.04 753.86 498.92 762.02 498.92 754.76 483.87 705.22 483.87 648.19"/><path class="cls-2" d="m462.49,689.82v-22.04l-11.06-7.34,16.25,92.41c.14.77-.38,1.51-1.15,1.64-.08.01-.17.02-.25.02-.68,0-1.27-.48-1.4-1.17l-.98-5.57v20.57l35.01,14v-17.24l-21.33-9.21-15.1-66.07Z"/><path class="cls-2" d="m401.01,659.78l-33.02,108.11h71.01v-31.38c0-.78.64-1.42,1.42-1.42h21.27l-13.24-75.3h-47.43Zm10.62,73.81h-8.9v-9.39l4.45-5.75,4.45,5.75v9.39Zm20.34,0h-8.9v-9.39l4.45-5.75,4.45,5.75v9.39Z"/><rect class="cls-2" x="1762.6" y="1024.31" width="6.15" height="44.47"/><rect class="cls-2" x="1881.35" y="889" width="25.31" height="132.47"/><rect class="cls-2" x="1771.59" y="1024.31" width="18.29" height="44.47"/><rect class="cls-2" x="1792.72" y="1024.31" width="85.79" height="44.47"/><rect class="cls-2" x="1543.55" y="770.73" width="19.87" height="57.48"/><path class="cls-2" d="m1039.65,372.48l-7.73-13.2h-.59v-1.01l-1.83-3.12-10.36,17.34c-.26.43-.72.69-1.22.69h-4.26v72.99h30.28v-72.99h-3.08c-.5,0-.97-.27-1.22-.7Z"/><rect class="cls-2" x="1881.35" y="831.05" width="25.31" height="9.7"/><polygon class="cls-2" points="1771.59 828.21 1789.89 828.21 1789.89 769.31 1789.89 739.5 1771.59 739.5 1771.59 828.21"/><path class="cls-2" d="m997.32,819.69h10.67v-65.29h-108.82v65.29h10.67c1.32-5.98,8.56-33.3,32.98-52.51l-.04,1.68,1.08,1.08c-25.91,20.83-31.4,51.03-31.46,51.4-.12.68-.71,1.18-1.4,1.18h-11.83v4.49h15.9c1.45-5.97,9.27-34,32.08-53.79l.44.44-5.01,5.01-.06,2.91c-19.46,20.83-24.86,46.78-24.92,47.12-.13.66-.71,1.14-1.39,1.14h-17.03v44.24h108.82v-44.24h-17.03c-.68,0-1.26-.48-1.39-1.14-.07-.34-5.47-26.3-24.92-47.12l-.06-2.91-5.01-5.01.44-.44c22.81,19.78,30.64,47.81,32.08,53.79h15.9v-4.49h-11.83c-.69,0-1.28-.5-1.4-1.18-.06-.38-5.56-30.58-31.46-51.4l1.08-1.08-.04-1.68c24.42,19.21,31.65,46.53,32.98,52.51Zm-56.6,48.65h-4.22v-55.67l4.31-3.31,1.12.86-1.21,58.12Zm1.37-65.71l-3.51,3.51-5.13-5.13,5.13-5.13,3.58,3.58-.07,3.17Zm2.59-8.23l-2.92-2.92,2.92-2.92,2.92,2.92-2.92,2.92Zm8.91-34.43c.96.54,1.89,1.1,2.8,1.66-.96.52-1.89,1.05-2.8,1.59-.92-.54-1.85-1.07-2.8-1.59.92-.57,1.85-1.12,2.8-1.66Zm2.39,9.98c-.81.56-1.61,1.14-2.39,1.72-.78-.58-1.58-1.16-2.39-1.72.78-.6,1.58-1.18,2.39-1.75.81.57,1.61,1.16,2.39,1.75Zm-2.39,9.71l2.95,2.95-2.95,2.95-2.95-2.95,2.95-2.95Zm-6.36-12.27c-.87-.52-1.75-1.04-2.65-1.54.82-.61,1.65-1.22,2.51-1.81.9.52,1.8,1.04,2.67,1.59-.86.57-1.7,1.16-2.53,1.76Zm10.52,72.25v28.7h-8.31v-69.74l4.15-3.19,4.15,3.19v41.04Zm12.93,28.7h-4.22l-1.21-58.12,1.12-.86,4.31,3.31v55.67Zm3.06-67.33l-5.13,5.13-3.51-3.51-.07-3.17,3.58-3.58,5.13,5.13Zm-11.24-12.44l2.92,2.92-2.92,2.92-2.92-2.92,2.92-2.92Zm-2.54-21.18c-.82-.6-1.67-1.18-2.53-1.76.87-.54,1.77-1.07,2.67-1.59.86.59,1.69,1.2,2.51,1.81-.9.5-1.78,1.01-2.65,1.54Z"/><rect class="cls-2" x="1446.09" y="770.73" width="19.24" height="57.48"/><path class="cls-2" d="m1010.83,978.42h2.2l10.96-21.92c.22-.44.65-.74,1.14-.78.49-.04.97.17,1.26.57l9.7,13.01c.18.24.28.54.28.85v35.25h7.57v-94.62h-33.12v67.65Z"/><rect class="cls-2" x="1543.55" y="1026.66" width="19.87" height="42.13"/><path class="cls-2" d="m1566.26,1068.78h100.62c-.03-4.58,0-10.71.09-19,.1-8.61.25-17.22.37-23.13h-101.09v42.13Z"/><polygon class="cls-2" points="1408.24 1068.78 1443.25 1068.78 1443.25 771.4 1408.24 785.41 1408.24 1068.78"/><rect class="cls-2" x="1446.09" y="1026.66" width="19.24" height="42.13"/><rect class="cls-2" x="1468.17" y="1026.66" width="72.54" height="42.13"/><rect class="cls-2" x="1792.72" y="831.05" width="85.79" height="9.7"/><rect class="cls-2" x="1881.35" y="843.58" width="25.31" height="42.58"/><rect class="cls-2" x="1543.55" y="738.32" width="19.87" height="29.57"/><rect class="cls-2" x="1468.17" y="843.58" width="72.54" height="42.58"/><polygon class="cls-2" points="1543.55 886.16 1556.73 886.16 1563.42 886.16 1563.42 843.58 1543.55 843.58 1543.55 886.16"/><path class="cls-2" d="m1751.17,1011.48c-.38-.11-.69-.37-.87-.71-.02-.04-2.41-4.48-10.88-4.91h-8.04c-.41,0-.81-.18-1.08-.5l-4.84-5.64-4.84,5.64c-.27.31-.66.5-1.08.5h-7.97c-8.42.42-10.86,4.74-10.95,4.91-.18.35-.49.61-.87.71-.38.11-.78.06-1.11-.14l-7.48-4.41v10.29h68.6v-10.29l-7.48,4.41c-.34.2-.74.25-1.11.14Z"/><path class="cls-2" d="m1670.21,1025.22s0,.01,0,.02c0,.01,0,.02,0,.03-.3,14.27-.55,31.92-.48,43.52h18.6v-61.61l-18,12.68c-.04,1.71-.08,3.51-.12,5.36Z"/><path class="cls-2" d="m1033.54,1006.81v-36.19l-8.04-10.79-10.32,20.65c-.24.48-.73.78-1.27.78h-8.04c-.43,0-.84-.19-1.11-.53l-36.93-45.98-.1-4.65,38.81,48.32h1.45v-67.65h-40.66l-.06-2.84h40.72v-30.99h-108.82v30.99h40.72l-.06,2.84h-40.66v67.65h1.45l38.81-48.32-.1,4.65-36.93,45.98c-.27.34-.68.53-1.11.53h-8.04c-.54,0-1.03-.3-1.27-.78l-10.32-20.65-8.04,10.79v36.19c0,.78-.64,1.42-1.42,1.42h-8.99v20.82h40.69v-23.42c0-.15.02-.3.07-.45.14-.41,10.37-30.39,34.96-51.04l-.08,3.81c-21.57,19.11-31.19,45.3-32.11,47.92v24.6c0,.78-.64,1.42-1.42,1.42h-42.11v36.9h180.73v-36.9h-42.11c-.78,0-1.42-.64-1.42-1.42v-24.6c-.92-2.62-10.54-28.81-32.11-47.92l-.08-3.81c24.59,20.65,34.82,50.64,34.96,51.04.05.14.07.3.07.45v23.42h40.69v-20.82h-8.99c-.78,0-1.42-.64-1.42-1.42Zm-83.61-98.88l.04.05c.11-.03.23-.05.35-.05h6.53c.12,0,.24.02.35.05l.04-.05h3.64l-2.28,2.84h-10.04l-2.28-2.84h3.64Zm3.66,36.22c1,.54,1.98,1.09,2.95,1.66-1,.51-1.98,1.03-2.95,1.58-.97-.54-1.95-1.07-2.95-1.58.97-.57,1.95-1.13,2.95-1.66Zm-1.82-29.4l1.82-2.27,1.82,2.27-1.82,2.27-1.82-2.27Zm26.58,93.64v43.53h-49.52v-43.53s4.19-18.92,24.76-36.08c20.57,17.16,24.76,36.08,24.76,36.08Z"/><rect class="cls-2" x="1792.72" y="751.49" width="85.79" height="16.4"/><rect class="cls-2" x="1881.35" y="770.73" width="25.31" height="57.48"/><rect class="cls-2" x="1771.59" y="889" width="18.29" height="132.47"/><polygon class="cls-2" points="1543.55 889 1543.55 1023.82 1563.42 1023.82 1563.42 889 1556.73 889 1543.55 889"/><rect class="cls-2" x="1446.09" y="889" width="19.24" height="134.81"/><rect class="cls-2" x="1446.09" y="737.92" width="19.24" height="29.96"/><rect class="cls-2" x="1771.59" y="843.58" width="18.29" height="42.58"/><rect class="cls-2" x="1446.09" y="831.05" width="19.24" height="9.7"/><rect class="cls-2" x="1468.17" y="831.05" width="72.54" height="9.7"/><rect class="cls-2" x="1446.09" y="843.58" width="19.24" height="42.58"/><polygon class="cls-2" points="1771.59 832.7 1771.59 840.75 1789.89 840.75 1789.89 831.05 1771.59 831.05 1771.59 832.7"/><rect class="cls-2" x="1543.55" y="831.05" width="19.87" height="9.7"/><path class="cls-2" d="m1010.83,695.03h6.44l8.6-17.88c.24-.5.77-.83,1.31-.8.56.01,1.05.35,1.27.86l7.67,17.83h7.82v-162.75h-33.12v162.75Z"/><polygon class="cls-2" points="1117.13 752.61 1102.73 708.27 1087.95 708.27 1073.17 708.27 1058.76 752.61 1058.76 762.52 1117.13 762.52 1117.13 752.61"/><rect class="cls-2" x="1013.67" y="320.56" width="17.66" height="10.41"/><polygon class="cls-2" points="1010.83 320.56 955.05 320.56 952.11 320.56 896.34 320.56 896.34 330.97 951.89 330.97 955.27 330.97 1010.83 330.97 1010.83 320.56"/><polygon class="cls-2" points="1365.99 752.61 1351.58 708.27 1336.8 708.27 1322.02 708.27 1307.61 752.61 1307.61 762.52 1365.99 762.52 1365.99 752.61"/><path class="cls-2" d="m1769.94,696.92h-7.81l-14.67,10.17v52.99l.24.73c.67.12,1.18.69,1.18,1.39,0,.38-.15.72-.39.97l20.26,60.78v-85.88c0-.78.64-1.42,1.42-1.42h19.71v-71.68h-9.78l-10.17,31.94Z"/><rect class="cls-2" x="1881.35" y="739.26" width="25.31" height="28.62"/><rect class="cls-2" x="1881.35" y="1024.31" width="25.31" height="44.47"/><polygon class="cls-2" points="1207.01 785.55 1207.01 712.53 1190.61 712.53 1190.61 763.87 1195.68 785.55 1207.01 785.55"/><rect class="cls-2" x="1010.83" y="822.53" width="33.12" height="4.49"/><polygon class="cls-2" points="1153.87 785.55 1153.87 764.89 1153.71 764.89 1153.71 712.53 1137.15 712.53 1137.15 762.52 1137.15 762.53 1142.53 785.55 1153.87 785.55"/><polygon class="cls-2" points="1714.35 752.61 1699.94 708.27 1685.16 708.27 1670.38 708.27 1655.97 752.61 1655.97 760.79 1714.35 760.79 1714.35 752.61"/><path class="cls-2" d="m1007.99,697.87h-25.62l6.19,12.38c.1.2.15.42.15.63v12.54h19.28v-25.55Z"/><rect class="cls-2" x="962.1" y="608.45" width="32.64" height="4.49"/><rect class="cls-2" x="962.1" y="651.26" width="32.64" height="4.49"/><rect class="cls-2" x="1010.83" y="829.86" width="33.12" height="44.24"/><rect class="cls-2" x="997.58" y="532.28" width="10.41" height="162.75"/><path class="cls-2" d="m1033.89,697.01l-6.81-15.83-7.64,15.88c-.24.49-.73.8-1.28.8h-7.33v38.8h33.12v-38.8h-8.75c-.57,0-1.08-.34-1.3-.86Z"/><rect class="cls-2" x="1010.83" y="739.5" width="33.12" height="12.06"/><path class="cls-2" d="m1007.99,494.19c0-.26.07-.51.2-.73l2.64-4.39v-32.96h-114.49v32.96l2.64,4.39c.13.22.2.47.2.73v35.25h10.41v-44c0-.18.03-.36.1-.52.23-.59,5.86-14.42,18.73-16.71,0,0,.01,0,.02,0,.02,0,.04,0,.07-.01.03,0,.05,0,.08,0,.06,0,.11-.01.17-.01.04,0,.09,0,.13,0,.04,0,.07,0,.11,0,12.94,2.24,18.58,16.13,18.82,16.73.07.17.1.34.1.52v37.33l-.14,6.66h11.63l-.14-6.66v-37.33c0-.18.03-.36.1-.52.23-.59,5.88-14.49,18.82-16.73.04,0,.07,0,.11,0,.04,0,.08,0,.13,0,.06,0,.11,0,.17.01.03,0,.05,0,.08,0,.02,0,.04,0,.07.01,0,0,.01,0,.02,0,12.87,2.29,18.5,16.12,18.73,16.71.07.17.1.34.1.52v44h10.41v-35.25Z"/><polygon class="cls-2" points="1010.83 441.2 957.56 441.2 949.6 441.2 896.34 441.2 896.34 453.27 949.35 453.27 957.81 453.27 1010.83 453.27 1010.83 441.2"/><rect class="cls-2" x="1010.83" y="876.94" width="33.12" height="30.99"/><path class="cls-2" d="m1013.67,370.34h3.45l11.18-18.71c.26-.43.72-.69,1.22-.69h0c.5,0,.97.27,1.22.7l.59,1.01v-18.84h-17.66v36.53Z"/><polygon class="cls-2" points="1035.21 359.28 1041.68 370.34 1043.95 370.34 1043.95 359.28 1038.43 359.28 1035.21 359.28"/><path class="cls-2" d="m1037.75,493.73l-10.14-17.33-10.36,17.34c-.26.43-.72.69-1.22.69h-5.11l-.09.16v34.85h33.12v-35.01h-4.97c-.5,0-.97-.27-1.22-.7Z"/><path class="cls-2" d="m1013.67,489.46c0,.26-.07.51-.2.73l-.84,1.4h2.6l11.18-18.71c.26-.43.72-.69,1.22-.69h0c.5,0,.97.27,1.22.7l10.94,18.7h4.15v-42.58h-30.28v40.45Z"/><rect class="cls-2" x="1010.83" y="754.4" width="33.12" height="65.29"/><polygon class="cls-2" points="1007.99 739.5 963.77 739.5 943.4 739.5 899.17 739.5 899.17 751.56 943.15 751.56 964.02 751.56 1007.99 751.56 1007.99 739.5"/><path class="cls-2" d="m1016.51,223.07v1.93c0,.08,0,.16-.02.24l-5.66,32.76v38.2h1.42c.78,0,1.42.64,1.42,1.42v20.11h17.66v-19.63h2.37v-46.52l-12.62-39.74h3.31l-2.52-6.62h-3.47l-3.63,6.78h3.63l-1.89,11.08Zm1.1,68.87h-3.94v-32.88h3.94v32.88Zm9.78-32.88h3.94v32.88h-3.94v-32.88Zm-6.86,0h3.94v32.88h-3.94v-32.88Z"/><path class="cls-2" d="m1010.83,333.81h-114.49v37.6c.03.11.05.23.05.35s-.02.24-.05.35v66.25h114.49v-66.25c-.03-.11-.05-.23-.05-.35s.02-.24.05-.35v-37.6Zm-88,91.31h-10.41v-48.97l5.2-7.81,5.2,7.81v48.97Zm24.3,0h-10.41v-48.97l5.2-7.81,5.2,7.81v48.97Zm23.31,0h-10.41v-48.97l5.2-7.81,5.2,7.81v48.97Zm24.3,0h-10.41v-48.97l5.2-7.81,5.2,7.81v48.97Z"/><path class="cls-2" d="m994.74,485.73c-.77-1.76-5.99-12.74-16.32-14.69-10.34,1.95-15.55,12.93-16.32,14.69v43.71h32.64v-43.71Zm-17.86,40.87h-8.99v-29.33l4.49-5.68,4.49,5.68v29.33Zm-2.95-40.15l4.48-5.66,4.48,5.66-4.48,5.66-4.48-5.66Zm15.01,40.15h-8.99v-29.33l4.49-5.68,4.49,5.68v29.33Z"/><path class="cls-2" d="m962.1,568.12h32.64v-35.84h-32.64v35.84Zm26.78-8.49v5.65h-8.99v-5.65l4.49-5.68,4.49,5.68Zm-10.53-16.48l4.48,5.66-4.48,5.66-4.48-5.66,4.48-5.66Zm-10.53,16.48l4.49-5.68,4.49,5.68v5.65h-8.99v-5.65Z"/><path class="cls-2" d="m962.1,605.61h32.64v-34.66h-32.64v34.66Zm22.34-28.92h3.26v3.26h-3.26v-3.26Zm0,4.98h3.26v3.26h-3.26v-3.26Zm0,4.98h3.26v3.26h-3.26v-3.26Zm0,4.98h3.26v3.26h-3.26v-3.26Zm0,4.98h3.26v3.26h-3.26v-3.26Zm-5.1-19.93h3.26v3.26h-3.26v-3.26Zm0,4.98h3.26v3.26h-3.26v-3.26Zm0,4.98h3.26v3.26h-3.26v-3.26Zm0,4.98h3.26v3.26h-3.26v-3.26Zm0,4.98h3.26v3.26h-3.26v-3.26Zm-5.1-19.93h3.26v3.26h-3.26v-3.26Zm0,4.98h3.26v3.26h-3.26v-3.26Zm0,4.98h3.26v3.26h-3.26v-3.26Zm0,4.98h3.26v3.26h-3.26v-3.26Zm0,4.98h3.26v3.26h-3.26v-3.26Zm-5.1-19.93h3.26v3.26h-3.26v-3.26Zm0,4.98h3.26v3.26h-3.26v-3.26Zm0,4.98h3.26v3.26h-3.26v-3.26Zm0,4.98h3.26v3.26h-3.26v-3.26Zm0,4.98h3.26v3.26h-3.26v-3.26Z"/><path class="cls-2" d="m962.1,648.43h32.64v-32.64h-32.64v32.64Zm22.34-27.91h3.26v3.26h-3.26v-3.26Zm0,4.98h3.26v3.26h-3.26v-3.26Zm0,4.98h3.26v3.26h-3.26v-3.26Zm0,4.98h3.26v3.26h-3.26v-3.26Zm0,4.98h3.26v3.26h-3.26v-3.26Zm-5.1-19.93h3.26v3.26h-3.26v-3.26Zm0,4.98h3.26v3.26h-3.26v-3.26Zm0,4.98h3.26v3.26h-3.26v-3.26Zm0,4.98h3.26v3.26h-3.26v-3.26Zm0,4.98h3.26v3.26h-3.26v-3.26Zm-5.1-19.93h3.26v3.26h-3.26v-3.26Zm0,4.98h3.26v3.26h-3.26v-3.26Zm0,4.98h3.26v3.26h-3.26v-3.26Zm0,4.98h3.26v3.26h-3.26v-3.26Zm0,4.98h3.26v3.26h-3.26v-3.26Zm-5.1-19.93h3.26v3.26h-3.26v-3.26Zm0,4.98h3.26v3.26h-3.26v-3.26Zm0,4.98h3.26v3.26h-3.26v-3.26Zm0,4.98h3.26v3.26h-3.26v-3.26Zm0,4.98h3.26v3.26h-3.26v-3.26Z"/><path class="cls-2" d="m1007.99,726.25h-20.7c-.78,0-1.42-.64-1.42-1.42v-13.62l-6.67-13.35h-15.04l-1.21,2.41-.05-2.41h-18.64l-.05,2.41-1.21-2.41h-15.04l-6.67,13.35v13.62c0,.78-.64,1.42-1.42,1.42h-20.7v10.41h108.82v-10.41Zm-66.08,4.42h-13.17v-20.03h13.17v20.03Zm15.57-5.83c0,.78-.64,1.42-1.42,1.42h-4.97c-.78,0-1.42-.64-1.42-1.42v-1.42h7.81v1.42Zm20.94,5.83h-13.17v-20.03h13.17v20.03Z"/><polygon class="cls-2" points="1659.01 803.85 1670.65 803.85 1664.83 795.69 1659.01 803.85"/><polygon class="cls-2" points="1732.1 803.85 1743.74 803.85 1737.92 795.69 1732.1 803.85"/><polygon class="cls-2" points="1622.46 803.85 1634.1 803.85 1628.28 795.69 1622.46 803.85"/><polygon class="cls-2" points="1695.55 803.85 1707.19 803.85 1701.37 795.69 1695.55 803.85"/><path class="cls-2" d="m1745.65,763.63h-179.39v67.65h201.94l-22.55-67.65Zm-144.23,59.61h-19.39v-19.39h1.03l8.66-12.15,8.66,12.15h1.03v19.39Zm36.55,0h-19.39v-19.39h1.03l8.66-12.15,8.66,12.15h1.03v19.39Zm36.55,0h-19.39v-19.39h1.03l8.66-12.15,8.66,12.15h1.03v19.39Zm36.55,0h-19.39v-19.39h1.03l8.66-12.15,8.66,12.15h1.03v19.39Zm17.16,0v-19.39h1.03l8.66-12.15,8.66,12.15h1.03v19.39h-19.39Z"/><polygon class="cls-2" points="1585.91 803.85 1597.55 803.85 1591.73 795.69 1585.91 803.85"/><polygon class="cls-2" points="1267.43 829.47 1276.94 829.47 1272.18 822.79 1267.43 829.47"/><polygon class="cls-2" points="1228.48 796.5 1236.8 796.5 1232.64 790.67 1228.48 796.5"/><polygon class="cls-2" points="1235.25 829.47 1244.77 829.47 1240.01 822.79 1235.25 829.47"/><polygon class="cls-2" points="1175.33 829.47 1184.84 829.47 1180.08 822.79 1175.33 829.47"/><polygon class="cls-2" points="1168 796.5 1176.32 796.5 1172.16 790.67 1168 796.5"/><polygon class="cls-2" points="1320.03 796.5 1328.34 796.5 1324.19 790.67 1320.03 796.5"/><polygon class="cls-2" points="1365.8 796.5 1374.12 796.5 1369.96 790.67 1365.8 796.5"/><polygon class="cls-2" points="1327.35 829.47 1336.87 829.47 1332.11 822.79 1327.35 829.47"/><polygon class="cls-2" points="1274.26 796.5 1282.57 796.5 1278.41 790.67 1274.26 796.5"/><polygon class="cls-2" points="1386.02 829.47 1395.53 829.47 1390.78 822.79 1386.02 829.47"/><polygon class="cls-2" points="1119.9 796.5 1128.21 796.5 1124.06 790.67 1119.9 796.5"/><polygon class="cls-2" points="1115.4 829.47 1124.91 829.47 1120.16 822.79 1115.4 829.47"/><polygon class="cls-2" points="1071.96 796.5 1080.27 796.5 1076.12 790.67 1071.96 796.5"/><polygon class="cls-2" points="1083.23 829.47 1092.74 829.47 1087.99 822.79 1083.23 829.47"/><path class="cls-2" d="m1402.92,764.89v-49.52h-16.56v49.99h-176.51v21.61c0,.78-.64,1.42-1.42,1.42h-13.88c-.66,0-1.23-.45-1.38-1.1l-5.24-22.4h-31.23v22.08c0,.78-.64,1.42-1.42,1.42h-13.88c-.66,0-1.23-.45-1.38-1.1l-5.13-21.93h-88.11v95.73h358.62v-96.98l-.24.78h-2.25Zm-333.73,31.61h.74l6.19-8.68,6.19,8.68h.74v13.85h-13.85v-13.85Zm26.72,48.82h-15.85v-15.85h.84l7.08-9.94,7.08,9.94h.84v15.85Zm32.17,0h-15.85v-15.85h.84l7.08-9.94,7.08,9.94h.84v15.85Zm2.9-34.97h-13.85v-13.85h.74l6.19-8.68,6.19,8.68h.74v13.85Zm34.26-13.85h.74l6.19-8.68,6.19,8.68h.74v13.85h-13.84v-13.85Zm22.77,48.82h-15.85v-15.85h.84l7.08-9.94,7.08,9.94h.84v15.85Zm37.71-48.82h.74l6.19-8.68,6.19,8.68h.74v13.85h-13.85v-13.85Zm22.22,48.82h-15.85v-15.85h.84l7.08-9.94,7.08,9.94h.84v15.85Zm32.17,0h-15.85v-15.85h.84l7.08-9.94,7.08,9.94h.84v15.85Zm5.23-34.97h-13.85v-13.85h.74l6.19-8.68,6.19,8.68h.74v13.85Zm31.93-13.85h.74l6.19-8.68,6.19,8.68h.74v13.85h-13.85v-13.85Zm22.77,48.82h-15.85v-15.85h.84l7.08-9.94,7.08,9.94h.84v15.85Zm36.85-34.97h-13.85v-13.85h.74l6.19-8.68,6.19,8.68h.74v13.85Zm21.82,34.97h-15.85v-15.85h.84l7.08-9.94,7.08,9.94h.84v15.85Z"/><path class="cls-2" d="m1046.79,907.93h358.62v-44h-358.62v44Zm340.91-27.37l3.12-4.32,3.12,4.32v22.86h-6.24v-22.86Zm-9.3,0l3.12-4.32,3.12,4.32v22.86h-6.23v-22.86Zm-9.3,0l3.12-4.32,3.12,4.32v22.86h-6.23v-22.86Zm-32.1,0l3.12-4.32,3.12,4.32v22.86h-6.23v-22.86Zm-9.3,0l3.12-4.32,3.12,4.32v22.86h-6.23v-22.86Zm-9.3,0l3.12-4.32,3.12,4.32v22.86h-6.23v-22.86Zm-32.1,0l3.12-4.32,3.12,4.32v22.86h-6.23v-22.86Zm-9.3,0l3.12-4.32,3.12,4.32v22.86h-6.23v-22.86Zm-9.3,0l3.12-4.32,3.12,4.32v22.86h-6.23v-22.86Zm-32.1,0l3.12-4.32,3.12,4.32v22.86h-6.23v-22.86Zm-9.3,0l3.12-4.32,3.12,4.32v22.86h-6.23v-22.86Zm-9.3,0l3.12-4.32,3.12,4.32v22.86h-6.23v-22.86Zm-32.1,0l3.12-4.32,3.12,4.32v22.86h-6.23v-22.86Zm-9.3,0l3.12-4.32,3.12,4.32v22.86h-6.23v-22.86Zm-9.3,0l3.12-4.32,3.12,4.32v22.86h-6.23v-22.86Zm-32.1,0l3.12-4.32,3.12,4.32v22.86h-6.23v-22.86Zm-9.3,0l3.12-4.32,3.12,4.32v22.86h-6.23v-22.86Zm-9.3,0l3.12-4.32,3.12,4.32v22.86h-6.23v-22.86Zm-32.1,0l3.12-4.32,3.12,4.32v22.86h-6.23v-22.86Zm-9.3,0l3.12-4.32,3.12,4.32v22.86h-6.23v-22.86Zm-9.3,0l3.12-4.32,3.12,4.32v22.86h-6.23v-22.86Z"/><path class="cls-2" d="m1792.72,886.16h85.79v-42.58h-85.79v42.58Zm65.35-30.56l3.12-4.32,3.12,4.32v22.86h-6.23v-22.86Zm-9.3,0l3.12-4.32,3.12,4.32v22.86h-6.23v-22.86Zm-32.1,0l3.12-4.32,3.12,4.32v22.86h-6.23v-22.86Zm-9.3,0l3.12-4.32,3.12,4.32v22.86h-6.23v-22.86Z"/><path class="cls-2" d="m1566.26,886.16h202.49v-52.04h-202.49v52.04Zm183.66-30.56l3.12-4.32,3.12,4.32v22.86h-6.23v-22.86Zm-9.3,0l3.12-4.32,3.12,4.32v22.86h-6.23v-22.86Zm-9.3,0l3.12-4.32,3.12,4.32v22.86h-6.23v-22.86Zm-32.1,0l3.12-4.32,3.12,4.32v22.86h-6.24v-22.86Zm-9.3,0l3.12-4.32,3.12,4.32v22.86h-6.24v-22.86Zm-9.3,0l3.12-4.32,3.12,4.32v22.86h-6.24v-22.86Zm-32.1,0l3.12-4.32,3.12,4.32v22.86h-6.24v-22.86Zm-9.3,0l3.12-4.32,3.12,4.32v22.86h-6.24v-22.86Zm-9.3,0l3.12-4.32,3.12,4.32v22.86h-6.24v-22.86Zm-32.1,0l3.12-4.32,3.12,4.32v22.86h-6.23v-22.86Zm-9.3,0l3.12-4.32,3.12,4.32v22.86h-6.24v-22.86Zm-9.3,0l3.12-4.32,3.12,4.32v22.86h-6.24v-22.86Z"/><path class="cls-2" d="m1792.72,828.21h85.79v-57.48h-85.79v57.48Zm69.48-20.77v16.52h-4.51v-16.52l2.25-3.13,2.25,3.13Zm-5.86-7.09l2.41,2.41-2.41,2.41-2.41-2.41,2.41-2.41Zm-5.36,7.09l2.25-3.13,2.25,3.13v16.52h-4.51v-16.52Zm-9.75,0v16.52h-4.51v-16.52l2.25-3.13,2.25,3.13Zm-5.86-7.09l2.41,2.41-2.41,2.41-2.41-2.41,2.41-2.41Zm-5.36,7.09l2.25-3.13,2.25,3.13v16.52h-4.51v-16.52Zm-9.75,0v16.52h-4.51v-16.52l2.25-3.13,2.25,3.13Zm-5.86-7.09l2.41,2.41-2.41,2.41-2.41-2.41,2.41-2.41Zm-5.36,7.09l2.25-3.13,2.25,3.13v16.52h-4.51v-16.52Z"/><path class="cls-2" d="m1468.17,1023.82h72.54v-134.81h-72.54v134.81Zm62.8-48.88v29.35h-8.01v-29.35l4-5.55,4,5.55Zm-10.42-12.6l4.28,4.28-4.28,4.28-4.28-4.28,4.28-4.28Zm-9.52,12.6l4-5.55,4,5.55v29.35h-8.01v-29.35Zm-15.07,0v29.35h-8v-29.35l4-5.55,4,5.55Zm-10.42-12.6l4.28,4.28-4.28,4.28-4.28-4.28,4.28-4.28Zm-9.52,12.6l4-5.55,4,5.55v29.35h-8.01v-29.35Z"/><path class="cls-2" d="m1468.17,828.21h72.54v-57.48h-72.54v57.48Zm62.86-20.77v16.52h-4.51v-16.52l2.25-3.13,2.25,3.13Zm-5.86-7.09l2.41,2.41-2.41,2.41-2.41-2.41,2.41-2.41Zm-5.36,7.09l2.25-3.13,2.25,3.13v16.52h-4.51v-16.52Zm-9.75,0v16.52h-4.51v-16.52l2.25-3.13,2.25,3.13Zm-5.86-7.09l2.41,2.41-2.41,2.41-2.41-2.41,2.41-2.41Zm-5.36,7.09l2.25-3.13,2.25,3.13v16.52h-4.51v-16.52Zm-9.75,0v16.52h-4.51v-16.52l2.25-3.13,2.25,3.13Zm-5.86-7.09l2.41,2.41-2.41,2.41-2.41-2.41,2.41-2.41Zm-5.36,7.09l2.25-3.13,2.25,3.13v16.52h-4.51v-16.52Z"/><path class="cls-2" d="m1205.28,1046.08c0,.78-.64,1.42-1.42,1.42h-34.54c-.78,0-1.42-.64-1.42-1.42v-8.52h-121.12v31.23h358.62v-31.23h-200.13v8.52Z"/><path class="cls-2" d="m1792.72,1021.47h85.79v-132.47h-85.79v132.47Zm70.85-17.19h-8v-29.35l4-5.55,4,5.55v29.35Zm-14.39-90.21s1.26-8.83,6.15-11.35c4.89,2.52,6.15,11.35,6.15,11.35v23.34h-12.3v-23.34Zm3.97,48.26l4.28,4.28-4.28,4.28-4.28-4.28,4.28-4.28Zm-9.52,12.6l4-5.55,4,5.55v29.35h-8.01v-29.35Zm-14.16-60.86s1.26-8.83,6.15-11.35c4.89,2.52,6.15,11.35,6.15,11.35v23.34h-12.3v-23.34Zm-.91,60.86v29.35h-8v-29.35l4-5.55,4,5.55Zm-10.42-4.03l-4.28-4.28,4.28-4.28,4.28,4.28-4.28,4.28Zm-8.39-56.83s1.26-8.83,6.15-11.35c4.89,2.52,6.15,11.35,6.15,11.35v23.34h-12.3v-23.34Zm-1.14,60.86l4-5.55,4,5.55v29.35h-8.01v-29.35Z"/><path class="cls-2" d="m1566.26,1023.82h101.14c.06-2.91.1-4.69.1-4.74.01-.45.23-.87.6-1.13l19.44-13.7v-29.31l4-5.55,4,5.55v29.35h-3.29l6.7,3.95c1.5-1.77,5.14-4.85,12.54-5.22h7.39l1.72-2.01v-26.07l4-5.55,4,5.55v24.11l3.4,3.97h.53v-28.09l4-5.55,4,5.55v28.17c6.63.6,9.98,3.45,11.4,5.13l8.5-5.02c.44-.26.98-.26,1.42-.01.44.25.72.72.72,1.23v17.03h6.15v-132.47h-202.49v134.81Zm175.13-109.74s1.26-8.83,6.15-11.35c4.89,2.52,6.15,11.35,6.15,11.35v23.34h-12.3v-23.34Zm-11.24,56.83l-4.28-4.28,4.28-4.28,4.28,4.28-4.28,4.28Zm-9.34-56.83s1.26-8.83,6.15-11.35c4.89,2.52,6.15,11.35,6.15,11.35v23.34h-12.3v-23.34Zm-26.02,0s1.26-8.83,6.15-11.35c4.89,2.52,6.15,11.35,6.15,11.35v23.34h-12.3v-23.34Zm-11.17,90.21h-8v-29.35l4-5.55,4,5.55v29.35Zm1.52-33.38l-4.28-4.28,4.28-4.28,4.28,4.28-4.28,4.28Zm-10.93-56.83s1.26-8.83,6.15-11.35c4.89,2.52,6.15,11.35,6.15,11.35v23.34h-12.3v-23.34Zm-80.6,90.21h-8.01v-29.35l4-5.55,4,5.55v29.35Zm45.01,0h-8v-29.35l4-5.55,4,5.55v29.35Zm9.57-90.21s1.26-8.83,6.15-11.35c4.89,2.52,6.15,11.35,6.15,11.35v23.34h-12.3v-23.34Zm2.36,60.86v29.35h-8.01v-29.35l4-5.55,4,5.55Zm-6.13-8.32l-4.28,4.28-4.28-4.28,4.28-4.28,4.28,4.28Zm-16.81-52.54s1.26-8.83,6.15-11.35c4.89,2.52,6.15,11.35,6.15,11.35v23.34h-12.3v-23.34Zm-26.02,0s1.26-8.83,6.15-11.35c4.89,2.52,6.15,11.35,6.15,11.35v23.34h-12.3v-23.34Zm3.96,60.86v29.35h-8.01v-29.35l4-5.55,4,5.55Zm-6.13-8.32l-4.28,4.28-4.28-4.28,4.28-4.28,4.28,4.28Zm-18.4-52.54s1.26-8.83,6.15-11.35c4.89,2.52,6.15,11.35,6.15,11.35v23.34h-12.3v-23.34Z"/><path class="cls-2" d="m1046.79,1034.72h122.54c.78,0,1.42.64,1.42,1.42v8.52h31.7v-8.52c0-.78.64-1.42,1.42-1.42h201.55v-123.95h-358.62v123.95Zm204.49-9.46h-8.01v-29.35l4-5.55,4,5.55v29.35Zm45.01,0h-8v-29.35l4-5.55,4,5.55v29.35Zm45.01,0h-8v-29.35l4-5.55,4,5.55v29.35Zm33.07,0h-8v-29.35l4-5.55,4,5.55v29.35Zm11.94,0h-8v-29.35l4-5.55,4,5.55v29.35Zm-7.15-90.09s1.26-8.83,6.15-11.35c4.89,2.52,6.15,11.35,6.15,11.35v23.34h-12.3v-23.34Zm-3.27,48.14l4.28,4.28-4.28,4.28-4.28-4.28,4.28-4.28Zm-17.31-48.14s1.26-8.83,6.15-11.35c4.89,2.52,6.15,11.35,6.15,11.35v23.34h-12.3v-23.34Zm-26.02,0s1.26-8.83,6.15-11.35c4.89,2.52,6.15,11.35,6.15,11.35v23.34h-12.3v-23.34Zm-1.67,48.14l4.28,4.28-4.28,4.28-4.28-4.28,4.28-4.28Zm-1.52,12.6v29.35h-8.01v-29.35l4-5.55,4,5.55Zm-17.39-60.74s1.26-8.83,6.15-11.35c4.89,2.52,6.15,11.35,6.15,11.35v23.34h-12.3v-23.34Zm-26.02,0s1.26-8.83,6.15-11.35c4.89,2.52,6.15,11.35,6.15,11.35v23.34h-12.3v-23.34Zm-.08,48.14l4.28,4.28-4.28,4.28-4.28-4.28,4.28-4.28Zm-1.52,12.6v29.35h-8v-29.35l4-5.55,4,5.55Zm-18.98-60.74s1.26-8.83,6.15-11.35c4.89,2.52,6.15,11.35,6.15,11.35v23.34h-12.3v-23.34Zm-26.02,0s1.26-8.83,6.15-11.35c4.89,2.52,6.15,11.35,6.15,11.35v23.34h-12.3v-23.34Zm1.52,48.14l4.28,4.28-4.28,4.28-4.28-4.28,4.28-4.28Zm-9.52,12.6l4-5.55,4,5.55v29.35h-8.01v-29.35Zm-12.57-60.74s1.26-8.83,6.15-11.35c4.89,2.52,6.15,11.35,6.15,11.35v23.34h-12.3v-23.34Zm-26.1,88.64h6.62v16.74h-6.62v-16.74Zm-9.15,0h6.62v16.74h-6.62v-16.74Zm-9.15,0h6.62v16.74h-6.62v-16.74Zm-77.33,1.44h-8v-29.35l4-5.55,4,5.55v29.35Zm45.01,0h-8v-29.35l4-5.55,4,5.55v29.35Zm-8.84-90.09s1.26-8.83,6.15-11.35c4.89,2.52,6.15,11.35,6.15,11.35v23.34h-12.3v-23.34Zm-1.58,48.14l4.28,4.28-4.28,4.28-4.28-4.28,4.28-4.28Zm-1.52,12.6v29.35h-8v-29.35l4-5.55,4,5.55Zm-17.49-60.74s1.26-8.83,6.15-11.35c4.89,2.52,6.15,11.35,6.15,11.35v23.34h-12.3v-23.34Zm-26.02,0s1.26-8.83,6.15-11.35c4.89,2.52,6.15,11.35,6.15,11.35v23.34h-12.3v-23.34Zm.02,48.14l4.28,4.28-4.28,4.28-4.28-4.28,4.28-4.28Zm-1.52,12.6v29.35h-8.01v-29.35l4-5.55,4,5.55Zm-19.08-60.74s1.26-8.83,6.15-11.35c4.89,2.52,6.15,11.35,6.15,11.35v23.34h-12.3v-23.34Z"/><path class="cls-2" d="m1691.16,1068.78h19.12v-26.02s4.49-10.1,15.22-13.46v-.26c.15.04.29.09.43.13.14-.04.29-.09.43-.13v.26c10.73,3.37,15.22,13.46,15.22,13.46v26.02h18.17v-48.73h-68.6v48.73Z"/><polygon class="cls-2" points="1819.55 723.48 1826.15 723.48 1822.81 719.35 1819.55 723.48"/><path class="cls-2" d="m1792.72,664.98v83.66h85.79v-10.41l-33.83-73.25h-51.96Zm34.53,67.89h-8.9v-9.39l4.45-5.75,4.45,5.75v9.39Zm20.34,0h-8.9v-9.39l4.45-5.75,4.45,5.75v9.39Z"/><polygon class="cls-2" points="1839.89 723.48 1846.49 723.48 1843.15 719.35 1839.89 723.48"/><polygon class="cls-2" points="1496.73 724.19 1503.33 724.19 1499.99 720.06 1496.73 724.19"/><polygon class="cls-2" points="1476.39 724.19 1482.99 724.19 1479.65 720.06 1476.39 724.19"/><polygon class="cls-2" points="1521.55 700.47 1540.71 763.2 1540.71 700.47 1539.06 700.47 1521.55 700.47"/><polygon class="cls-2" points="1441.83 689.66 1441.83 648.19 1423.29 648.19 1423.29 705.22 1408.24 754.76 1408.24 762.02 1427.13 753.86 1441.83 689.66"/><path class="cls-2" d="m1440.88,754.52c-.08,0-.16,0-.25-.02-.77-.14-1.29-.87-1.15-1.64l16.25-92.41-11.06,7.34v22.04l-15.1,66.07-21.33,9.21v17.24l35.01-14v-20.57l-.98,5.57c-.12.69-.72,1.17-1.4,1.17Z"/><path class="cls-2" d="m1468.17,767.89h71.01l-33.02-108.11h-47.43l-13.24,75.3h21.27c.78,0,1.42.64,1.42,1.42v31.38Zm27.37-43.69l4.45-5.75,4.45,5.75v9.39h-8.9v-9.39Zm-20.34,0l4.45-5.75,4.45,5.75v9.39h-8.9v-9.39Z"/><path class="cls-2" d="m954.02,228.78h-40.18v60.56h79.48v-60.56h-39.3Zm-.44,56.59c-14.39,0-26.05-11.66-26.05-26.05s11.66-26.05,26.05-26.05,26.05,11.66,26.05,26.05-11.66,26.05-26.05,26.05Z"/><path class="cls-2" d="m970.3,248.65l3.67-2.12c-.72-1.14-1.53-2.21-2.42-3.21l-3.08,3.09c-.47.47-1.22.47-1.69,0-.47-.47-.47-1.22,0-1.69l3.1-3.1c-1-.91-2.07-1.74-3.21-2.48l-2.24,3.89c-.33.57-1.06.77-1.63.44-.57-.33-.77-1.06-.44-1.63l2.24-3.89c-1.2-.62-2.46-1.14-3.77-1.56l-1.19,4.43c-.17.64-.83,1.02-1.46.85-.64-.17-1.02-.83-.85-1.46l1.18-4.41c-1.32-.27-2.68-.43-4.07-.48v4.61c0,.66-.54,1.2-1.2,1.2s-1.19-.54-1.19-1.2v-4.58c-1.39.09-2.74.29-4.05.61l1.19,4.44c.17.64-.21,1.29-.84,1.46-.64.17-1.29-.21-1.46-.85l-1.18-4.39c-1.3.45-2.54,1.01-3.73,1.66l2.27,3.93c.33.57.13,1.3-.44,1.63-.57.33-1.3.13-1.63-.44l-2.23-3.86c-1.12.77-2.16,1.64-3.14,2.58l3.13,3.13c.47.47.47,1.22,0,1.69-.47.47-1.22.47-1.69,0l-3.07-3.07c-.86,1.03-1.65,2.12-2.33,3.28l3.71,2.14c.57.33.77,1.06.44,1.63-.33.57-1.06.77-1.63.44l-3.63-2.1c-.56,1.2-1.02,2.45-1.37,3.74l3.99,1.07c.64.17,1.02.83.85,1.46-.17.64-.83,1.02-1.46.85l-3.89-1.04c-.22,1.28-.34,2.59-.34,3.93h3.95c.66,0,1.2.54,1.2,1.2s-.54,1.2-1.2,1.2h-3.85c.12,1.31.35,2.59.67,3.84l3.65-.98c.64-.17,1.29.21,1.46.84.17.64-.21,1.29-.84,1.46l-3.54.95c.45,1.21,1,2.38,1.63,3.49l3.11-1.8c.57-.33,1.3-.13,1.63.44.33.57.13,1.3-.44,1.63l-3.02,1.75c.73,1.04,1.55,2.02,2.43,2.93l2.43-2.43c.47-.47,1.22-.47,1.69,0,.47.47.47,1.22,0,1.69l-2.37,2.37c.96.81,1.98,1.55,3.06,2.2l1.67-2.89c.33-.57,1.06-.77,1.63-.44.57.33.77,1.06.44,1.63l-1.63,2.82c1.12.53,2.29.98,3.5,1.34l.84-3.15c.17-.64.83-1.02,1.47-.85.64.17,1.02.83.84,1.46l-.83,3.09c1.21.23,2.45.37,3.71.41v-3.22c0-.66.54-1.2,1.2-1.2s1.2.54,1.2,1.2v3.18c1.26-.08,2.5-.26,3.7-.53l-.84-3.12c-.17-.64.21-1.29.84-1.46.64-.17,1.29.21,1.46.85l.83,3.1c1.19-.4,2.35-.88,3.45-1.46l-1.64-2.85c-.33-.57-.14-1.3.44-1.63.57-.33,1.3-.13,1.63.44l1.64,2.84c1.06-.69,2.06-1.45,2.99-2.29l-2.39-2.39c-.47-.47-.47-1.22,0-1.69.47-.47,1.22-.47,1.69,0l2.4,2.4c.85-.93,1.63-1.94,2.33-3l-3.05-1.76c-.57-.33-.77-1.06-.44-1.63.33-.57,1.06-.77,1.63-.44l3.07,1.77c.59-1.13,1.1-2.31,1.51-3.53l-3.56-.95c-.64-.17-1.02-.83-.84-1.46.17-.64.83-1.02,1.46-.85l3.59.96c.29-1.25.47-2.53.56-3.85h-3.86c-.66,0-1.2-.54-1.2-1.2s.54-1.2,1.2-1.2h3.9c-.05-1.33-.2-2.64-.46-3.91l-3.91,1.05c-.64.17-1.29-.21-1.46-.85-.17-.64.21-1.29.85-1.46l3.94-1.06c-.39-1.28-.9-2.51-1.49-3.69l-3.65,2.11c-.57.33-1.3.13-1.63-.44-.33-.57-.13-1.3.44-1.63Zm.99,12.03c.12.08.18.22.18.36s-.07.28-.18.36l-2.44,1.78c-.35.23-.69.33-1.02.33-1.02,0-1.64-.99-1.9-1.5h-1.26c-.07,0-.14-.02-.2-.05h-9.33c-.14.39-.39.74-.71.99l.97,1.25c.14.18.12.43-.04.59l-1.51,1.51c-.08.08-.2.13-.32.13h-1c-.12,0-.23-.05-.32-.13l-1.51-1.51c-.16-.16-.18-.41-.04-.59l.99-1.27c-.21-.17-.38-.37-.51-.6l-1.41,1.1c-.08.06-.18.09-.27.09-.11,0-.23-.04-.31-.13l-1.51-1.51c-.08-.08-.13-.2-.13-.32v-1c0-.19.11-.38.28-.46l1.37-1.37c.09-.09.2-.13.31-.13.1,0,.19.03.27.09l1.54,1.2c.21-.29.49-.52.82-.68v-.81h-.86c-.18,0-.34-.11-.41-.27-.07-.16-.04-.36.09-.48l1.18-1.23v-.39h-.86c-.18,0-.34-.11-.41-.27-.07-.17-.04-.36.09-.48l1.18-1.23v-1.12c-.42-.21-1.17-.67-1.42-1.41-.11-.33-.16-.86.24-1.49l1.79-2.46c.08-.11.22-.18.36-.18s.28.07.36.18l1.77,2.44c.41.65.36,1.18.25,1.51-.25.74-.99,1.2-1.42,1.41v1.12l1.18,1.23c.12.13.16.32.09.48-.07.16-.23.27-.41.27h-.86v.39l1.18,1.23c.12.13.16.32.09.48-.07.16-.23.27-.41.27h-.86v.81c.38.19.7.48.92.84h10.99c.25-.51.87-1.49,1.89-1.49.33,0,.67.11,1,.32l2.46,1.79Z"/></g></g></svg>