<?xml version="1.0" encoding="UTF-8"?><svg id="Layer_2" xmlns="http://www.w3.org/2000/svg" viewBox="0 0 494.31 334.16"><defs><style>.cls-1{fill:none;stroke:#d98289;stroke-miterlimit:10;}</style></defs><g id="Layer_1-2"><polygon class="cls-1" points="314.24 30.13 314.24 29.97 293.43 9.16 293.18 9.16 293.18 30.21 314.16 30.21 314.24 30.13"/><polygon class="cls-1" points="314.24 211.95 295.36 230.82 314.24 230.82 314.24 211.95"/><polygon class="cls-1" points="293.18 31.45 293.18 51.19 312.92 31.45 293.18 31.45"/><polygon class="cls-1" points="314.24 167.11 295.11 186.24 314.24 186.24 314.24 167.11"/><polygon class="cls-1" points="314.24 206.8 314.24 187.48 294.92 187.48 314.24 206.8"/><polygon class="cls-1" points="293.18 53.75 293.18 74.79 314.23 74.79 293.18 53.75"/><polygon class="cls-1" points="314.24 122.28 294.86 141.66 314.24 141.66 314.24 122.28"/><polygon class="cls-1" points="293.18 143.41 293.18 163.95 313.73 163.95 293.18 143.41"/><polygon class="cls-1" points="293.18 165.19 293.18 185.68 313.67 165.19 293.18 165.19"/><polygon class="cls-1" points="293.18 209.77 293.18 230.51 313.92 209.77 293.18 209.77"/><polygon class="cls-1" points="293.18 188.24 293.18 208.53 313.48 208.53 293.18 188.24"/><polygon class="cls-1" points="293.18 76.03 293.18 96.02 313.17 76.03 293.18 76.03"/><polygon class="cls-1" points="314.24 142.9 295.17 142.9 314.24 161.97 314.24 142.9"/><polygon class="cls-1" points="293.18 98.58 293.18 119.37 313.98 119.37 293.18 98.58"/><polygon class="cls-1" points="293.18 120.61 293.18 140.85 313.42 120.61 293.18 120.61"/><polygon class="cls-1" points="314.24 53.74 295.67 53.74 314.24 72.31 314.24 53.74"/><polygon class="cls-1" points="315.57 76.13 315.48 76.22 315.48 97.08 336.52 97.08 315.57 76.13"/><polygon class="cls-1" points="335.71 98.32 315.48 98.32 315.48 118.38 315.57 118.47 335.71 98.32"/><polygon class="cls-1" points="335.46 53.74 315.48 53.74 315.48 73.55 315.57 73.64 335.46 53.74"/><polygon class="cls-1" points="315.57 120.96 315.48 121.05 315.48 141.66 336.27 141.66 315.57 120.96"/><polygon class="cls-1" points="336.53 49.77 336.53 31.45 318.21 31.45 336.53 49.77"/><polygon class="cls-1" points="335.96 142.9 315.48 142.9 315.48 163.21 315.57 163.3 335.96 142.9"/><polygon class="cls-1" points="336.53 189.65 317.65 208.53 336.53 208.53 336.53 189.65"/><polygon class="cls-1" points="336.53 52.26 315.72 31.45 315.48 31.45 315.48 52.5 336.53 52.5 336.53 52.26"/><polygon class="cls-1" points="314.24 32.62 294.39 52.47 294.43 52.5 314.24 52.5 314.24 32.62"/><polygon class="cls-1" points="314.24 77.45 294.61 97.08 314.24 97.08 314.24 77.45"/><polygon class="cls-1" points="314.24 98.32 295.42 98.32 314.24 117.14 314.24 98.32"/><polygon class="cls-1" points="336.21 187.48 315.48 187.48 315.48 208.04 315.57 208.13 336.21 187.48"/><polygon class="cls-1" points="315.57 165.79 315.48 165.88 315.48 186.24 336.02 186.24 315.57 165.79"/><polygon class="cls-1" points="315.57 210.62 315.48 210.71 315.48 230.82 335.77 230.82 315.57 210.62"/><polygon class="cls-1" points="291.9 52.47 270.89 31.45 270.89 52.5 291.87 52.5 291.9 52.47"/><polygon class="cls-1" points="270.89 142.9 270.89 163.14 291.13 142.9 270.89 142.9"/><polygon class="cls-1" points="270.89 210.78 270.89 230.82 290.94 230.82 270.89 210.78"/><polygon class="cls-1" points="270.89 165.95 270.89 186.24 291.19 186.24 270.89 165.95"/><polygon class="cls-1" points="269.66 53.74 250.84 53.74 269.66 72.56 269.66 53.74"/><polygon class="cls-1" points="270.89 187.48 270.89 207.97 291.38 187.48 270.89 187.48"/><polygon class="cls-1" points="269.66 166.87 250.28 186.24 269.66 186.24 269.66 166.87"/><polygon class="cls-1" points="269.66 32.37 249.56 52.47 249.6 52.5 269.66 52.5 269.66 32.37"/><polygon class="cls-1" points="269.66 207.05 269.66 187.48 250.09 187.48 269.66 207.05"/><polygon class="cls-1" points="269.66 122.04 250.03 141.66 269.66 141.66 269.66 122.04"/><polygon class="cls-1" points="269.66 142.9 250.34 142.9 269.66 162.22 269.66 142.9"/><polygon class="cls-1" points="269.66 98.32 250.59 98.32 269.66 117.39 269.66 98.32"/><polygon class="cls-1" points="269.66 77.2 249.78 97.08 269.66 97.08 269.66 77.2"/><polygon class="cls-1" points="291.95 165.19 272.63 165.19 291.95 184.51 291.95 165.19"/><polygon class="cls-1" points="270.89 121.12 270.89 141.66 291.44 141.66 270.89 121.12"/><polygon class="cls-1" points="291.95 144.58 272.57 163.95 291.95 163.95 291.95 144.58"/><polygon class="cls-1" points="291.95 189.41 272.82 208.53 291.95 208.53 291.95 189.41"/><polygon class="cls-1" points="291.95 229.34 291.95 209.77 272.38 209.77 291.95 229.34"/><polygon class="cls-1" points="291.95 76.03 273.13 76.03 291.95 94.85 291.95 76.03"/><polygon class="cls-1" points="291.95 54.91 272.07 74.79 291.95 74.79 291.95 54.91"/><polygon class="cls-1" points="291.95 120.61 272.88 120.61 291.95 139.68 291.95 120.61"/><polygon class="cls-1" points="291.95 99.74 272.32 119.37 291.95 119.37 291.95 99.74"/><polygon class="cls-1" points="270.89 53.74 270.89 73.48 290.63 53.74 270.89 53.74"/><polygon class="cls-1" points="270.89 98.32 270.89 118.31 290.88 98.32 270.89 98.32"/><polygon class="cls-1" points="270.89 9.16 270.89 28.65 290.38 9.16 270.89 9.16"/><polygon class="cls-1" points="270.89 76.29 270.89 97.08 291.69 97.08 270.89 76.29"/><polygon class="cls-1" points="272.14 30.21 291.95 30.21 291.95 10.08 271.98 30.05 272.14 30.21"/><polygon class="cls-1" points="273.38 31.45 291.95 50.02 291.95 31.45 273.38 31.45"/><polygon class="cls-1" points="180.49 166.37 160.62 186.24 180.49 186.24 180.49 166.37"/><path class="cls-1" d="m368.73,216.46c1.36-2.19,2.66-4.42,3.9-6.69h-10.59l6.69,6.69Z"/><polygon class="cls-1" points="180.49 211.2 160.87 230.82 180.49 230.82 180.49 211.2"/><polygon class="cls-1" points="180.49 207.55 180.49 187.48 160.43 187.48 180.49 207.55"/><polygon class="cls-1" points="336.53 229.09 336.53 209.77 317.21 209.77 336.53 229.09"/><polygon class="cls-1" points="180.49 76.71 160.12 97.08 180.49 97.08 180.49 76.71"/><polygon class="cls-1" points="180.49 142.9 160.68 142.9 180.49 162.72 180.49 142.9"/><path class="cls-1" d="m389.86,141.66c0-1.75-.05-3.49-.12-5.22l-5.22,5.22h5.34Z"/><path class="cls-1" d="m389.63,134.06c-.25-4.54-.71-9.03-1.39-13.45h-5.9v19.81l.46.46,6.82-6.82Z"/><path class="cls-1" d="m127.91,216.46l6.69-6.69h-10.6c1.24,2.27,2.54,4.5,3.9,6.69Z"/><path class="cls-1" d="m389.74,147.81c.07-1.63.11-3.26.12-4.91h-5.02l4.91,4.91Z"/><polygon class="cls-1" points="180.49 98.32 160.93 98.32 180.49 117.89 180.49 98.32"/><path class="cls-1" d="m389.62,150.18l-6.81-6.81-.46.46v20.12h5.83c.7-4.52,1.19-9.12,1.45-13.77Z"/><path class="cls-1" d="m179.83,30.05l-7.46-7.46c-3.73,2.37-7.33,4.92-10.81,7.62h18.12l.16-.16Z"/><polygon class="cls-1" points="180.49 31.88 159.9 52.47 159.94 52.5 180.49 52.5 180.49 31.88"/><polygon class="cls-1" points="135.91 142.9 115.85 142.9 135.91 162.97 135.91 142.9"/><path class="cls-1" d="m383.07,185.45c2.11-6.56,3.76-13.32,4.9-20.26h-5.62v20.06l.46.46.26-.26Z"/><path class="cls-1" d="m372.89,74.79c-1.3-2.4-2.67-4.75-4.1-7.07l-7.06,7.07h11.16Z"/><path class="cls-1" d="m127.84,67.72c-1.43,2.31-2.8,4.67-4.1,7.07h11.17l-7.07-7.07Z"/><polygon class="cls-1" points="158.2 54.17 137.58 74.79 158.2 74.79 158.2 54.17"/><path class="cls-1" d="m157.41,52.47l-9.84-9.84c-3.11,3.15-6.07,6.44-8.88,9.87h18.68l.03-.03Z"/><polygon class="cls-1" points="135.91 187.48 115.6 187.48 135.91 207.8 135.91 187.48"/><polygon class="cls-1" points="158.2 165.19 138.14 165.19 158.2 185.26 158.2 165.19"/><polygon class="cls-1" points="158.2 143.83 138.08 163.95 158.2 163.95 158.2 143.83"/><polygon class="cls-1" points="158.2 230.09 158.2 209.77 137.89 209.77 158.2 230.09"/><polygon class="cls-1" points="158.2 99 137.83 119.37 158.2 119.37 158.2 99"/><polygon class="cls-1" points="158.2 120.61 138.39 120.61 158.2 140.43 158.2 120.61"/><polygon class="cls-1" points="135.91 121.29 115.54 141.66 135.91 141.66 135.91 121.29"/><polygon class="cls-1" points="158.2 188.66 138.33 208.53 158.2 208.53 158.2 188.66"/><polygon class="cls-1" points="135.91 166.12 115.79 186.24 135.91 186.24 135.91 166.12"/><polygon class="cls-1" points="180.49 121.54 160.37 141.66 180.49 141.66 180.49 121.54"/><polygon class="cls-1" points="337.98 188.2 337.77 188.42 337.77 208.53 358.31 208.53 337.98 188.2"/><polygon class="cls-1" points="358.82 167.36 339.94 186.24 358.82 186.24 358.82 167.36"/><polygon class="cls-1" points="358.5 165.19 337.77 165.19 337.77 185.5 337.98 185.71 358.5 165.19"/><polygon class="cls-1" points="337.98 98.54 337.77 98.76 337.77 119.37 358.81 119.37 337.98 98.54"/><polygon class="cls-1" points="337.98 143.37 337.77 143.59 337.77 163.95 358.56 163.95 337.98 143.37"/><polygon class="cls-1" points="358.82 72.06 358.82 53.74 340.5 53.74 358.82 72.06"/><polygon class="cls-1" points="358.82 74.55 338.01 53.74 337.95 53.74 337.77 53.93 337.77 74.79 358.82 74.79 358.82 74.55"/><polygon class="cls-1" points="358 76.03 337.77 76.03 337.77 95.84 337.98 96.05 358 76.03"/><polygon class="cls-1" points="358.25 120.61 337.77 120.61 337.77 140.67 337.98 140.88 358.25 120.61"/><polygon class="cls-1" points="336.53 55.16 316.9 74.79 336.53 74.79 336.53 55.16"/><polygon class="cls-1" points="336.53 165.19 317.46 165.19 336.53 184.26 336.53 165.19"/><polygon class="cls-1" points="336.53 120.61 317.71 120.61 336.53 139.43 336.53 120.61"/><polygon class="cls-1" points="336.53 144.82 317.4 163.95 336.53 163.95 336.53 144.82"/><path class="cls-1" d="m381.11,191.14v-1.24l-18.63,18.63h10.82c2.98-5.58,5.59-11.39,7.81-17.39Z"/><polygon class="cls-1" points="358.75 209.77 337.77 209.77 337.77 230.33 337.98 230.54 358.75 209.77"/><polygon class="cls-1" points="336.53 76.03 317.96 76.03 336.53 94.6 336.53 76.03"/><polygon class="cls-1" points="269.66 211.7 250.53 230.82 269.66 230.82 269.66 211.7"/><polygon class="cls-1" points="380.54 98.32 360.06 98.32 360.06 118.13 360.4 118.47 380.54 98.32"/><polygon class="cls-1" points="381.11 145.07 362.23 163.95 381.11 163.95 381.11 145.07"/><polygon class="cls-1" points="381.11 96.84 360.4 76.13 360.06 76.47 360.06 97.08 381.11 97.08 381.11 96.84"/><polygon class="cls-1" points="360.4 120.96 360.06 121.3 360.06 141.66 381.1 141.66 360.4 120.96"/><polygon class="cls-1" points="381.11 165.19 362.29 165.19 381.11 184.01 381.11 165.19"/><polygon class="cls-1" points="358.82 206.55 358.82 187.48 339.75 187.48 358.82 206.55"/><polygon class="cls-1" points="381.11 100.24 361.98 119.37 381.11 119.37 381.11 100.24"/><polygon class="cls-1" points="380.79 142.9 360.06 142.9 360.06 162.96 360.4 163.3 380.79 142.9"/><polygon class="cls-1" points="381.11 120.61 362.54 120.61 381.11 139.18 381.11 120.61"/><polygon class="cls-1" points="358.82 77.7 339.44 97.08 358.82 97.08 358.82 77.7"/><polygon class="cls-1" points="358.82 98.32 340.25 98.32 358.82 116.89 358.82 98.32"/><polygon class="cls-1" points="358.82 142.9 340 142.9 358.82 161.72 358.82 142.9"/><polygon class="cls-1" points="358.82 122.53 339.69 141.66 358.82 141.66 358.82 122.53"/><polygon class="cls-1" points="360.4 165.79 360.06 166.13 360.06 186.24 380.85 186.24 360.4 165.79"/><path class="cls-1" d="m358.82,230.49v-18.3l-18.63,18.63h18.36c.09-.11.18-.22.27-.33Z"/><polygon class="cls-1" points="381.04 187.48 360.06 187.48 360.06 207.79 360.4 208.13 381.04 187.48"/><path class="cls-1" d="m360.4,210.62l-.34.34v17.97c2.74-3.52,5.32-7.16,7.72-10.93l-7.38-7.38Z"/><polygon class="cls-1" points="336.53 99.99 317.15 119.37 336.53 119.37 336.53 99.99"/><polygon class="cls-1" points="159.44 188.98 159.44 208.53 178.99 208.53 159.44 188.98"/><polygon class="cls-1" points="159.44 165.19 159.44 184.93 179.18 165.19 159.44 165.19"/><polygon class="cls-1" points="159.44 209.77 159.44 229.76 179.43 209.77 159.44 209.77"/><polygon class="cls-1" points="159.44 144.15 159.44 163.95 179.24 163.95 159.44 144.15"/><polygon class="cls-1" points="159.44 54.49 159.44 74.79 179.74 74.79 159.44 54.49"/><polygon class="cls-1" points="159.44 76.03 159.44 95.27 178.68 76.03 159.44 76.03"/><polygon class="cls-1" points="159.44 120.61 159.44 140.1 178.93 120.61 159.44 120.61"/><polygon class="cls-1" points="159.44 99.32 159.44 119.37 179.49 119.37 159.44 99.32"/><path class="cls-1" d="m156.45,230.82l-19.3-19.3v18.14c.31.39.62.77.93,1.16h18.37Z"/><polygon class="cls-1" points="137.15 166.69 137.15 186.24 156.7 186.24 137.15 166.69"/><polygon class="cls-1" points="137.15 121.86 137.15 141.66 156.95 141.66 137.15 121.86"/><polygon class="cls-1" points="137.15 187.48 137.15 207.22 156.89 187.48 137.15 187.48"/><polygon class="cls-1" points="180.49 53.74 161.18 53.74 180.49 73.05 180.49 53.74"/><polygon class="cls-1" points="137.15 98.32 137.15 117.56 156.39 98.32 137.15 98.32"/><polygon class="cls-1" points="158.2 76.03 138.64 76.03 158.2 95.59 158.2 76.03"/><polygon class="cls-1" points="137.15 77.03 137.15 97.08 157.2 97.08 137.15 77.03"/><polygon class="cls-1" points="137.15 142.9 137.15 162.39 156.64 142.9 137.15 142.9"/><polygon class="cls-1" points="183.72 31.45 202.78 50.52 202.78 31.45 183.72 31.45"/><polygon class="cls-1" points="182.48 30.21 202.78 30.21 202.78 9.58 182.32 30.05 182.48 30.21"/><polygon class="cls-1" points="181.73 76.78 181.73 97.08 202.03 97.08 181.73 76.78"/><polygon class="cls-1" points="181.73 53.74 181.73 72.98 200.97 53.74 181.73 53.74"/><polygon class="cls-1" points="202.24 52.47 181.73 31.95 181.73 52.5 202.21 52.5 202.24 52.47"/><polygon class="cls-1" points="202.78 188.91 183.16 208.53 202.78 208.53 202.78 188.91"/><polygon class="cls-1" points="181.73 187.48 181.73 207.47 201.72 187.48 181.73 187.48"/><polygon class="cls-1" points="181.73 211.28 181.73 230.82 201.28 230.82 181.73 211.28"/><polygon class="cls-1" points="181.73 98.32 181.73 117.81 201.22 98.32 181.73 98.32"/><polygon class="cls-1" points="181.73 121.61 181.73 141.66 201.78 141.66 181.73 121.61"/><polygon class="cls-1" points="181.73 142.9 181.73 162.64 201.47 142.9 181.73 142.9"/><polygon class="cls-1" points="181.73 166.44 181.73 186.24 201.53 186.24 181.73 166.44"/><path class="cls-1" d="m247.37.51c-1.61.01-3.21.05-4.81.11l4.81,4.81V.51Z"/><polygon class="cls-1" points="202.78 229.84 202.78 209.77 182.72 209.77 202.78 229.84"/><path class="cls-1" d="m248.6.5v5.6l5.48-5.48c-1.82-.07-3.64-.12-5.48-.12Z"/><path class="cls-1" d="m249.85,7.92h19.81V2.1c-4.34-.66-8.74-1.11-13.19-1.36l-6.9,6.9.28.28Z"/><path class="cls-1" d="m316.97,30.21h18.11c-3.48-2.7-7.08-5.25-10.81-7.62l-7.46,7.46.16.16Z"/><path class="cls-1" d="m314.24,16.76c-5.49-2.89-11.18-5.44-17.06-7.61h-1.25l18.32,18.32v-10.71Z"/><path class="cls-1" d="m322.74,21.63c-2.38-1.47-4.8-2.88-7.26-4.21v11.3l.09.09,7.17-7.17Z"/><path class="cls-1" d="m291.9,7.63l-.43-.43c-6.66-2.13-13.53-3.78-20.58-4.91v5.62h20.73l.28-.28Z"/><path class="cls-1" d="m225.07,7.92V2.41c-6.81,1.13-13.46,2.74-19.91,4.8l-.43.43.28.28h20.06Z"/><path class="cls-1" d="m247.07,7.63l-6.9-6.9c-4.68.27-9.31.76-13.86,1.47v5.72h20.48l.28-.28Z"/><path class="cls-1" d="m123.09,76.03c-3.18,6.01-5.93,12.28-8.23,18.77v.22l18.99-18.99h-10.76Z"/><path class="cls-1" d="m137.7,53.74c-.18.23-.37.45-.55.68v18.31l18.99-18.99h-18.44Z"/><path class="cls-1" d="m135.91,56.02c-2.51,3.28-4.89,6.67-7.11,10.17l7.11,7.11v-17.28Z"/><path class="cls-1" d="m113.62,98.75l-.14.14c-2.12,6.63-3.76,13.47-4.89,20.48h5.03v-20.62Z"/><path class="cls-1" d="m158.2,32.89c-3.26,2.69-6.38,5.53-9.38,8.49l9.38,9.38v-17.88Z"/><path class="cls-1" d="m180.49,17.78c-2.24,1.22-4.43,2.51-6.6,3.85l6.6,6.6v-10.44Z"/><path class="cls-1" d="m159.98,31.45c-.18.15-.36.29-.54.44v18.55l18.99-18.99h-18.45Z"/><path class="cls-1" d="m199.46,9.16c-6.12,2.25-12.04,4.92-17.73,7.96v11.03l18.99-18.99h-1.26Z"/><path class="cls-1" d="m383.15,98.88l-.34-.34-.46.46v20.37h5.7c-1.13-7.02-2.77-13.86-4.9-20.49Z"/><polygon class="cls-1" points="114.86 120.61 114.86 139.85 134.1 120.61 114.86 120.61"/><path class="cls-1" d="m113.62,143.58l-6.61,6.61c.26,4.65.75,9.24,1.45,13.76h5.16v-20.38Z"/><polygon class="cls-1" points="114.86 144.4 114.86 163.95 134.41 163.95 114.86 144.4"/><path class="cls-1" d="m134.16,208.53l-19.3-19.3v.05c2.36,6.66,5.2,13.09,8.48,19.25h10.82Z"/><path class="cls-1" d="m347.82,41.38c-3.2-3.17-6.56-6.18-10.05-9.04v18.66l.21.21,9.84-9.84Z"/><polygon class="cls-1" points="135.91 98.32 116.1 98.32 135.91 118.13 135.91 98.32"/><polygon class="cls-1" points="114.86 99.57 114.86 119.37 134.66 119.37 114.86 99.57"/><polygon class="cls-1" points="135.91 76.46 115.29 97.08 135.91 97.08 135.91 76.46"/><polygon class="cls-1" points="114.86 165.19 114.86 184.68 134.35 165.19 114.86 165.19"/><path class="cls-1" d="m367.84,66.19c-2.42-3.81-5.02-7.49-7.78-11.04v18.14l.34.34,7.44-7.44Z"/><path class="cls-1" d="m381.11,94.35v-1.41c-2.16-5.83-4.69-11.47-7.56-16.91h-10.76l18.32,18.32Z"/><path class="cls-1" d="m339.26,52.5h18.68c-2.8-3.43-5.77-6.72-8.88-9.87l-9.84,9.84.03.03Z"/><path class="cls-1" d="m106.9,147.81l4.91-4.91h-5.02c0,1.64.05,3.28.12,4.91Z"/><path class="cls-1" d="m113.62,120.61h-5.24c-.67,4.42-1.13,8.9-1.38,13.44l6.62,6.62v-20.06Z"/><path class="cls-1" d="m113.62,185.51v-20.31h-4.95c1.14,6.93,2.78,13.7,4.89,20.25l.06.06Z"/><path class="cls-1" d="m106.89,136.44c-.07,1.73-.11,3.48-.12,5.23h5.34l-5.23-5.23Z"/><path class="cls-1" d="m135.91,210.95l-7.05,7.05c2.2,3.46,4.56,6.82,7.05,10.06v-17.11Z"/><polygon class="cls-1" points="247.37 189.16 227.99 208.53 247.37 208.53 247.37 189.16"/><polygon class="cls-1" points="247.37 31.45 228.55 31.45 247.37 50.27 247.37 31.45"/><polygon class="cls-1" points="247.37 229.59 247.37 209.77 227.55 209.77 247.37 229.59"/><polygon class="cls-1" points="247.37 99.5 227.49 119.37 247.37 119.37 247.37 99.5"/><polygon class="cls-1" points="247.37 144.33 227.74 163.95 247.37 163.95 247.37 144.33"/><polygon class="cls-1" points="247.37 165.19 227.8 165.19 247.37 184.76 247.37 165.19"/><polygon class="cls-1" points="247.37 9.83 227.15 30.05 227.31 30.21 247.37 30.21 247.37 9.83"/><polygon class="cls-1" points="226.31 76.53 226.31 97.08 246.86 97.08 226.31 76.53"/><polygon class="cls-1" points="226.31 121.37 226.31 141.66 246.61 141.66 226.31 121.37"/><polygon class="cls-1" points="202.78 144.08 182.91 163.95 202.78 163.95 202.78 144.08"/><polygon class="cls-1" points="247.37 120.61 228.05 120.61 247.37 139.93 247.37 120.61"/><polygon class="cls-1" points="226.31 142.9 226.31 162.89 246.3 142.9 226.31 142.9"/><polygon class="cls-1" points="226.31 9.16 226.31 28.4 245.55 9.16 226.31 9.16"/><polygon class="cls-1" points="226.31 53.74 226.31 73.23 245.8 53.74 226.31 53.74"/><polygon class="cls-1" points="247.07 52.47 226.31 31.7 226.31 52.5 247.04 52.5 247.07 52.47"/><polygon class="cls-1" points="248.6 143.66 248.6 163.95 268.9 163.95 248.6 143.66"/><polygon class="cls-1" points="248.6 98.82 248.6 119.37 269.15 119.37 248.6 98.82"/><polygon class="cls-1" points="248.6 53.99 248.6 74.79 269.4 74.79 248.6 53.99"/><polygon class="cls-1" points="248.6 76.03 248.6 95.77 268.34 76.03 248.6 76.03"/><polygon class="cls-1" points="248.6 120.61 248.6 140.6 268.59 120.61 248.6 120.61"/><polygon class="cls-1" points="251.09 9.16 269.66 27.73 269.66 9.16 251.09 9.16"/><polygon class="cls-1" points="226.31 166.2 226.31 186.24 246.36 186.24 226.31 166.2"/><polygon class="cls-1" points="248.6 31.45 248.6 50.94 268.09 31.45 248.6 31.45"/><polygon class="cls-1" points="269.49 30.05 248.6 9.16 248.6 30.21 269.33 30.21 269.49 30.05"/><polygon class="cls-1" points="248.6 188.49 248.6 208.53 268.65 208.53 248.6 188.49"/><polygon class="cls-1" points="247.37 76.03 228.3 76.03 247.37 95.1 247.37 76.03"/><polygon class="cls-1" points="247.37 54.66 227.24 74.79 247.37 74.79 247.37 54.66"/><polygon class="cls-1" points="248.6 165.19 248.6 185.43 268.84 165.19 248.6 165.19"/><polygon class="cls-1" points="248.6 209.77 248.6 230.26 269.09 209.77 248.6 209.77"/><polygon class="cls-1" points="226.31 98.32 226.31 118.06 246.05 98.32 226.31 98.32"/><polygon class="cls-1" points="204.02 143.9 204.02 163.95 224.07 163.95 204.02 143.9"/><polygon class="cls-1" points="204.02 165.19 204.02 185.18 224.01 165.19 204.02 165.19"/><polygon class="cls-1" points="204.02 209.77 204.02 230.01 224.26 209.77 204.02 209.77"/><polygon class="cls-1" points="204.02 188.74 204.02 208.53 223.82 208.53 204.02 188.74"/><polygon class="cls-1" points="204.02 120.61 204.02 140.35 223.76 120.61 204.02 120.61"/><polygon class="cls-1" points="204.02 99.07 204.02 119.37 224.32 119.37 204.02 99.07"/><polygon class="cls-1" points="204.02 31.45 204.02 50.69 223.26 31.45 204.02 31.45"/><polygon class="cls-1" points="204.02 76.03 204.02 95.52 223.51 76.03 204.02 76.03"/><polygon class="cls-1" points="204.02 54.24 204.02 74.79 224.57 74.79 204.02 54.24"/><polygon class="cls-1" points="202.78 120.61 183.22 120.61 202.78 140.18 202.78 120.61"/><polygon class="cls-1" points="202.78 99.25 182.66 119.37 202.78 119.37 202.78 99.25"/><polygon class="cls-1" points="202.78 54.42 182.41 74.79 202.78 74.79 202.78 54.42"/><polygon class="cls-1" points="226.31 187.48 226.31 207.72 246.55 187.48 226.31 187.48"/><polygon class="cls-1" points="202.78 165.19 182.97 165.19 202.78 185.01 202.78 165.19"/><polygon class="cls-1" points="202.78 76.03 183.47 76.03 202.78 95.35 202.78 76.03"/><polygon class="cls-1" points="225.07 32.12 204.73 52.47 204.77 52.5 225.07 52.5 225.07 32.12"/><polygon class="cls-1" points="225.07 76.96 204.95 97.08 225.07 97.08 225.07 76.96"/><polygon class="cls-1" points="225.07 98.32 205.76 98.32 225.07 117.64 225.07 98.32"/><polygon class="cls-1" points="225.07 53.74 206.01 53.74 225.07 72.81 225.07 53.74"/><polygon class="cls-1" points="224.66 30.05 204.02 9.41 204.02 30.21 224.5 30.21 224.66 30.05"/><polygon class="cls-1" points="226.31 211.03 226.31 230.82 246.11 230.82 226.31 211.03"/><polygon class="cls-1" points="225.07 142.9 205.51 142.9 225.07 162.47 225.07 142.9"/><polygon class="cls-1" points="205.7 230.82 225.07 230.82 225.07 211.45 205.7 230.82"/><polygon class="cls-1" points="206.26 9.16 225.07 27.98 225.07 9.16 206.26 9.16"/><polygon class="cls-1" points="225.07 121.79 205.2 141.66 225.07 141.66 225.07 121.79"/><polygon class="cls-1" points="225.07 207.3 225.07 187.48 205.26 187.48 225.07 207.3"/><polygon class="cls-1" points="225.07 166.62 205.45 186.24 225.07 186.24 225.07 166.62"/><path class="cls-1" d="m38.33,244.68c-4.77.89-9.46,1.82-14.01,2.8v63.92h14.01v-66.72Z"/><path class="cls-1" d="m175.09,232.1h-37.94s-26.54,2.03-58.39,6.26v73.06h96.33v-79.31Z"/><path class="cls-1" d="m22.75,247.83c-.79.17-1.57.35-2.35.52v63.06h2.35v-63.58Z"/><rect class="cls-1" x="176.66" y="232.1" width="6.27" height="79.31"/><path class="cls-1" d="m77.19,238.56c-2.07.28-4.16.57-6.27.86v71.98h6.27v-72.84Z"/><path class="cls-1" d="m42.25,243.97c-.79.14-1.57.28-2.35.43v67.01h2.35v-67.44Z"/><path class="cls-1" d="m18.83,248.71c-6.54,1.51-12.72,3.12-18.33,4.85v57.85h18.33v-62.7Z"/><path class="cls-1" d="m69.35,239.65c-8.42,1.2-17.05,2.55-25.53,4.04v67.72h25.53v-71.76Z"/><rect class="cls-1" x="184.5" y="293.35" width="55.5" height="8.64"/><rect class="cls-1" x="184.5" y="283.14" width="55.5" height="8.64"/><rect class="cls-1" x="184.5" y="232.1" width="55.5" height="8.64"/><rect class="cls-1" x="184.5" y="272.93" width="55.5" height="8.64"/><rect class="cls-1" x="184.5" y="252.51" width="55.5" height="8.64"/><rect class="cls-1" x="184.5" y="303.56" width="55.5" height="7.85"/><rect class="cls-1" x="184.5" y="262.72" width="55.5" height="8.64"/><rect class="cls-1" x="184.5" y="242.3" width="55.5" height="8.64"/><path class="cls-1" d="m469.99,247.49c-4.56-.98-9.25-1.92-14.01-2.8v66.72h14.01v-63.92Z"/><path class="cls-1" d="m319.22,311.41h96.33v-73.06c-31.85-4.23-58.39-6.26-58.39-6.26h-37.94v79.31Z"/><path class="cls-1" d="m473.91,248.35c-.78-.18-1.56-.35-2.35-.52v63.58h2.35v-63.06Z"/><rect class="cls-1" x="311.38" y="232.1" width="6.27" height="79.31"/><polygon class="cls-1" points="246.95 312.98 15.68 312.98 15.68 333.66 246.95 333.66 247.37 333.66 478.63 333.66 478.63 312.98 247.37 312.98 246.95 312.98"/><path class="cls-1" d="m423.39,239.43c-2.11-.3-4.2-.58-6.27-.86v72.84h6.27v-71.98Z"/><path class="cls-1" d="m454.41,244.39c-.78-.14-1.56-.29-2.35-.43v67.44h2.35v-67.01Z"/><path class="cls-1" d="m475.48,248.71v62.7h18.33v-57.85c-5.61-1.72-11.79-3.34-18.33-4.85Z"/><path class="cls-1" d="m450.49,243.69c-8.49-1.5-17.11-2.84-25.53-4.04v71.76h25.53v-67.72Z"/><polygon class="cls-1" points="241.58 311.41 246.95 311.41 247.37 311.41 252.73 311.41 252.73 232.1 247.37 232.1 246.95 232.1 241.58 232.1 241.58 311.41"/><rect class="cls-1" x="254.3" y="293.35" width="55.5" height="8.64"/><rect class="cls-1" x="254.3" y="283.14" width="55.5" height="8.64"/><rect class="cls-1" x="254.3" y="232.1" width="55.5" height="8.64"/><rect class="cls-1" x="254.3" y="272.93" width="55.5" height="8.64"/><rect class="cls-1" x="254.3" y="252.51" width="55.5" height="8.64"/><rect class="cls-1" x="254.3" y="303.56" width="55.5" height="7.85"/><rect class="cls-1" x="254.3" y="262.72" width="55.5" height="8.64"/><rect class="cls-1" x="254.3" y="242.3" width="55.5" height="8.64"/></g></svg>