<?xml version="1.0" encoding="UTF-8"?><svg id="Layer_2" xmlns="http://www.w3.org/2000/svg" viewBox="0 0 1214.24 404.11"><defs><style>.cls-1{fill:none;stroke:#bf1542;stroke-miterlimit:10;}</style></defs><g id="Layer_1-2"><path id="_2" class="cls-1" d="m1213.74,283.16v-.03h-.08c-.64,0-1.28,0-1.93,0-.04,0-.08,0-.12,0h0s0,0,0,0c-5.59-.03-11.15-.21-16.66-.52-.76-.04-1.52-.09-2.28-.14-5.6-.35-11.15-.84-16.66-1.47-.76-.09-1.53-.17-2.29-.27-5.61-.67-11.16-1.49-16.66-2.45-.76-.13-1.53-.27-2.28-.4-5.61-1.01-11.17-2.17-16.66-3.46-.76-.18-1.53-.36-2.29-.55-5.62-1.37-11.18-2.88-16.66-4.53-.76-.23-1.52-.46-2.28-.7-5.63-1.74-11.19-3.63-16.66-5.66-.76-.28-1.53-.57-2.29-.86-5.64-2.14-11.2-4.44-16.66-6.88-.76-.34-1.53-.68-2.28-1.03-5.66-2.58-11.22-5.33-16.66-8.23-.76-.41-1.53-.82-2.29-1.23-5.68-3.08-11.24-6.33-16.66-9.75-.76-.48-1.53-.96-2.28-1.45-5.71-3.66-11.26-7.49-16.66-11.5-.76-.57-1.53-1.14-2.29-1.71-5.75-4.35-11.31-8.89-16.66-13.61-.77-.67-1.53-1.35-2.28-2.03-5.8-5.22-11.36-10.65-16.66-16.29-.77-.82-1.53-1.64-2.29-2.46-5.89-6.41-11.45-13.08-16.66-19.97-.77-1.02-1.53-2.04-2.28-3.07-6.07-8.28-11.64-16.88-16.66-25.77-.78-1.37-1.54-2.75-2.29-4.13-6.6-12.21-12.2-24.95-16.66-38.11-.8-2.35-1.56-4.71-2.28-7.08-5.28-17.28-8.64-35.27-9.88-53.75v-14.27s0,0,0,0c.16-.08.29-.19.39-.33,0,0,0-.02.01-.02.04-.06.07-.12.09-.18,0-.02.02-.04.02-.07.02-.06.03-.12.03-.19,0-.01,0-.03,0-.04,0-.51-.46-.93-1.04-.95h.12v-1.76c0-1.04-.35-2-.96-2.8-.3-.4-.67-.76-1.08-1.06-.97-.71-2.21-1.14-3.57-1.14h-.81l-.11-1.22-.05-.59c-.12-1.3-.29-2.6-.52-3.88l-.24-1.32-.25-1.38h0s0,0,0,0l-.48,2.72c-.15.87-.27,1.74-.38,2.62-.05.41-.1.83-.14,1.24l-.1,1.06-.07.75h-.5c-1.26,0-2.41.37-3.35,1-1.37.91-2.26,2.37-2.26,4.01v1.76h0s.13,0,.13,0c-.57.01-1.04.43-1.04.95h0c0,.09.02.17.04.24,0,.02.01.04.02.05.03.07.06.14.1.2,0,0,0,0,0,0,.1.15.25.26.43.34v6.63c0,.2-.02.39-.05.58,0,.04-.01.09-.02.13-.04.18-.08.37-.15.54,0,.02-.02.04-.03.07-.06.16-.13.31-.21.46-.02.04-.04.07-.06.11-.09.16-.2.31-.31.46-.02.03-.05.06-.08.09-.1.12-.21.24-.33.35-.03.03-.06.06-.09.09-.14.12-.28.24-.43.35-.05.03-.09.06-.14.09-.13.08-.26.16-.4.24-.04.02-.08.05-.12.07-.16.08-.33.15-.51.21-.53.19-1.1.29-1.7.29h-19.98c-1.27,0-2.43-.46-3.26-1.21-.43-.39-.78-.85-1.01-1.36-.09-2.49-.14-4.98-.14-7.48v-.07h-.2v-.04s0,0,0,0c.08-.02.14-.05.21-.08.02,0,.03-.02.05-.03.05-.03.1-.07.14-.11.03-.03.06-.07.08-.11.02-.03.04-.06.06-.09.04-.08.06-.16.06-.26,0-.18-.08-.33-.2-.46-.14-.15-.35-.25-.58-.25h.1s0,0,0,0v-1.32c0-2.08-1.89-3.76-4.21-3.76h-.61l-.04-.48-.08-.88c-.08-.9-.2-1.8-.36-2.69-.01-.07-.02-.15-.04-.22l-.06-.35-.3-1.68h0s0,0,0,0l-.36,2.05c-.17.96-.3,1.93-.39,2.9l-.12,1.36h-.38c-2.33,0-4.21,1.69-4.21,3.76v1.32h0s.1,0,.1,0c-.43,0-.78.32-.78.71,0,.01,0,.03,0,.04,0,.07.02.14.05.21.02.04.05.08.07.12.02.03.04.06.06.08.04.05.09.08.15.12.01,0,.02.01.03.02.07.04.14.07.22.09v.04h-.09v.07c0,24.12-3.12,47.51-8.97,69.73-.62,2.37-1.28,4.73-1.96,7.08-3.84,13.16-8.65,25.89-14.34,38.11-.64,1.39-1.3,2.76-1.97,4.13-4.32,8.89-9.11,17.49-14.34,25.77-.65,1.03-1.3,2.05-1.97,3.07-4.48,6.89-9.27,13.56-14.34,19.97-.65.82-1.31,1.64-1.97,2.46-4.56,5.63-9.34,11.07-14.34,16.29-.65.68-1.3,1.36-1.97,2.03-4.61,4.72-9.39,9.26-14.34,13.61-.65.57-1.31,1.15-1.97,1.71-4.64,4-9.43,7.84-14.34,11.5-.65.49-1.31.97-1.96,1.45-4.67,3.41-9.45,6.66-14.34,9.75-.65.41-1.31.82-1.97,1.23-4.69,2.9-9.47,5.64-14.34,8.23-.65.35-1.31.69-1.97,1.03-4.7,2.44-9.48,4.74-14.34,6.88-.66.29-1.31.58-1.97.86-4.71,2.03-9.49,3.92-14.34,5.66-.65.23-1.31.47-1.97.7-4.72,1.65-9.5,3.16-14.34,4.53-.07.02-.14.04-.21.06-2.61.54-5.23,1.05-7.87,1.52-.76.14-1.52.27-2.28.4-5.5.96-11.06,1.77-16.66,2.45-.76.1-1.52.18-2.29.27-5.51.63-11.06,1.12-16.66,1.47-.76.05-1.52.09-2.28.14-5.52.31-11.07.48-16.66.52h0s-.08,0-.12,0c-.29,0-.59,0-.89,0-.3,0-.59,0-.89,0-.04,0-.08,0-.12,0h0s0,0,0,0c-5.59-.03-11.15-.21-16.66-.52-.76-.04-1.52-.09-2.28-.14-5.6-.35-11.15-.84-16.66-1.47-.76-.09-1.53-.17-2.29-.27-5.61-.67-11.16-1.49-16.66-2.45-.76-.13-1.53-.27-2.28-.4-5.61-1.01-11.17-2.17-16.66-3.46-.76-.18-1.53-.36-2.29-.55-5.62-1.37-11.18-2.88-16.66-4.53-.76-.23-1.52-.46-2.28-.7-5.63-1.74-11.19-3.63-16.66-5.66-.76-.28-1.53-.57-2.29-.86-5.64-2.14-11.2-4.44-16.66-6.88-.76-.34-1.53-.68-2.28-1.03-5.66-2.58-11.22-5.33-16.66-8.23-.76-.41-1.53-.82-2.29-1.23-5.68-3.08-11.24-6.33-16.66-9.75-.76-.48-1.53-.96-2.28-1.45-5.71-3.66-11.26-7.49-16.66-11.5-.76-.57-1.53-1.14-2.29-1.71-5.75-4.35-11.31-8.89-16.66-13.61-.77-.67-1.53-1.35-2.28-2.03-5.8-5.22-11.36-10.65-16.66-16.29-.77-.82-1.53-1.64-2.29-2.46-5.89-6.41-11.45-13.08-16.66-19.97-.77-1.02-1.53-2.04-2.28-3.07-6.07-8.28-11.64-16.88-16.66-25.77-.78-1.37-1.54-2.75-2.29-4.13-6.6-12.21-12.2-24.95-16.66-38.11-.8-2.35-1.56-4.71-2.28-7.08-5.28-17.28-8.64-35.27-9.88-53.75v-14.27s0,0,0,0c.16-.08.29-.19.39-.33,0,0,0-.02.01-.02.04-.06.07-.12.09-.18,0-.02.02-.04.02-.07.02-.06.03-.12.03-.19,0-.01,0-.03,0-.04,0-.51-.46-.93-1.04-.95h.12v-1.76c0-1.04-.35-2-.96-2.8-.3-.4-.67-.76-1.08-1.06-.97-.71-2.21-1.14-3.57-1.14h-.81l-.11-1.22-.05-.59c-.12-1.3-.29-2.6-.52-3.88l-.24-1.32-.25-1.38h0s0,0,0,0l-.48,2.72c-.15.87-.27,1.74-.38,2.62-.05.41-.1.83-.14,1.24l-.1,1.06-.07.75h-.5c-1.26,0-2.41.37-3.35,1-1.37.91-2.26,2.37-2.26,4.01v1.76h0s.13,0,.13,0c-.57.01-1.04.43-1.04.95,0,0,0,0,0,0s0,0,0,0c0,.08.02.16.04.24,0,.02.01.04.02.05.03.07.06.14.1.2,0,0,0,0,0,0,.1.15.25.26.43.34v6.63c0,.2-.02.39-.05.58,0,.04-.01.09-.02.13-.04.18-.08.37-.15.54,0,.02-.02.04-.03.07-.06.16-.13.31-.21.46-.02.04-.04.07-.06.11-.09.16-.2.31-.31.46-.02.03-.05.06-.08.09-.1.12-.21.24-.33.35-.03.03-.06.06-.09.09-.14.12-.28.24-.43.35-.05.03-.09.06-.14.09-.13.08-.26.16-.4.24-.04.02-.08.05-.12.07-.16.08-.33.15-.51.21-.53.19-1.1.29-1.7.29h-19.98c-1.27,0-2.43-.46-3.26-1.21-.43-.39-.78-.85-1.01-1.36-.09-2.49-.14-4.98-.14-7.48v-.07h-.2v-.04s0,0,0,0c.08-.02.14-.05.21-.08.02,0,.03-.02.05-.03.05-.03.1-.07.14-.11.03-.03.06-.07.08-.11.02-.03.04-.06.06-.09.04-.08.06-.16.06-.26,0-.18-.08-.33-.2-.46-.14-.15-.35-.25-.58-.25h.1s0,0,0,0v-1.32c0-2.08-1.89-3.76-4.21-3.76h-.61l-.04-.48-.08-.88c-.08-.9-.2-1.8-.36-2.69-.01-.07-.02-.15-.04-.22l-.06-.35-.3-1.68h0s0,0,0,0l-.36,2.05c-.17.96-.3,1.93-.39,2.9l-.12,1.36h-.38c-2.33,0-4.21,1.69-4.21,3.76v1.32h0s.1,0,.1,0c-.43,0-.78.32-.78.71,0,.01,0,.03,0,.04,0,.07.02.14.05.21.02.04.05.08.07.12.02.03.04.06.06.08.04.05.09.08.15.12.01,0,.02.01.03.02.07.04.14.07.22.09v.04h-.09v.07c0,24.12-3.12,47.51-8.97,69.73-.62,2.37-1.28,4.73-1.96,7.08-3.84,13.16-8.65,25.89-14.34,38.11-.64,1.39-1.3,2.76-1.97,4.13-4.32,8.89-9.11,17.49-14.34,25.77-.65,1.03-1.3,2.05-1.97,3.07-4.48,6.89-9.27,13.56-14.34,19.97-.65.82-1.31,1.64-1.97,2.46-4.56,5.63-9.34,11.07-14.34,16.29-.65.68-1.3,1.36-1.97,2.03-4.61,4.72-9.39,9.26-14.34,13.61-.65.57-1.31,1.15-1.97,1.71-4.65,4-9.43,7.84-14.34,11.5-.65.49-1.31.97-1.96,1.45-4.67,3.41-9.45,6.66-14.34,9.75-.65.41-1.31.82-1.97,1.23-4.69,2.9-9.47,5.64-14.34,8.23-.65.35-1.31.69-1.97,1.03-4.7,2.44-9.48,4.74-14.34,6.88-.66.29-1.31.58-1.97.86-4.71,2.03-9.49,3.92-14.34,5.66-.66.23-1.31.47-1.97.7-4.72,1.65-9.5,3.16-14.34,4.53-.07.02-.14.04-.21.06-2.61.54-5.23,1.05-7.87,1.52-.76.14-1.52.27-2.28.4-5.5.96-11.06,1.77-16.66,2.45-.76.1-1.52.18-2.29.27-5.51.63-11.06,1.12-16.66,1.47-.76.05-1.52.09-2.28.14-5.52.31-11.07.48-16.66.52h0s-.08,0-.12,0c-.64,0-1.28,0-1.93,0h-.08v.03h0v19.44h0v20.9h246.54v47.44c-3.54,1.12-6.08,4.14-6.08,7.68v9.77h-5.02v10.86h-9.22v4.36h0s48.21,0,48.21,0c0,0,0,0,0,0h68.11v-4.36h0s-11.33,0-11.33,0v-11.11h0s-5.52,0-5.52,0v-10s0-.1,0-.15c0-.2-.01-.41-.03-.61-.01-.1-.03-.2-.04-.31-.02-.15-.05-.3-.08-.45-.02-.11-.04-.21-.07-.32-.04-.15-.08-.29-.13-.44-.03-.1-.06-.2-.09-.29-.08-.22-.16-.43-.26-.63-.05-.11-.11-.21-.16-.31-.06-.12-.12-.23-.19-.35-.07-.12-.14-.23-.22-.35-.06-.09-.12-.17-.18-.26-.09-.12-.17-.24-.27-.36-.05-.06-.1-.11-.14-.17-.38-.46-.81-.88-1.29-1.26-.01,0-.02-.02-.03-.03-.17-.13-.35-.26-.53-.39,0,0-.01,0-.02-.01-.75-.51-1.59-.91-2.49-1.2v-46.78h532.57v47.44c-3.54,1.12-6.08,4.14-6.08,7.68v9.77h-5.02v10.86h-9.22v4.36h0s48.21,0,48.21,0c0,0,0,0,0,0h68.11v-4.36h0s-11.33,0-11.33,0v-11.11h0s-5.52,0-5.52,0v-10s0-.1,0-.15c0-.2-.01-.41-.03-.61-.01-.1-.03-.2-.04-.31-.02-.15-.05-.3-.08-.45-.02-.11-.04-.21-.07-.32-.04-.15-.08-.29-.13-.44-.03-.1-.06-.2-.09-.29-.08-.22-.16-.43-.26-.63-.05-.11-.11-.21-.16-.31-.06-.12-.12-.23-.19-.35-.07-.12-.14-.23-.22-.35-.06-.09-.12-.17-.18-.26-.09-.12-.17-.24-.27-.36-.05-.06-.1-.11-.14-.17-.38-.46-.81-.88-1.29-1.26-.01,0-.02-.02-.03-.03-.17-.13-.35-.26-.53-.39,0,0-.01,0-.02-.01-.75-.51-1.59-.91-2.49-1.2v-46.78h288.27v-40.34h0Zm-12.91,25.69l3.9,5.42,1.07,1.49h-6.41l.03-1.29.1-4.89c.02-.94.84-1.39,1.31-.73Zm-3.08,6.91h-6.41l1.07-1.49,3.9-5.42c.48-.66,1.29-.21,1.31.73l.1,4.89.03,1.29Zm-7.26-9.91l3.52.13c.67.03,1,1.16.52,1.83l-3.9,5.42-1.82,2.54h-3.43l-.05-2.74-.12-6.25c0-.45.18-.83.45-1h2.87l1.96.07Zm-308.34,9.91l-.05-2.74-.12-6.25c0-.45.18-.83.45-1h2.87l1.96.07,3.52.13c.67.03,1,1.16.52,1.83l-3.9,5.42-1.82,2.54h-3.43Zm-273.1-2.74l-.12-6.25c0-.45.18-.83.45-1h2.87l1.96.07,3.52.13c.67.03,1,1.16.52,1.83l-3.9,5.42-1.82,2.54h-3.43l-.05-2.74Zm-3.73-6.25l-.12,6.25-.05,2.74h-3.43l-1.82-2.54-3.9-5.42c-.48-.66-.15-1.8.52-1.83l3.52-.13,1.96-.07h2.87c.27.17.46.56.45,1Zm-329.79,8.99l-.05-2.74-.12-6.25c0-.45.18-.83.45-1h2.87l1.96.07,3.52.13c.67.03,1,1.16.52,1.83l-3.9,5.42-1.82,2.54h-3.43Zm916.63-13.86v-14.04c.17,0,.34.01.5.02v14.02h-.5Zm-2.62,0h-13.54v-15.11c4.5.38,9.01.69,13.54.94v14.17ZM2.63,288.37c4.7-.04,9.39-.2,14.05-.5v14.04H2.63v-13.54Zm16.01-.63c.22-.02.44-.04.65-.05v14.22h-.65v-14.17Zm46.94,14.17h-6.11v-20.53c2.04-.5,4.08-1.01,6.11-1.56v22.09Zm-8.4,0h-5.94v-18.68c1.99-.41,3.97-.85,5.94-1.31v19.99Zm-7.91,0h-8.76v-16.72c2.93-.47,5.85-.99,8.76-1.57v18.28Zm-11.04,0h-3.29v-15.88c1.1-.15,2.2-.31,3.29-.48v16.35Zm-5.26,0h-11.4v-14.4c3.82-.32,7.62-.72,11.4-1.21v15.61Zm62.11,0h-11.23v-26.42c3.76-.97,7.51-2,11.23-3.11v29.53Zm-13.19,0h-3.47v-25.06c1.16-.28,2.31-.57,3.47-.86v25.92Zm185.9-205.65c.17-.12.35-.24.53-.36.1-.06.2-.12.3-.17.11-.06.21-.12.32-.18.11-.06.22-.11.33-.16.11-.05.22-.1.33-.14.11-.05.23-.1.34-.14,1.01-.37,2.11-.58,3.26-.58h3.95c.74,1.99,1.49,3.98,2.29,5.96v8.09c-3.4,8.35-7.26,16.5-11.55,24.44-.2.37-.4.73-.6,1.09-.8-.68-1.45-1.49-1.92-2.4-.09-.17-.17-.35-.24-.53-.03-.08-.06-.15-.09-.23-.07-.18-.12-.36-.17-.54-.02-.08-.05-.16-.07-.24-.05-.2-.09-.41-.12-.62,0-.06-.02-.12-.03-.19-.03-.27-.05-.55-.05-.83v-26.31s0-.06,0-.1c0-.2.01-.4.03-.6,0-.09.02-.18.03-.26.02-.15.05-.29.07-.43.02-.09.04-.18.06-.27.04-.16.09-.32.14-.48.03-.08.05-.16.08-.23.07-.18.14-.36.22-.54.04-.09.08-.17.13-.26.06-.12.12-.24.19-.35.05-.09.1-.17.15-.26.08-.12.16-.24.24-.35.06-.08.11-.16.17-.23.12-.16.25-.31.39-.46.07-.08.14-.15.22-.23.09-.09.18-.18.27-.27.08-.08.16-.15.25-.22.1-.09.2-.17.3-.25.08-.06.16-.13.25-.19Zm-4.95,70.47c.01-.1.03-.2.04-.3.02-.16.05-.31.08-.46.02-.11.05-.21.07-.32.04-.15.08-.29.13-.43.03-.1.06-.21.1-.31.08-.22.17-.43.26-.64.05-.12.12-.23.18-.34.05-.1.11-.21.17-.31.07-.12.15-.25.23-.37.05-.08.11-.16.17-.24.09-.13.18-.26.28-.38.32-.4.67-.78,1.06-1.13v40.98c-.06-.05-.12-.11-.18-.16-.1-.1-.2-.19-.3-.3-.08-.08-.15-.16-.22-.24-.15-.16-.29-.33-.42-.5-.06-.07-.11-.15-.16-.23-.09-.13-.18-.26-.27-.39-.05-.08-.1-.16-.15-.24-.12-.19-.22-.39-.32-.6-.03-.06-.06-.13-.09-.2-.07-.16-.14-.33-.2-.49-.03-.08-.06-.16-.09-.24-.07-.22-.14-.45-.2-.68-.01-.05-.02-.1-.03-.14-.04-.2-.08-.4-.1-.6-.01-.08-.02-.16-.03-.24-.02-.23-.04-.45-.04-.68,0-.02,0-.04,0-.06v-28.98s0-.07,0-.11c0-.22.02-.44.04-.66Zm28.83-7.72h.41c4.32,0,7.97,2.61,9.12,6.14v33.67s-.02.09-.04.14c-.02.05-.04.1-.06.15-.07.19-.14.37-.23.55-.03.08-.07.15-.11.23-.08.17-.17.33-.27.5-.03.06-.06.11-.1.17-.13.21-.26.4-.41.6-.05.07-.1.13-.15.19-.11.14-.22.27-.34.4-.06.07-.12.13-.18.2-.15.16-.3.31-.46.45-.04.04-.08.07-.12.11-.18.16-.36.31-.55.45-.07.05-.14.1-.21.15-.16.11-.32.22-.48.32-.06.04-.13.08-.19.12-.23.13-.46.26-.7.38-.03.01-.06.03-.09.04-1.33.63-2.84,1-4.45,1h-5.24v-45.95h4.83Zm4.56,139.43c-1.22,0-2.22.89-2.22,1.98v.63s0,.03,0,.04c0,.1.01.21.03.31,0,.04.02.08.03.13.02.07.05.15.08.22.02.04.03.08.05.12,0,.01.01.03.02.04h-7.4v-74.16h5.24c2.87,0,5.44,1.15,7.19,2.96.11.11.21.22.31.34.08.1.16.19.24.29.09.11.17.22.25.33.08.11.16.23.24.35.07.11.14.21.2.32.08.13.15.26.21.4.05.1.11.21.16.32.07.15.13.29.18.44.04.1.08.2.12.31,0,.03.02.06.03.09v64.56h-4.96Zm-11.68-93.49h-2.49v-45.95h2.49v45.95Zm-5.11,0h-7.15c-1.59,0-3.09-.36-4.4-.98v-43.99c1.32-.62,2.82-.98,4.4-.98h7.15v45.95Zm-6.23-68.72c-1.11,0-2.18-.2-3.16-.55,2.39-4.38,4.66-8.82,6.8-13.34.89-1.88,1.75-3.77,2.59-5.67v19.55h-6.23Zm-10.36,99.16c.02-.14.04-.27.07-.41.02-.14.04-.27.07-.41.03-.13.07-.26.11-.4.04-.13.07-.26.11-.39.04-.13.1-.25.15-.38.05-.13.1-.26.16-.38.06-.12.12-.24.18-.36.06-.12.13-.25.2-.37.07-.11.14-.22.21-.34.08-.12.16-.24.24-.35.08-.11.16-.21.24-.31.09-.11.18-.22.28-.33.09-.1.18-.19.27-.29.1-.11.21-.21.32-.31.05-.05.11-.1.17-.15v70.51h-2.8v-64.51c0-.12.01-.24.02-.36,0-.15,0-.31.03-.46Zm9.36,66.51c-.33-.69-1.1-1.17-1.99-1.17h-2.33v-72.02c.15-.07.3-.13.45-.2.11-.05.22-.09.33-.14.18-.07.36-.12.54-.18.1-.03.2-.07.31-.1.22-.06.45-.11.68-.16.07-.01.13-.03.2-.04.61-.11,1.24-.17,1.89-.17h7.15v74.16h-7.23Zm9.85-74.16h2.49v74.16h-2.49v-74.16Zm14.43-93.17c-.11.08-.23.16-.35.23-.1.07-.21.13-.31.19-.12.07-.24.13-.36.19-.12.06-.23.12-.35.17-.12.05-.24.1-.35.15-.13.05-.26.11-.4.16-.11.04-.22.07-.34.11-.15.05-.3.09-.45.13-.1.03-.2.05-.3.07-.17.04-.34.08-.52.11-.08.01-.16.02-.24.03-.2.03-.4.06-.61.07-.25.02-.5.03-.75.03h-4.33v-19.3c1.3,2.63,2.65,5.24,4.07,7.85,1.79,3.29,3.67,6.54,5.62,9.77-.01,0-.02.02-.03.02Zm-11.94-22.36v24.03h-2.49v-25.68c.27-.67.55-1.33.82-2,.55,1.22,1.1,2.44,1.67,3.65Zm8.72,193.77l2.08-.08v5.53l-2.61-3.62c-.48-.66-.15-1.8.52-1.83Zm377.81-4.08h-6.11v-20.53c2.04-.5,4.08-1.01,6.11-1.56v22.09Zm-8.4,0h-5.94v-18.68c1.99-.41,3.97-.85,5.94-1.31v19.99Zm-7.91,0h-8.76v-16.72c2.93-.47,5.85-.99,8.76-1.57v18.28Zm-11.04,0h-3.29v-15.88c1.1-.15,2.2-.31,3.29-.48v16.35Zm-5.26,0h-11.4v-14.4c3.82-.32,7.62-.72,11.4-1.21v15.61Zm-13.68,0h-.65v-14.17c.22-.02.44-.04.65-.05v14.22Zm-2.62,0h-13.93v-13.54c4.66-.04,9.31-.2,13.93-.5v14.04Zm-16.37,0h-16.35v-13.92c5.43.23,10.88.36,16.35.39h0v13.54Zm-18.63,0h-.5v-14.04c.17,0,.34.01.5.02v14.02Zm113.42,0h-11.23v-26.42c3.76-.97,7.51-2,11.23-3.11v29.53Zm-13.19,0h-3.47v-25.06c1.16-.28,2.31-.57,3.47-.86v25.92Zm185.9-205.65c.17-.12.35-.24.53-.36.1-.06.2-.12.3-.17.11-.06.21-.12.32-.18.11-.06.22-.11.33-.16.11-.05.22-.1.33-.14.11-.05.23-.1.34-.14,1.01-.37,2.11-.58,3.26-.58h3.95c.74,1.99,1.49,3.98,2.29,5.96v8.09c-3.4,8.35-7.26,16.5-11.55,24.44-.2.37-.4.73-.6,1.09-.8-.68-1.45-1.49-1.92-2.4-.09-.17-.17-.35-.24-.53-.03-.08-.06-.15-.09-.23-.07-.18-.12-.36-.17-.54-.02-.08-.05-.16-.07-.24-.05-.2-.09-.41-.12-.62,0-.06-.02-.12-.03-.19-.03-.27-.05-.55-.05-.83v-26.31s0-.06,0-.1c0-.2.01-.4.03-.6,0-.09.02-.18.03-.26.02-.15.05-.29.07-.43.02-.09.04-.18.06-.27.04-.16.09-.32.14-.48.03-.08.05-.16.08-.23.07-.18.14-.36.22-.54.04-.09.08-.17.13-.26.06-.12.12-.24.19-.35.05-.09.1-.17.15-.26.08-.12.16-.24.24-.35.06-.08.11-.16.17-.23.12-.16.25-.31.39-.46.07-.08.14-.15.22-.23.09-.09.18-.18.27-.27.08-.08.16-.15.25-.22.1-.09.2-.17.3-.25.08-.06.16-.13.25-.19Zm4.42,205.65c-.33-.69-1.1-1.17-1.99-1.17h-2.33v-72.02c.15-.07.3-.13.45-.2.11-.05.22-.09.33-.14.18-.07.36-.12.54-.18.1-.03.2-.07.31-.1.22-.06.45-.11.68-.16.07-.01.13-.03.2-.04.61-.11,1.24-.17,1.89-.17h7.15v74.16h-7.23Zm-9.37-135.18c.01-.1.03-.2.04-.3.02-.16.05-.31.08-.46.02-.11.05-.21.07-.32.04-.15.08-.29.13-.43.03-.1.06-.21.1-.31.08-.22.17-.43.26-.64.05-.12.12-.23.18-.34.05-.1.11-.21.17-.31.07-.12.15-.25.23-.37.05-.08.11-.16.17-.24.09-.13.18-.26.28-.38.32-.4.67-.78,1.06-1.13v40.98c-.06-.05-.12-.11-.18-.16-.1-.1-.2-.19-.3-.3-.08-.08-.15-.16-.22-.24-.15-.16-.29-.33-.42-.5-.06-.07-.11-.15-.16-.23-.09-.13-.18-.26-.27-.39-.05-.08-.1-.16-.15-.24-.12-.19-.22-.39-.32-.6-.03-.06-.06-.13-.09-.2-.07-.16-.14-.33-.2-.49-.03-.08-.06-.16-.09-.24-.07-.22-.14-.45-.2-.68-.01-.05-.02-.1-.03-.14-.04-.2-.08-.4-.1-.6-.01-.08-.02-.16-.03-.24-.02-.23-.04-.45-.04-.68,0-.02,0-.04,0-.06v-28.98s0-.07,0-.11c0-.22.02-.44.04-.66Zm28.83-7.72h.41c4.32,0,7.97,2.61,9.12,6.14v33.67s-.02.09-.04.14c-.02.05-.04.1-.06.15-.07.19-.14.37-.23.55-.03.08-.07.15-.11.23-.08.17-.17.33-.27.5-.03.06-.06.11-.1.17-.13.21-.26.4-.41.6-.05.07-.1.13-.15.19-.11.14-.22.27-.34.4-.06.07-.12.13-.18.2-.15.16-.3.31-.46.45-.04.04-.08.07-.12.11-.18.16-.36.31-.55.45-.07.05-.14.1-.21.15-.16.11-.32.22-.48.32-.06.04-.13.08-.19.12-.23.13-.46.26-.7.38-.03.01-.06.03-.09.04-1.33.63-2.84,1-4.45,1h-5.24v-45.95h4.83Zm4.56,139.43c-1.22,0-2.22.89-2.22,1.98v.63s0,.03,0,.04c0,.1.01.21.03.31,0,.04.02.08.03.13.02.07.05.15.08.22.02.04.03.08.05.12,0,.01.01.03.02.04h-7.4v-74.16h5.24c2.87,0,5.44,1.15,7.19,2.96.11.11.21.22.31.34.08.1.16.19.24.29.09.11.17.22.25.33.08.11.16.23.24.35.07.11.14.21.2.32.08.13.15.26.21.4.05.1.11.21.16.32.07.15.13.29.18.44.04.1.08.2.12.31,0,.03.02.06.03.09v64.56h-4.96Zm-11.68-93.49h-2.49v-45.95h2.49v45.95Zm-5.11,0h-7.15c-1.59,0-3.09-.36-4.4-.98v-43.99c1.32-.62,2.82-.98,4.4-.98h7.15v45.95Zm-6.23-68.72c-1.11,0-2.18-.2-3.16-.55,2.39-4.38,4.66-8.82,6.8-13.34.89-1.88,1.75-3.77,2.59-5.67v19.55h-6.23Zm-10.36,99.16c.02-.14.04-.27.07-.41.02-.14.04-.27.07-.41.03-.13.07-.26.11-.4.04-.13.07-.26.11-.39.04-.13.1-.25.15-.38.05-.13.1-.26.16-.38.06-.12.12-.24.18-.36.06-.12.13-.25.2-.37.07-.11.14-.22.21-.34.08-.12.16-.24.24-.35.08-.11.16-.21.24-.31.09-.11.18-.22.28-.33.09-.1.18-.19.27-.29.1-.11.21-.21.32-.31.05-.05.11-.1.17-.15v70.51h-2.8v-64.51c0-.12.01-.24.02-.36,0-.15,0-.31.03-.46Zm19.22-7.66h2.49v74.16h-2.49v-74.16Zm14.43-93.17c-.11.08-.23.16-.35.23-.1.07-.21.13-.31.19-.12.07-.24.13-.36.19-.12.06-.23.12-.35.17-.12.05-.24.1-.35.15-.13.05-.26.11-.4.16-.11.04-.22.07-.34.11-.15.05-.3.09-.45.13-.1.03-.2.05-.3.07-.17.04-.34.08-.52.11-.08.01-.16.02-.24.03-.2.03-.4.06-.61.07-.25.02-.5.03-.75.03h-4.33v-19.3c1.3,2.63,2.65,5.24,4.07,7.85,1.79,3.29,3.67,6.54,5.62,9.77-.01,0-.02.02-.03.02Zm-11.94-22.36v24.03h-2.49v-25.68c.27-.67.55-1.33.82-2,.55,1.22,1.1,2.44,1.67,3.65Zm9.84,193.77l.96-.04v3.93l-1.48-2.06c-.48-.66-.15-1.8.52-1.83Zm273.82-4.08h-3.31v-15.61c1.1.11,2.2.2,3.31.3v15.31Zm-5.93,0h-10.73v-17.12c3.56.46,7.14.88,10.73,1.25v15.88Zm-13.01,0h-6.12v-18.28c2.04.3,4.08.59,6.12.86v17.42Zm-8.74,0h-7.92v-19.99c2.63.46,5.27.9,7.92,1.31v18.68Zm-10.21,0h-8.93v-22.09c2.96.6,5.94,1.16,8.93,1.7v20.39Zm-11.55,0h-5.11v-23.73c1.7.38,3.4.75,5.11,1.1v22.63Zm-7.39,0h-11.74v-27.1c3.89,1.01,7.81,1.95,11.74,2.85v24.25Zm-14.36,0h-2.3v-28.41c.77.21,1.53.42,2.3.63v27.79Zm-4.59,0h-14.54v-33.37c4.82,1.53,9.66,2.98,14.54,4.33v29.03Zm-18.95,0h-16.66v-40.73c5.47,2.08,11.03,4.06,16.66,5.92v34.8Zm-19.98,0h-15.63v-48.52c5.13,2.27,10.34,4.45,15.63,6.52v42Zm-17.92,0h-1.22v-50.08c.4.18.81.36,1.22.54v49.54Zm-3.84,0h-12.82v-57.56c4.21,2.16,8.49,4.25,12.82,6.27v51.29Zm-15.11,0h-4.02v-60.87c1.33.72,2.68,1.42,4.02,2.13v58.74Zm-6.65,0h-10.02v-68c3.3,1.95,6.63,3.86,10.02,5.71v62.29Zm-12.3,0h-6.83v-73.59c2.25,1.43,4.54,2.83,6.83,4.21v69.37Zm-9.46,0h-7.2v-80.08c2.38,1.63,4.77,3.24,7.2,4.81v75.27Zm-9.49,0h-9.64v-88.62c3.16,2.38,6.38,4.7,9.64,6.97v81.64Zm-12.26,0h-4.4v-94.06c.87.69,1.74,1.39,2.62,2.08.59.46,1.18.92,1.78,1.37v90.61Zm-6.68,0h-12.45v-106.5c4.02,3.62,8.17,7.16,12.45,10.62v95.88Zm-15.08,0h-1.59v-110.37c.53.49,1.05.99,1.59,1.48v108.9Zm-3.87,0h-13.53s.01-.03.02-.05c.02-.03.03-.07.04-.1.03-.08.06-.16.08-.24,0-.03.02-.07.03-.1.02-.12.04-.24.04-.36h0v-.63h0c0-.35-.11-.67-.29-.96-.34-.54-.94-.92-1.66-1v-124.83c4.83,5.38,9.92,10.63,15.26,15.73v112.54Zm-18.95-3.46h-2.12v-86.76c0-2.01-.91-3.84-2.39-5.17v-42.45c1.47,1.8,2.98,3.59,4.51,5.37v129Zm-25.12-232.61c0,.07-.02.13-.03.19-.02.14-.04.27-.07.41-.02.07-.04.15-.06.22-.03.12-.07.24-.1.36-.03.08-.05.15-.08.23-.04.11-.09.22-.14.33-.03.07-.07.15-.1.22-.05.11-.11.22-.17.32-.04.07-.08.14-.12.21-.07.11-.15.22-.22.33-.04.05-.08.11-.12.16-.19.25-.41.49-.64.71.7-3.21,1.33-6.44,1.9-9.68v5.37c0,.21-.01.41-.04.62Zm-5.6,28.69c1.13,0,2.2.2,3.19.56.07.02.14.05.21.07.23.09.46.19.68.29.05.02.1.05.15.08.17.09.33.17.5.27.08.05.15.09.23.14.13.08.27.17.39.26.07.05.15.1.22.16.14.1.27.21.4.32.05.04.11.09.16.13.17.16.34.32.49.49.05.05.09.11.14.16.11.12.22.25.32.38.05.07.1.14.16.21.09.12.18.25.26.38.04.07.09.14.13.21.1.16.18.32.27.49.02.04.04.08.06.12.1.21.18.42.26.64.02.07.04.13.06.2.05.16.1.32.14.48.02.08.04.16.05.24.03.16.06.32.08.49.01.07.02.15.03.22.02.24.04.47.04.72v26.31c0,.26-.02.51-.04.76,0,.08-.03.16-.04.24-.03.17-.05.34-.09.5-.02.09-.05.18-.08.27-.04.15-.08.3-.13.45-.03.09-.07.18-.11.28-.05.14-.11.28-.17.42-.04.09-.09.18-.14.27,0,.01-.01.03-.02.04-4.5-7.53-8.55-15.26-12.13-23.15v-10.56c.41-1.17.8-2.35,1.19-3.53h3.13Zm-6.61.38c-.52,1.54-1.06,3.07-1.62,4.6-.29-.72-.59-1.44-.87-2.17-.37-.93-.72-1.87-1.07-2.81h3.69c-.04.13-.08.26-.13.38Zm-15.68-26.03s-.05-.06-.07-.09c-.07-.09-.12-.18-.19-.27-.06-.09-.12-.17-.17-.26-.01-.02-.02-.04-.03-.05-.53-.89-.84-1.91-.84-2.98v-5.12c.61,3.21,1.3,6.41,2.06,9.59-.28-.25-.53-.52-.76-.81Zm-17.11,137.64c-1.47,1.33-2.39,3.16-2.39,5.17v89.05h-.43v-132.49c.95-1.26,1.89-2.52,2.82-3.79v42.06Zm-6.84,94.22h-3.11c-.89,0-1.65.48-1.99,1.17h-9.24v-111.96c5.03-5.36,9.81-10.89,14.34-16.56v127.36Zm-17.21,1.17h-13.43v-95.94c4.65-4.22,9.13-8.54,13.43-12.99v108.93Zm-15.4,0h-1.27v-93.04c.42-.37.85-.75,1.27-1.12v94.16Zm-3.55,0h-10.79v-82.19c3.66-2.87,7.26-5.81,10.79-8.85v91.04Zm-12.75,0h-3.91v-77.7c1.31-.97,2.61-1.96,3.91-2.96v80.66Zm-6.19,0h-8.14v-70.29c2.75-1.86,5.46-3.77,8.14-5.73v76.01Zm-10.11,0h-6.55v-64.72c2.21-1.39,4.39-2.82,6.55-4.26v68.98Zm-8.84,0h-5.5v-59.99c1.85-1.09,3.68-2.18,5.5-3.31v63.29Zm-7.47,0h-9.19v-53.72c3.1-1.65,6.16-3.36,9.19-5.11v58.83Zm-11.48,0h-2.86v-51.05c.95-.49,1.91-.97,2.86-1.47v52.51Zm-4.82,0h-11.84v-44.43c4-1.8,7.95-3.67,11.84-5.62v50.05Zm-14.13,0h-.21v-43.32c.07-.03.14-.06.21-.09v43.41Zm-2.18,0h-14.34v-36.7c.28-.1.55-.2.83-.31,4.56-1.72,9.06-3.55,13.51-5.46v42.47Zm-16.77,0h-13.87v-31.09c4.66-1.47,9.28-3.03,13.87-4.71v35.8Zm-15.84,0h-.82v-30.21c.28-.08.55-.17.82-.26v30.47Zm-22.06-24.52v24.52h-8.58v-22.63c.07-.02.15-.04.22-.06,2.8-.57,5.58-1.18,8.36-1.83Zm-97.59,24.52h-13.54v-15.11c4.5.38,9.01.69,13.54.94v14.17Zm-15.82,0h-3.31v-15.61c1.1.11,2.2.2,3.31.3v15.31Zm-5.93,0h-10.73v-17.12c3.56.46,7.14.88,10.73,1.25v15.88Zm-13.01,0h-6.12v-18.28c2.04.3,4.08.59,6.12.86v17.42Zm-8.74,0h-7.92v-19.99c2.63.46,5.27.9,7.92,1.31v18.68Zm-10.21,0h-8.93v-22.09c2.96.6,5.94,1.16,8.93,1.7v20.39Zm-11.55,0h-5.11v-23.73c1.7.38,3.4.75,5.11,1.1v22.63Zm-7.39,0h-11.74v-27.1c3.89,1.01,7.81,1.95,11.74,2.85v24.25Zm-14.36,0h-2.3v-28.41c.77.21,1.53.42,2.3.63v27.79Zm-4.59,0h-14.54v-33.37c4.82,1.53,9.66,2.98,14.54,4.33v29.03Zm-18.95,0h-16.66v-40.73c5.47,2.08,11.03,4.06,16.66,5.92v34.8Zm-19.98,0h-15.63v-48.52c5.13,2.27,10.34,4.45,15.63,6.52v42Zm-17.92,0h-1.22v-50.08c.4.18.81.36,1.22.54v49.54Zm-3.84,0h-12.82v-57.56c4.21,2.16,8.49,4.25,12.82,6.27v51.29Zm-15.11,0h-4.02v-60.87c1.33.72,2.68,1.42,4.02,2.13v58.74Zm-6.65,0h-10.02v-68c3.3,1.95,6.63,3.86,10.02,5.71v62.29Zm-12.3,0h-6.83v-73.59c2.25,1.43,4.54,2.83,6.83,4.21v69.37Zm-9.46,0h-7.2v-80.08c2.38,1.63,4.77,3.24,7.2,4.81v75.27Zm-9.49,0h-9.64v-88.62c3.16,2.38,6.38,4.7,9.64,6.97v81.64Zm-12.26,0h-4.4v-94.06c.87.69,1.74,1.39,2.62,2.08.59.46,1.18.92,1.78,1.37v90.61Zm-6.68,0h-12.45v-106.5c4.02,3.62,8.17,7.16,12.45,10.62v95.88Zm-15.08,0h-1.59v-110.37c.53.49,1.05.99,1.59,1.48v108.9Zm-3.87,0h-13.53s.01-.03.02-.05c.02-.03.03-.07.04-.1.03-.08.06-.16.08-.24,0-.03.02-.07.03-.1.02-.12.04-.24.04-.36h0v-.63h0c0-.35-.11-.67-.29-.96-.34-.54-.94-.92-1.66-1v-124.83c4.83,5.38,9.92,10.63,15.26,15.73v112.54Zm-18.95-3.46h-2.12v-86.76c0-2.01-.91-3.84-2.39-5.17v-42.45c1.47,1.8,2.98,3.59,4.51,5.37v129Zm-25.12-232.61c0,.07-.02.13-.03.19-.02.14-.04.27-.07.41-.02.07-.04.15-.06.22-.03.12-.07.24-.1.36-.03.08-.05.15-.08.23-.04.11-.09.22-.14.33-.03.07-.07.15-.1.22-.05.11-.11.22-.17.32-.04.07-.08.14-.12.21-.07.11-.15.22-.22.33-.04.05-.08.11-.12.16-.19.25-.41.49-.64.71.7-3.21,1.33-6.44,1.9-9.68v5.37c0,.21-.01.41-.04.62Zm-5.6,28.69c1.13,0,2.2.2,3.19.56.07.02.14.05.21.07.23.09.46.19.68.29.05.02.1.05.15.08.17.09.33.17.5.27.08.05.15.09.23.14.13.08.27.17.39.26.07.05.15.1.22.16.14.1.27.21.4.32.05.04.11.09.16.13.17.16.34.32.49.49.05.05.09.11.14.16.11.12.22.25.32.38.05.07.1.14.16.21.09.12.18.25.26.38.04.07.09.14.13.21.1.16.18.32.27.49.02.04.04.08.06.12.1.21.18.42.26.64.02.07.04.13.06.2.05.16.1.32.14.48.02.08.04.16.05.24.03.16.06.32.08.49.01.07.02.15.03.22.02.24.04.47.04.72v26.31c0,.26-.02.51-.04.76,0,.08-.03.16-.04.24-.02.17-.05.34-.09.5-.02.09-.05.18-.08.27-.04.15-.08.3-.13.45-.03.09-.07.18-.11.28-.05.14-.11.28-.17.42-.04.09-.09.18-.14.27,0,.01-.01.03-.02.04-4.5-7.53-8.55-15.26-12.13-23.15v-10.56c.41-1.17.8-2.35,1.19-3.53h3.13Zm-6.61.38c-.52,1.54-1.06,3.07-1.62,4.6-.29-.72-.59-1.44-.87-2.17-.37-.93-.72-1.87-1.07-2.81h3.69c-.04.13-.08.26-.13.38Zm-15.68-26.03s-.05-.06-.07-.09c-.07-.09-.12-.18-.19-.27-.06-.09-.12-.17-.17-.26-.01-.02-.02-.04-.03-.05-.53-.89-.84-1.91-.84-2.98v-5.12c.61,3.21,1.3,6.41,2.06,9.59-.28-.25-.53-.52-.76-.81Zm-17.11,137.64c-1.47,1.33-2.39,3.16-2.39,5.17v89.05h-.43v-132.49c.95-1.26,1.89-2.52,2.82-3.79v42.06Zm-6.84,94.22h-3.11c-.89,0-1.65.48-1.99,1.17h-9.24v-111.96c5.03-5.36,9.81-10.89,14.34-16.56v127.36Zm-17.21,1.17h-13.43v-95.94c4.65-4.22,9.13-8.54,13.43-12.99v108.93Zm-15.4,0h-1.27v-93.04c.42-.37.85-.75,1.27-1.12v94.16Zm-3.55,0h-10.79v-82.19c3.66-2.87,7.26-5.81,10.79-8.85v91.04Zm-12.75,0h-3.91v-77.7c1.31-.97,2.61-1.96,3.91-2.96v80.66Zm-6.19,0h-8.14v-70.29c2.75-1.86,5.46-3.77,8.14-5.73v76.01Zm-10.11,0h-6.55v-64.72c2.21-1.39,4.39-2.82,6.55-4.26v68.98Zm-8.84,0h-5.5v-59.99c1.85-1.09,3.68-2.18,5.5-3.31v63.29Zm-7.47,0h-9.19v-53.72c3.1-1.65,6.16-3.36,9.19-5.11v58.83Zm-11.48,0h-2.86v-51.05c.95-.49,1.91-.97,2.86-1.47v52.51Zm-4.82,0h-11.84v-44.43c4-1.8,7.95-3.67,11.84-5.62v50.05Zm-14.13,0h-.21v-43.32c.07-.03.14-.06.21-.09v43.41Zm-2.18,0h-14.34v-36.7c.28-.1.55-.2.83-.31,4.56-1.72,9.06-3.55,13.51-5.46v42.47Zm-16.77,0h-13.87v-31.09c4.66-1.47,9.28-3.03,13.87-4.71v35.8Zm-15.84,0h-.82v-30.21c.28-.08.55-.17.82-.26v30.47Zm-22.06-24.52v24.52h-8.58v-22.63c.07-.02.15-.04.22-.06,2.8-.57,5.58-1.18,8.36-1.83Zm-61.41,32.19l.1,4.89.03,1.29h-6.41l1.07-1.49,3.9-5.42c.48-.66,1.29-.21,1.31.73Zm1.79,4.89l.1-4.89c.02-.94.84-1.39,1.31-.73l3.9,5.42,1.07,1.49h-6.41l.03-1.29Zm7.09-1.25l-3.9-5.42c-.48-.66-.15-1.8.52-1.83l3.52-.13,1.96-.07h2.87c.27.17.46.56.45,1l-.12,6.25-.05,2.74h-3.43l-1.82-2.54Zm9.16-.2l-.12-6.25c0-.45.18-.83.45-1h2.87l1.96.07,3.52.13c.67.03,1,1.16.52,1.83l-3.9,5.42-1.82,2.54h-3.43l-.05-2.74Zm7.09,1.25l3.9-5.42c.48-.66,1.29-.21,1.31.73l.1,4.89.03,1.29h-6.41l1.07-1.49Zm7,.2l.1-4.89c.02-.94.84-1.39,1.31-.73l3.9,5.42,1.07,1.49h-6.41l.03-1.29Zm7.09-1.25l-3.9-5.42c-.48-.66-.15-1.8.52-1.83l3.52-.13,1.96-.07h2.87c.27.17.46.56.45,1l-.12,6.25-.05,2.74h-3.43l-1.82-2.54Zm9.16-.2l-.12-6.25c0-.45.18-.83.45-1h2.87l1.96.07,3.52.13c.67.03,1,1.16.52,1.83l-3.9,5.42-1.82,2.54h-3.43l-.05-2.74Zm7.09,1.25l3.9-5.42c.48-.66,1.29-.21,1.31.73l.1,4.89.03,1.29h-6.41l1.07-1.49Zm7,.2l.1-4.89c.02-.94.84-1.39,1.31-.73l3.9,5.42,1.07,1.49h-6.41l.03-1.29Zm7.09-1.25l-3.9-5.42c-.48-.66-.15-1.8.52-1.83l3.52-.13,1.96-.07h2.87c.27.17.46.56.45,1l-.12,6.25-.05,2.74h-3.43l-1.82-2.54Zm9.16-.2l-.12-6.25c0-.45.18-.83.45-1h2.87l1.96.07,3.52.13c.67.03,1,1.16.52,1.83l-3.9,5.42-1.82,2.54h-3.43l-.05-2.74Zm7.09,1.25l3.9-5.42c.48-.66,1.29-.21,1.31.73l.1,4.89.03,1.29h-6.41l1.07-1.49Zm7,.2l.1-4.89c.02-.94.84-1.39,1.31-.73l3.9,5.42,1.07,1.49h-6.41l.03-1.29Zm7.09-1.25l-3.9-5.42c-.48-.66-.15-1.8.52-1.83l3.52-.13,1.96-.07h2.87c.27.17.46.56.45,1l-.12,6.25-.05,2.74h-3.43l-1.82-2.54Zm9.16-.2l-.12-6.25c0-.45.18-.83.45-1h2.87l1.96.07,3.52.13c.67.03,1,1.16.52,1.83l-3.9,5.42-1.82,2.54h-3.43l-.05-2.74Zm7.09,1.25l3.9-5.42c.48-.66,1.29-.21,1.31.73l.1,4.89.03,1.29h-6.41l1.07-1.49Zm7,.2l.1-4.89c.02-.94.84-1.39,1.31-.73l3.9,5.42,1.07,1.49h-6.41l.03-1.29Zm7.09-1.25l-3.9-5.42c-.48-.66-.15-1.8.52-1.83l3.52-.13,1.96-.07h2.87c.27.17.46.56.45,1l-.12,6.25-.05,2.74h-3.43l-1.82-2.54Zm9.16-.2l-.12-6.25c0-.45.18-.83.45-1h2.87l1.96.07,3.52.13c.67.03,1,1.16.52,1.83l-3.9,5.42-1.82,2.54h-3.43l-.05-2.74Zm7.09,1.25l3.9-5.42c.48-.66,1.29-.21,1.31.73l.1,4.89.03,1.29h-6.41l1.07-1.49Zm7,.2l.1-4.89c.02-.94.84-1.39,1.31-.73l3.9,5.42,1.07,1.49h-6.41l.03-1.29Zm7.09-1.25l-3.9-5.42c-.48-.66-.15-1.8.52-1.83l3.52-.13,1.96-.07h2.87c.27.17.46.56.45,1l-.12,6.25-.05,2.74h-3.43l-1.82-2.54Zm9.16-.2l-.12-6.25c0-.45.18-.83.45-1h2.87l1.96.07,3.52.13c.67.03,1,1.16.52,1.83l-3.9,5.42-1.82,2.54h-3.43l-.05-2.74Zm7.09,1.25l3.9-5.42c.48-.66,1.29-.21,1.31.73l.1,4.89.03,1.29h-6.41l1.07-1.49Zm7,.2l.1-4.89c.02-.94.84-1.39,1.31-.73l3.9,5.42,1.07,1.49h-6.41l.03-1.29Zm7.09-1.25l-3.9-5.42c-.48-.66-.15-1.8.52-1.83l3.52-.13,1.96-.07h2.87c.27.17.46.56.45,1l-.12,6.25-.05,2.74h-3.43l-1.82-2.54Zm9.16-.2l-.12-6.25c0-.45.18-.83.45-1h2.87l1.96.07,3.52.13c.67.03,1,1.16.52,1.83l-3.9,5.42-1.82,2.54h-3.43l-.05-2.74Zm7.09,1.25l3.9-5.42c.48-.66,1.29-.21,1.31.73l.1,4.89.03,1.29h-6.41l1.07-1.49Zm7,.2l.1-4.89c.02-.94.84-1.39,1.31-.73l3.9,5.42,1.07,1.49h-6.41l.03-1.29Zm7.09-1.25l-3.9-5.42c-.48-.66-.15-1.8.52-1.83l3.52-.13,1.96-.07h2.87s0,0,0,0v2.16c-.23.29-.36.65-.36,1.03v.57c0,.38.13.74.36,1.02v3.76c0,.49.06.97.16,1.44h-3.32l-1.82-2.54Zm34.97,2.54c.09-.47.14-.95.14-1.44v-4.16c.08-.2.13-.4.13-.63v-.57c0-.22-.05-.44-.13-.63v-2.56h.2c.27.17.46.56.45,1l-.12,6.25-.05,2.74h-.63Zm10.55,0l1.07-1.49,3.9-5.42c.48-.66,1.29-.21,1.31.73l.1,4.89.03,1.29h-6.41Zm8.07-1.29l.1-4.89c.02-.94.84-1.39,1.31-.73l3.9,5.42,1.07,1.49h-6.41l.03-1.29Zm35.92,1.05c.08-.18.16-.36.23-.55l.57.79h-.92c.04-.08.08-.16.12-.24Zm1.5-2.29l-.8-1.11v-6.23l.94-.04,1.96-.07h2.87c.27.17.46.56.45,1l-.12,6.25-.05,2.74h-3.43l-1.82-2.54Zm9.16-.2l-.12-6.25c0-.45.18-.83.45-1h2.87l1.96.07,3.52.13c.67.03,1,1.16.52,1.83l-3.9,5.42-1.82,2.54h-3.43l-.05-2.74Zm7.09,1.25l3.9-5.42c.48-.66,1.29-.21,1.31.73l.1,4.89.03,1.29h-6.41l1.07-1.49Zm7,.2l.1-4.89c.02-.94.84-1.39,1.31-.73l3.9,5.42,1.07,1.49h-6.41l.03-1.29Zm7.09-1.25l-3.9-5.42c-.48-.66-.15-1.8.52-1.83l3.52-.13,1.96-.07h2.87c.27.17.46.56.45,1l-.12,6.25-.05,2.74h-3.43l-1.82-2.54Zm9.16-.2l-.12-6.25c0-.45.18-.83.45-1h2.87l1.96.07,3.52.13c.67.03,1,1.16.52,1.83l-3.9,5.42-1.82,2.54h-3.43l-.05-2.74Zm7.09,1.25l3.9-5.42c.48-.66,1.29-.21,1.31.73l.1,4.89.03,1.29h-6.41l1.07-1.49Zm7,.2l.1-4.89c.02-.94.84-1.39,1.31-.73l3.9,5.42,1.07,1.49h-6.41l.03-1.29Zm7.09-1.25l-3.9-5.42c-.48-.66-.15-1.8.52-1.83l3.52-.13,1.96-.07h2.87c.27.17.46.56.45,1l-.12,6.25-.05,2.74h-3.43l-1.82-2.54Zm9.16-.2l-.12-6.25c0-.45.18-.83.45-1h2.87l1.96.07,3.52.13c.67.03,1,1.16.52,1.83l-3.9,5.42-1.82,2.54h-3.43l-.05-2.74Zm7.09,1.25l3.9-5.42c.48-.66,1.29-.21,1.31.73l.1,4.89.03,1.29h-6.41l1.07-1.49Zm7,.2l.1-4.89c.02-.94.84-1.39,1.31-.73l3.9,5.42,1.07,1.49h-6.41l.03-1.29Zm7.09-1.25l-3.9-5.42c-.48-.66-.15-1.8.52-1.83l3.52-.13,1.96-.07h2.87c.27.17.46.56.45,1l-.12,6.25-.05,2.74h-3.43l-1.82-2.54Zm9.16-.2l-.12-6.25c0-.45.18-.83.45-1h2.87l1.96.07,3.52.13c.67.03,1,1.16.52,1.83l-3.9,5.42-1.82,2.54h-3.43l-.05-2.74Zm7.09,1.25l3.9-5.42c.48-.66,1.29-.21,1.31.73l.1,4.89.03,1.29h-6.41l1.07-1.49Zm7,.2l.1-4.89c.02-.94.84-1.39,1.31-.73l3.9,5.42,1.07,1.49h-6.41l.03-1.29Zm7.09-1.25l-3.9-5.42c-.48-.66-.15-1.8.52-1.83l3.52-.13,1.96-.07h2.87c.27.17.46.56.45,1l-.12,6.25-.05,2.74h-3.43l-1.82-2.54Zm9.01-.2l-.12-6.25c0-.45.18-.83.45-1h2.87l1.96.07,3.52.13c.67.03,1,1.16.52,1.83l-3.9,5.42-1.82,2.54h-3.43l-.05-2.74Zm7.09,1.25l3.9-5.42c.48-.66,1.29-.21,1.31.73l.1,4.89.03,1.29h-6.41l1.07-1.49Zm7,.2l.1-4.89c.02-.94.84-1.39,1.31-.73l3.9,5.42,1.07,1.49h-6.41l.03-1.29Zm7.09-1.25l-3.9-5.42c-.48-.66-.15-1.8.52-1.83l3.52-.13,1.96-.07h2.87c.27.17.46.56.45,1l-.12,6.25-.05,2.74h-3.43l-1.82-2.54Zm9.16-.2l-.12-6.25c0-.45.18-.83.45-1h2.87l1.96.07,3.52.13c.67.03,1,1.16.52,1.83l-3.9,5.42-1.82,2.54h-3.43l-.05-2.74Zm7.09,1.25l3.9-5.42c.48-.66,1.29-.21,1.31.73l.1,4.89.03,1.29h-6.41l1.07-1.49Zm7,.2l.1-4.89c.02-.94.84-1.39,1.31-.73l3.9,5.42,1.07,1.49h-6.41l.03-1.29Zm7.09-1.25l-3.9-5.42c-.48-.66-.15-1.8.52-1.83l3.52-.13,1.96-.07h2.87c.27.17.46.56.45,1l-.12,6.25-.05,2.74h-3.43l-1.82-2.54Zm9.16-.2l-.12-6.25c0-.45.18-.83.45-1h2.87l1.96.07,3.52.13c.67.03,1,1.16.52,1.83l-3.9,5.42-1.82,2.54h-3.43l-.05-2.74Zm7.09,1.25l3.9-5.42c.48-.66,1.29-.21,1.31.73l.1,4.89.03,1.29h-6.41l1.07-1.49Zm7,.2l.1-4.89c.02-.94.84-1.39,1.31-.73l3.9,5.42,1.07,1.49h-6.41l.03-1.29Zm7.09-1.25l-3.9-5.42c-.48-.66-.15-1.8.52-1.83l3.52-.13,1.96-.07h2.87c.27.17.46.56.45,1l-.12,6.25-.05,2.74h-3.43l-1.82-2.54Zm9.16-.2l-.12-6.25c0-.45.18-.83.45-1h2.87l1.96.07,3.52.13c.67.03,1,1.16.52,1.83l-3.9,5.42-1.82,2.54h-3.43l-.05-2.74Zm7.09,1.25l3.9-5.42c.48-.66,1.29-.21,1.31.73l.1,4.89.03,1.29h-6.41l1.07-1.49Zm7,.2l.1-4.89c.02-.94.84-1.39,1.31-.73l3.9,5.42,1.07,1.49h-6.41l.03-1.29Zm7.09-1.25l-3.9-5.42c-.48-.66-.15-1.8.52-1.83l3.52-.13,1.96-.07h2.87c.27.17.46.56.45,1l-.12,6.25-.05,2.74h-3.43l-1.82-2.54Zm9.16-.2l-.12-6.25c0-.45.18-.83.45-1h2.87l1.96.07,3.52.13c.67.03,1,1.16.52,1.83l-3.9,5.42-1.82,2.54h-3.43l-.05-2.74Zm7.09,1.25l3.9-5.42c.48-.66,1.29-.21,1.31.73l.1,4.89.03,1.29h-6.41l1.07-1.49Zm7,.2l.1-4.89c.02-.94.84-1.39,1.31-.73l3.9,5.42,1.07,1.49h-6.41l.03-1.29Zm23.34-.2l3.9-5.42c.48-.66,1.29-.21,1.31.73l.1,4.89.03,1.29h-6.41l1.07-1.49Zm7,.2l.1-4.89c.02-.94.84-1.39,1.31-.73l3.9,5.42,1.07,1.49h-6.41l.03-1.29Zm7.09-1.25l-3.9-5.42c-.48-.66-.15-1.8.52-1.83l3.52-.13,1.96-.07h2.87c.27.17.46.56.45,1l-.12,6.25-.05,2.74h-3.43l-1.82-2.54Zm9.16-.2l-.12-6.25c0-.45.18-.83.45-1h2.87l1.96.07,3.52.13c.67.03,1,1.16.52,1.83l-3.9,5.42-1.82,2.54h-3.43l-.05-2.74Zm7.09,1.25l3.9-5.42c.48-.66,1.29-.21,1.31.73l.1,4.89.03,1.29h-6.41l1.07-1.49Zm7,.2l.1-4.89c.02-.94.84-1.39,1.31-.73l3.9,5.42,1.07,1.49h-6.41l.03-1.29Zm7.09-1.25l-3.9-5.42c-.48-.66-.15-1.8.52-1.83l3.52-.13,1.96-.07h2.87c.27.17.46.56.45,1l-.12,6.25-.05,2.74h-3.43l-1.82-2.54Zm9.16-.2l-.12-6.25c0-.45.18-.83.45-1h2.87l1.96.07,3.52.13c.67.03,1,1.16.52,1.83l-3.9,5.42-1.82,2.54h-3.43l-.05-2.74Zm7.09,1.25l3.9-5.42c.48-.66,1.29-.21,1.31.73l.1,4.89.03,1.29h-6.41l1.07-1.49Zm7,.2l.1-4.89c.02-.94.84-1.39,1.31-.73l3.9,5.42,1.07,1.49h-6.41l.03-1.29Zm7.09-1.25l-3.9-5.42c-.48-.66-.15-1.8.52-1.83l3.52-.13,1.96-.07h2.87c.27.17.46.56.45,1l-.12,6.25-.05,2.74h-3.43l-1.82-2.54Zm9.16-.2l-.12-6.25c0-.45.18-.83.45-1h2.87l1.96.07,3.52.13c.67.03,1,1.16.52,1.83l-3.9,5.42-1.82,2.54h-3.43l-.05-2.74Zm7.09,1.25l3.9-5.42c.48-.66,1.29-.21,1.31.73l.1,4.89.03,1.29h-6.41l1.07-1.49Zm7,.2l.1-4.89c.02-.94.84-1.39,1.31-.73l3.9,5.42,1.07,1.49h-6.41l.03-1.29Zm7.09-1.25l-3.9-5.42c-.48-.66-.15-1.8.52-1.83l3.52-.13,1.96-.07h2.87c.27.17.46.56.45,1l-.12,6.25-.05,2.74h-3.43l-1.82-2.54Zm9.16-.2l-.12-6.25c0-.45.18-.83.45-1h2.87l1.96.07,3.52.13c.67.03,1,1.16.52,1.83l-3.9,5.42-1.82,2.54h-3.43l-.05-2.74Zm7.09,1.25l3.9-5.42c.48-.66,1.29-.21,1.31.73l.1,4.89.03,1.29h-6.41l1.07-1.49Zm7,.2l.1-4.89c.02-.94.84-1.39,1.31-.73l3.9,5.42,1.07,1.49h-6.41l.03-1.29Zm7.09-1.25l-3.9-5.42c-.48-.66-.15-1.8.52-1.83l3.52-.13,1.96-.07h2.87c.27.17.46.56.45,1l-.12,6.25-.05,2.74h-3.43l-1.82-2.54Zm9.16-.2l-.12-6.25c0-.45.18-.83.45-1h2.87l1.96.07,3.52.13c.67.03,1,1.16.52,1.83l-3.9,5.42-1.82,2.54h-3.43l-.05-2.74Zm7.09,1.25l3.9-5.42c.48-.66,1.29-.21,1.31.73l.1,4.89.03,1.29h-6.41l1.07-1.49Zm7,.2l.1-4.89c.02-.94.84-1.39,1.31-.73l3.9,5.42,1.07,1.49h-6.41l.03-1.29Zm7.09-1.25l-3.9-5.42c-.48-.66-.15-1.8.52-1.83l3.52-.13,1.96-.07h2.87c.27.17.46.56.45,1l-.12,6.25-.05,2.74h-3.43l-1.82-2.54Zm9.16-.2l-.12-6.25c0-.45.18-.83.45-1h2.87l1.96.07,3.52.13c.67.03,1,1.16.52,1.83l-3.9,5.42-1.82,2.54h-3.43l-.05-2.74Zm7.09,1.25l3.9-5.42c.48-.66,1.29-.21,1.31.73l.1,4.89.03,1.29h-6.41l1.07-1.49Zm7,.2l.1-4.89c.02-.94.84-1.39,1.31-.73l3.9,5.42,1.07,1.49h-6.41l.03-1.29Zm7.09-1.25l-3.9-5.42c-.48-.66-.15-1.8.52-1.83l3.52-.13,1.96-.07h2.87c.27.17.46.56.45,1l-.12,6.25-.05,2.74h-3.43l-1.82-2.54Zm9.16-.2l-.12-6.25c0-.45.18-.83.45-1h2.87l1.96.07,3.52.13c.67.03,1,1.16.52,1.83l-3.9,5.42-1.82,2.54h-3.43l-.05-2.74Zm7.09,1.25l3.9-5.42c.48-.66,1.29-.21,1.31.73l.1,4.89.03,1.29h-6.41l1.07-1.49Zm7,.2l.1-4.89c.02-.94.84-1.39,1.31-.73l3.9,5.42,1.07,1.49h-6.41l.03-1.29Zm7.09-1.25l-3.9-5.42c-.48-.66-.15-1.8.52-1.83l3.52-.13,1.96-.07h1.76v2.17c-.23.29-.36.65-.36,1.03v.57c0,.38.13.74.36,1.02v3.76c0,.49.06.97.16,1.44h-2.2l-1.82-2.54Zm33.85,2.54c.09-.47.14-.95.14-1.44v-4.16c.08-.2.13-.4.13-.63v-.57c0-.22-.05-.44-.13-.63v-2.56h1.33c.27.17.46.56.45,1l-.12,6.25-.05,2.74h-1.75Zm11.67,0l1.07-1.49,3.9-5.42c.48-.66,1.29-.21,1.31.73l.1,4.89.03,1.29h-6.41Zm8.07-1.29l.1-4.89c.02-.94.84-1.39,1.31-.73l3.36,4.67c.02.14.05.27.08.41.01.06.03.11.04.17.05.21.11.42.18.63.01.04.03.09.04.13.09.24.18.48.29.71.02.04.04.08.06.12.01.02.02.04.03.06h-5.53l.03-1.29Zm34.8,1.05c.09-.2.18-.41.25-.62.03-.1.06-.2.09-.29.05-.14.09-.29.12-.43.03-.11.05-.21.07-.32,0,0,0,0,0,0l.3.42,1.07,1.49h-2.04c.04-.08.08-.16.12-.24Zm2.63-2.29l-1.92-2.67v-4.63l2.07-.08,1.96-.07h2.87c.27.17.46.56.45,1l-.12,6.25-.05,2.74h-3.43l-1.82-2.54Zm9.16-.2l-.12-6.25c0-.45.18-.83.45-1h2.87l1.96.07,3.52.13c.67.03,1,1.16.52,1.83l-3.9,5.42-1.82,2.54h-3.43l-.05-2.74Zm7.09,1.25l3.9-5.42c.48-.66,1.29-.21,1.31.73l.1,4.89.03,1.29h-6.41l1.07-1.49Zm7,.2l.1-4.89c.02-.94.84-1.39,1.31-.73l3.9,5.42,1.07,1.49h-6.41l.03-1.29Zm7.09-1.25l-3.9-5.42c-.48-.66-.15-1.8.52-1.83l3.52-.13,1.96-.07h2.87c.27.17.46.56.45,1l-.12,6.25-.05,2.74h-3.43l-1.82-2.54Zm9.16-.2l-.12-6.25c0-.45.18-.83.45-1h2.87l1.96.07,3.52.13c.67.03,1,1.16.52,1.83l-3.9,5.42-1.82,2.54h-3.43l-.05-2.74Zm7.09,1.25l3.9-5.42c.48-.66,1.29-.21,1.31.73l.1,4.89.03,1.29h-6.41l1.07-1.49Zm7,.2l.1-4.89c.02-.94.84-1.39,1.31-.73l3.9,5.42,1.07,1.49h-6.41l.03-1.29Zm7.09-1.25l-3.9-5.42c-.48-.66-.15-1.8.52-1.83l3.52-.13,1.96-.07h2.87c.27.17.46.56.45,1l-.12,6.25-.05,2.74h-3.43l-1.82-2.54Zm9.16-.2l-.12-6.25c0-.45.18-.83.45-1h2.87l1.96.07,3.52.13c.67.03,1,1.16.52,1.83l-3.9,5.42-1.82,2.54h-3.43l-.05-2.74Zm7.09,1.25l3.9-5.42c.48-.66,1.29-.21,1.31.73l.1,4.89.03,1.29h-6.41l1.07-1.49Zm7,.2l.1-4.89c.02-.94.84-1.39,1.31-.73l3.9,5.42,1.07,1.49h-6.41l.03-1.29Zm7.09-1.25l-3.9-5.42c-.48-.66-.15-1.8.52-1.83l3.52-.13,1.96-.07h2.87c.27.17.46.56.45,1l-.12,6.25-.05,2.74h-3.43l-1.82-2.54Zm9.16-.2l-.12-6.25c0-.45.18-.83.45-1h2.87l1.96.07,3.52.13c.67.03,1,1.16.52,1.83l-3.9,5.42-1.82,2.54h-3.43l-.05-2.74Zm7.09,1.25l3.9-5.42c.48-.66,1.29-.21,1.31.73l.1,4.89.03,1.29h-6.41l1.07-1.49Zm7,.2l.1-4.89c.02-.94.84-1.39,1.31-.73l3.9,5.42,1.07,1.49h-6.41l.03-1.29Zm7.09-1.25l-3.9-5.42c-.48-.66-.15-1.8.52-1.83l3.52-.13,1.96-.07h2.87c.27.17.46.56.45,1l-.12,6.25-.05,2.74h-3.43l-1.82-2.54Zm9.01-.2l-.12-6.25c0-.45.18-.83.45-1h2.87l1.96.07,3.52.13c.67.03,1,1.16.52,1.83l-3.9,5.42-1.82,2.54h-3.43l-.05-2.74Zm7.09,1.25l3.9-5.42c.48-.66,1.29-.21,1.31.73l.1,4.89.03,1.29h-6.41l1.07-1.49Zm7,.2l.1-4.89c.02-.94.84-1.39,1.31-.73l3.9,5.42,1.07,1.49h-6.41l.03-1.29Zm7.09-1.25l-3.9-5.42c-.48-.66-.15-1.8.52-1.83l3.52-.13,1.96-.07h2.87c.27.17.46.56.45,1l-.12,6.25-.05,2.74h-3.43l-1.82-2.54Zm9.16-.2l-.12-6.25c0-.45.18-.83.45-1h2.87l1.96.07,3.52.13c.67.03,1,1.16.52,1.83l-3.9,5.42-1.82,2.54h-3.43l-.05-2.74Zm7.09,1.25l3.9-5.42c.48-.66,1.29-.21,1.31.73l.1,4.89.03,1.29h-6.41l1.07-1.49Zm7,.2l.1-4.89c.02-.94.84-1.39,1.31-.73l3.9,5.42,1.07,1.49h-6.41l.03-1.29Zm7.09-1.25l-3.9-5.42c-.48-.66-.15-1.8.52-1.83l3.52-.13,1.96-.07h2.87c.27.17.46.56.45,1l-.12,6.25-.05,2.74h-3.43l-1.82-2.54Zm9.16-.2l-.12-6.25c0-.45.18-.83.45-1h2.87l1.96.07,3.52.13c.67.03,1,1.16.52,1.83l-3.9,5.42-1.82,2.54h-3.43l-.05-2.74Zm7.09,1.25l3.9-5.42c.48-.66,1.29-.21,1.31.73l.1,4.89.03,1.29h-6.41l1.07-1.49Zm7,.2l.1-4.89c.02-.94.84-1.39,1.31-.73l3.9,5.42,1.07,1.49h-6.41l.03-1.29Zm7.09-1.25l-3.9-5.42c-.48-.66-.15-1.8.52-1.83l3.52-.13,1.96-.07h2.87c.27.17.46.56.45,1l-.12,6.25-.05,2.74h-3.43l-1.82-2.54Zm9.16-.2l-.12-6.25c0-.45.18-.83.45-1h2.87l1.96.07,3.52.13c.67.03,1,1.16.52,1.83l-3.9,5.42-1.82,2.54h-3.43l-.05-2.74Zm7.09,1.25l3.9-5.42c.48-.66,1.29-.21,1.31.73l.1,4.89.03,1.29h-6.41l1.07-1.49Zm7,.2l.1-4.89c.02-.94.84-1.39,1.31-.73l3.9,5.42,1.07,1.49h-6.41l.03-1.29Zm7.09-1.25l-3.9-5.42c-.48-.66-.15-1.8.52-1.83l3.52-.13,1.96-.07h2.87c.27.17.46.56.45,1l-.12,6.25-.05,2.74h-3.43l-1.82-2.54Zm18.78-25.24c5.43.23,10.88.36,16.35.39h0v13.54h-16.35v-13.92Zm-15.68-3.77c-1.09-.09-2.18-.18-3.27-.27v-.07c1.09.12,2.18.23,3.27.34Zm-5.56-.61v.14c-1.1-.1-2.21-.2-3.31-.31-.88-.09-1.75-.17-2.63-.27-3.6-.38-7.17-.8-10.73-1.27v-.7c5.52.94,11.07,1.75,16.66,2.41Zm-18.95-2.8v.79c-2.05-.28-4.09-.57-6.12-.87-.88-.13-1.75-.27-2.62-.4-2.65-.42-5.29-.86-7.92-1.33v-1.59c5.52,1.28,11.07,2.42,16.66,3.41Zm-18.95-3.95v1.73c-2.99-.55-5.97-1.12-8.93-1.73-.88-.18-1.75-.36-2.63-.55-1.71-.36-3.41-.73-5.11-1.12v-2.8c5.51,1.64,11.06,3.13,16.66,4.47Zm-18.95-5.16v2.96c-3.94-.91-7.86-1.87-11.74-2.88-.87-.23-1.75-.46-2.62-.7-.77-.21-1.53-.42-2.3-.64v-4.33c5.51,2.01,11.06,3.87,16.66,5.58Zm-19.93-6.79c.33.12.65.25.98.36v4.55c-4.9-1.38-9.75-2.85-14.54-4.39-.71-.23-1.41-.46-2.12-.69v-6.23c5.15,2.26,10.38,4.4,15.69,6.41Zm-17.97-7.42v6.47c-5.63-1.89-11.19-3.9-16.66-6.02v-8.54c5.45,2.85,11,5.54,16.66,8.08Zm-18.95-9.29v8.85c-.34-.14-.69-.27-1.03-.41-5.29-2.1-10.5-4.32-15.63-6.64v-11.39c5.43,3.36,10.99,6.55,16.66,9.57Zm-18.95-11v11.77c-.4-.19-.81-.37-1.22-.55-.88-.41-1.75-.82-2.63-1.23-4.34-2.05-8.61-4.18-12.82-6.38v-14.91c5.41,3.94,10.97,7.71,16.66,11.3Zm-18.95-12.98v15.39c-1.35-.72-2.69-1.43-4.02-2.17-.88-.48-1.75-.96-2.62-1.45-3.39-1.89-6.72-3.83-10.02-5.81v-19.31c5.39,4.65,10.94,9.1,16.66,13.35Zm-20.49-16.71c.51.46,1.03.92,1.55,1.37v19.91c-2.3-1.41-4.58-2.83-6.83-4.29-.88-.57-1.76-1.14-2.63-1.71-2.43-1.6-4.83-3.24-7.2-4.9v-24.9c4.82,4.98,9.86,9.83,15.11,14.52Zm-17.4-16.91v25.7c-3.27-2.32-6.49-4.69-9.64-7.11-.88-.67-1.76-1.35-2.62-2.03-1.48-1.16-2.94-2.34-4.4-3.52v-32.41c5.21,6.67,10.76,13.13,16.66,19.37Zm-18.95-22.33v33.48c-4.27-3.54-8.43-7.16-12.45-10.88-.88-.82-1.76-1.64-2.63-2.46-.53-.5-1.06-1.01-1.59-1.52v-43.37c5.05,8.52,10.61,16.78,16.66,24.75Zm-27.91-45.89c2.77,5.85,5.76,11.59,8.96,17.22v45.07c-5.34-5.25-10.43-10.66-15.26-16.23-.47-.54-.93-1.09-1.4-1.64v-62.47c2.32,6.08,4.88,12.1,7.7,18.05Zm-9.98-24.3v66.01c-1.53-1.84-3.04-3.69-4.51-5.57v-14.42c0-1.57-.97-2.94-2.39-3.68v-53.06c0-1.69-1.26-3.14-2.98-3.63v-23.37c2.26,12.78,5.55,25.37,9.88,37.72Zm-27.23-59.23c.08.07.15.14.23.22.08.08.16.15.23.23.09.1.17.2.26.3.05.06.11.13.16.19.09.12.17.24.25.36.04.06.08.11.12.17.08.13.15.26.22.4.02.03.04.06.05.1-.99,10.41-2.66,20.64-4.97,30.67-.51.1-1.03.16-1.57.16h-14.91c-.31,0-.61-.02-.9-.06-2.57-10.21-4.38-20.62-5.39-31.21,1.21-2,3.59-3.37,6.3-3.37h1.93s0,0,0,0h12.98c1.95,0,3.72.71,5.02,1.85Zm-38.72,20.12v25.3c-1.08.69-1.79,1.82-1.79,3.09v53.06c-1.42.74-2.39,2.12-2.39,3.68v14.91c-.93,1.32-1.87,2.63-2.82,3.93-.68.93-1.36,1.85-2.06,2.76v-65.2c4.09-13.58,7.11-27.44,9.05-41.54Zm-17.64,65.84c2.42-5.95,4.63-11.97,6.63-18.05v61.5c-4.53,5.86-9.31,11.56-14.34,17.07v-43.31c2.76-5.63,5.33-11.37,7.71-17.22Zm-9.68,21.15v41.52c-.3.32-.6.65-.91.98-4.31,4.58-8.79,9.01-13.43,13.32v-31.06c5.2-7.97,9.99-16.22,14.34-24.75Zm-16.3,27.71v29.91c-.42.39-.84.78-1.27,1.16-.75.68-1.52,1.36-2.28,2.03-3.51,3.09-7.11,6.1-10.79,9.03v-22.76c5.07-6.24,9.86-12.7,14.34-19.37Zm-29.31,36.28c4.52-4.7,8.86-9.54,13.01-14.52v21.93c-1.29,1.01-2.59,2.02-3.91,3.01-.76.57-1.52,1.15-2.29,1.71-2.68,1.98-5.39,3.92-8.14,5.83v-16.59c.45-.45.89-.91,1.33-1.37Zm-3.3,3.37v15.93c-2.16,1.47-4.34,2.92-6.55,4.34-.76.49-1.52.97-2.28,1.45-1.82,1.14-3.65,2.26-5.5,3.37v-11.74c4.92-4.25,9.7-8.7,14.34-13.35Zm-16.31,15.03v11.23c-3.03,1.78-6.09,3.52-9.19,5.21-.76.41-1.52.82-2.29,1.23-.95.5-1.9,1-2.86,1.49v-7.86c4.9-3.58,9.68-7.35,14.34-11.3Zm-16.3,12.72v7.44c-3.89,1.98-7.84,3.9-11.84,5.72-.76.35-1.52.69-2.28,1.03-.07.03-.14.06-.21.09v-4.72c4.88-3.02,9.66-6.22,14.34-9.57Zm-16.31,10.78v4.38c-4.71,2.07-9.49,4.03-14.34,5.87v-2.16c4.87-2.54,9.65-5.24,14.34-8.08Zm-29.8,15.5c4.57-2.01,9.07-4.14,13.5-6.41v1.89c-.16.06-.31.12-.47.18-4.57,1.69-9.19,3.28-13.87,4.78v-.07c.28-.12.56-.24.84-.36Zm-132.73,16.89c-1.09-.09-2.18-.18-3.27-.27v-.07c1.09.12,2.18.23,3.27.34Zm-5.56-.61v.14c-1.1-.1-2.21-.2-3.31-.31-.88-.09-1.75-.17-2.63-.27-3.6-.38-7.17-.8-10.73-1.27v-.7c5.52.94,11.07,1.75,16.66,2.41Zm-18.95-2.8v.79c-2.05-.28-4.09-.57-6.12-.87-.88-.13-1.75-.27-2.62-.4-2.65-.42-5.29-.86-7.92-1.33v-1.59c5.51,1.28,11.07,2.42,16.66,3.41Zm-18.95-3.95v1.73c-2.99-.55-5.97-1.12-8.93-1.73-.88-.18-1.75-.36-2.63-.55-1.71-.36-3.41-.73-5.11-1.12v-2.8c5.51,1.64,11.06,3.13,16.66,4.47Zm-18.95-5.16v2.96c-3.94-.91-7.86-1.87-11.74-2.88-.87-.23-1.75-.46-2.62-.7-.77-.21-1.53-.42-2.3-.64v-4.33c5.51,2.01,11.06,3.87,16.66,5.58Zm-19.93-6.79c.33.12.65.25.98.36v4.55c-4.9-1.38-9.75-2.85-14.54-4.39-.71-.23-1.41-.46-2.12-.69v-6.23c5.15,2.26,10.38,4.4,15.69,6.41Zm-17.97-7.42v6.47c-5.63-1.89-11.19-3.9-16.66-6.02v-8.54c5.45,2.85,11,5.54,16.66,8.08Zm-18.95-9.29v8.85c-.34-.14-.69-.27-1.03-.41-5.29-2.1-10.5-4.32-15.63-6.64v-11.39c5.43,3.36,10.99,6.55,16.66,9.57Zm-18.95-11v11.77c-.4-.19-.81-.37-1.22-.55-.88-.41-1.75-.82-2.63-1.23-4.34-2.05-8.61-4.18-12.82-6.38v-14.91c5.41,3.94,10.97,7.71,16.66,11.3Zm-18.95-12.98v15.39c-1.35-.72-2.69-1.43-4.02-2.17-.88-.48-1.75-.96-2.62-1.45-3.39-1.89-6.72-3.83-10.02-5.81v-19.31c5.39,4.65,10.94,9.1,16.66,13.35Zm-20.49-16.71c.51.46,1.03.92,1.55,1.37v19.91c-2.3-1.41-4.58-2.83-6.83-4.29-.88-.57-1.76-1.14-2.63-1.71-2.43-1.6-4.83-3.24-7.2-4.9v-24.9c4.82,4.98,9.86,9.83,15.11,14.52Zm-17.4-16.91v25.7c-3.27-2.32-6.49-4.69-9.64-7.11-.88-.67-1.76-1.35-2.62-2.03-1.48-1.16-2.94-2.34-4.4-3.52v-32.41c5.21,6.67,10.76,13.13,16.66,19.37Zm-18.95-22.33v33.48c-4.27-3.54-8.43-7.16-12.45-10.88-.88-.82-1.76-1.64-2.63-2.46-.53-.5-1.06-1.01-1.59-1.52v-43.37c5.05,8.52,10.61,16.78,16.66,24.75Zm-27.91-45.89c2.77,5.85,5.76,11.59,8.96,17.22v45.07c-5.34-5.25-10.43-10.66-15.26-16.23-.47-.54-.93-1.09-1.4-1.64v-62.47c2.32,6.08,4.88,12.1,7.7,18.05Zm-9.98-24.3v66.01c-1.53-1.84-3.04-3.69-4.51-5.57v-14.42c0-1.57-.97-2.94-2.39-3.68v-53.06c0-1.69-1.26-3.14-2.98-3.63v-23.37c2.26,12.78,5.55,25.37,9.88,37.72Zm-27.23-59.23c.08.07.15.14.23.22.08.08.16.15.23.23.09.1.17.2.26.3.05.06.11.13.16.19.09.12.17.24.25.36.04.06.08.11.12.17.08.13.15.26.22.4.02.03.04.06.05.1-.99,10.41-2.66,20.64-4.97,30.67-.51.1-1.03.16-1.57.16h-14.91c-.31,0-.61-.02-.9-.06-2.57-10.21-4.38-20.62-5.39-31.21,1.21-2,3.59-3.37,6.3-3.37h1.93s0,0,0,0h12.98c1.95,0,3.72.71,5.02,1.85Zm-38.72,20.12v25.3c-1.08.69-1.79,1.82-1.79,3.09v53.06c-1.42.74-2.39,2.12-2.39,3.68v14.91c-.93,1.32-1.87,2.63-2.82,3.93-.68.93-1.36,1.85-2.06,2.76v-65.2c4.09-13.58,7.11-27.44,9.05-41.54Zm-17.64,65.84c2.42-5.95,4.63-11.97,6.63-18.05v61.5c-4.53,5.86-9.31,11.56-14.34,17.07v-43.31c2.76-5.63,5.33-11.37,7.71-17.22Zm-9.68,21.15v41.52c-.3.32-.6.65-.91.98-4.31,4.58-8.79,9.01-13.43,13.32v-31.06c5.2-7.97,9.99-16.22,14.34-24.75Zm-16.3,27.71v29.91c-.42.39-.84.78-1.27,1.16-.75.68-1.52,1.36-2.28,2.03-3.51,3.09-7.11,6.1-10.79,9.03v-22.76c5.07-6.24,9.86-12.7,14.34-19.37Zm-29.31,36.28c4.52-4.7,8.86-9.54,13.01-14.52v21.93c-1.29,1.01-2.59,2.02-3.91,3.01-.76.57-1.52,1.15-2.29,1.71-2.68,1.98-5.39,3.92-8.14,5.83v-16.59c.45-.45.89-.91,1.33-1.37Zm-3.3,3.37v15.93c-2.16,1.47-4.34,2.92-6.55,4.34-.76.49-1.52.97-2.28,1.45-1.82,1.14-3.65,2.26-5.5,3.37v-11.74c4.92-4.25,9.7-8.7,14.34-13.35Zm-16.31,15.03v11.23c-3.03,1.78-6.09,3.52-9.19,5.21-.76.41-1.52.82-2.29,1.23-.95.5-1.9,1-2.86,1.49v-7.86c4.9-3.58,9.68-7.35,14.34-11.3Zm-16.3,12.72v7.44c-3.89,1.98-7.84,3.9-11.84,5.72-.76.35-1.52.69-2.28,1.03-.07.03-.14.06-.21.09v-4.72c4.88-3.02,9.66-6.22,14.34-9.57Zm-16.31,10.78v4.38c-4.71,2.07-9.49,4.03-14.34,5.87v-2.16c4.87-2.54,9.65-5.24,14.34-8.08Zm-29.8,15.5c4.57-2.01,9.07-4.14,13.5-6.41v1.89c-.16.06-.31.12-.47.18-4.57,1.69-9.19,3.28-13.87,4.78v-.07c.28-.12.56-.24.84-.36ZM2.43,313.03l-.12-6.25c0-.45.18-.83.45-1h2.87l1.96.07,3.52.13c.67.03,1,1.16.52,1.83l-3.9,5.42-1.82,2.54h-3.43l-.05-2.74Zm278.47,86.22h-4.42v-10.86h-5.39v-9.77c0-3.55-2.54-6.56-6.08-7.68v-47.44h36.57v46.78c-.89.28-1.71.68-2.46,1.18-.03.02-.05.03-.08.05-.17.11-.33.23-.49.35-.03.03-.06.05-.1.08-.43.35-.83.73-1.19,1.15-.07.09-.15.17-.22.26-.08.1-.15.19-.22.29-.08.12-.16.23-.24.35-.05.09-.11.17-.16.26-.1.17-.2.35-.29.53-.02.04-.04.08-.06.12-.11.23-.21.47-.29.72-.01.04-.03.08-.04.12-.07.21-.13.42-.18.63-.01.06-.03.11-.04.17-.05.22-.08.43-.11.65,0,.04-.01.08-.02.12-.03.27-.05.54-.05.81v10h-5.13s0,0,0,0v11.11h-.88s0,0,0,0h-8.44Zm605.5,0h-4.42v-10.86h-5.39v-9.77c0-3.55-2.54-6.56-6.08-7.68v-47.44h36.57v46.78c-.89.28-1.71.68-2.46,1.18-.03.02-.05.03-.08.05-.17.11-.33.23-.49.35-.03.03-.06.05-.1.08-.43.35-.83.73-1.19,1.15-.07.09-.15.17-.22.26-.08.1-.15.19-.22.29-.08.12-.16.23-.24.35-.05.09-.11.17-.16.26-.1.17-.2.35-.29.53-.02.04-.04.08-.06.12-.11.23-.21.47-.29.72-.01.04-.03.08-.04.12-.07.21-.13.42-.18.63-.01.06-.03.11-.04.17-.05.22-.08.43-.11.65,0,.04-.01.08-.02.12-.03.27-.05.54-.05.81v10h-5.13s0,0,0,0v11.11h-.88s-8.44,0-8.44,0Zm325.54-92.47l-.12,6.25-.05,2.74h-3.43l-1.82-2.54-3.9-5.42c-.48-.66-.15-1.8.52-1.83l3.52-.13,1.96-.07h2.87c.27.17.46.56.45,1Z"/></g></svg>