<?xml version="1.0" encoding="UTF-8"?><svg id="Layer_2" xmlns="http://www.w3.org/2000/svg" viewBox="0 0 1922.68 638.11"><defs><style>.cls-1{fill:none;opacity:.2;stroke:#f2f2f2;stroke-miterlimit:10;}</style></defs><g id="Layer_1-2"><path id="_2" class="cls-1" d="m1922.17,446.82v-.05h-.13c-1.02,0-2.04,0-3.05,0-.06,0-.13,0-.19,0h0s0,0,0,0c-8.86-.05-17.66-.33-26.39-.82-1.21-.07-2.41-.14-3.62-.21-8.87-.55-17.67-1.33-26.39-2.32-1.21-.14-2.42-.28-3.62-.43-8.88-1.07-17.68-2.36-26.39-3.87-1.21-.21-2.42-.42-3.62-.64-8.89-1.6-17.69-3.43-26.39-5.48-1.21-.28-2.42-.57-3.62-.87-8.91-2.16-17.7-4.55-26.39-7.17-1.21-.36-2.41-.73-3.62-1.1-8.92-2.76-17.72-5.75-26.39-8.97-1.21-.45-2.42-.9-3.62-1.36-8.94-3.4-17.74-7.03-26.39-10.91-1.21-.54-2.42-1.08-3.62-1.64-8.97-4.09-17.77-8.44-26.39-13.03-1.21-.64-2.42-1.29-3.62-1.94-9-4.88-17.8-10.03-26.39-15.44-1.21-.76-2.42-1.52-3.62-2.29-9.04-5.8-17.84-11.87-26.39-18.21-1.21-.9-2.42-1.81-3.62-2.71-9.1-6.89-17.91-14.08-26.39-21.56-1.22-1.07-2.42-2.14-3.62-3.22-9.19-8.27-18-16.87-26.39-25.8-1.22-1.29-2.43-2.59-3.62-3.9-9.34-10.16-18.14-20.72-26.39-31.63-1.22-1.61-2.43-3.23-3.62-4.86-9.62-13.11-18.44-26.74-26.39-40.81-1.23-2.17-2.44-4.35-3.62-6.55-10.46-19.34-19.32-39.51-26.39-60.36-1.27-3.72-2.47-7.45-3.62-11.21-8.37-27.37-13.69-55.86-15.64-85.14v-22.61s0,0,.01,0c.25-.13.47-.3.62-.52,0-.01.01-.03.02-.04.06-.09.1-.18.14-.28.01-.03.03-.07.04-.1.03-.1.04-.2.05-.3,0-.02.01-.04.01-.06,0-.81-.73-1.48-1.64-1.5h.2v-2.79c0-1.64-.56-3.17-1.52-4.44-.48-.63-1.06-1.2-1.71-1.69-1.53-1.13-3.5-1.81-5.65-1.81h-1.28l-.18-1.94-.08-.94c-.19-2.06-.46-4.11-.82-6.14l-.37-2.09-.39-2.19h0s0,0,0,0l-.77,4.31c-.24,1.38-.43,2.76-.6,4.15-.08.65-.16,1.31-.22,1.97l-.15,1.67-.11,1.19h-.79c-1.99,0-3.82.59-5.3,1.58-2.17,1.44-3.58,3.75-3.58,6.35v2.79h0s.2,0,.2,0c-.91.02-1.64.68-1.64,1.5h0c0,.13.03.26.06.38,0,.03.02.06.03.08.04.11.1.22.17.32,0,0,0,0,0,.01.17.23.4.42.68.54v10.5c0,.31-.03.62-.08.92-.01.07-.02.14-.04.2-.06.29-.13.58-.23.86-.01.04-.03.07-.04.11-.1.25-.21.49-.34.73-.03.06-.06.12-.09.17-.15.25-.31.5-.49.73-.04.05-.08.1-.12.15-.16.2-.33.38-.52.56-.05.05-.09.1-.14.14-.21.2-.44.38-.68.55-.07.05-.15.1-.22.15-.2.13-.42.26-.63.38-.07.03-.13.07-.19.1-.26.13-.53.24-.81.33-.83.3-1.74.47-2.69.47h-31.65c-2.01,0-3.84-.74-5.17-1.92-.68-.61-1.23-1.34-1.6-2.15-.14-3.94-.23-7.89-.23-11.85v-.11h-.32v-.06s0,0,0,0c.12-.03.23-.07.33-.13.03-.01.05-.03.08-.05.08-.05.15-.11.22-.17.05-.05.09-.11.13-.17.03-.05.07-.09.09-.14.06-.13.09-.26.09-.41,0-.28-.13-.53-.32-.72-.23-.24-.55-.39-.92-.4h.15s0,0,0,0v-2.09c0-3.29-2.99-5.96-6.67-5.96h-.96l-.07-.76-.12-1.4c-.13-1.43-.32-2.85-.57-4.26-.02-.12-.03-.24-.06-.36l-.1-.55-.47-2.65h0s0,0,0,0l-.58,3.24c-.27,1.53-.48,3.06-.62,4.6l-.19,2.15h-.6c-3.69,0-6.67,2.67-6.67,5.96v2.09h0s.15,0,.15,0c-.68.01-1.24.51-1.24,1.12,0,.02.01.04.01.07,0,.12.03.23.07.33.03.07.07.12.12.18.03.04.06.09.1.13.07.07.15.13.24.19.02.01.04.02.05.03.11.06.22.11.35.14v.06h-.14v.11c0,38.21-4.94,75.25-14.2,110.45-.99,3.76-2.02,7.5-3.11,11.21-6.09,20.84-13.71,41.01-22.71,60.36-1.02,2.19-2.06,4.38-3.12,6.55-6.85,14.07-14.43,27.7-22.71,40.81-1.02,1.63-2.06,3.25-3.11,4.86-7.1,10.92-14.68,21.47-22.71,31.63-1.03,1.31-2.07,2.61-3.12,3.9-7.22,8.93-14.8,17.53-22.71,25.8-1.03,1.08-2.07,2.15-3.11,3.22-7.3,7.48-14.88,14.67-22.71,21.56-1.03.91-2.08,1.81-3.12,2.71-7.36,6.34-14.93,12.41-22.71,18.21-1.03.77-2.07,1.53-3.11,2.29-7.39,5.4-14.96,10.55-22.71,15.44-1.04.65-2.08,1.3-3.12,1.94-7.42,4.59-14.99,8.94-22.71,13.03-1.03.55-2.07,1.1-3.11,1.64-7.44,3.87-15.02,7.51-22.71,10.91-1.04.46-2.08.91-3.12,1.36-7.46,3.21-15.03,6.21-22.71,8.97-1.04.37-2.08.74-3.11,1.1-7.48,2.61-15.05,5.01-22.71,7.17-.11.03-.22.06-.33.09-4.13.85-8.29,1.66-12.46,2.41-1.2.22-2.41.43-3.62.64-8.71,1.52-17.51,2.81-26.39,3.87-1.21.15-2.41.29-3.62.43-8.73.99-17.53,1.77-26.39,2.32-1.21.08-2.41.15-3.62.21-8.74.49-17.54.76-26.39.82h0c-.06,0-.13,0-.19,0-.47,0-.93,0-1.4,0-.47,0-.94,0-1.4,0-.06,0-.13,0-.19,0h0s0,0,0,0c-8.86-.05-17.66-.33-26.39-.82-1.21-.07-2.41-.14-3.62-.21-8.87-.55-17.67-1.33-26.39-2.32-1.21-.14-2.42-.28-3.62-.43-8.88-1.07-17.68-2.36-26.39-3.87-1.21-.21-2.42-.42-3.62-.64-8.89-1.6-17.69-3.43-26.39-5.48-1.21-.28-2.42-.57-3.62-.87-8.91-2.16-17.7-4.55-26.39-7.17-1.21-.36-2.41-.73-3.62-1.1-8.92-2.76-17.72-5.75-26.39-8.97-1.21-.45-2.42-.9-3.62-1.36-8.94-3.4-17.74-7.03-26.39-10.91-1.21-.54-2.42-1.08-3.62-1.64-8.97-4.09-17.77-8.44-26.39-13.03-1.21-.64-2.42-1.29-3.62-1.94-9-4.88-17.8-10.03-26.39-15.44-1.21-.76-2.42-1.52-3.62-2.29-9.04-5.8-17.84-11.87-26.39-18.21-1.21-.9-2.42-1.81-3.62-2.71-9.1-6.89-17.91-14.08-26.39-21.56-1.22-1.07-2.42-2.14-3.62-3.22-9.19-8.27-18-16.87-26.39-25.8-1.22-1.29-2.43-2.59-3.62-3.9-9.34-10.16-18.14-20.72-26.39-31.63-1.22-1.61-2.43-3.23-3.62-4.86-9.62-13.11-18.44-26.74-26.39-40.81-1.23-2.17-2.44-4.35-3.62-6.55-10.46-19.34-19.32-39.51-26.39-60.36-1.27-3.72-2.47-7.45-3.62-11.21-8.37-27.37-13.69-55.86-15.64-85.14v-22.61s0,0,.01,0c.25-.13.47-.3.62-.52,0-.01.01-.03.02-.04.06-.09.1-.18.14-.28.01-.03.03-.07.04-.1.03-.1.04-.2.05-.3,0-.02.01-.04.01-.06,0-.81-.73-1.48-1.64-1.5h.2v-2.79c0-1.64-.56-3.17-1.52-4.44-.48-.63-1.06-1.2-1.71-1.69-1.53-1.13-3.5-1.81-5.65-1.81h-1.28l-.18-1.94-.08-.94c-.19-2.06-.46-4.11-.82-6.14l-.37-2.09-.39-2.19h0s0,0,0,0l-.77,4.31c-.24,1.38-.43,2.76-.6,4.15-.08.65-.16,1.31-.22,1.97l-.15,1.67-.11,1.19h-.79c-1.99,0-3.82.59-5.3,1.58-2.17,1.44-3.58,3.75-3.58,6.35v2.79h0s.2,0,.2,0c-.91.02-1.64.68-1.64,1.5,0,0,0,0,0,0s0,0,0,0c0,.13.03.26.06.38,0,.03.02.06.03.08.04.11.1.22.17.32,0,0,0,0,0,.01.17.23.4.42.68.54v10.5c0,.31-.03.62-.08.92-.01.07-.02.14-.04.2-.06.29-.13.58-.23.86-.01.04-.03.07-.04.11-.1.25-.21.49-.34.73-.03.06-.06.12-.09.17-.15.25-.31.5-.49.73-.04.05-.08.1-.12.15-.16.2-.33.38-.52.56-.05.05-.09.1-.14.14-.21.2-.44.38-.68.55-.07.05-.15.1-.22.15-.2.13-.42.26-.63.38-.06.03-.13.07-.19.1-.26.13-.53.24-.81.33-.83.3-1.74.47-2.69.47h-31.65c-2.01,0-3.84-.74-5.17-1.92-.68-.61-1.23-1.34-1.6-2.15-.14-3.94-.23-7.89-.23-11.85v-.11h-.32v-.06s0,0,0,0c.12-.03.23-.07.33-.13.03-.01.05-.03.08-.05.08-.05.15-.11.22-.17.05-.05.09-.11.13-.17.03-.05.07-.09.09-.14.06-.13.09-.26.09-.41,0-.28-.13-.53-.32-.72-.23-.24-.55-.39-.92-.4h.15s0,0,0,0v-2.09c0-3.29-2.99-5.96-6.67-5.96h-.96l-.07-.76-.12-1.4c-.13-1.43-.32-2.85-.57-4.26-.02-.12-.03-.24-.06-.36l-.1-.55-.47-2.65h0s0,0,0,0l-.58,3.24c-.27,1.53-.48,3.06-.62,4.6l-.19,2.15h-.6c-3.69,0-6.67,2.67-6.67,5.96v2.09h0s.15,0,.15,0c-.68.01-1.24.51-1.24,1.12,0,.02.01.04.01.07,0,.12.03.23.08.33.03.07.07.12.12.18.03.04.06.09.1.13.07.07.15.13.24.19.02.01.04.02.05.03.11.06.22.11.35.14v.06h-.14v.11c0,38.21-4.94,75.25-14.2,110.45-.99,3.76-2.02,7.5-3.11,11.21-6.09,20.84-13.71,41.01-22.71,60.36-1.02,2.19-2.06,4.38-3.12,6.55-6.85,14.07-14.43,27.7-22.71,40.81-1.02,1.63-2.06,3.25-3.11,4.86-7.1,10.92-14.68,21.47-22.71,31.63-1.03,1.31-2.07,2.61-3.12,3.9-7.22,8.93-14.8,17.53-22.71,25.8-1.03,1.08-2.07,2.15-3.11,3.22-7.3,7.48-14.88,14.67-22.71,21.56-1.03.91-2.08,1.81-3.12,2.71-7.36,6.34-14.93,12.41-22.71,18.21-1.03.77-2.07,1.53-3.11,2.29-7.39,5.4-14.96,10.55-22.71,15.44-1.04.65-2.08,1.3-3.12,1.94-7.42,4.59-14.99,8.94-22.71,13.03-1.03.55-2.07,1.1-3.11,1.64-7.44,3.87-15.02,7.51-22.71,10.91-1.04.46-2.08.91-3.12,1.36-7.46,3.21-15.03,6.21-22.71,8.97-1.04.37-2.08.74-3.11,1.1-7.48,2.61-15.05,5.01-22.71,7.17-.11.03-.22.06-.33.09-4.13.85-8.29,1.66-12.46,2.41-1.2.22-2.41.43-3.62.64-8.71,1.52-17.51,2.81-26.39,3.87-1.21.15-2.41.29-3.62.43-8.73.99-17.53,1.77-26.39,2.32-1.21.08-2.41.15-3.62.21-8.74.49-17.54.76-26.39.82h0c-.06,0-.13,0-.19,0-1.02,0-2.03,0-3.05,0h-.13v.05h0v30.79h0v33.11h390.5v75.14c-5.61,1.78-9.63,6.55-9.63,12.17v15.48h-7.95v17.2h-14.61v6.9h0s76.37,0,76.37,0c0,0,0,0,0,0h107.88v-6.9h0s-17.95,0-17.95,0v-17.6h0s-8.74,0-8.74,0v-15.84c0-.08-.01-.16-.01-.23,0-.32-.02-.65-.05-.96-.02-.16-.04-.32-.07-.48-.03-.24-.07-.48-.12-.72-.03-.17-.07-.33-.11-.5-.06-.23-.13-.46-.2-.69-.05-.15-.09-.31-.15-.46-.12-.34-.26-.68-.41-1-.08-.17-.17-.33-.25-.49-.1-.18-.19-.37-.3-.55-.11-.19-.22-.37-.34-.55-.09-.14-.18-.28-.28-.41-.14-.19-.28-.39-.43-.57-.07-.09-.15-.18-.23-.27-.6-.72-1.29-1.39-2.04-1.99-.02-.01-.03-.03-.05-.04-.27-.21-.55-.42-.84-.61-.01,0-.02-.01-.03-.02-1.19-.8-2.51-1.44-3.94-1.9v-74.1h843.55v75.14c-5.61,1.78-9.63,6.55-9.63,12.17v15.48h-7.95v17.2h-14.61v6.9h0s76.37,0,76.37,0c0,0,0,0,0,0h107.88v-6.9h0s-17.95,0-17.95,0v-17.6h0s-8.74,0-8.74,0v-15.84c0-.08-.01-.16-.01-.23,0-.32-.02-.65-.05-.96-.02-.16-.04-.32-.07-.48-.03-.24-.07-.48-.12-.72-.03-.17-.07-.33-.11-.5-.06-.23-.13-.46-.2-.69-.05-.15-.09-.31-.15-.46-.12-.34-.26-.68-.41-1-.08-.17-.17-.33-.25-.49-.1-.18-.19-.37-.3-.55-.11-.19-.22-.37-.34-.55-.09-.14-.18-.28-.28-.41-.14-.19-.28-.39-.42-.57-.07-.09-.15-.18-.23-.27-.6-.72-1.29-1.39-2.04-1.99-.02-.01-.03-.03-.05-.04-.27-.21-.55-.42-.84-.61-.01,0-.02-.01-.03-.02-1.19-.8-2.51-1.44-3.94-1.9v-74.1h456.61v-63.89h0Zm-20.45,40.7l6.18,8.59,1.7,2.36h-10.15l.04-2.04.15-7.75c.03-1.49,1.32-2.2,2.08-1.15Zm-4.87,10.95h-10.15l1.7-2.36,6.18-8.59c.76-1.05,2.05-.33,2.08,1.15l.15,7.75.04,2.04Zm-11.5-15.7l5.58.21c1.07.04,1.59,1.84.83,2.89l-6.18,8.58-2.89,4.02h-5.44l-.09-4.33-.2-9.9c-.01-.71.29-1.32.72-1.59h4.55l3.1.12Zm-488.39,15.7l-.09-4.33-.2-9.9c-.01-.71.29-1.32.72-1.59h4.55l3.1.12,5.58.21c1.07.04,1.59,1.84.83,2.89l-6.18,8.58-2.89,4.02h-5.43Zm-432.57-4.33l-.2-9.9c-.01-.71.29-1.32.72-1.59h4.55l3.1.12,5.58.21c1.07.04,1.59,1.84.83,2.89l-6.18,8.58-2.89,4.02h-5.43l-.09-4.33Zm-5.91-9.9l-.2,9.9-.09,4.33h-5.43l-2.89-4.02-6.18-8.58c-.76-1.05-.24-2.85.83-2.89l5.58-.21,3.1-.12h4.55c.43.27.73.88.72,1.59Zm-522.36,14.23l-.09-4.33-.2-9.9c-.01-.71.29-1.32.72-1.59h4.55l3.1.12,5.58.21c1.07.04,1.58,1.84.83,2.89l-6.18,8.58-2.89,4.02h-5.44Zm1451.87-21.95v-22.24c.27.01.53.02.8.03v22.21h-.8Zm-4.15,0h-21.44v-23.93c7.12.6,14.27,1.1,21.44,1.48v22.45ZM3.87,455.07c7.45-.06,14.87-.32,22.25-.79v22.24H3.87v-21.45Zm25.36-1c.35-.02.69-.06,1.04-.08v22.53h-1.04v-22.45Zm74.36,22.45h-9.68v-32.52c3.24-.78,6.46-1.6,9.68-2.47v34.99Zm-13.3,0h-9.41v-29.59c3.15-.65,6.28-1.35,9.41-2.07v31.66Zm-12.52,0h-13.87v-26.48c4.64-.75,9.26-1.57,13.87-2.48v28.96Zm-17.49,0h-5.22v-25.15c1.74-.24,3.48-.49,5.22-.76v25.9Zm-8.34,0h-18.06v-22.81c6.04-.5,12.06-1.14,18.06-1.91v24.73Zm98.37,0h-17.79v-41.85c5.96-1.54,11.89-3.17,17.79-4.93v46.77Zm-20.9,0h-5.49v-39.69c1.83-.44,3.66-.9,5.49-1.36v41.05ZM423.88,150.79c.27-.2.55-.38.84-.56.15-.1.31-.18.47-.27.17-.1.34-.19.51-.28.17-.09.35-.17.52-.26.17-.08.35-.15.52-.23.18-.07.36-.15.54-.22,1.6-.59,3.34-.92,5.17-.92h6.25c1.16,3.15,2.36,6.3,3.62,9.43v12.82c-5.39,13.22-11.5,26.14-18.29,38.71-.31.58-.64,1.15-.96,1.73-1.27-1.08-2.3-2.36-3.04-3.8-.14-.27-.27-.55-.38-.84-.05-.12-.1-.24-.15-.36-.11-.28-.19-.57-.28-.86-.04-.12-.08-.25-.11-.37-.08-.32-.14-.65-.19-.98-.01-.1-.04-.2-.05-.29-.05-.43-.08-.87-.08-1.32v-41.67c0-.05,0-.1,0-.15,0-.32.02-.63.05-.94.01-.14.03-.28.05-.42.03-.23.07-.46.12-.69.03-.14.06-.28.09-.42.06-.26.14-.51.22-.76.04-.12.08-.25.12-.37.1-.29.22-.57.35-.85.06-.14.13-.27.2-.4.1-.19.2-.38.3-.56.08-.14.16-.27.24-.41.12-.19.25-.38.38-.56.09-.12.17-.25.27-.37.19-.25.4-.49.61-.73.11-.12.23-.24.34-.36.14-.14.28-.29.43-.42.13-.12.26-.24.39-.35.16-.13.32-.26.48-.39.13-.1.26-.21.39-.3Zm-7.83,111.62c.02-.16.04-.32.06-.48.04-.25.08-.49.13-.73.04-.17.07-.34.11-.51.06-.23.13-.46.2-.69.05-.16.1-.33.15-.48.12-.34.26-.68.42-1.01.09-.19.19-.36.28-.55.09-.16.17-.33.27-.49.12-.2.24-.39.36-.58.09-.13.17-.26.26-.39.14-.2.29-.4.44-.6.51-.64,1.06-1.24,1.68-1.79v64.91c-.1-.09-.19-.17-.28-.26-.16-.15-.32-.31-.48-.47-.12-.12-.24-.25-.36-.37-.23-.26-.46-.52-.67-.8-.09-.12-.17-.24-.26-.36-.15-.2-.29-.41-.42-.62-.08-.13-.16-.25-.24-.38-.18-.31-.36-.62-.51-.94-.05-.1-.09-.21-.14-.31-.12-.26-.22-.52-.32-.78-.05-.13-.09-.25-.14-.38-.12-.35-.23-.71-.31-1.07-.02-.07-.03-.15-.04-.23-.07-.31-.12-.63-.16-.95-.02-.13-.03-.25-.04-.38-.04-.36-.06-.72-.06-1.08,0-.03,0-.07,0-.1v-45.91c0-.06,0-.11,0-.17,0-.35.02-.7.06-1.05Zm45.66-12.22h.64c6.84,0,12.63,4.13,14.44,9.73v53.32c-.02.07-.04.15-.06.22-.03.08-.06.16-.09.24-.11.29-.23.58-.36.87-.05.12-.11.24-.17.36-.13.27-.28.53-.43.79-.05.09-.1.18-.15.27-.2.32-.42.64-.65.95-.08.1-.16.2-.24.3-.17.22-.35.43-.54.64-.09.11-.19.21-.29.32-.23.25-.48.49-.73.72-.06.06-.12.11-.18.17-.28.25-.57.48-.88.71-.11.08-.22.16-.33.24-.25.18-.5.34-.76.51-.1.06-.2.13-.3.19-.36.21-.73.42-1.11.6-.05.02-.1.04-.14.06-2.1,1-4.5,1.58-7.04,1.58h-8.3v-72.78h7.66Zm7.22,220.85c-1.93,0-3.51,1.41-3.51,3.14v.99s0,.05,0,.07c0,.17.02.33.06.48.01.07.03.13.05.2.03.12.07.23.12.34.03.06.05.13.08.19.01.02.02.05.03.07h-11.72v-117.47h8.3c4.54,0,8.62,1.83,11.39,4.69.17.17.33.36.49.54.13.15.26.3.39.46.14.17.27.35.4.52.13.18.25.36.37.55.11.17.22.34.32.51.12.21.23.42.34.63.08.17.17.33.25.5.11.23.2.47.29.7.06.16.13.32.18.49.02.05.02.09.04.14v102.26h-7.86Zm-18.5-148.08h-3.94v-72.78h3.94v72.78Zm-8.1,0h-11.32c-2.52,0-4.89-.56-6.98-1.55v-69.68c2.09-.98,4.46-1.55,6.98-1.55h11.32v72.78Zm-9.87-108.84c-1.76,0-3.45-.31-5-.86,3.79-6.94,7.39-13.98,10.77-21.12,1.41-2.98,2.77-5.98,4.1-8.98v30.96h-9.87Zm-16.41,157.06c.02-.22.07-.43.1-.65.04-.22.06-.43.11-.65.05-.21.11-.42.17-.63.06-.21.11-.42.18-.62.07-.2.15-.4.23-.6.08-.2.16-.41.25-.6.09-.19.19-.38.29-.57.1-.2.2-.39.32-.58.11-.18.22-.36.34-.53.12-.19.25-.38.38-.56.12-.17.25-.33.38-.49.14-.18.29-.36.44-.53.14-.15.28-.31.42-.45.16-.17.33-.33.5-.49.09-.08.17-.16.26-.24v111.68h-4.44v-102.18c0-.19.02-.38.03-.58.01-.24.02-.49.04-.73Zm14.83,105.34c-.53-1.09-1.74-1.85-3.15-1.85h-3.69v-114.07c.24-.11.48-.21.72-.31.18-.07.35-.15.53-.22.28-.1.57-.19.85-.28.16-.05.32-.11.49-.15.35-.1.72-.18,1.08-.25.1-.02.21-.05.31-.07.97-.18,1.97-.27,3-.27h11.32v117.47h-11.46Zm15.61-117.47h3.94v117.47h-3.94v-117.47Zm22.85-147.57c-.18.13-.37.25-.55.37-.16.1-.33.21-.5.3-.19.11-.38.21-.57.31-.18.1-.37.19-.56.28-.18.09-.37.16-.56.24-.21.09-.41.17-.63.25-.18.06-.36.12-.53.18-.24.07-.47.15-.71.21-.16.04-.32.07-.48.11-.27.06-.54.12-.82.17-.12.02-.25.03-.37.05-.32.05-.64.09-.97.11-.39.03-.79.05-1.19.05h-6.85v-30.57c2.07,4.16,4.2,8.31,6.45,12.43,2.84,5.21,5.81,10.37,8.89,15.47-.02.01-.03.02-.05.04Zm-18.91-35.42v38.06h-3.94v-40.68c.43-1.05.88-2.11,1.3-3.16.86,1.93,1.74,3.86,2.64,5.78Zm13.8,306.92l3.3-.13v8.75l-4.13-5.74c-.76-1.05-.24-2.85.83-2.89Zm598.42-6.45h-9.68v-32.52c3.24-.78,6.46-1.6,9.68-2.47v34.99Zm-13.3,0h-9.41v-29.59c3.15-.65,6.28-1.35,9.41-2.07v31.66Zm-12.52,0h-13.87v-26.48c4.64-.75,9.26-1.57,13.87-2.48v28.96Zm-17.49,0h-5.22v-25.15c1.74-.24,3.48-.49,5.22-.76v25.9Zm-8.34,0h-18.06v-22.81c6.04-.5,12.06-1.14,18.06-1.91v24.73Zm-21.67,0h-1.04v-22.45c.35-.02.69-.06,1.04-.08v22.53Zm-4.15,0h-22.06v-21.45c7.39-.06,14.74-.32,22.06-.79v22.24Zm-25.94,0h-25.9v-22.05c8.6.36,17.23.57,25.89.61h0v21.44Zm-29.51,0h-.8v-22.24c.27.01.53.02.8.03v22.21Zm179.64,0h-17.79v-41.85c5.96-1.54,11.89-3.17,17.79-4.93v46.77Zm-20.9,0h-5.49v-39.69c1.83-.44,3.66-.9,5.49-1.36v41.05Zm294.46-325.73c.27-.2.55-.38.84-.56.15-.1.31-.18.47-.27.17-.1.34-.19.51-.28.17-.09.35-.17.52-.26.17-.08.35-.15.52-.23.18-.07.36-.15.54-.22,1.6-.59,3.34-.92,5.17-.92h6.25c1.16,3.15,2.36,6.3,3.62,9.43v12.82c-5.39,13.22-11.5,26.14-18.29,38.71-.31.58-.64,1.15-.96,1.73-1.27-1.08-2.3-2.36-3.04-3.8-.14-.27-.27-.55-.38-.84-.05-.12-.1-.24-.15-.36-.11-.28-.19-.57-.28-.86-.04-.12-.08-.25-.11-.37-.08-.32-.14-.65-.19-.98-.02-.1-.04-.2-.05-.29-.05-.43-.08-.87-.08-1.32v-41.67c0-.05,0-.1,0-.15,0-.32.02-.63.05-.94.01-.14.03-.28.05-.42.03-.23.07-.46.12-.69.03-.14.06-.28.09-.42.06-.26.14-.51.22-.76.04-.12.08-.25.12-.37.1-.29.22-.57.35-.85.06-.14.13-.27.2-.4.1-.19.2-.38.3-.56.08-.14.16-.27.24-.41.12-.19.25-.38.38-.56.09-.12.17-.25.27-.37.19-.25.4-.49.61-.73.11-.12.23-.24.34-.36.14-.14.28-.29.43-.42.13-.12.26-.24.39-.35.16-.13.32-.26.48-.39.13-.1.26-.21.39-.3Zm7,325.73c-.53-1.09-1.74-1.85-3.15-1.85h-3.69v-114.07c.24-.11.48-.21.72-.31.18-.07.35-.15.53-.22.28-.1.57-.19.85-.28.16-.05.32-.11.49-.15.35-.1.72-.18,1.08-.25.1-.02.21-.05.31-.07.97-.18,1.97-.27,3-.27h11.32v117.47h-11.46Zm-14.84-214.12c.02-.16.04-.32.06-.48.04-.25.08-.49.13-.73.04-.17.07-.34.11-.51.06-.23.13-.46.2-.69.05-.16.1-.33.15-.48.12-.34.26-.68.42-1.01.09-.19.19-.36.28-.55.09-.16.17-.33.27-.49.12-.2.24-.39.36-.58.09-.13.17-.26.26-.39.14-.2.29-.4.44-.6.51-.64,1.06-1.24,1.68-1.79v64.91c-.1-.09-.19-.17-.28-.26-.16-.15-.32-.31-.48-.47-.12-.12-.24-.25-.36-.37-.23-.26-.46-.52-.67-.8-.09-.12-.17-.24-.26-.36-.15-.2-.29-.41-.42-.62-.08-.13-.16-.25-.24-.38-.18-.31-.36-.62-.51-.94-.05-.1-.09-.21-.14-.31-.12-.26-.22-.52-.32-.78-.05-.13-.09-.25-.14-.38-.12-.35-.23-.71-.31-1.07-.02-.07-.03-.15-.04-.23-.07-.31-.12-.63-.16-.95-.02-.13-.03-.25-.04-.38-.04-.36-.06-.72-.06-1.08,0-.03,0-.07,0-.1v-45.91c0-.06,0-.11,0-.17,0-.35.02-.7.06-1.05Zm45.66-12.22h.64c6.84,0,12.63,4.13,14.44,9.73v53.32c-.02.07-.04.15-.06.22-.03.08-.06.16-.09.24-.11.29-.23.58-.36.87-.05.12-.11.24-.17.36-.13.27-.28.53-.43.79-.05.09-.1.18-.15.27-.2.32-.42.64-.65.95-.08.1-.16.2-.24.3-.17.22-.35.43-.54.64-.1.11-.19.21-.29.32-.23.25-.48.49-.73.72-.06.06-.12.11-.18.17-.28.25-.57.48-.88.71-.11.08-.22.16-.33.24-.25.18-.5.34-.76.51-.1.06-.2.13-.3.19-.36.21-.73.42-1.11.6-.05.02-.1.04-.14.06-2.1,1-4.5,1.58-7.04,1.58h-8.3v-72.78h7.66Zm7.22,220.85c-1.93,0-3.51,1.41-3.51,3.14v.99s0,.05,0,.07c0,.17.02.33.06.48.01.07.03.13.05.2.03.12.07.23.12.34.03.06.05.13.08.19.01.02.02.05.03.07h-11.72v-117.47h8.3c4.54,0,8.62,1.83,11.39,4.69.17.17.33.36.49.54.13.15.26.3.39.46.14.17.27.35.4.52.13.18.25.36.37.55.11.17.22.34.32.51.12.21.23.42.34.63.08.17.17.33.25.5.11.23.2.47.29.7.06.16.13.32.18.49.02.05.02.09.04.14v102.26h-7.86Zm-18.5-148.08h-3.94v-72.78h3.94v72.78Zm-8.1,0h-11.32c-2.52,0-4.89-.56-6.98-1.55v-69.68c2.09-.98,4.46-1.55,6.98-1.55h11.32v72.78Zm-9.87-108.84c-1.76,0-3.45-.31-5-.86,3.79-6.94,7.39-13.98,10.77-21.12,1.41-2.98,2.77-5.98,4.1-8.98v30.96h-9.87Zm-16.41,157.06c.02-.22.07-.43.1-.65.04-.22.06-.43.11-.65.05-.21.11-.42.17-.63.06-.21.11-.42.18-.62.07-.2.15-.4.23-.6.08-.2.16-.41.25-.6.09-.19.19-.38.29-.57.1-.2.2-.39.32-.58.11-.18.22-.36.33-.53.12-.19.25-.38.38-.56.12-.17.25-.33.38-.49.14-.18.29-.36.44-.53.14-.15.28-.31.42-.45.16-.17.33-.33.5-.49.09-.08.17-.16.26-.24v111.68h-4.44v-102.18c0-.19.02-.38.03-.58.01-.24.02-.49.04-.73Zm30.44-12.13h3.94v117.47h-3.94v-117.47Zm22.85-147.57c-.18.13-.37.25-.55.37-.16.1-.33.21-.5.3-.19.11-.38.21-.57.31-.18.1-.37.19-.56.28-.18.09-.37.16-.56.24-.21.09-.41.17-.63.25-.18.06-.36.12-.53.18-.24.07-.47.15-.71.21-.16.04-.32.07-.48.11-.27.06-.54.12-.82.17-.12.02-.25.03-.37.05-.32.05-.64.09-.96.11-.39.03-.79.05-1.19.05h-6.85v-30.57c2.07,4.16,4.2,8.31,6.45,12.43,2.83,5.21,5.81,10.37,8.89,15.47-.02.01-.03.02-.05.04Zm-18.91-35.42v38.06h-3.94v-40.68c.43-1.05.88-2.11,1.3-3.16.86,1.93,1.74,3.86,2.64,5.78Zm15.58,306.92l1.52-.06v6.22l-2.35-3.27c-.76-1.05-.24-2.85.83-2.89Zm433.71-6.45h-5.24v-24.73c1.74.17,3.49.32,5.24.48v24.25Zm-9.4,0h-16.99v-27.12c5.65.73,11.31,1.39,16.99,1.97v25.15Zm-20.61,0h-9.69v-28.96c3.22.48,6.46.93,9.69,1.36v27.6Zm-13.85,0h-12.54v-31.66c4.17.73,8.35,1.42,12.54,2.07v29.59Zm-16.17,0h-14.14v-34.99c4.7.95,9.41,1.85,14.14,2.7v32.3Zm-18.3,0h-8.09v-37.59c2.69.6,5.39,1.18,8.09,1.75v35.85Zm-11.71,0h-18.59v-42.93c6.17,1.59,12.37,3.09,18.59,4.51v38.42Zm-22.75,0h-3.65v-45c1.22.33,2.43.67,3.65.99v44.01Zm-7.27,0h-23.04v-52.85c7.63,2.43,15.31,4.71,23.04,6.86v45.99Zm-30.01,0h-26.39v-64.51c8.67,3.3,17.47,6.43,26.39,9.38v55.12Zm-31.64,0h-24.76v-76.85c8.13,3.6,16.38,7.05,24.76,10.33v66.52Zm-28.38,0h-1.93v-79.33c.64.29,1.28.57,1.93.86v78.47Zm-6.08,0h-20.31v-91.17c6.68,3.42,13.44,6.74,20.31,9.93v81.24Zm-23.93,0h-6.37v-96.41c2.11,1.14,4.24,2.26,6.37,3.37v93.04Zm-10.53,0h-15.86v-107.71c5.22,3.09,10.51,6.11,15.86,9.04v98.66Zm-19.48,0h-10.82v-116.55c3.57,2.27,7.19,4.48,10.82,6.67v109.88Zm-14.98,0h-11.41v-126.84c3.77,2.58,7.56,5.13,11.41,7.62v119.22Zm-15.03,0h-15.27v-140.36c5.01,3.76,10.1,7.44,15.27,11.04v129.32Zm-19.43,0h-6.96v-148.98c1.38,1.1,2.75,2.2,4.15,3.29.94.73,1.87,1.45,2.81,2.17v143.52Zm-10.58,0h-19.72v-168.69c6.36,5.73,12.94,11.34,19.72,16.83v151.87Zm-23.88,0h-2.51v-174.82c.84.78,1.67,1.56,2.51,2.34v172.48Zm-6.13,0h-21.44s.02-.05.04-.08c.03-.05.05-.11.07-.16.05-.12.1-.25.13-.38.01-.05.03-.11.04-.16.04-.18.06-.37.06-.57h0v-.99h0c0-.55-.17-1.06-.46-1.51-.53-.86-1.5-1.46-2.63-1.59v-197.72c7.65,8.52,15.71,16.83,24.17,24.92v178.25Zm-30.01-5.48h-3.36v-137.42c0-3.18-1.45-6.08-3.78-8.19v-67.23c2.33,2.86,4.72,5.69,7.14,8.5v204.33Zm-39.8-368.43c-.01.1-.03.2-.05.31-.03.22-.06.43-.11.64-.03.12-.06.23-.09.35-.05.19-.1.38-.17.57-.04.12-.08.24-.13.36-.07.18-.14.36-.22.53-.05.12-.11.24-.16.35-.09.17-.18.34-.27.51-.06.11-.12.22-.19.33-.11.18-.23.35-.36.52-.06.09-.12.18-.19.26-.31.4-.65.77-1.02,1.13,1.11-5.09,2.11-10.2,3.01-15.33v8.5c0,.33-.02.65-.06.98Zm-8.87,45.45c1.78,0,3.49.32,5.05.88.11.04.22.07.33.12.36.14.72.29,1.07.46.08.04.16.09.24.13.27.14.53.28.79.43.12.07.24.15.36.22.21.13.42.27.62.42.12.08.23.17.35.25.22.16.43.34.63.51.08.07.17.14.25.21.27.25.53.5.78.77.08.08.15.17.22.25.17.2.34.4.51.6.08.11.17.22.25.33.14.2.28.4.41.6.07.11.14.22.21.33.15.25.29.51.42.78.03.06.07.13.1.19.16.33.29.66.41,1.01.04.1.07.21.1.31.08.25.16.5.22.76.03.13.06.25.09.38.05.25.1.51.13.77.02.12.04.23.05.35.04.37.06.75.06,1.13v41.67c0,.41-.02.81-.07,1.21-.01.13-.04.25-.06.38-.04.27-.08.54-.14.8-.03.15-.08.29-.12.43-.06.24-.13.48-.21.71-.05.15-.11.29-.17.44-.09.22-.17.44-.27.66-.07.15-.15.29-.22.43-.01.02-.02.04-.03.06-7.12-11.93-13.54-24.17-19.22-36.67v-16.73c.65-1.86,1.27-3.72,1.89-5.59h4.96Zm-10.47.61c-.83,2.44-1.68,4.86-2.56,7.28-.46-1.14-.94-2.28-1.39-3.43-.58-1.48-1.14-2.96-1.69-4.45h5.84c-.07.2-.13.4-.2.61Zm-24.84-41.24s-.08-.09-.12-.14c-.11-.14-.2-.29-.29-.43-.09-.14-.19-.27-.28-.41-.02-.03-.03-.06-.05-.09-.84-1.41-1.32-3.02-1.32-4.73v-8.11c.97,5.08,2.05,10.15,3.26,15.19-.44-.4-.84-.83-1.2-1.29Zm-27.1,218.01c-2.33,2.11-3.78,5.01-3.78,8.19v141.05h-.69v-209.85c1.51-1.99,3-3.99,4.47-6.01v66.62Zm-10.84,149.24h-4.93c-1.4,0-2.62.76-3.15,1.85h-14.63v-177.34c7.97-8.49,15.54-17.25,22.71-26.24v201.72Zm-27.26,1.85h-21.27v-151.96c7.36-6.68,14.46-13.53,21.27-20.57v172.54Zm-24.39,0h-2.01v-147.37c.67-.59,1.34-1.18,2.01-1.78v149.14Zm-5.62,0h-17.09v-130.19c5.8-4.54,11.51-9.21,17.09-14.02v144.21Zm-20.2,0h-6.19v-123.07c2.08-1.54,4.14-3.11,6.19-4.69v127.75Zm-9.81,0h-12.9v-111.33c4.35-2.95,8.65-5.98,12.9-9.07v120.4Zm-16.01,0h-10.38v-102.51c3.5-2.2,6.95-4.46,10.38-6.75v109.26Zm-14,0h-8.71v-95.01c2.92-1.72,5.83-3.46,8.71-5.24v100.25Zm-11.83,0h-14.56v-85.09c4.91-2.62,9.76-5.32,14.56-8.1v93.19Zm-18.19,0h-4.52v-80.85c1.51-.77,3.02-1.54,4.52-2.32v83.17Zm-7.64,0h-18.76v-70.37c6.34-2.84,12.59-5.82,18.76-8.91v79.28Zm-22.37,0h-.34v-68.62c.11-.05.22-.1.34-.14v68.76Zm-3.45,0h-22.71v-58.13c.44-.16.88-.32,1.32-.49,7.23-2.73,14.36-5.62,21.39-8.65v67.27Zm-26.56,0h-21.97v-49.24c7.37-2.32,14.7-4.8,21.97-7.46v56.7Zm-25.09,0h-1.31v-47.86c.44-.13.87-.27,1.31-.41v48.26Zm-34.94-38.84v38.84h-13.59v-35.85c.12-.03.23-.07.35-.1,4.43-.91,8.85-1.87,13.25-2.89Zm-154.58,38.84h-21.44v-23.93c7.12.6,14.27,1.1,21.44,1.48v22.45Zm-25.06,0h-5.24v-24.73c1.74.17,3.49.32,5.24.48v24.25Zm-9.4,0h-16.99v-27.12c5.65.73,11.31,1.39,16.99,1.97v25.15Zm-20.61,0h-9.69v-28.96c3.22.48,6.46.93,9.69,1.36v27.6Zm-13.85,0h-12.54v-31.66c4.17.73,8.35,1.42,12.54,2.07v29.59Zm-16.17,0h-14.14v-34.99c4.7.95,9.41,1.85,14.14,2.7v32.3Zm-18.3,0h-8.09v-37.59c2.69.6,5.39,1.18,8.09,1.75v35.85Zm-11.71,0h-18.59v-42.93c6.17,1.59,12.37,3.09,18.59,4.51v38.42Zm-22.75,0h-3.65v-45c1.22.33,2.43.67,3.65.99v44.01Zm-7.27,0h-23.04v-52.85c7.63,2.43,15.31,4.71,23.04,6.86v45.99Zm-30.01,0h-26.39v-64.51c8.67,3.3,17.47,6.43,26.39,9.38v55.12Zm-31.64,0h-24.76v-76.85c8.13,3.6,16.38,7.05,24.76,10.33v66.52Zm-28.38,0h-1.93v-79.33c.64.29,1.29.57,1.93.86v78.47Zm-6.08,0h-20.31v-91.17c6.68,3.42,13.44,6.74,20.31,9.93v81.24Zm-23.93,0h-6.37v-96.41c2.11,1.14,4.24,2.26,6.37,3.37v93.04Zm-10.53,0h-15.86v-107.71c5.22,3.09,10.51,6.11,15.86,9.04v98.66Zm-19.48,0h-10.82v-116.55c3.57,2.27,7.19,4.48,10.82,6.67v109.88Zm-14.98,0h-11.41v-126.84c3.77,2.58,7.56,5.13,11.41,7.62v119.22Zm-15.03,0h-15.27v-140.36c5.01,3.76,10.1,7.44,15.27,11.04v129.32Zm-19.43,0h-6.96v-148.98c1.38,1.1,2.75,2.2,4.15,3.29.94.73,1.87,1.45,2.81,2.17v143.52Zm-10.58,0h-19.72v-168.69c6.36,5.73,12.94,11.34,19.72,16.83v151.87Zm-23.88,0h-2.51v-174.82c.84.78,1.67,1.56,2.51,2.34v172.48Zm-6.13,0h-21.44s.02-.05.04-.08c.03-.05.05-.11.07-.16.05-.12.1-.25.13-.38.01-.05.03-.11.04-.16.04-.18.06-.37.06-.57h0v-.99h0c0-.55-.17-1.06-.46-1.51-.53-.86-1.5-1.46-2.63-1.59v-197.72c7.65,8.52,15.71,16.83,24.17,24.92v178.25Zm-30.01-5.48h-3.36v-137.42c0-3.18-1.45-6.08-3.78-8.19v-67.23c2.33,2.86,4.72,5.69,7.14,8.5v204.33Zm-39.8-368.43c-.01.1-.03.2-.05.31-.03.22-.06.43-.11.64-.03.12-.06.23-.09.35-.05.19-.1.38-.17.57-.04.12-.08.24-.13.36-.07.18-.14.36-.22.53-.05.12-.11.24-.16.35-.09.17-.18.34-.27.51-.06.11-.12.22-.19.33-.11.18-.23.35-.36.52-.06.09-.12.18-.19.26-.31.4-.65.77-1.02,1.13,1.11-5.09,2.11-10.2,3.01-15.33v8.5c0,.33-.02.65-.06.98Zm-8.87,45.45c1.78,0,3.49.32,5.05.88.11.04.22.07.33.12.36.14.72.29,1.07.46.08.04.16.09.24.13.27.14.53.28.79.43.12.07.24.15.36.22.21.13.42.27.62.42.12.08.23.17.35.25.22.16.43.34.63.51.08.07.17.14.25.21.27.25.53.5.78.77.08.08.15.17.22.25.17.2.34.4.51.6.08.11.17.22.25.33.14.2.28.4.41.6.07.11.14.22.21.33.15.25.29.51.42.78.03.06.07.13.1.19.15.33.29.66.41,1.01.04.1.07.21.1.31.08.25.16.5.22.76.03.13.06.25.09.38.05.25.1.51.13.77.02.12.04.23.05.35.04.37.06.75.06,1.13v41.67c0,.41-.02.81-.07,1.21-.01.13-.04.25-.06.38-.04.27-.08.54-.14.8-.03.15-.08.29-.12.43-.06.24-.13.48-.21.71-.05.15-.11.29-.17.44-.09.22-.17.44-.27.66-.07.15-.15.29-.22.43-.01.02-.02.04-.03.06-7.12-11.93-13.54-24.17-19.22-36.67v-16.73c.65-1.86,1.27-3.72,1.89-5.59h4.96Zm-10.47.61c-.83,2.44-1.68,4.86-2.56,7.28-.46-1.14-.94-2.28-1.39-3.43-.58-1.48-1.14-2.96-1.69-4.45h5.84c-.07.2-.13.4-.2.61Zm-24.84-41.24s-.08-.09-.12-.14c-.11-.14-.2-.29-.29-.43-.09-.14-.19-.27-.28-.41-.02-.03-.03-.06-.05-.09-.84-1.41-1.32-3.02-1.32-4.73v-8.11c.97,5.08,2.05,10.15,3.26,15.19-.44-.4-.84-.83-1.2-1.29Zm-27.1,218.01c-2.33,2.11-3.78,5.01-3.78,8.19v141.05h-.69v-209.85c1.51-1.99,3-3.99,4.47-6.01v66.62Zm-10.84,149.24h-4.93c-1.4,0-2.62.76-3.15,1.85h-14.64v-177.34c7.97-8.49,15.54-17.25,22.71-26.24v201.72Zm-27.26,1.85h-21.27v-151.96c7.36-6.68,14.46-13.53,21.27-20.57v172.54Zm-24.39,0h-2.01v-147.37c.67-.59,1.34-1.18,2.01-1.78v149.14Zm-5.62,0h-17.09v-130.19c5.8-4.54,11.51-9.21,17.09-14.02v144.21Zm-20.2,0h-6.19v-123.07c2.08-1.54,4.14-3.11,6.19-4.69v127.75Zm-9.81,0h-12.9v-111.33c4.35-2.95,8.65-5.98,12.9-9.07v120.4Zm-16.01,0h-10.38v-102.51c3.5-2.2,6.95-4.46,10.38-6.75v109.26Zm-14,0h-8.71v-95.01c2.92-1.72,5.83-3.46,8.71-5.24v100.25Zm-11.83,0h-14.56v-85.09c4.91-2.62,9.76-5.32,14.56-8.1v93.19Zm-18.19,0h-4.52v-80.85c1.51-.77,3.02-1.54,4.52-2.32v83.17Zm-7.64,0h-18.76v-70.37c6.33-2.84,12.59-5.82,18.76-8.91v79.28Zm-22.37,0h-.34v-68.62c.11-.05.22-.1.34-.14v68.76Zm-3.45,0h-22.71v-58.13c.44-.16.88-.32,1.32-.49,7.23-2.73,14.36-5.62,21.39-8.65v67.27Zm-26.56,0h-21.97v-49.24c7.37-2.32,14.7-4.8,21.97-7.46v56.7Zm-25.09,0h-1.31v-47.86c.44-.13.87-.27,1.31-.41v48.26Zm-34.94-38.84v38.84h-13.59v-35.85c.12-.03.23-.07.35-.1,4.43-.91,8.85-1.87,13.25-2.89Zm-97.26,50.99l.15,7.75.04,2.04h-10.15l1.7-2.36,6.18-8.59c.76-1.05,2.05-.33,2.08,1.15Zm2.83,7.75l.15-7.75c.03-1.49,1.32-2.2,2.08-1.15l6.18,8.59,1.7,2.36h-10.15l.04-2.04Zm11.23-1.97l-6.18-8.58c-.76-1.05-.24-2.85.83-2.89l5.58-.21,3.1-.12h4.55c.43.27.73.88.72,1.59l-.2,9.9-.09,4.33h-5.44l-2.89-4.02Zm14.51-.32l-.2-9.9c-.01-.71.29-1.32.72-1.59h4.55l3.1.12,5.58.21c1.07.04,1.59,1.84.83,2.89l-6.18,8.58-2.89,4.02h-5.44l-.09-4.33Zm11.23,1.97l6.18-8.59c.76-1.05,2.05-.33,2.08,1.15l.15,7.75.04,2.04h-10.15l1.7-2.36Zm11.09.32l.15-7.75c.03-1.49,1.32-2.2,2.08-1.15l6.18,8.59,1.7,2.36h-10.15l.04-2.04Zm11.23-1.97l-6.18-8.58c-.76-1.05-.24-2.85.83-2.89l5.58-.21,3.1-.12h4.55c.43.27.73.88.72,1.59l-.2,9.9-.09,4.33h-5.44l-2.89-4.02Zm14.51-.32l-.2-9.9c-.01-.71.29-1.32.72-1.59h4.55l3.1.12,5.58.21c1.07.04,1.58,1.84.83,2.89l-6.18,8.58-2.89,4.02h-5.44l-.09-4.33Zm11.23,1.97l6.18-8.59c.76-1.05,2.05-.33,2.08,1.15l.15,7.75.04,2.04h-10.15l1.7-2.36Zm11.09.32l.15-7.75c.03-1.49,1.32-2.2,2.08-1.15l6.18,8.59,1.7,2.36h-10.15l.04-2.04Zm11.23-1.97l-6.18-8.58c-.76-1.05-.24-2.85.83-2.89l5.58-.21,3.1-.12h4.55c.43.27.73.88.72,1.59l-.2,9.9-.09,4.33h-5.44l-2.89-4.02Zm14.51-.32l-.2-9.9c-.01-.71.29-1.32.72-1.59h4.55l3.1.12,5.58.21c1.07.04,1.59,1.84.83,2.89l-6.18,8.58-2.89,4.02h-5.44l-.09-4.33Zm11.23,1.97l6.18-8.59c.76-1.05,2.05-.33,2.08,1.15l.15,7.75.04,2.04h-10.15l1.7-2.36Zm11.09.32l.15-7.75c.03-1.49,1.32-2.2,2.08-1.15l6.18,8.59,1.7,2.36h-10.15l.04-2.04Zm11.23-1.97l-6.18-8.58c-.76-1.05-.24-2.85.83-2.89l5.58-.21,3.1-.12h4.55c.43.27.73.88.72,1.59l-.2,9.9-.09,4.33h-5.44l-2.89-4.02Zm14.51-.32l-.2-9.9c-.01-.71.29-1.32.72-1.59h4.55l3.1.12,5.58.21c1.07.04,1.58,1.84.83,2.89l-6.18,8.58-2.89,4.02h-5.44l-.09-4.33Zm11.23,1.97l6.18-8.59c.76-1.05,2.05-.33,2.08,1.15l.15,7.75.04,2.04h-10.15l1.7-2.36Zm11.09.32l.15-7.75c.03-1.49,1.32-2.2,2.08-1.15l6.18,8.59,1.7,2.36h-10.15l.04-2.04Zm11.23-1.97l-6.18-8.58c-.76-1.05-.24-2.85.83-2.89l5.58-.21,3.1-.12h4.55c.43.27.73.88.72,1.59l-.2,9.9-.09,4.33h-5.44l-2.89-4.02Zm14.51-.32l-.2-9.9c-.01-.71.29-1.32.72-1.59h4.55l3.1.12,5.58.21c1.07.04,1.58,1.84.83,2.89l-6.18,8.58-2.89,4.02h-5.44l-.09-4.33Zm11.23,1.97l6.18-8.59c.76-1.05,2.05-.33,2.08,1.15l.15,7.75.04,2.04h-10.15l1.7-2.36Zm11.09.32l.15-7.75c.03-1.49,1.32-2.2,2.08-1.15l6.18,8.59,1.7,2.36h-10.15l.04-2.04Zm11.23-1.97l-6.18-8.58c-.76-1.05-.24-2.85.83-2.89l5.58-.21,3.1-.12h4.55c.43.27.73.88.72,1.59l-.2,9.9-.09,4.33h-5.44l-2.89-4.02Zm14.51-.32l-.2-9.9c-.01-.71.29-1.32.72-1.59h4.55l3.1.12,5.58.21c1.07.04,1.59,1.84.83,2.89l-6.18,8.58-2.89,4.02h-5.44l-.09-4.33Zm11.23,1.97l6.18-8.59c.76-1.05,2.05-.33,2.08,1.15l.15,7.75.04,2.04h-10.15l1.7-2.36Zm11.09.32l.15-7.75c.03-1.49,1.32-2.2,2.08-1.15l6.18,8.59,1.7,2.36h-10.15l.04-2.04Zm11.23-1.97l-6.18-8.58c-.76-1.05-.24-2.85.83-2.89l5.58-.21,3.1-.12h4.55c.43.27.73.88.72,1.59l-.2,9.9-.09,4.33h-5.44l-2.89-4.02Zm14.51-.32l-.2-9.9c-.01-.71.29-1.32.72-1.59h4.55l3.1.12,5.58.21c1.07.04,1.58,1.84.83,2.89l-6.18,8.58-2.89,4.02h-5.44l-.09-4.33Zm11.23,1.97l6.18-8.59c.76-1.05,2.05-.33,2.08,1.15l.15,7.75.04,2.04h-10.15l1.7-2.36Zm11.09.32l.15-7.75c.03-1.49,1.32-2.2,2.08-1.15l6.18,8.59,1.7,2.36h-10.15l.04-2.04Zm11.23-1.97l-6.18-8.58c-.76-1.05-.24-2.85.83-2.89l5.58-.21,3.1-.12h4.55s0,0,.01.01v3.42c-.36.46-.57,1.03-.57,1.63v.9c0,.6.21,1.16.57,1.62v5.96c0,.78.1,1.54.25,2.28h-5.26l-2.89-4.02Zm55.39,4.02c.15-.74.23-1.5.23-2.28v-6.58c.13-.31.21-.64.21-1v-.9c0-.35-.08-.69-.21-1v-4.06h.32c.43.27.73.88.72,1.59l-.2,9.9-.09,4.33h-.99Zm16.71,0l1.7-2.36,6.18-8.59c.76-1.05,2.05-.33,2.08,1.15l.15,7.75.04,2.04h-10.15Zm12.79-2.04l.15-7.75c.03-1.49,1.32-2.2,2.08-1.15l6.18,8.59,1.7,2.36h-10.15l.04-2.04Zm56.9,1.66c.13-.29.25-.58.36-.87l.9,1.25h-1.45c.06-.13.13-.25.19-.38Zm2.38-3.63l-1.27-1.76v-9.87l1.5-.06,3.1-.12h4.55c.43.27.73.88.72,1.59l-.2,9.9-.09,4.33h-5.44l-2.89-4.02Zm14.51-.32l-.2-9.9c-.01-.71.29-1.32.72-1.59h4.55l3.1.12,5.58.21c1.07.04,1.58,1.84.83,2.89l-6.18,8.58-2.89,4.02h-5.44l-.09-4.33Zm11.23,1.97l6.18-8.59c.76-1.05,2.05-.33,2.08,1.15l.15,7.75.04,2.04h-10.15l1.7-2.36Zm11.09.32l.15-7.75c.03-1.49,1.32-2.2,2.08-1.15l6.18,8.59,1.7,2.36h-10.15l.04-2.04Zm11.23-1.97l-6.18-8.58c-.76-1.05-.24-2.85.83-2.89l5.58-.21,3.1-.12h4.55c.43.27.73.88.72,1.59l-.2,9.9-.09,4.33h-5.44l-2.89-4.02Zm14.51-.32l-.2-9.9c-.01-.71.29-1.32.72-1.59h4.55l3.1.12,5.58.21c1.07.04,1.59,1.84.83,2.89l-6.18,8.58-2.89,4.02h-5.44l-.09-4.33Zm11.23,1.97l6.18-8.59c.76-1.05,2.05-.33,2.08,1.15l.15,7.75.04,2.04h-10.15l1.7-2.36Zm11.09.32l.15-7.75c.03-1.49,1.32-2.2,2.08-1.15l6.18,8.59,1.7,2.36h-10.15l.04-2.04Zm11.23-1.97l-6.18-8.58c-.76-1.05-.24-2.85.83-2.89l5.58-.21,3.1-.12h4.55c.43.27.73.88.72,1.59l-.2,9.9-.09,4.33h-5.44l-2.89-4.02Zm14.51-.32l-.2-9.9c-.01-.71.29-1.32.72-1.59h4.55l3.1.12,5.58.21c1.07.04,1.58,1.84.83,2.89l-6.18,8.58-2.89,4.02h-5.44l-.09-4.33Zm11.23,1.97l6.18-8.59c.76-1.05,2.05-.33,2.08,1.15l.15,7.75.04,2.04h-10.15l1.7-2.36Zm11.09.32l.15-7.75c.03-1.49,1.32-2.2,2.08-1.15l6.18,8.59,1.7,2.36h-10.15l.04-2.04Zm11.23-1.97l-6.18-8.58c-.76-1.05-.24-2.85.83-2.89l5.58-.21,3.1-.12h4.55c.43.27.73.88.72,1.59l-.2,9.9-.09,4.33h-5.44l-2.89-4.02Zm14.51-.32l-.2-9.9c-.01-.71.29-1.32.72-1.59h4.55l3.1.12,5.58.21c1.07.04,1.59,1.84.83,2.89l-6.18,8.58-2.89,4.02h-5.44l-.09-4.33Zm11.23,1.97l6.18-8.59c.76-1.05,2.05-.33,2.08,1.15l.15,7.75.04,2.04h-10.15l1.7-2.36Zm11.09.32l.15-7.75c.03-1.49,1.32-2.2,2.08-1.15l6.18,8.59,1.7,2.36h-10.15l.04-2.04Zm11.23-1.97l-6.18-8.58c-.76-1.05-.24-2.85.83-2.89l5.58-.21,3.1-.12h4.55c.43.27.73.88.72,1.59l-.2,9.9-.09,4.33h-5.44l-2.89-4.02Zm14.27-.32l-.2-9.9c-.01-.71.29-1.32.72-1.59h4.55l3.1.12,5.58.21c1.07.04,1.59,1.84.83,2.89l-6.18,8.58-2.89,4.02h-5.44l-.09-4.33Zm11.23,1.97l6.18-8.59c.76-1.05,2.05-.33,2.08,1.15l.15,7.75.04,2.04h-10.15l1.7-2.36Zm11.09.32l.15-7.75c.03-1.49,1.32-2.2,2.08-1.15l6.18,8.59,1.7,2.36h-10.15l.04-2.04Zm11.23-1.97l-6.18-8.58c-.76-1.05-.24-2.85.83-2.89l5.58-.21,3.1-.12h4.55c.43.27.73.88.72,1.59l-.2,9.9-.09,4.33h-5.44l-2.89-4.02Zm14.51-.32l-.2-9.9c-.01-.71.29-1.32.72-1.59h4.55l3.1.12,5.58.21c1.07.04,1.58,1.84.83,2.89l-6.18,8.58-2.89,4.02h-5.44l-.09-4.33Zm11.23,1.97l6.18-8.59c.76-1.05,2.05-.33,2.08,1.15l.15,7.75.04,2.04h-10.15l1.7-2.36Zm11.09.32l.15-7.75c.03-1.49,1.32-2.2,2.08-1.15l6.18,8.59,1.7,2.36h-10.15l.04-2.04Zm11.23-1.97l-6.18-8.58c-.76-1.05-.24-2.85.83-2.89l5.58-.21,3.1-.12h4.55c.43.27.73.88.72,1.59l-.2,9.9-.09,4.33h-5.44l-2.89-4.02Zm14.51-.32l-.2-9.9c-.01-.71.29-1.32.72-1.59h4.55l3.1.12,5.58.21c1.07.04,1.58,1.84.83,2.89l-6.18,8.58-2.89,4.02h-5.44l-.09-4.33Zm11.23,1.97l6.18-8.59c.76-1.05,2.05-.33,2.08,1.15l.15,7.75.04,2.04h-10.15l1.7-2.36Zm11.09.32l.15-7.75c.03-1.49,1.32-2.2,2.08-1.15l6.18,8.59,1.7,2.36h-10.15l.04-2.04Zm11.23-1.97l-6.18-8.58c-.76-1.05-.24-2.85.83-2.89l5.58-.21,3.1-.12h4.55c.43.27.73.88.72,1.59l-.2,9.9-.09,4.33h-5.44l-2.89-4.02Zm14.51-.32l-.2-9.9c-.01-.71.29-1.32.72-1.59h4.55l3.1.12,5.58.21c1.07.04,1.59,1.84.83,2.89l-6.18,8.58-2.89,4.02h-5.44l-.09-4.33Zm11.23,1.97l6.18-8.59c.76-1.05,2.05-.33,2.08,1.15l.15,7.75.04,2.04h-10.15l1.7-2.36Zm11.09.32l.15-7.75c.03-1.49,1.32-2.2,2.08-1.15l6.18,8.59,1.7,2.36h-10.15l.04-2.04Zm11.23-1.97l-6.18-8.58c-.76-1.05-.24-2.85.83-2.89l5.58-.21,3.1-.12h4.55c.43.27.73.88.72,1.59l-.2,9.9-.09,4.33h-5.44l-2.89-4.02Zm14.51-.32l-.2-9.9c-.01-.71.29-1.32.72-1.59h4.55l3.1.12,5.58.21c1.07.04,1.59,1.84.83,2.89l-6.18,8.58-2.89,4.02h-5.44l-.09-4.33Zm11.23,1.97l6.18-8.59c.76-1.05,2.05-.33,2.08,1.15l.15,7.75.04,2.04h-10.15l1.7-2.36Zm11.09.32l.15-7.75c.03-1.49,1.32-2.2,2.08-1.15l6.18,8.59,1.7,2.36h-10.15l.04-2.04Zm36.96-.32l6.18-8.59c.76-1.05,2.05-.33,2.08,1.15l.15,7.75.04,2.04h-10.15l1.7-2.36Zm11.09.32l.15-7.75c.03-1.49,1.32-2.2,2.08-1.15l6.18,8.59,1.7,2.36h-10.15l.04-2.04Zm11.23-1.97l-6.18-8.58c-.76-1.05-.24-2.85.83-2.89l5.58-.21,3.1-.12h4.55c.43.27.73.88.72,1.59l-.2,9.9-.09,4.33h-5.43l-2.89-4.02Zm14.51-.32l-.2-9.9c-.01-.71.29-1.32.72-1.59h4.55l3.1.12,5.58.21c1.07.04,1.58,1.84.83,2.89l-6.18,8.58-2.89,4.02h-5.43l-.09-4.33Zm11.23,1.97l6.18-8.59c.76-1.05,2.05-.33,2.08,1.15l.15,7.75.04,2.04h-10.15l1.7-2.36Zm11.09.32l.15-7.75c.03-1.49,1.32-2.2,2.08-1.15l6.18,8.59,1.7,2.36h-10.15l.04-2.04Zm11.23-1.97l-6.18-8.58c-.76-1.05-.24-2.85.83-2.89l5.58-.21,3.1-.12h4.55c.43.27.73.88.72,1.59l-.2,9.9-.09,4.33h-5.44l-2.89-4.02Zm14.51-.32l-.2-9.9c-.01-.71.29-1.32.72-1.59h4.55l3.1.12,5.58.21c1.07.04,1.59,1.84.83,2.89l-6.18,8.58-2.89,4.02h-5.44l-.09-4.33Zm11.23,1.97l6.18-8.59c.76-1.05,2.05-.33,2.08,1.15l.15,7.75.04,2.04h-10.15l1.7-2.36Zm11.09.32l.15-7.75c.03-1.49,1.32-2.2,2.08-1.15l6.18,8.59,1.7,2.36h-10.15l.04-2.04Zm11.23-1.97l-6.18-8.58c-.76-1.05-.24-2.85.83-2.89l5.58-.21,3.1-.12h4.55c.43.27.73.88.72,1.59l-.2,9.9-.09,4.33h-5.44l-2.89-4.02Zm14.51-.32l-.2-9.9c-.01-.71.29-1.32.72-1.59h4.55l3.1.12,5.58.21c1.07.04,1.59,1.84.83,2.89l-6.18,8.58-2.89,4.02h-5.44l-.09-4.33Zm11.23,1.97l6.18-8.59c.76-1.05,2.05-.33,2.08,1.15l.15,7.75.04,2.04h-10.15l1.7-2.36Zm11.09.32l.15-7.75c.03-1.49,1.32-2.2,2.08-1.15l6.18,8.59,1.7,2.36h-10.15l.04-2.04Zm11.23-1.97l-6.18-8.58c-.76-1.05-.24-2.85.83-2.89l5.58-.21,3.1-.12h4.55c.43.27.73.88.72,1.59l-.2,9.9-.09,4.33h-5.44l-2.89-4.02Zm14.51-.32l-.2-9.9c-.01-.71.29-1.32.72-1.59h4.55l3.1.12,5.58.21c1.07.04,1.59,1.84.83,2.89l-6.18,8.58-2.89,4.02h-5.44l-.09-4.33Zm11.23,1.97l6.18-8.59c.76-1.05,2.05-.33,2.08,1.15l.15,7.75.04,2.04h-10.15l1.7-2.36Zm11.09.32l.15-7.75c.03-1.49,1.32-2.2,2.08-1.15l6.18,8.59,1.7,2.36h-10.15l.04-2.04Zm11.23-1.97l-6.18-8.58c-.76-1.05-.24-2.85.83-2.89l5.58-.21,3.1-.12h4.55c.43.27.73.88.72,1.59l-.2,9.9-.09,4.33h-5.43l-2.89-4.02Zm14.51-.32l-.2-9.9c-.01-.71.29-1.32.72-1.59h4.55l3.1.12,5.58.21c1.07.04,1.58,1.84.83,2.89l-6.18,8.58-2.89,4.02h-5.43l-.09-4.33Zm11.23,1.97l6.18-8.59c.76-1.05,2.05-.33,2.08,1.15l.15,7.75.04,2.04h-10.15l1.7-2.36Zm11.09.32l.15-7.75c.03-1.49,1.32-2.2,2.08-1.15l6.18,8.59,1.7,2.36h-10.15l.04-2.04Zm11.23-1.97l-6.18-8.58c-.76-1.05-.24-2.85.83-2.89l5.58-.21,3.1-.12h4.55c.43.27.73.88.72,1.59l-.2,9.9-.09,4.33h-5.43l-2.89-4.02Zm14.51-.32l-.2-9.9c-.01-.71.29-1.32.72-1.59h4.55l3.1.12,5.58.21c1.07.04,1.58,1.84.83,2.89l-6.18,8.58-2.89,4.02h-5.44l-.09-4.33Zm11.23,1.97l6.18-8.59c.76-1.05,2.05-.33,2.08,1.15l.15,7.75.04,2.04h-10.15l1.7-2.36Zm11.09.32l.15-7.75c.03-1.49,1.32-2.2,2.08-1.15l6.18,8.59,1.7,2.36h-10.15l.04-2.04Zm11.23-1.97l-6.18-8.58c-.76-1.05-.24-2.85.83-2.89l5.58-.21,3.1-.12h4.55c.43.27.73.88.72,1.59l-.2,9.9-.09,4.33h-5.44l-2.89-4.02Zm14.51-.32l-.2-9.9c-.01-.71.29-1.32.72-1.59h4.55l3.1.12,5.58.21c1.07.04,1.59,1.84.83,2.89l-6.18,8.58-2.89,4.02h-5.44l-.09-4.33Zm11.23,1.97l6.18-8.59c.76-1.05,2.05-.33,2.08,1.15l.15,7.75.04,2.04h-10.15l1.7-2.36Zm11.09.32l.15-7.75c.03-1.49,1.32-2.2,2.08-1.15l6.18,8.59,1.7,2.36h-10.15l.04-2.04Zm11.23-1.97l-6.18-8.58c-.76-1.05-.24-2.85.83-2.89l5.58-.21,3.1-.12h2.79v3.43c-.36.46-.57,1.03-.57,1.63v.9c0,.6.21,1.16.57,1.62v5.96c0,.78.1,1.54.25,2.28h-3.48l-2.89-4.02Zm53.61,4.02c.15-.74.23-1.5.23-2.28v-6.58c.13-.31.21-.64.21-1v-.9c0-.35-.08-.69-.21-1v-4.06h2.1c.43.27.73.88.72,1.59l-.2,9.9-.09,4.33h-2.77Zm18.48,0l1.7-2.36,6.18-8.59c.76-1.05,2.05-.33,2.08,1.15l.15,7.75.04,2.04h-10.15Zm12.79-2.04l.15-7.75c.03-1.49,1.32-2.2,2.08-1.15l5.32,7.4c.03.22.08.44.13.65.02.09.04.18.06.27.08.34.18.67.28.99.02.07.04.14.06.2.14.38.29.76.46,1.13.03.07.07.13.1.2.02.03.04.07.05.1h-8.75l.04-2.04Zm55.12,1.66c.15-.32.28-.65.4-.98.06-.15.1-.31.15-.47.07-.23.14-.45.2-.69.04-.17.08-.33.11-.5,0,0,0,0,0,0l.48.66,1.7,2.36h-3.23c.06-.13.13-.25.19-.38Zm4.16-3.63l-3.04-4.23v-7.33l3.27-.12,3.1-.12h4.55c.43.27.73.88.72,1.59l-.2,9.9-.09,4.33h-5.44l-2.89-4.02Zm14.51-.32l-.2-9.9c-.01-.71.29-1.32.72-1.59h4.55l3.1.12,5.58.21c1.07.04,1.59,1.84.83,2.89l-6.18,8.58-2.89,4.02h-5.44l-.09-4.33Zm11.23,1.97l6.18-8.59c.76-1.05,2.05-.33,2.08,1.15l.15,7.75.04,2.04h-10.15l1.7-2.36Zm11.09.32l.15-7.75c.03-1.49,1.32-2.2,2.08-1.15l6.18,8.59,1.7,2.36h-10.15l.04-2.04Zm11.23-1.97l-6.18-8.58c-.76-1.05-.24-2.85.83-2.89l5.58-.21,3.1-.12h4.55c.43.27.73.88.72,1.59l-.2,9.9-.09,4.33h-5.44l-2.89-4.02Zm14.51-.32l-.2-9.9c-.01-.71.29-1.32.72-1.59h4.55l3.1.12,5.58.21c1.07.04,1.58,1.84.83,2.89l-6.18,8.58-2.89,4.02h-5.44l-.09-4.33Zm11.23,1.97l6.18-8.59c.76-1.05,2.05-.33,2.08,1.15l.15,7.75.04,2.04h-10.15l1.7-2.36Zm11.09.32l.15-7.75c.03-1.49,1.32-2.2,2.08-1.15l6.18,8.59,1.7,2.36h-10.15l.04-2.04Zm11.23-1.97l-6.18-8.58c-.76-1.05-.24-2.85.83-2.89l5.58-.21,3.1-.12h4.55c.43.27.73.88.72,1.59l-.2,9.9-.09,4.33h-5.44l-2.89-4.02Zm14.51-.32l-.2-9.9c-.01-.71.29-1.32.72-1.59h4.55l3.1.12,5.58.21c1.07.04,1.59,1.84.83,2.89l-6.18,8.58-2.89,4.02h-5.43l-.09-4.33Zm11.23,1.97l6.18-8.59c.76-1.05,2.05-.33,2.08,1.15l.15,7.75.04,2.04h-10.15l1.7-2.36Zm11.09.32l.15-7.75c.03-1.49,1.32-2.2,2.08-1.15l6.18,8.59,1.7,2.36h-10.15l.04-2.04Zm11.23-1.97l-6.18-8.58c-.76-1.05-.24-2.85.83-2.89l5.58-.21,3.1-.12h4.55c.43.27.73.88.72,1.59l-.2,9.9-.09,4.33h-5.43l-2.89-4.02Zm14.51-.32l-.2-9.9c-.01-.71.29-1.32.72-1.59h4.55l3.1.12,5.58.21c1.07.04,1.58,1.84.83,2.89l-6.18,8.58-2.89,4.02h-5.43l-.09-4.33Zm11.23,1.97l6.18-8.59c.76-1.05,2.05-.33,2.08,1.15l.15,7.75.04,2.04h-10.15l1.7-2.36Zm11.09.32l.15-7.75c.03-1.49,1.32-2.2,2.08-1.15l6.18,8.59,1.7,2.36h-10.15l.04-2.04Zm11.23-1.97l-6.18-8.58c-.76-1.05-.24-2.85.83-2.89l5.58-.21,3.1-.12h4.55c.43.27.73.88.72,1.59l-.2,9.9-.09,4.33h-5.44l-2.89-4.02Zm14.27-.32l-.2-9.9c-.01-.71.29-1.32.72-1.59h4.55l3.1.12,5.58.21c1.07.04,1.59,1.84.83,2.89l-6.18,8.58-2.89,4.02h-5.44l-.09-4.33Zm11.23,1.97l6.18-8.59c.76-1.05,2.05-.33,2.08,1.15l.15,7.75.04,2.04h-10.15l1.7-2.36Zm11.09.32l.15-7.75c.03-1.49,1.32-2.2,2.08-1.15l6.18,8.59,1.7,2.36h-10.15l.04-2.04Zm11.23-1.97l-6.18-8.58c-.76-1.05-.24-2.85.83-2.89l5.58-.21,3.1-.12h4.55c.43.27.73.88.72,1.59l-.2,9.9-.09,4.33h-5.44l-2.89-4.02Zm14.51-.32l-.2-9.9c-.01-.71.29-1.32.72-1.59h4.55l3.1.12,5.58.21c1.07.04,1.59,1.84.83,2.89l-6.18,8.58-2.89,4.02h-5.43l-.09-4.33Zm11.23,1.97l6.18-8.59c.76-1.05,2.05-.33,2.08,1.15l.15,7.75.04,2.04h-10.15l1.7-2.36Zm11.09.32l.15-7.75c.03-1.49,1.32-2.2,2.08-1.15l6.18,8.59,1.7,2.36h-10.15l.04-2.04Zm11.23-1.97l-6.17-8.58c-.76-1.05-.24-2.85.83-2.89l5.58-.21,3.1-.12h4.55c.43.27.73.88.72,1.59l-.2,9.9-.09,4.33h-5.44l-2.89-4.02Zm14.51-.32l-.2-9.9c-.01-.71.29-1.32.72-1.59h4.55l3.1.12,5.58.21c1.07.04,1.58,1.84.83,2.89l-6.17,8.58-2.89,4.02h-5.43l-.09-4.33Zm11.23,1.97l6.18-8.59c.76-1.05,2.05-.33,2.08,1.15l.15,7.75.04,2.04h-10.15l1.7-2.36Zm11.09.32l.15-7.75c.03-1.49,1.32-2.2,2.08-1.15l6.18,8.59,1.7,2.36h-10.15l.04-2.04Zm11.23-1.97l-6.18-8.58c-.76-1.05-.24-2.85.83-2.89l5.58-.21,3.1-.12h4.55c.43.27.73.88.72,1.59l-.2,9.9-.09,4.33h-5.43l-2.89-4.02Zm14.51-.32l-.2-9.9c-.01-.71.29-1.32.72-1.59h4.55l3.1.12,5.58.21c1.07.04,1.59,1.84.83,2.89l-6.18,8.58-2.89,4.02h-5.44l-.09-4.33Zm11.23,1.97l6.18-8.59c.76-1.05,2.05-.33,2.08,1.15l.15,7.75.04,2.04h-10.15l1.7-2.36Zm11.09.32l.15-7.75c.03-1.49,1.32-2.2,2.08-1.15l6.18,8.59,1.7,2.36h-10.15l.04-2.04Zm11.23-1.97l-6.18-8.58c-.76-1.05-.24-2.85.83-2.89l5.58-.21,3.1-.12h4.55c.43.27.73.88.72,1.59l-.2,9.9-.09,4.33h-5.44l-2.89-4.02Zm29.74-39.98c8.6.36,17.23.57,25.89.61h0v21.44h-25.9v-22.05Zm-24.83-5.97c-1.73-.14-3.45-.28-5.18-.43v-.12c1.72.19,3.45.37,5.18.54Zm-8.8-.96v.21c-1.75-.16-3.5-.32-5.24-.49-1.39-.14-2.77-.28-4.16-.43-5.69-.6-11.36-1.27-16.99-2.01v-1.1c8.74,1.49,17.54,2.77,26.39,3.81Zm-30.01-4.44v1.25c-3.24-.44-6.47-.9-9.69-1.39-1.39-.21-2.77-.42-4.15-.64-4.2-.66-8.38-1.37-12.54-2.1v-2.52c8.74,2.03,17.54,3.83,26.39,5.4Zm-30.01-6.26v2.73c-4.74-.86-9.45-1.77-14.14-2.74-1.39-.28-2.77-.57-4.16-.87-2.71-.57-5.4-1.16-8.09-1.77v-4.44c8.73,2.59,17.53,4.95,26.39,7.08Zm-30.01-8.17v4.69c-6.24-1.44-12.44-2.96-18.59-4.57-1.38-.36-2.77-.73-4.15-1.1-1.22-.33-2.43-.67-3.65-1.01v-6.86c8.72,3.19,17.52,6.14,26.39,8.84Zm-31.56-10.76c.52.2,1.03.39,1.55.58v7.2c-7.76-2.19-15.44-4.51-23.04-6.96-1.12-.36-2.24-.73-3.36-1.1v-9.87c8.15,3.58,16.44,6.97,24.85,10.15Zm-28.46-11.75v10.26c-8.92-3-17.72-6.18-26.39-9.53v-13.53c8.63,4.51,17.43,8.78,26.39,12.8Zm-30.01-14.72v14.02c-.54-.21-1.09-.42-1.63-.64-8.38-3.33-16.64-6.85-24.76-10.51v-18.04c8.61,5.32,17.41,10.37,26.39,15.16Zm-30.01-17.42v18.65c-.64-.29-1.29-.58-1.93-.88-1.39-.64-2.77-1.29-4.16-1.94-6.88-3.25-13.64-6.63-20.31-10.11v-23.61c8.58,6.25,17.38,12.21,26.39,17.89Zm-30.01-20.56v24.38c-2.13-1.13-4.26-2.27-6.37-3.43-1.39-.76-2.77-1.52-4.15-2.29-5.36-2.99-10.65-6.07-15.86-9.21v-30.59c8.54,7.36,17.34,14.41,26.39,21.14Zm-32.46-26.47c.82.73,1.63,1.45,2.45,2.17v31.54c-3.64-2.23-7.26-4.49-10.82-6.79-1.39-.9-2.78-1.81-4.16-2.71-3.86-2.54-7.65-5.14-11.41-7.76v-39.45c7.63,7.89,15.61,15.56,23.94,23Zm-27.56-26.79v40.71c-5.18-3.68-10.28-7.44-15.27-11.27-1.4-1.07-2.78-2.14-4.15-3.22-2.35-1.84-4.66-3.7-6.96-5.57v-51.33c8.25,10.56,17.05,20.8,26.39,30.68Zm-30.01-35.37v53.04c-6.77-5.61-13.36-11.35-19.72-17.24-1.4-1.29-2.79-2.59-4.16-3.9-.84-.8-1.68-1.6-2.51-2.41v-68.69c8.01,13.5,16.81,26.58,26.39,39.2Zm-44.21-72.69c4.39,9.26,9.12,18.36,14.19,27.27v71.39c-8.46-8.32-16.53-16.89-24.17-25.7-.75-.86-1.48-1.73-2.22-2.6v-98.94c3.67,9.63,7.73,19.16,12.2,28.59Zm-15.82-38.49v104.55c-2.42-2.91-4.81-5.85-7.14-8.82v-22.83c0-2.48-1.53-4.66-3.78-5.83v-84.04c0-2.68-1.99-4.98-4.72-5.76v-37.01c3.58,20.25,8.79,40.19,15.64,59.75Zm-43.13-93.82c.13.11.24.23.36.35.12.12.25.24.37.36.14.15.27.31.4.47.09.1.18.2.26.31.14.18.27.37.4.57.06.09.13.18.19.27.13.2.24.42.35.63.03.05.06.1.08.15-1.57,16.48-4.22,32.69-7.87,48.58-.8.16-1.63.25-2.49.25h-23.62c-.49,0-.96-.04-1.43-.09-4.07-16.17-6.94-32.67-8.54-49.43,1.92-3.17,5.68-5.34,9.98-5.34h3.06s0,0,0,0h20.56c3.09,0,5.9,1.12,7.95,2.92Zm-61.33,31.87v40.08c-1.71,1.1-2.83,2.88-2.83,4.9v84.04c-2.25,1.17-3.78,3.35-3.78,5.83v23.61c-1.47,2.09-2.96,4.16-4.47,6.22-1.07,1.47-2.16,2.92-3.26,4.38v-103.27c6.48-21.5,11.26-43.47,14.34-65.8Zm-27.95,104.29c3.84-9.43,7.34-18.96,10.5-28.59v97.41c-7.17,9.29-14.74,18.32-22.71,27.04v-68.59c4.37-8.91,8.44-18,12.21-27.27Zm-15.33,33.49v65.76c-.48.51-.95,1.03-1.44,1.55-6.82,7.25-13.92,14.28-21.27,21.1v-49.2c8.24-12.62,15.82-25.69,22.71-39.2Zm-25.82,43.89v47.37c-.67.61-1.33,1.23-2.01,1.84-1.2,1.08-2.4,2.15-3.62,3.22-5.56,4.9-11.26,9.66-17.09,14.3v-36.05c8.04-9.89,15.61-20.12,22.71-30.68Zm-46.43,57.47c7.16-7.44,14.03-15.11,20.6-23v34.74c-2.05,1.61-4.11,3.2-6.19,4.77-1.2.91-2.41,1.81-3.62,2.71-4.24,3.14-8.54,6.22-12.9,9.23v-26.28c.71-.72,1.41-1.44,2.11-2.17Zm-5.22,5.33v25.24c-3.43,2.33-6.88,4.63-10.38,6.87-1.2.77-2.41,1.53-3.62,2.29-2.88,1.81-5.79,3.58-8.71,5.33v-18.59c7.79-6.73,15.36-13.78,22.71-21.14Zm-25.83,23.81v17.78c-4.8,2.82-9.65,5.58-14.56,8.25-1.21.65-2.41,1.3-3.62,1.94-1.5.8-3.01,1.58-4.52,2.36v-12.44c7.76-5.68,15.33-11.64,22.71-17.89Zm-25.82,20.15v11.79c-6.17,3.14-12.42,6.17-18.76,9.07-1.2.55-2.41,1.1-3.62,1.64-.11.05-.22.1-.34.15v-7.48c7.73-4.79,15.3-9.85,22.71-15.16Zm-25.83,17.08v6.93c-7.46,3.27-15.03,6.38-22.71,9.3v-3.43c7.71-4.02,15.28-8.29,22.71-12.8Zm-47.2,24.55c7.24-3.18,14.37-6.56,21.38-10.15v3c-.25.09-.49.19-.74.28-7.23,2.68-14.56,5.2-21.97,7.56v-.12c.44-.19.89-.38,1.33-.58Zm-210.23,26.75c-1.73-.14-3.45-.28-5.18-.43v-.12c1.72.19,3.45.37,5.18.54Zm-8.8-.96v.21c-1.75-.16-3.5-.32-5.24-.49-1.39-.14-2.77-.28-4.16-.43-5.69-.6-11.36-1.27-16.99-2.01v-1.1c8.74,1.49,17.54,2.77,26.39,3.81Zm-30.01-4.44v1.25c-3.24-.44-6.47-.9-9.69-1.39-1.39-.21-2.77-.42-4.15-.64-4.2-.66-8.38-1.37-12.54-2.1v-2.52c8.74,2.03,17.54,3.83,26.39,5.4Zm-30.01-6.26v2.73c-4.74-.86-9.45-1.77-14.14-2.74-1.39-.28-2.77-.57-4.16-.87-2.71-.57-5.4-1.16-8.09-1.77v-4.44c8.73,2.59,17.53,4.95,26.39,7.08Zm-30.01-8.17v4.69c-6.24-1.44-12.44-2.96-18.59-4.57-1.38-.36-2.77-.73-4.15-1.1-1.22-.33-2.43-.67-3.65-1.01v-6.86c8.72,3.19,17.52,6.14,26.39,8.84Zm-31.56-10.76c.52.2,1.03.39,1.55.58v7.2c-7.76-2.19-15.44-4.51-23.04-6.96-1.12-.36-2.24-.73-3.36-1.1v-9.87c8.15,3.58,16.44,6.97,24.85,10.15Zm-28.46-11.75v10.26c-8.92-3-17.72-6.18-26.39-9.53v-13.53c8.63,4.51,17.43,8.78,26.39,12.8Zm-30.01-14.72v14.02c-.54-.21-1.09-.42-1.63-.64-8.38-3.33-16.64-6.85-24.76-10.51v-18.04c8.61,5.32,17.41,10.37,26.39,15.16Zm-30.01-17.42v18.65c-.64-.29-1.29-.58-1.93-.88-1.39-.64-2.77-1.29-4.16-1.94-6.88-3.25-13.64-6.63-20.31-10.11v-23.61c8.58,6.25,17.38,12.21,26.39,17.89Zm-30.01-20.56v24.38c-2.13-1.13-4.26-2.27-6.37-3.43-1.39-.76-2.77-1.52-4.15-2.29-5.36-2.99-10.65-6.07-15.86-9.21v-30.59c8.54,7.36,17.34,14.41,26.39,21.14Zm-32.46-26.47c.82.73,1.63,1.45,2.45,2.17v31.54c-3.64-2.23-7.26-4.49-10.82-6.79-1.39-.9-2.78-1.81-4.16-2.71-3.85-2.54-7.65-5.14-11.41-7.76v-39.45c7.63,7.89,15.61,15.56,23.94,23Zm-27.56-26.79v40.71c-5.18-3.68-10.28-7.44-15.27-11.27-1.4-1.07-2.78-2.14-4.15-3.22-2.35-1.84-4.66-3.7-6.96-5.57v-51.33c8.25,10.56,17.05,20.8,26.39,30.68Zm-30.01-35.37v53.04c-6.77-5.61-13.36-11.35-19.72-17.24-1.4-1.29-2.79-2.59-4.16-3.9-.84-.8-1.68-1.6-2.51-2.41v-68.69c8.01,13.5,16.81,26.58,26.39,39.2Zm-44.21-72.69c4.39,9.26,9.12,18.36,14.19,27.27v71.39c-8.46-8.32-16.53-16.89-24.17-25.7-.75-.86-1.48-1.73-2.22-2.6v-98.94c3.67,9.63,7.73,19.16,12.2,28.59Zm-15.81-38.49v104.55c-2.42-2.91-4.81-5.85-7.14-8.82v-22.83c0-2.48-1.53-4.66-3.78-5.83v-84.04c0-2.68-1.99-4.98-4.72-5.76v-37.01c3.58,20.25,8.79,40.19,15.64,59.75Zm-43.13-93.82c.13.11.24.23.36.35.12.12.25.24.37.36.14.15.27.31.4.47.09.1.18.2.26.31.14.18.27.37.4.57.06.09.13.18.19.27.13.2.24.42.35.63.03.05.06.1.08.15-1.57,16.48-4.22,32.69-7.87,48.58-.8.16-1.63.25-2.49.25h-23.62c-.49,0-.96-.04-1.43-.09-4.07-16.17-6.94-32.67-8.54-49.43,1.92-3.17,5.68-5.34,9.98-5.34h3.06s0,0,0,0h20.56c3.09,0,5.9,1.12,7.95,2.92Zm-61.33,31.87v40.08c-1.71,1.1-2.83,2.88-2.83,4.9v84.04c-2.25,1.17-3.78,3.35-3.78,5.83v23.61c-1.47,2.09-2.96,4.16-4.47,6.22-1.07,1.47-2.16,2.92-3.26,4.38v-103.27c6.48-21.5,11.26-43.47,14.34-65.8Zm-27.95,104.29c3.84-9.43,7.34-18.96,10.5-28.59v97.41c-7.17,9.29-14.74,18.32-22.71,27.04v-68.59c4.37-8.91,8.44-18,12.21-27.27Zm-15.33,33.49v65.76c-.48.51-.95,1.03-1.44,1.55-6.82,7.25-13.92,14.28-21.27,21.1v-49.2c8.24-12.62,15.82-25.69,22.71-39.2Zm-25.82,43.89v47.37c-.67.61-1.33,1.23-2.01,1.84-1.2,1.08-2.4,2.15-3.62,3.22-5.56,4.9-11.26,9.66-17.09,14.3v-36.05c8.04-9.89,15.61-20.12,22.71-30.68Zm-46.43,57.47c7.16-7.44,14.03-15.11,20.6-23v34.74c-2.05,1.61-4.11,3.2-6.19,4.77-1.2.91-2.41,1.81-3.62,2.71-4.24,3.14-8.54,6.22-12.9,9.23v-26.28c.71-.72,1.41-1.44,2.11-2.17Zm-5.22,5.33v25.24c-3.43,2.33-6.88,4.63-10.38,6.87-1.2.77-2.41,1.53-3.62,2.29-2.88,1.81-5.79,3.58-8.71,5.33v-18.59c7.79-6.73,15.36-13.78,22.71-21.14Zm-25.83,23.81v17.78c-4.8,2.82-9.65,5.58-14.56,8.25-1.21.65-2.41,1.3-3.62,1.94-1.5.8-3.01,1.58-4.52,2.36v-12.44c7.76-5.68,15.33-11.64,22.71-17.89Zm-25.82,20.15v11.79c-6.17,3.14-12.42,6.17-18.76,9.07-1.2.55-2.41,1.1-3.62,1.64-.11.05-.22.1-.34.15v-7.48c7.73-4.79,15.3-9.85,22.71-15.16Zm-25.83,17.08v6.93c-7.46,3.27-15.03,6.38-22.71,9.3v-3.43c7.71-4.02,15.28-8.29,22.71-12.8Zm-47.2,24.55c7.24-3.18,14.37-6.56,21.38-10.15v3c-.25.09-.49.19-.74.28-7.23,2.68-14.56,5.2-21.97,7.56v-.12c.44-.19.89-.38,1.33-.58ZM3.56,494.13l-.2-9.9c-.01-.71.29-1.32.72-1.59h4.55l3.1.12,5.58.21c1.07.04,1.58,1.84.83,2.89l-6.18,8.58-2.89,4.02H3.64l-.09-4.33Zm441.07,136.57h-7v-17.2h-8.54v-15.48c0-5.62-4.02-10.39-9.63-12.17v-75.14h57.93v74.1c-1.41.45-2.72,1.08-3.89,1.86-.04.03-.08.05-.12.08-.26.18-.52.37-.77.56-.05.04-.1.08-.15.13-.69.55-1.32,1.16-1.88,1.82-.12.14-.24.28-.35.42-.12.15-.23.31-.35.46-.13.18-.26.37-.38.56-.09.14-.17.27-.26.41-.16.28-.31.56-.46.85-.03.06-.07.12-.1.19-.17.37-.33.75-.46,1.13-.02.07-.04.13-.06.2-.11.33-.2.66-.29.99-.02.09-.04.18-.06.27-.07.34-.13.69-.18,1.04,0,.07-.02.13-.03.2-.05.42-.08.85-.08,1.29v15.84h-8.13s0,0,0,0v17.6h-1.4s0,0,0,0h-13.37Zm959.06,0h-7v-17.2h-8.54v-15.48c0-5.62-4.02-10.39-9.63-12.17v-75.14h57.93v74.1c-1.41.45-2.72,1.08-3.89,1.86-.04.03-.08.05-.12.08-.26.18-.52.37-.77.56-.05.04-.1.08-.15.13-.69.55-1.32,1.16-1.88,1.82-.12.14-.24.28-.35.42-.12.15-.23.31-.35.46-.13.18-.26.37-.38.56-.09.14-.17.27-.26.41-.16.28-.31.56-.46.85-.03.06-.07.12-.1.19-.17.37-.33.75-.46,1.13-.02.07-.04.13-.06.2-.11.33-.2.66-.29.99-.02.09-.04.18-.06.27-.07.34-.13.69-.18,1.04,0,.07-.02.13-.03.2-.05.42-.08.85-.08,1.29v15.84h-8.13s0,0,0,0v17.6h-1.4s-13.37,0-13.37,0Zm515.63-146.47l-.2,9.9-.09,4.33h-5.44l-2.89-4.02-6.18-8.58c-.76-1.05-.24-2.85.83-2.89l5.58-.21,3.1-.12h4.55c.43.27.73.88.72,1.59Z"/></g></svg>