<?xml version="1.0" encoding="UTF-8"?><svg id="Layer_2" xmlns="http://www.w3.org/2000/svg" viewBox="0 0 1683.87 255.17"><defs><style>.cls-1{fill:none;stroke:#fcca29;stroke-miterlimit:10;}</style></defs><g id="Layer_1-2"><path class="cls-1" d="m1683.37,209.17l-104.68-6.41C1545.14,86.1,1437.47.5,1310.17.5c-111.79,0-208.43,66.01-253.04,161.09l-120.35-106.67C910.15,19.59,877.8.5,843.44.5s-64.97,18.06-91.18,51.59l-111.56,106.95C595.57,65.33,499.67.5,388.89.5c-126.95,0-234.37,85.13-268.23,201.31L.5,209.17v17.85l115.44-6.64c-2.44,11.2-4.22,22.64-5.26,34.3h23.29c1.19-12.16,3.24-24.08,6.08-35.68l25.03-1.44-19.51,37.12h37.12s11.85-21.96,39.7-40.42l99.59-5.73c62.24-4.69,126.94-8.71,199.33-12.33,55.94,16.76,78.42,58.49,78.42,58.49h37.12l-32.75-62.31c8.28-.35,16.67-.7,25.17-1.05,7.42,20.07,12.39,41.31,14.56,63.37h23.29c-2-22.3-6.64-43.85-13.59-64.34,13.71-.54,27.72-1.07,42.03-1.6-4.02,21.16-6.66,43.26-7.77,65.94h23.22c1.18-23.05,3.99-45.42,8.3-66.69,2.4-.07,4.98-.14,7.76-.22h229.74c3.98.11,7.6.22,10.83.31,4.3,21.24,7.1,43.59,8.28,66.6h23.22c-1.11-22.64-3.74-44.69-7.75-65.82,18.51.68,36.49,1.38,53.99,2.08-6.84,20.31-11.41,41.66-13.39,63.74h23.29c2.14-21.83,7.04-42.86,14.33-62.74,8.7.37,17.28.73,25.76,1.11l-32.39,61.64h37.12s21.87-40.6,76.15-57.79c66.93,3.44,127.4,7.25,185.74,11.65l118.8,6.84c26.67,18.22,38.03,39.31,38.03,39.31h37.12l-18.96-36.08,22.28,1.28c2.73,11.33,4.71,22.94,5.87,34.8h23.29c-1.02-11.34-2.73-22.49-5.06-33.41l100.05,5.76v-17.85Zm-1537.97-8.88c4.74-14.47,10.74-28.37,17.86-41.58l20.64,39.23-38.5,2.36Zm41.89-2.57l-22.24-42.26c1.69-3.03,3.44-6.03,5.25-8.98l21.1,50.99-4.1.25Zm7.37-.45l-22.35-54.02c7.2-11.38,15.28-22.16,24.13-32.24l40.97,83.64-42.75,2.62Zm46.09-2.82l-42.09-85.93c3.43-3.8,6.96-7.5,10.61-11.09l34.3,96.85-2.82.17Zm6.03-.37l-35.07-99.02c11.51-11.04,24.04-21.03,37.44-29.79l45.46,125.88-47.83,2.93Zm51.05-3.13l-46-127.39c3.44-2.19,6.93-4.31,10.48-6.33l37.96,133.58-2.44.15Zm18-1.1l-12.4.76-38.35-134.93c10.89-6.04,22.25-11.31,34.03-15.73l37.84,148.61c-7.05.43-14.11.86-21.13,1.3Zm24.27-1.49l-38.07-149.49c4.3-1.55,8.65-2.99,13.04-4.32l27.74,153.64c-.91.06-1.81.11-2.72.17Zm5.83-.36l-27.87-154.34c12.76-3.68,25.93-6.39,39.43-8.05l18.07,160.58c-9.9.6-19.78,1.2-29.63,1.81Zm32.72-1.99l-18.09-160.74c5.36-.59,10.76-1.02,16.21-1.28l4.2,161.88c-.78.05-1.55.09-2.33.14Zm5.41-.33l-4.2-161.81c3-.1,6.01-.17,9.03-.17,14,0,27.74,1.14,41.14,3.31l-15.83,156.86c-10.06.6-20.11,1.2-30.14,1.81Zm33.27-2l15.76-156.16c5.37.94,10.68,2.04,15.93,3.31l-25.88,152.5c-1.94.12-3.87.23-5.81.35Zm8.98-.54l25.72-151.56c14.46,3.68,28.43,8.59,41.8,14.62l-37.12,135.17c-10.15.59-20.29,1.18-30.41,1.78Zm33.66-1.97l36.71-133.67c4.23,1.97,8.39,4.05,12.49,6.24l-43.3,127.09c-1.97.11-3.93.23-5.9.34Zm9.23-.54l42.72-125.4c14.29,7.86,27.76,17.05,40.23,27.4l-47.29,95.99c-11.9.66-23.79,1.33-35.66,2.01Zm39.2-2.21l46.19-93.75c2.91,2.48,5.77,5.02,8.57,7.62l-51.29,85.94c-1.16.06-2.31.12-3.47.19Zm7.19-.39l49.87-83.57c9.63,9.18,18.56,19.11,26.67,29.68l-25.3,51.18c-17.09.87-34.17,1.77-51.25,2.7Zm54.79-2.88l23.85-48.25c2.18,2.92,4.29,5.88,6.35,8.89l-26.77,39.18c-1.14.06-2.28.12-3.42.17Zm7.3-.37l24.75-36.22c7.19,10.83,13.58,22.22,19.08,34.11-14.6.67-29.21,1.38-43.83,2.11ZM895.49,44.51l17.36,17.51c1.21,1.45,2.41,2.95,3.6,4.48l-3.91,26.25-25.26-26.91,5.88-23.21c.78.62,1.56,1.25,2.33,1.89Zm-137.94,64.65l23.54-28.88,12.7,33.34-31.38,50.62-4.86-55.07Zm25.8-31.65l15.12-18.55,14.05,24.46-16.67,26.89-12.49-32.8Zm17.21-21.12l18.74-22.99,13.3,17.63-18.23,29.4-13.8-24.04Zm34.03-2.71l16.35,21.68-16.67,39.74-18.16-31.62,18.47-29.8Zm1.75-2.82l12.99-20.96,14.29,15.23-11.3,26.93-15.99-21.2Zm29.61-3.25l17.93,19.1-8.94,35.31-20.44-27.1,11.46-27.31Zm20.44,21.78l25.58,27.26-6.78,45.49-27.86-36.94,9.07-35.8Zm4.11-28.82l-5.72,22.58-17.52-18.67,5.94-14.17c5.88,2.65,11.66,6.07,17.3,10.26Zm-37.71-16.23c5.93.82,11.8,2.42,17.57,4.76l-5.42,12.91-13.92-14.83,1.76-2.84Zm-3.41-.38l-.55.88-.93-.99c.49.03.98.06,1.47.1Zm-24.18,2.21c6.01-1.63,12.11-2.48,18.26-2.48.02,0,.04,0,.06,0l3.63,3.87-12.8,20.64-13.03-17.28,3.88-4.76Zm-5.36,1.68l-.44.54-.23-.3c.22-.08.44-.16.67-.24Zm-3.66,1.4l1.21,1.61-18.47,22.66-5.92-10.31c7.49-6.02,15.24-10.7,23.17-13.96Zm-25.6,15.96l6.25,10.88-14.74,18.09-5.68-14.91c4.59-5.24,9.32-9.94,14.17-14.06Zm-16.47,16.73l5.72,15-22.66,27.8-1.45-16.44c5.8-9.86,11.95-18.67,18.39-26.37Zm-21.09,31.07l1.34,15.18-19.08,23.4c4.73-12.59,10.08-24.49,16.05-35.55.56-1.03,1.12-2.03,1.68-3.04Zm-53.35,76.42c-10.48.41-19.93.78-27.57,1.09l40.72-45.03c-5.12,13.94-9.52,28.64-13.15,43.94Zm16.21-51.93l-48.1,53.19c-6.98.28-11.91.48-13.86.57-2.51.11-5.02.22-7.54.33-1.36-3.23-2.79-6.43-4.27-9.6l100.25-96.11c-3.96,6-7.78,12.38-11.43,19.14-5.52,10.21-10.53,21.07-15.05,32.48Zm8.94,50.96c-.36.01-.72.03-1.09.04,2.47-9.68,5.28-19.07,8.39-28.14l22.62-27.76,4.93,55.86h-34.86Zm87.08,0h-48.46s31.74-51.2,31.74-51.2l18.18,47.72-1.46,3.49Zm-14.66-54.51l17.03-27.48,18.5,32.22-17.68,42.14-17.86-46.89Zm60.87,54.51h-40.11s-1.31-3.43-1.31-3.43l18.02-42.95,24.39,42.47-.99,3.92Zm-21.89-49.98l16.89-40.26,20.85,27.65-13.77,54.35-23.97-41.75Zm25.08,49.98l.02-.06.04.06h-.05Zm3.62,0l-2.51-4.37,13.94-55.04,28.2,37.39-3.28,22.03h-36.34Zm39.47,0l2.77-18.56,14,18.56h-16.77Zm40.22,0h-19.58s-17.24-22.85-17.24-22.85l6.87-46.08,31.14,33.18-1.19,35.75Zm1.34-40.12l-30.7-32.71,3.83-25.68c5.78,7.79,11.29,16.49,16.48,26.1,3.83,7.1,7.39,14.57,10.72,22.32l-.33,9.98Zm13,40.12h-11.25s1.09-32.57,1.09-32.57l6.95,7.41c2.74,8.2,5.24,16.64,7.46,25.32-1.41-.05-2.82-.11-4.25-.16Zm-10.02-36.94l.21-6.25c1.43,3.56,2.8,7.18,4.12,10.86l-4.33-4.61Zm38.32,38.03c-3.88-16.35-8.63-32.01-14.21-46.81l47.73,48.15c-7.85-.32-19.69-.79-33.52-1.33Zm65.16,2.69c-7.49-.33-14.97-.66-22.44-.98-.92-.04-2.52-.11-4.66-.19l-55.08-55.57c-4.31-10.68-9.06-20.88-14.26-30.48-3.63-6.72-7.43-13.07-11.37-19.04l111.19,98.56c-1.16,2.55-2.29,5.12-3.38,7.71Zm24.82,1.14c5.61-12.22,12.15-23.92,19.53-35.01l25.45,37.24c-15-.77-30-1.52-44.98-2.23Zm48.86,2.43l-27.47-40.2c2.06-3.02,4.18-5.99,6.37-8.92l24.36,49.29c-1.09-.06-2.18-.11-3.26-.17Zm6.8.35l-25.81-52.22c8.12-10.56,17.05-20.46,26.68-29.63l50.49,84.61c-17.11-.95-34.24-1.87-51.37-2.76Zm55.09,2.97l-51.91-86.98c2.8-2.6,5.66-5.15,8.58-7.63l46.71,94.81c-1.13-.06-2.25-.13-3.38-.19Zm6.93.39l-47.81-97.05c12.49-10.34,25.96-19.51,40.27-27.36l43.07,126.44c-11.83-.69-23.67-1.37-35.53-2.03Zm38.86,2.23l-43.65-128.13c4.1-2.19,8.27-4.26,12.5-6.23l36.99,134.7c-1.95-.11-3.89-.23-5.84-.34Zm9.1.53l-37.4-136.2c13.37-6.01,27.35-10.91,41.82-14.57l25.89,152.56c-10.09-.6-20.19-1.2-30.31-1.8Zm33.48,1.99l-26.05-153.5c5.25-1.26,10.57-2.36,15.94-3.29l15.86,157.14c-1.91-.12-3.83-.23-5.74-.34Zm8.87.53l-15.93-157.83c13.31-2.14,26.96-3.27,40.87-3.27,3.11,0,6.21.07,9.3.18l-4.23,162.74c-9.99-.61-19.99-1.21-30.02-1.82Zm33.11,2.01l4.23-162.8c5.45.26,10.85.69,16.21,1.29l-18.19,161.64c-.75-.05-1.5-.09-2.25-.14Zm5.34.32l18.18-161.48c13.49,1.67,26.65,4.4,39.41,8.09l-28.02,155.2c-9.83-.6-19.68-1.21-29.57-1.81Zm35.33,2.16c-.88-.05-1.77-.11-2.65-.16l27.9-154.5c4.4,1.33,8.74,2.77,13.04,4.33l-38.28,150.34Zm9.06.56c-1.97-.12-3.95-.24-5.92-.36l38.05-149.45c11.78,4.44,23.14,9.72,34.02,15.77l-38.58,135.74-27.58-1.69Zm30.74,1.88l38.19-134.37c3.55,2.03,7.03,4.15,10.47,6.34l-46.29,128.18-2.37-.15Zm5.59.34l45.74-126.67c13.4,8.78,25.92,18.78,37.43,29.84l-35.33,99.76-47.83-2.93Zm51.05,3.13l34.56-97.58c3.64,3.59,7.17,7.29,10.58,11.09l-42.44,86.66-2.7-.17Zm6.04.37l41.32-84.37c8.85,10.1,16.92,20.9,24.12,32.3l-22.63,54.69-42.81-2.62Zm46.08,2.82l21.38-51.66c1.8,2.95,3.54,5.94,5.23,8.97l-22.6,42.94-4-.25Zm7.39.45l20.99-39.89c7.22,13.43,13.28,27.56,18.03,42.28l-39.03-2.39Z"/></g></svg>