<?xml version="1.0" encoding="UTF-8"?><svg id="Layer_2" xmlns="http://www.w3.org/2000/svg" viewBox="0 0 313.88 930.95"><defs><style>.cls-1{fill:#a4a5a6;}</style></defs><g id="Layer_1-2"><path class="cls-1" d="m139.15,183.49c-4.64,11.16-4.19,24.12-2.47,35.92.71,6.79,2.75-8.44,2.99-11.36.93-8.18-.7-16.44-.52-24.56h0Z"/><path class="cls-1" d="m138.62,187.12c.76,11.7,1.7,24.01,7.76,34.33-1.49-11.49-1.27-24.31-7.76-34.33h0Zm7.22,30s0,.08.01.12c0-.04,0-.08-.01-.12h0Z"/><path class="cls-1" d="m84.84,202.39c8.39,11.76,19.27,21.45,30.73,30.07-6.65-12.79-19.54-21.46-30.73-30.07h0Zm3.21,2.37s.04.03.07.05c-.02-.02-.04-.03-.07-.05h0Zm26.43,26.68s.03.02.04.03c-.01-.01-.03-.02-.04-.03h0Z"/><path class="cls-1" d="m86.88,203.4c8.66,10.67,21.03,18.6,34.09,22.85-10.48-8.75-21.79-16.89-34.09-22.85h0Zm2.13,1.23s.05.02.07.03c-.02-.01-.05-.02-.07-.03h0Zm27.95,18.32s.04.04.07.05c-.02-.02-.04-.04-.07-.05h0Zm1.6,1.25s.04.03.07.05c-.02-.02-.04-.03-.07-.05h0Z"/><path class="cls-1" d="m74.8,242.72c.09.05.22.05.34.08,0,0-.01,0-.02,0,31.66,9.67,36.79-.33-.32-.08h0Z"/><path class="cls-1" d="m84.33,238.17c-3.84.28-7.65.92-11.29,2.2,5.19.95,10.58,1.07,15.87.94,5.92-.27,11.84-1.32,17.66-2.41-4.69-.69-9.47-1.02-14.24-.8.03,0,.06,0,.08,0-2.69-.11-5.39-.15-8.08.06h0Z"/><path class="cls-1" d="m94.62,259.79c-3.78.22-13.85.55-5.13,1.79,4.48.86,9.11.46,13.44-.79-2.67-.85-5.52-1.02-8.31-1h0Z"/><path class="cls-1" d="m92.78,253.15c-4.03.25-13.82,2.69-4.73,2.65,8.41-.08,20.5-2.89,4.73-2.65h0Z"/><path class="cls-1" d="m192.46,199.45c-11.99,7.22-23.71,15.2-32.39,26.36,12.37-6.29,23.14-16.14,32.39-26.36h0Z"/><path class="cls-1" d="m189.56,202.63c-9.42,7.48-17.37,16.84-22.8,27.57,8.96-7.57,17.58-17.01,22.8-27.57h0Z"/><path class="cls-1" d="m216.48,227.58c-34.78,2.4-61.83,19.16-7,2.95-.09.02-.18.05-.28.07,2.93-.48,14.72-4.3,7.28-3.02h0Z"/><path class="cls-1" d="m211.92,229.33c-11.99,2.3-23.64,7.71-33.06,15.45,6-1.63,37.35-14.09,33.06-15.45h0Zm1.16.4s-.02.01-.03.02c.01,0,.02-.01.03-.02h0Z"/><path class="cls-1" d="m185.9,251.55c-17.42,2.21,30.56,5.51,36.14,4.86,8.59-.86-29.83-6.17-36.14-4.86h0Z"/><path class="cls-1" d="m206.76,255.37c-4.9-.54-31.41,4-23.79,4.69,12.08,1.22,62.77-4.37,23.79-4.69h0Zm13.2.53s.07,0,.1,0c-.03,0-.07,0-.1,0h0Z"/><path class="cls-1" d="m139.97,246.64c.91,15.36,18.66,16.3,27.6,24.58,2.92,3.86,3.47,10.53,9.07,11.61,1.41.15,4.37-.61,1.41-.61-2.9-.56-3.78-3.77-4.28-6.28-.3-17.76-23.15-13.55-31.17-25.46.05.06.09.13.14.19-.95-1.31-1.85-2.73-2.76-4.03h0Z"/><path class="cls-1" d="m138.45,247.52c-1.07,6.92-6.83,10.46-12.69,13.19-4.75,2.7-9.68,7.25-15.48,4.9,9.51,7.78,32.02-5.62,28.16-18.09h0Z"/><path class="cls-1" d="m118.44,267.94c.03,6.99-9.36,16.36-15.67,10.57,4.98,10.44,21.11-1.26,15.67-10.57h0Z"/><path class="cls-1" d="m108.37,266.24c-2.47,4.54-5.51,10.06-3.76,15.3.78-5.05,4.42-9.94,3.76-15.3h0Zm-3.8,15.01s0,0,0,0c0,0,0,0,0,0h0Zm0,.01s0,0,0,0c0,0,0,0,0,0h0Z"/><path class="cls-1" d="m130.56,242.72c-10.7.02-29.37,10.16-20.44,22.42-.21-1.01-.52-2.08-.63-3.14-2.48-14.37,45.31-19.9,21.06-19.29h0Z"/><path class="cls-1" d="m146.02,242.95c-.91.05-4.34.3-3.89.65,0,0,0,0,0,0,0,0,.01,0,.02,0,0,0,0,0,0,0,13.57,1.98,26.44,10.23,31.07,23.58.28,5.44,7.38,8.98,5.48,14.51,0,0,0-.01,0-.02,3.71-1.6-.16-9.59-.66-13.62-1.74-15.06-17.16-26.47-32.02-25.11h0Zm23.35,16.8c.05.08.11.15.16.23-.05-.08-.11-.15-.16-.23h0Zm-27.22-16.15s-.01,0-.02,0c0,0,.01,0,.02,0h0Z"/><path class="cls-1" d="m159.79,266.17c.76-.1-.28-.17-.56-.25.2.08.38.16.56.25h0Z"/><path class="cls-1" d="m129.72,267.33c-11.03,3.14,2.15,1.78,6.84.65-2.15-.82-4.57-1.13-6.84-.65h0Z"/><path class="cls-1" d="m129.92,271.38c-1.84.67-2.95,2.5-3.65,4.24,1.97-1.5,4.59-3.68,7.18-2.23,4.74,4.22-.15-4.25-3.53-2h0Z"/><path class="cls-1" d="m135.48,274.69c-2.93,1.52-7.04.28-10.36,1.59,2.87.75,9.05,1.85,10.36-1.59h0Zm-.35.38s-.01.01-.02.02c0,0,.01-.01.02-.02h0Z"/><path class="cls-1" d="m145.02,270.36c-1.83,4.17-1.93,9-.34,13.25.56-4.34,1.19-8.89.34-13.25h0Z"/><path class="cls-1" d="m137.46,282.97c-3.96,1.19-1.62,6.26,1.95,4.18-2.65.01-3.95-2.16-1.95-4.18h0Zm-.79,1.19s0,0,0,0c0,0,0,0,0,0h0Zm-.02.03s-.01.02-.02.03c0,0,.01-.02.02-.03h0Zm-.21.75s0,.08,0,.12c0-.04,0-.08,0-.12h0Z"/><path class="cls-1" d="m146.6,283.95c.2.21.46.38.57.65,0-.02-.01-.04-.02-.06.03.1.04.2.04.3,0,0,0,0,0-.01,0,0,0,.01,0,.02,0,0,0,0,0,0-.13.45-.5.83-.92,1.03.05-.03.09-.05.13-.07-1.33.37-2.55.6-3.28,1.91.02-.01.05-.03.07-.04-.21.14-.43.22-.67.26,0,0,.01,0,.02,0-1.12.13.64.5,1.09.25.66-.33,1.19-.88,2-.83,1.85.01,3.46-3.15.97-3.39h0Zm.44.43s.01.01.02.02c0,0-.01-.01-.02-.02h0Zm-4.49,3.54s0,0,.01,0c0,0,0,0-.01,0h0Zm4.65-3.08s0,0,0,0c0,0,0,0,0,0,0,0,0,0,0,0h0Zm-.02.08s.03-.1.02-.15c0,.05-.02.1-.02.15h0Z"/><path class="cls-1" d="m151.59,266.17c-11.03,2.76,9.89.63,12.24,6.16-.96-5.39-7.5-7.07-12.24-6.16h0Z"/><path class="cls-1" d="m152.94,270.96c-1.24-.43-4.76,2.02-3.32,1.81-.01,0-.03.01-.04.02,3.14-1,6.92.05,9.73,1.66,0,0,0,0,0,0-.7-2.03-3.85-3.86-6.36-3.48h0Z"/><path class="cls-1" d="m149.84,274.16c1.65,2.96,5.87,1.14,8.5.87-2.7-1.45-5.94.39-8.5-.87h0Z"/><path class="cls-1" d="m139.13,292.02c-1.58.73-3.07,1.95-3.82,3.52,1.73-.84,3.96-2.38,5.86-1.29-.02,0-.04-.02-.06-.03.03.01.06.03.08.04,0,0,0,0-.01,0,2.94,1.22,6.41-.96,9.4.96-2.58-3.46-7.65-3.33-11.46-3.2h0Zm3.48.29s.03,0,.05,0c-.02,0-.03,0-.05,0h0Zm.46.03s-.04,0-.05,0c.02,0,.04,0,.05,0h0Zm-1.89,1.92s-.01,0-.02,0c0,0,.01,0,.02,0h0Z"/><path class="cls-1" d="m145.82,297.83c-1.64.12-3.24.54-4.89.57.02,0,.04,0,.07,0-3.35-.04.57.99,2,1.12,2.57.11,8.49-2.23,2.82-1.69h0Z"/><path class="cls-1" d="m122.75,304.24c7.01,7.2,20.01,10.56,28.14,3.32-9.43,2.67-19.12-.69-28.14-3.32h0Z"/><path class="cls-1" d="m166.89,295.58c-3.97,2.51-7.57,5.62-10.67,9.13.03-.03.05-.06.08-.08-.05.05-.09.1-.14.15.01-.01.02-.02.03-.04-6.88,7.47,10.04-4.46,10.7-9.17h0Zm-10.7,9.17s.02-.02.03-.03c-.01.01-.02.02-.03.03h0Z"/><path class="cls-1" d="m168.99,281.78c-1.69,4.04-1.43,8.51-2.19,12.72,2.79-3.59,3.12-8.43,2.19-12.72h0Z"/><path class="cls-1" d="m118.13,279.86c-2.73,7.53-1.5,18.99,5.31,23.87-3.8-7.06-3.44-16.09-5.31-23.87h0Z"/><path class="cls-1" d="m110.87,285.19c-1.95,7.9,2.47,13.69,9.02,8.41h.02c-7.17,1.82-7.14-3.28-9.04-8.41h0Z"/><path class="cls-1" d="m105.64,280.38c-.72,5.82-6.63,9.7-6.87,15.4,2.9-4.8,9.52-8.73,6.87-15.4h0Z"/><path class="cls-1" d="m106.72,287.31c.3,6.6-4.56,13.75,1.39,19.32-2.95-6.33,2.86-13.6-1.39-19.32h0Zm-.13,3.97s-.01.05-.02.08c0-.03.01-.05.02-.08h0Z"/><path class="cls-1" d="m117.19,299.01c1.16,6.82-4.42,13.64-.91,20.06-.27-6.79,5.98-13.64.91-20.06h0Zm.07.75s0,0,0,0c0,0,0,0,0,0h0Z"/><path class="cls-1" d="m121.2,301.73c-2.11,6.29-2.33,12.99-1.44,19.5,1.85-6.25,3.24-13.11,1.44-19.5h0Z"/><path class="cls-1" d="m136.81,315.36c1.33,5.11,2.29,10.3,3.6,15.41,1.19-5.38.79-11.53-3.6-15.41h0Z"/><path class="cls-1" d="m146.34,314.78c-3.51,7.48-3.52,15.87-1.13,23.68.64-7.82,2.16-15.84,1.13-23.68h0Z"/><path class="cls-1" d="m167.94,296.29c-5.76,13.45-5.53,28.65-3.51,42.9,2.47-14.07,4.17-28.59,3.51-42.9h0Z"/><path class="cls-1" d="m176.86,283c-1.84,8.7.14,17.58,1.75,26.16,0,0,0,0,0,0,2.53,13.85,1.76-22.02-1.75-26.16h0Zm1.71,25.97s.01.06.02.1c0-.03-.01-.06-.02-.1h0Zm.29,1.41s0,.04.01.06c0-.02,0-.04-.01-.06h0Z"/><path class="cls-1" d="m173.81,293.82c-1.47,17.39,4.22,34.06,11.8,49.46-3.45-16.46-6.28-33.53-11.8-49.46h0Z"/><path class="cls-1" d="m171.87,282.5c-1.33,3.34.62,13.94-2.98,14.21-1.5-1.03-2-2.48-1.3.22,7.69,6.6,6.2-10.5,4.28-14.43h0Zm-3.46,13.95s.05.04.08.05c-.03-.02-.05-.04-.08-.05h0Zm1.81.22s-.03.06-.05.08c.02-.03.03-.05.05-.08h0Zm.07.05c-.07.05-.16.06-.2.14.01-.02.03-.04.04-.06,0,0-.01,0-.02,0,.03,0,.04-.04.06-.06-.01.02-.02.03-.03.05.05-.03.1-.05.15-.08h0Zm-.36.15s-.07.02-.11.02c.04,0,.07-.01.11-.02h0Zm-.11.02s.01,0,.02,0c-.04,0-.08.02-.13.02.04,0,.07-.01.11-.02h0Zm.31-.09s0,0,0,0c0,0,0,0,0,0,0,0,0,0,0,0h0Z"/><path class="cls-1" d="m169.45,313.29c-1.25,7.28-1.75,15.57,1.8,22.25-.64-7.41,1.28-15.15-1.8-22.25h0Z"/><path class="cls-1" d="m166.63,325.07c2.11,4.56,2.16,16.31,9.23,14.45-5.67-1.04-2.87-9.52-7.69-12.59.02.02.04.04.06.06-.53-.63-1.06-1.32-1.6-1.92h0Zm6.39,13.22s.03.03.04.05c-.01-.02-.03-.03-.04-.05h0Z"/><path class="cls-1" d="m118.14,322.12c11.32,16.84,15.62,35.8,41.21,27.51-.01,0-.03,0-.04,0,3.68-.94,7.42-1.48,11.22-1.06,0,0-.01,0-.02,0,.92.03,1.87.17,2.76.27-12.07-6.69-28.93,2.7-38.74-9.22-6.12-5.11-8.77-14.51-16.39-17.5h0Zm50.87,26.38s.04,0,.06,0c-.02,0-.04,0-.06,0h0Z"/><path class="cls-1" d="m172.62,339.02c-8.14,11.7,10.98,15.01,18.67,17.35-4.88-6.96-20.97-6.49-18.67-17.35h0Z"/><path class="cls-1" d="m175.89,341.56c5.15,5.63,11.99,9.47,17.23,15.08,0,0,0,0,0,0-1.39-6.85-9.67-13.2-17.23-15.08h0Zm17.21,15.07s0,0,0,0c0,0,0,0,0,0h0Z"/><path class="cls-1" d="m182.67,341.52c-8.82.62,3.88,2.3,7.03,3.7,1.85.87,2.52,5.3,3.38,5.44,0,0,0,.01,0,.02,1.2-6.8-4.28-9.93-10.41-9.17h0Z"/><path class="cls-1" d="m165.87,348.08c-23.59,4.16-37.18,25.91-53.63,41.04-15.45,15.49-34.85,24.11-43.77,45.67.02-.04.05-.09.07-.13-6.19,8.99,5.58-4.58,7.95-8.1,5.71-6.73,12.71-12.34,19.66-17.73,24.44-18.78,42.58-45.44,69.72-60.75h0Zm-95.64,83.7s-.02.04-.04.06c.01-.02.02-.04.04-.06h0Z"/><path class="cls-1" d="m131.82,384.21c-.9.95-1.87,1.82-2.8,2.75.05-.05.09-.09.14-.14-12.9,10.77-19.72,26.75-27.66,41.16.01-.02.02-.03.03-.05-.2.34-.4.67-.59,1.01,0-.01.01-.02.02-.03-.12.21-.25.42-.37.62,0,0,0-.01,0-.02,9.43-11.73,24.04-29.25,31.21-45.3h0Zm-29.37,42.16s-.03.05-.04.07c.01-.02.03-.05.04-.07h0Z"/><path class="cls-1" d="m164.6,351.21c-18.21,6.58-25.84,26.48-35.49,41.7,12.96-13.98,23.19-31.32,39.18-42.18,0,0,0,0,0,0,1.34-.75-2.87.22-3.69.48h0Zm-35.12,41.11s0,0,0,.01c0,0,0,0,0-.01h0Z"/><path class="cls-1" d="m173.52,350.74c-7.16,4-11.18,11.03-13.92,18.51,5.27-5.58,10.41-11.64,13.92-18.51h0Z"/><path class="cls-1" d="m180.7,350.97c-16.07,4.98-18.99,22.76-25.93,35.77.01-.02.03-.05.04-.07,5.17-.4,16.15-28.29,25.89-35.7h0Z"/><path class="cls-1" d="m154.71,383.94c-6.5,12.46-13.2,24.91-23.72,34.56.14-.14.28-.27.42-.41-8.56,8.68-18.7,15.7-26.93,24.64,22.08-14,47.39-30.27,50.24-58.79h0Zm-48.82,57.59s-.02.02-.03.03c.01-.01.02-.02.03-.03h0Z"/><path class="cls-1" d="m181.03,353.24c-7.28,5.65-10.7,14.37-12.75,23.08.02-.06.03-.12.05-.18-1.34,4.67-1.15,4.94,1.28.62-.02.03-.04.07-.06.1.03-.06.07-.11.1-.17,0,0,0,.02-.01.02,4.45-7.47,8.34-15.35,11.39-23.47h0Zm-11.4,23.48s-.01.02-.02.03c0-.01.02-.03.02-.04,0,0,0,0,0,0h0Z"/><path class="cls-1" d="m122.89,388.17c-15.03,11.38-24.25,28.82-32.98,45.15,11.24-14.88,24.82-28.18,32.98-45.15h0Z"/><path class="cls-1" d="m76.18,252.76c4.05,20.45-10.11,37.22-25.02,49.02-6.23,6.14-8.01,19.62-18.54,19.39.02,0,.05.02.07.03-.21-.09-.35-.27-.47-.45,0,.01.01.03.02.04-.12-.22-.19-.45-.21-.69,0,0,0,0,0,0-.49-.11.12,2.33,1.95,2.05,12.02.8,15.37-13.99,23.78-19.89,15.54-10.08,28.43-31.55,18.42-49.5h0Zm-39.61,67.83s-.03.01-.05.02c.02,0,.03-.01.05-.02h0Zm-1.73.53s-.03,0-.04,0c.01,0,.03,0,.04,0h0Zm-1.81.16s.02,0,.02,0c0,0-.02,0-.02,0h0Zm-1-1.16s0,0,0,0c0,0,0,0,0,0h0Z"/><path class="cls-1" d="m42.11,265.85c-13.5,17.97-28.59,44.29-12.69,65.1-3.94-11.22-3.38-22.35,1.69-33.11,2.74-11,7.97-21.2,11-31.99h0Zm-13.48,62.05s.01.08.02.11c0-.04-.01-.07-.02-.11h0Z"/><path class="cls-1" d="m46.39,281.23c-4.65,2.55-8.26,6.76-9.66,11.91,3.55-3.64,7.41-7.26,9.66-11.91h0Z"/><path class="cls-1" d="m46.4,287.72c-3.36,7.78-12.33,10.82-16.45,18.1,6.59-4.58,17.6-8.22,16.45-18.1h0Z"/><path class="cls-1" d="m39.03,235.31c1.35,17.15,3.09,34.15,6.3,51.14-.01-.08-.03-.15-.04-.23.87,5.7,1.77,11.59,4.7,16.62-1.3-7-.49-14.11-.6-21.18-.73-15.58-3.52-32.36-10.37-46.36h0Z"/><path class="cls-1" d="m78.84,255.51c8.08,9.81,1.4,22.38-2.39,32.61,9.48-7.99,16.41-25.63,2.39-32.61h0Zm.77.82s.01.02.02.02c0,0-.01-.02-.02-.02h0Zm.04.04s0,.01.01.02c0,0,0-.01-.01-.02h0Zm.81,1.35s.02.05.04.08c-.01-.03-.02-.05-.04-.08h0Z"/><path class="cls-1" d="m85.64,264.17c-.97,4.59,2.11,8.8,1.85,13.36-.35,5.21-2.44,10.12-2.69,15.33,7.61-10.67,8.16-17.77.83-28.69h0Z"/><path class="cls-1" d="m89.15,275.84c-1.34,8.41-1.71,17.24,5.01,23.12,1.27,10.93-.17,21.92.42,32.88,14.49-49.25,1.33-23.99-5.43-56h0Z"/><path class="cls-1" d="m93.76,314.88c-2.87,6.58-14.69,38.27-24.09,26.4,1.84,10.74,14.89,2.33,18.1-3.46,5.52-6.31,5.96-14.97,5.99-22.94h0Zm-22.2,28.81s.06.04.09.06c-.03-.02-.06-.04-.09-.06h0Zm2.01.43s-.07.01-.11.02c.04,0,.07-.01.11-.02h0Z"/><path class="cls-1" d="m88.5,312.7c-1.76,2.49-3.59,4.98-6.11,6.77-.54-8.87-2.9-1.56-1.16,2.03,4.32,1.41,7.21-5.22,7.27-8.79h0Zm-6.5,4.57c.01.05.02.1.03.15,0-.05-.02-.1-.03-.15h0Z"/><path class="cls-1" d="m69.06,307.35c-5.57,11.03-30.47,44.27-40.66,22.95.39,15.39,17.61,13.51,25.85,5.12,8.46-7.05,12.65-17.56,14.81-28.07h0Z"/><path class="cls-1" d="m68.91,324.04c-.23.19-.47.37-.7.56.01-.01.02-.02.03-.03-7.73,6.41-16.44,12.21-26.32,14.55.04,0,.09-.02.13-.02-5.12.44,4.71,2.14,6.8,1.18,9.3-1.16,16.12-8.16,20.05-16.24h0Zm-1.69,1.36s0,0,0,0c0,0,0,0,0,0h0Z"/><path class="cls-1" d="m38.47,338.92c7.5,5.15-4.64,12.52-2.72,18.99,3.42,6.53,11.58,1.76,14.06-3.21-22.5,11.75,4.17-13.94-11.35-15.79h0Zm1.34,17.43s.01.03.02.04c0-.01-.01-.03-.02-.04h0Zm.13.1s.01.09.02.13c0-.04-.02-.09-.02-.13h0Zm5.96.38s-.06.02-.08.04c.03-.01.06-.02.08-.04h0Z"/><path class="cls-1" d="m43.49,359.85c.2.25.4.5.6.75,0,0,0,0,0,0,.01.02.03.04.04.05,0-.01-.02-.02-.03-.04,2.11,2.69,2.66,6.18,4.22,9.15.5-3.9-.49-8.76-4.83-9.92h0Zm2.23,3.53s.02.04.03.07c0-.02-.02-.05-.03-.07h0Zm-1.61-2.76s0,0,0-.01c0,0,0,0,0,.01h0Z"/><path class="cls-1" d="m60.97,339.42c-4.37,9.34-20.74,40.5-12.54,48.1.76.16,3.79-.68,1.86-.66-6.2-.36,4.68-17.85,5.16-21.99-.09.22-.17.45-.26.67,3.47-8.3,5.52-17.15,5.78-26.13h0Zm-12.91,45.57s0,.08-.01.12c0-.04,0-.08.01-.12h0Zm-.04.56s.01.08.02.12c0-.04-.01-.08-.02-.12h0Zm.1.4s.04.09.06.13c-.02-.04-.04-.09-.06-.13h0Zm.19.28s.03.04.04.05c-.01-.02-.03-.04-.04-.05h0Zm.05.06s0,.01.01.02c0,0,0-.01-.01-.02h0Z"/><path class="cls-1" d="m58.91,358.45c-3.76,5.84-8.38,29.22-1.64,11.83-.04.11-.09.22-.13.34,1.62-3.83,2.42-8.06,1.77-12.17h0Z"/><path class="cls-1" d="m50.32,386.01c1.74,6.72-11.72,19.13-.34,22.66-7.06-5.81,7.34-16.35.34-22.66h0Z"/><path class="cls-1" d="m47.59,405.51c4.51,4.04,4.54,9.82,5.69,15.28,3.37,3.98,8.29,6.49,7.42,12.8,2.6-5.02,1.37-10.81-3.37-14.01-1.5-5.15-2.52-11.62-8.48-13.47,0,0,0,0,0,0-.29-.14-.57-.27-.86-.41,0,0,.02,0,.03.01-.15-.06-.29-.16-.43-.19h0Zm1.31.61s.03.01.04.02c-.01,0-.03-.01-.04-.02h0Zm8.99,14.08s.07.06.11.09c-.04-.03-.07-.06-.11-.09h0Z"/><path class="cls-1" d="m71.58,382.47c-6.24,11.75-18.72,48.3-5.39,57.02-6.03-8.89,1.64-21,1.27-30.99.94-8.71,1.75-17.6,4.12-26.03h0Z"/><path class="cls-1" d="m91.18,353.81c-13.44,21.82-26.55,46.81-24.16,73.14,6.64-23.84,13.03-48,23.01-70.72,0,0,0,.01,0,.02.37-.81.81-1.65,1.16-2.44h0Zm-1.17,2.45s0,0,0-.01c0,0,0,0,0,.01h0Z"/><path class="cls-1" d="m89.51,349.49c-8.39,11.48-15.72,23.75-23.08,35.91-4.22,5.64-6.38,16.5-14.29,17.42,15.19,2.51,27.63-33.36,33.32-44.84,0,.01,0,.02-.01.03,1.32-2.85,2.73-5.72,4.06-8.53h0Z"/><path class="cls-1" d="m66.22,372.2c-7.51,5.33-12.59,13.28-14.37,22.31,6.36-6.28,9.91-14.73,14.37-22.31h0Z"/><path class="cls-1" d="m39.82,299c-.76,2.58-2.03,4.95-3.43,7.23.03-.05.06-.1.09-.15-4.32,6.23-7.38,18.86-3.19,23.95,0,0,0,0,0,0-1.27-10.71,8.32-20.33,6.52-31.04h0Z"/><path class="cls-1" d="m28.65,154.78c1.15,1.2,2.91,2.34,2.98,4.15,0-.1-.01-.21-.02-.31-5.5,7.23,5.31,24.58,10.64,11.72.18-3.59-.13-5.53-1.4-1.03-3.56,6.46-6.57-3.79-7.24-6.81,1.79-3.91-.99-7.31-4.97-7.72h0Zm2.91,4.42s-.02.09-.03.14c0-.05.02-.09.03-.14h0Zm5.71,12.06s.06.03.09.05c-.03-.01-.06-.03-.09-.05h0Zm.09.05s.08.04.13.06c-.04-.02-.09-.04-.13-.06h0Z"/><path class="cls-1" d="m42.15,154.53c2.47,3.89-1.38,6.55-1.29,10.44,2.54-3.29,6.08-7.21,1.29-10.44h0Zm.64,1.97s.02.06.03.09c-.01-.03-.02-.06-.03-.09h0Z"/><path class="cls-1" d="m29.87,149.61c-10.72,5.09,12.81-.77,17.28,2.55-4.36-4.4-11.76-5.05-17.28-2.55h0Zm5.32,1.57c-.06,0-.12,0-.18,0,.06,0,.12,0,.18,0h0Z"/><path class="cls-1" d="m31.2,144.98c-1.85.15-8.35,4.97-4.49,3.55,6.76-1.78,13.93-1.47,20.77-.33-4.58-3.23-10.8-5.18-16.28-3.22h0Zm-4.45,3.53s-.02,0-.02,0c0,0,.02,0,.02,0h0Z"/><path class="cls-1" d="m28.17,126.83c-2.33,5.89-1.83,12.32-.96,18.45,2.86-5.8,1.82-12.32.96-18.45h0Z"/><path class="cls-1" d="m42.34,128.36c-.86,5.95-.66,14.71,2.25,18.93,0,0,0,0,0,0,.05-6.36.75-13.08-2.25-18.93h0Zm2.23,18.5s0,.02,0,.04c0-.01,0-.02,0-.04h0Z"/><path class="cls-1" d="m41.08,95.67c.06.05.17.04.26.06,0,0,0,0,0,0,6.42,3.34,6.06,12.53,9.36,18.32,6.99,9.17,5.14,21.06,7.54,31.7,2.16-11.62,6.63-25.43-2.93-35.03-3.8-5.27-6.51-15.15-14.22-15.05h0Z"/><path class="cls-1" d="m57.76,147.61c1.92,13.17-.87,26.88,2.25,40.03,3.29,13.63,9.12,26.78,9.93,40.92-.01-.25-.02-.5-.03-.76-.75,10.89,2.2,20.82,7.98,30.05-3.88-11.93-1.83-23.92-2.41-36.13-1.85-13.27-7.64-25.52-10.37-38.56-2.51-11.71-1.55-24.89-7.34-35.55h0Z"/><path class="cls-1" d="m34.06,172.95c-7.17,24.51-4.41,39.85,5.05,63.27.7-14.09-3.55-27.82-4.45-41.8,0,.02,0,.05,0,.07-.55-7.1,1.38-14.71-.6-21.55h0Zm.56,20.92c0,.08,0,.16.01.23,0-.08,0-.16-.01-.23h0Z"/><path class="cls-1" d="m24.61,116.45c-10.04,1.44.81,19.21-1.47,10.45.01.06.03.13.04.19-1.38-4.7,1.12-8.68,6.3-7.54-.09,0-.18-.01-.28-.02,4.4.28,11.37.12,3.38-1.75.05.02.09.03.14.05-.08-.03-.17-.06-.25-.09,0,0,.02,0,.03,0-2.5-.92-5.2-2.21-7.89-1.29h0Zm4.97,3.1s-.07,0-.1,0c.03,0,.07,0,.1,0h0Zm2.93-1.81s.05.02.08.03c-.03,0-.06-.02-.08-.03,0,0,0,0,0,0h0Z"/><path class="cls-1" d="m37.52,118.71c.48.29,1.1.47,1.56.83-.01-.01-.02-.03-.03-.04.06.06.1.14.13.23-.02-.04-.04-.08-.06-.13-.3,6.18-8.05,2.9-11.62,4.84-1.14.76-2.08,1.54-.14.86,3.71-.4,7.64,2.47,11.16-.13,2.68-1.47,3.22-7.57-1.01-6.46h0Zm1.48.74s.03.04.05.06c-.02-.01-.03-.04-.05-.06h0Z"/><path class="cls-1" d="m20.48,109.98c-.81,2.61,1.07,4.5,2.56,6.31,0-.01-.01-.02-.02-.03,1.38.31-3.01-6.43-.33-7.33-.04,0-.07.02-.11.02,4.25-.26-2.48-2.24-2.1,1.03h0Zm1.52-.66c0,.06,0,.12-.01.17,0-.06,0-.12.01-.17h0Zm.69,6.42s0,.01.01.02c0,0,0-.01-.01-.02h0Z"/><path class="cls-1" d="m28.77,107.93c-7.73.08,7.99,3.65,10.98,4.63-.02,0-.05-.02-.07-.03,1.41.59,3.72,1.18,3.52,3.11.01-.03.02-.06.03-.09-.05.19-.16.37-.28.53.03-.04.05-.08.08-.12-.11.13-.23.25-.36.35.03-.02.06-.05.09-.07-3.68,1.6,2.3,1.25,2.11-1.17-.52-7.07-10.71-7.03-16.1-7.14h0Zm14.49,7.53s-.02.07-.03.1c0-.03.02-.07.03-.1h0Z"/><path class="cls-1" d="m32.24,115.57c-7.51.52,9.23,3.38,8.6,1.23.01,0,.02,0,.04,0-2.9-.28-5.68-1.4-8.63-1.24h0Z"/><path class="cls-1" d="m37.53,112.21c-2.88,3.06,4.12,5.25.09,2.05.02.03.03.06.05.09-.37-.64-.05-1.46-.14-2.14h0Z"/><path class="cls-1" d="m34.6,120.04c-.7,1.4,1.01,2.02,2.13,1.99-.55-.43-1.28-.71-1.83-1.16.01.01.02.03.04.04-.23-.23-.23-.6-.33-.87h0Zm.18.65s.01.03.02.04c0-.01-.01-.03-.02-.04h0Z"/><path class="cls-1" d="m26.53,96.17c-4.24.22-10.36,5.42-6.15,9.36-3.48-8.61,19.17-6.25,13.84-8.15-2.53-.6-5.04-1.74-7.69-1.22h0Z"/><path class="cls-1" d="m36.98,97.86c1.67,6.98-4.49,6.01-9.27,6.68.08-.02.15-.03.23-.05-1.91-.12-6.54,3.14-2.62,1.72,6.68.78,17.69,1.72,11.66-8.36h0Z"/><path class="cls-1" d="m30.89,99.29c-1.24,3.54,3.52,4.27,6.02,3.77-2.01-1.05-5.56-1.04-6.02-3.77h0Z"/><path class="cls-1" d="m40.03,97.46c-2.89,3.25-2.5,8.4.95,11.04-1.53-3.49-1.42-7.36-.95-11.04h0Z"/><path class="cls-1" d="m42.94,118.37c.28,4.56.6,9.12.54,13.71,2.42-4.38,2.48-9.61-.54-13.71h0Z"/><path class="cls-1" d="m16.7,81.85c-2.02,3.03-.66,6.35.96,9.19-.04-.08-.07-.17-.11-.25,1.02,2.09,2.21,4.76,4.59,5.48-1.89-4.66-5.22-9.36-5.45-14.42h0Z"/><path class="cls-1" d="m17.5,81.55c3.89.91,4.72,4.46,4.32,8.02,2.71-3.67.86-9.34-4.32-8.02h0Z"/><path class="cls-1" d="m23.65,88.27c-.02.18-.03.35-.05.52,0-.01,0-.02,0-.03-1.56,4.82,3.13,2.96,3.08,6.6,0,0,0,0,0,0,0,0,0,0,0-.01h0c.02-.11.05-.22.1-.32,0,0,0,0,0,0,.66-1.13.9-2.83-.71-3.19.05.02.11.04.16.06-.14-.06-.28-.11-.42-.17.05.02.11.04.16.06-1.9-.34-1.64-2.19-2.32-3.53h0Zm1.1,2.93s.09.07.13.1c-.05-.03-.09-.07-.13-.1h0Zm1.55,2.06s.01.03.02.04c0-.01-.01-.03-.02-.04h0Zm.02.04s.02.05.03.07c0-.02-.02-.04-.03-.07h0Zm.37,2.06s0,0,0,0c0,0,0,0,0,0,0,0,0,0,0,0h0Zm.09-.29s0-.02.01-.03c0,.01,0,.02-.01.03h0Z"/><path class="cls-1" d="m50.72,82.93c1.81,9.25-5.84,6.05-2.49,15.48-.26-7.54,7.77-6.72,3.73-12.97,0,0,0,0,0,0-.37-.86-.7-1.77-1.24-2.52h0Zm.39,5.29c0,.06-.01.13-.02.19,0-.06.01-.13.02-.19h0Zm-.09.45s-.04.1-.06.15c.02-.05.04-.1.06-.15h0Z"/><path class="cls-1" d="m35.02,84.13c-4.28,1.12-13.33,4.81-3.9,3.52,4.51-1.95,15.31-.58,16.73-1.07.01,0,.03.01.04.02-.18-.07-.35-.14-.53-.21.02,0,.04.02.06.02-3.92-1.54-8.11-3.47-12.39-2.27h0Z"/><path class="cls-1" d="m27.38,64.11c-7.41,1.29-17.5,2.44-21.53,9.51,15.71-8.26,36.29-6.45,53.29-2.91,2.88.82,5.79,1.47,8.65,2.33-3.59-2.54-7.68-4.47-11.84-5.94-9.11-3.2-19.01-4.07-28.58-3h0Z"/><path class="cls-1" d="m68.22,72.46c-2.84,7.43-11.53,6.88-17.01,11.57,8.06-1.76,17.34-.6,17.01-11.57h0Zm-.53,1.22s-.01.02-.02.02c0,0,.01-.02.02-.02h0Zm-3.07,4.02s-.04.06-.07.09c.02-.03.04-.06.07-.09h0Zm-.36.37s-.07.05-.1.07c.03-.03.07-.05.1-.07h0Z"/><path class="cls-1" d="m30.6,69.68c-7.35.6-16.08,1.47-21.29,7.23.52-.2,1.07-.5,1.62-.71-.03.01-.06.03-.09.04,14.48-3.36,29.56-4.49,44.31-2.62-7.93-2.49-16.19-4.36-24.54-3.94h0Z"/><path class="cls-1" d="m5.9,73.51c1.5.62,1.48,2.16,1.66,3.53,1.92,3.89,7.33,3.91,10.98,5.29-2.58-2.77-6.45-3.81-9.36-6.04-.55-1.43-1.52-3.05-3.29-2.78h0Zm1.1.9s.02.03.03.04c0-.01-.02-.03-.03-.04h0Zm.24.46s.01.03.02.05c0-.02-.01-.03-.02-.05h0Z"/><path class="cls-1" d="m19.59,75.76c2.17,1.99,4.01,4.25,5.55,6.72-.21-3.34-2.09-6.21-5.55-6.72h0Zm3.54,3.72s.06.08.09.12c-.03-.04-.06-.08-.09-.12h0Z"/><path class="cls-1" d="m26.95,75.2c.16,1.23.53,2.41,1.03,3.55-.01-.03-.03-.07-.04-.1,1.7,4.59,1-2.23-.99-3.45h0Z"/><path class="cls-1" d="m32.51,73.73c-.17.76-.33,1.53-.42,2.31,0-.03,0-.06.01-.09,0,.04-.01.08-.02.13,0,0,0,0,0,0-.67,7.99,2.23,1.91.43-2.34h0Zm-.43,2.34s0-.02,0-.03c0,0,0,.02,0,.03h0Z"/><path class="cls-1" d="m37.55,74.88c-1.44,1.57-2.25,3.77-1.84,5.88.79-1.89,1.65-3.83,1.84-5.88h0Zm-1.4,4.79s0,.01,0,.02c0,0,0-.01,0-.02h0Z"/><path class="cls-1" d="m43.52,74.31c-1.96,1.08-3.7,4.74-3.64,6.16,0,0,0,0,0,0,1.05-1.37,6.66-7.89,3.64-6.16h0Z"/><path class="cls-1" d="m50.63,74.57c-3.03,1.27-5.57,3.66-6.6,6.83,2.29-2.14,5.02-4.05,6.6-6.83h0Z"/><path class="cls-1" d="m57.04,75.87c-3.46.79-6.51,2.99-7.73,6.41,2.44-2.25,5.57-3.87,7.73-6.41h0Zm-4.98,4.19s-.01,0-.02.01c0,0,.01,0,.02-.01h0Z"/><path class="cls-1" d="m15.66,77.81c2.48,1.18,4.95,2.56,7.23,4.13-1.25-2.69-4.17-4.71-7.23-4.13h0Z"/><path class="cls-1" d="m6.48,54.27c3.11,8.86.81,8.51.67,16.76,2.94-5.29,6.29-11.54.43-16.29-.27-.67,1.01-.59,1.4-.79-.75-.23-2.06-.71-2.5.32h0Zm1.69-.12s-.02,0-.03,0c.01,0,.02,0,.03,0h0Zm-.66.31s0,.05,0,.07c0-.02,0-.05,0-.07h0Zm.1.32s.02.04.03.06c-.01-.02-.02-.04-.03-.06h0Zm1.2,12.77c-.03.06-.06.12-.1.17.03-.06.06-.11.1-.17h0Z"/><path class="cls-1" d="m10.93,49.04c-2.79.63-3.17,3.77-.76,5.23-.16-.95-.93-1.92-.68-2.92-.01.04-.02.08-.03.12.24-.95.89-1.72,1.47-2.43h0Zm-1.46,3.11s.02.06.02.08c0-.03-.02-.06-.02-.08h0Z"/><path class="cls-1" d="m10.79,49.05c.2,1.96,1.95,3.24,3.71,3.81-1.04-1.4-2.55-2.5-3.71-3.81h0Z"/><path class="cls-1" d="m17.75,48.38c-3.07,2.42-3.61,7.13.22,1.27,3.56,2.82,2.11-.41-.22-1.27h0Zm.2,1.26s0,0,0,0c0,0,0,0,0,0,0,0,0,0,0,0h0Zm-1.93,1.05s-.03.06-.05.09c.02-.03.03-.06.05-.09h0Z"/><path class="cls-1" d="m27.13,47.48c-1.34,2.36-4.24,2.78-6.39,4.18,2.53.01,6.09-.05,7.32-2.73.74.5,1.3,1.3,1.96,1.85-.41-1.3-1.02-4.08-2.9-3.31h0Zm.52,1.31s.08.02.12.03c-.04,0-.08-.02-.12-.03h0Z"/><path class="cls-1" d="m38.86,48.49c-1.92,2.46-5.37,2.12-8.2,2.28,2.92,1.92,7.98,2.16,9.34-1.78-.03.05-.05.1-.08.14.25-.5.81-.64,1.33-.59h-.06c2.01.17-1.68-1.5-2.34-.05h0Zm-1.58,1.45s-.08.05-.13.07c.04-.02.08-.05.13-.07h0Z"/><path class="cls-1" d="m42.44,48.77c-.2,1.28.39,2.96,1.9,2.93-1.04-.61-1.34-1.95-1.9-2.93h0Z"/><path class="cls-1" d="m50.54,48.42c-1.81.76-3.19,2.35-5.18,2.74,0,0,0,0,.01,0-2.41.54,2,.95,2.84.14,1.32-.55,1.85-2.09,3.13-2.63,0,0,0,0,0,0,.01,0,.02,0,.03,0,0,0-.02,0-.02,0,1.08-.07-.36-.46-.81-.25h0Zm.46.38s-.02.01-.03.02c0,0,.02-.01.03-.02h0Zm-5.68,2.36s.02,0,.03,0c0,0-.02,0-.03,0h0Zm6.01-2.5s0,0,0,0c0,0,0,0,0,0,0,0,0,0,0,0h0Z"/><path class="cls-1" d="m52.39,48.78c.19.96.28,1.92.34,2.9v-.06c-.01,2.45,1.32-2.21-.34-2.84h0Z"/><path class="cls-1" d="m60.33,50.5c-2.52.72-4.87,2.09-7.53,2.13,2.77,1.7,5.81.18,8.11-1.59-.03.01-.05.03-.08.04.16-.1.33-.19.5-.25-.02,0-.04.01-.06.02,1.75,0-.14-.71-.95-.35h0Zm1.42.28h-.03s.02,0,.03,0h0Z"/><path class="cls-1" d="m62.48,51.41c-.19.49-.35,1-.48,1.51,0,0,0,0,0,0-.03.11-.05.22-.08.34,0-.02.01-.04.02-.07-.03.12-.06.25-.09.37,0-.02.01-.04.02-.06-.03.12-.06.24-.09.35,0,0,0-.02,0-.03-.05.22-.1.43-.16.65,0,0,0,0,0-.01.6,0,1.27-2.16.84-3.06h0Zm-.46,1.44s0,.02,0,.03c0,0,0-.02,0-.03h0Zm-.29,1.22s0,0,0,.01c0,0,0,0,0-.01h0Z"/><path class="cls-1" d="m68.24,52.42c-2.49.53-4.97,1.04-7.3,2.1,2.46.6,5.54-.32,7.3-2.1h0Z"/><path class="cls-1" d="m69.39,52.52c-.65,1.71-1.84,3.22-3.27,4.32,2.07-.2,3.83-2.25,3.27-4.32h0Z"/><path class="cls-1" d="m69.71,55.97c-3.64-.03-1.37,1.41.76.17-.19.24.31-.05.2-.19-.2-.2-.79.02-.96.02h0Z"/><path class="cls-1" d="m69.97,56.67c-8.98,5-5.19,8.61-1.86,15.62,0-.01,0-.03,0-.04-.29,1.98.59.09.8-.85.2-2.15-1.22-4.09-1.7-6.14-1.66-3.43,1.73-5.65,2.76-8.59h0Z"/><path class="cls-1" d="m36.55,40.44c-3.41.6-13.05-.44-9.91,5.46,1.39,2.05.95.9.75-.83,1.21-3.02,8.07-.38,11.27-2.05,14.38-1.58,7.97-2.38-2.11-2.58h0Zm-8.63,3.18s-.07.04-.1.06c.03-.02.07-.04.1-.06h0Zm-.21.14c-.05.05-.11.11-.16.16.05-.06.1-.11.16-.16h0Zm-.26.62s0,.03-.01.05c0-.02,0-.03.01-.05h0Z"/><path class="cls-1" d="m49.53,41.48c.09,1.11.11,2.21.11,3.32v-.15c.09,1.66-.13,3.32.08,4.97,1.26-2.54,1.8-5.79-.19-8.13h0Zm.1,1.96s0,.07,0,.1c0-.03,0-.07,0-.1h0Zm0,.67s0,.06,0,.09c0-.03,0-.06,0-.09h0Z"/><path class="cls-1" d="m37.15,1.39c8.63,13.9-26.13,16.24-11.51,38.87C19.24,20.54,50.66,14.07,37.15,1.39h0Z"/><path class="cls-1" d="m43.91,0c8.56,6.14-2.51,14.51-6.94,19.46.01-.01.02-.02.03-.03-4.32,4.88-11.53,11.52-8.65,18.62,1.96,3.09,1.51,1.87,1.03-.96,1.15-11.49,32.23-26.58,14.52-37.08h0Zm-6.52,19.04s-.08.08-.12.12c.04-.04.08-.08.12-.12h0Z"/><path class="cls-1" d="m56.93,1.96c6.27,13.95-27.4,21.42-19.66,38.15-1.52-11.11,30.59-25.78,19.66-38.15h0Z"/><path class="cls-1" d="m55.08,21.54c-2.52,5.84-16.5,11.17-9.48,18.24-2.28-7.38,9.71-10.63,9.48-18.24h0Z"/><path class="cls-1" d="m131.46,226.63c-18.68,2.03-32.8,21.9-26.76,40.04-.09-12.98,6.48-26.4,18.49-32.26,11.14-5.16,24.08-6.61,36.09-4.28-8.45-4.13-18.6-5.09-27.81-3.5h0Z"/><path class="cls-1" d="m131.96,221.56c-4.69.44-9.29,2.41-12.58,5.78,4.54-1.84,25.43-6.04,12.58-5.78h0Z"/><path class="cls-1" d="m114.68,230.9c-.43.23-.86.46-1.3.68.03-.02.06-.03.09-.04-5.61,1.59-8.21,7.17-9.25,12.45,3.18-4.63,6.83-8.9,10.47-13.08h0Z"/><path class="cls-1" d="m103.56,245.42c-4.48,8.65.76,18.18-.06.76,0,0,0,.02,0,.03,0-.02,0-.04,0-.06,0,0,0,.02,0,.02,0-.25.07-.52.06-.75h0Zm-.06.76s0,0,0,0c0,0,0,0,0,0,0,0,0,0,0,0h0Z"/><path class="cls-1" d="m144.6,222.05c3.98,2.25,8.53,3.34,12.83,4.85-.05-.02-.1-.04-.15-.06,1.01.35,2.02.71,3.03,1.07,0,0,0,0-.01,0-1.25-2.84-10.52-6.74-15.7-5.85h0Zm10.78,4.14s.05.02.08.03c-.03,0-.05-.02-.08-.03h0Zm4.95,1.73s-.01,0-.02,0c0,0,.01,0,.02,0h0Z"/><path class="cls-1" d="m165.88,229.93c2.91,3.56,7.21,5.46,10.18,8.99-1.23-4.83-5.61-7.73-10.18-8.99h0Z"/><path class="cls-1" d="m148.94,227.61c1.25.6,2.48,1.26,3.73,1.88,0,0-.02,0-.03-.01,14.76,5.75,24.02,19.57,25.74,35.07,4.58-18.15-11.46-36.03-29.43-36.93h0Z"/><path class="cls-1" d="m176.8,242.14c.46,3.75,1.63,7.44,2.12,11.17,1.25-3.84.59-8.14-2.12-11.17h0Z"/><path class="cls-1" d="m160.15,233.53c-2.98,2.67-4.3,7.06-2.77,10.81.31-3.72,1.98-7.2,2.77-10.81h0Z"/><path class="cls-1" d="m153.28,230.48c-4.8,6.18-.93,20.75-.3,3.58,0,.07,0,.13-.01.2.12-1.25.17-2.55.31-3.78h0Zm-.16,1.65s0,.04,0,.06c0-.02,0-.04,0-.06h0Z"/><path class="cls-1" d="m143.89,229.66c-.76,4.8.83,9.49,1,14.23,2.03-4.62,1.26-9.86-1-14.23h0Z"/><path class="cls-1" d="m135.63,231.03c0,2.54-.03,5.09.45,7.59,0-.02,0-.04-.01-.06,1.01,9.03,2.8-4.6-.44-7.53h0Z"/><path class="cls-1" d="m127.01,232.84c.04,4.01,1.19,7.9,1.87,11.8,1.23-4.02.68-8.42-1.87-11.8h0Zm1.39,9.15s.01.07.02.1c0-.03-.01-.07-.02-.1h0Z"/><path class="cls-1" d="m120.34,235.77c.51,1.56.83,3.17,1.15,4.78-.01-.07-.03-.13-.04-.2.05.25.1.5.14.75,0,0,0-.02,0-.03,1.09,10.08,3.37-2.86-1.25-5.3h0Z"/><path class="cls-1" d="m115.83,238.61c1.2,3.17,2.47,6.37,3.12,9.71,1.11-3.44.08-7.75-3.12-9.71h0Z"/><path class="cls-1" d="m111.08,244.27c2.68,1.53,3.23,4.74,3.48,7.57,1.48-2.97.52-7.72-3.48-7.57h0Z"/><path class="cls-1" d="m108.4,248.17c.06.07.12.15.19.22,0,0,0,0,0,0,4.6,9.8,3.2.34-.18-.21h0Zm.19.22s0,0,0,0c0,0,0,0,0,0h0Z"/><path class="cls-1" d="m106.99,252.49c1.25,1.65,2.17,3.59,3.67,5.07.78-1.89-1.84-4.44-3.66-5.07h0Z"/><path class="cls-1" d="m168.66,237.9c-4.59,2.19-6.8,7.6-5.92,12.45,1.13-4.49,3.77-8.42,5.92-12.45h0Z"/><path class="cls-1" d="m171.26,243.7c-3.12,1.48-4.51,4.84-5.1,8.06,1.98-2.46,3.64-5.27,5.1-8.06h0Z"/><path class="cls-1" d="m174.16,248.11c-3.7,1.15-6.06,4.48-6.78,8.18,2.23-2.7,4.7-5.35,6.78-8.18h0Z"/><path class="cls-1" d="m175.67,252.87c-2.48.36-3.74,2.85-4.24,5.07,1.56-1.52,2.69-3.54,4.24-5.07h0Z"/><path class="cls-1" d="m174.94,257.35c-2.74,3.23.59.3,2.25-.55-.77-.09-1.59.06-2.25.55h0Z"/><path class="cls-1" d="m178.64,258.08c-2.39.91-3.7,3.08-4.08,5.53,1.47-1.71,2.83-3.66,4.08-5.53h0Zm-1.62,2.29s-.02.03-.03.05c.01-.02.02-.03.03-.05h0Z"/><path class="cls-1" d="m105.74,257.47c1.13.94,1.92,2.25,2.92,3.27-.27-1.56-1.23-3.15-2.92-3.27h0Z"/><path class="cls-1" d="m102.54,299.25c4.65,18.13,3.82,36.96,4.33,55.61,5.91-18.33,8.72-39.7-4.33-55.61h0Z"/><path class="cls-1" d="m112.34,311.73c-.27,1.96-.53,3.92-.79,5.89.02-.11.04-.22.06-.33-2.18,10.52-1.62,21.37.13,31.88,2.81-12.17,5.13-25.43.6-37.44h0Z"/><path class="cls-1" d="m102.75,316.5c-1.51,12.27-5.02,24.4-3.94,36.85,4.1-11.71,9.14-24.69,3.94-36.85h0Z"/><path class="cls-1" d="m88.87,392.67c-1.65,7.14-3.89,14.34-3.29,21.73,3.68-6.61,5.46-14.35,3.29-21.73h0Z"/><path class="cls-1" d="m110.28,374.06c-6.63,9.89-8.24,21.94-13.95,32.14,11.16-6.33,12.39-20.68,13.95-32.14h0Z"/><path class="cls-1" d="m68.48,436.56c-14.93,18.64-28.53,43.43-26.04,67.99,1.06,9.33,11.84,11.5,15.07,19.32,0,0,0-.01,0-.02.52,2.74.52-.96.25-2.11-1.28-6.04-7.46-9.37-9.13-15.16-4.33-24.74,13.03-47.12,19.86-70.02h0Z"/><path class="cls-1" d="m94.17,453.26c-19.42,19.07-35.38,44.04-33.04,72.29,6.68-25.97,19.57-49.37,33.04-72.29h0Z"/><path class="cls-1" d="m70.37,462.47c-8.96,15.36-16.14,34.94-9.66,52.43,2.25-17.44,6.39-34.66,9.56-51.98,0,0,0,.01,0,.02.03-.16.1-.32.1-.46h0Z"/><path class="cls-1" d="m61.05,517.73c1.23,20.24-15.85,36.69-12.12,57.08,2.54,11.84,10.21,22.79,8.49,35.36,6.16-13.56-1.12-27.52-2.24-41.24,1-17.45,13.17-33.55,5.86-51.2h0Zm-3.51,86.27s0,.08,0,.13c0-.04,0-.08,0-.13h0Z"/><path class="cls-1" d="m115.72,473.41c-22.01,50.36-71.87,114.65-50.89,170.84-5.14-76.29,31.68-105.04,50.89-170.84h0Zm-2.97,5.78s-.03.06-.05.1c.02-.03.03-.06.05-.1h0Z"/><path class="cls-1" d="m86.16,490.81c-8.16,33.79-30.78,66.01-24.62,101.99,5.26-34.67,21.38-67.12,24.62-101.99h0Z"/><path class="cls-1" d="m171.42,377.71c-8.66,15.72-7.54,33.91-8.86,51.24-1.84,16.29-5.71,32.36-11.09,47.83,20.44-29.12,16.77-65.53,19.95-99.07h0Z"/><path class="cls-1" d="m163.3,395.45c-5.88,11.11-11.55,22.82-13.4,35.35,6.87-10.74,14-22.08,13.4-35.35h0Z"/><path class="cls-1" d="m187.61,358.84c5.3,17.73,8.05,36.14,17,52.75,7.06,15.14,7.35,32.11,11.05,48.12,1.44-10.32.94-21.32,1.07-31.81-1.89-10.44-6.87-19.98-10.86-29.72-6.87-12.65-8.7-28.38-18.25-39.34h0Z"/><path class="cls-1" d="m189.58,435.81c-14.56,9.27,10.02,18.98,5.79,29.84-5.42,13.25-16.51,22.43-24.56,33.92-7.33,8.45-5.4,18.91-1.27,28.26-.95,8.46,2.48-.89,1.15-4.75-5.34-22.14,27.81-36.45,31.97-58.34,4.28-11.66-24.87-22.73-8.81-27.9,7.99.96-.78-2.64-4.27-1.03h0Zm-18.94,86.95c.02.1.03.21.05.31-.02-.1-.03-.21-.05-.31h0Z"/><path class="cls-1" d="m168.51,532.79c-3.72,48.28-11.1,96.51-11.91,145.05-.07,9.75-.66,19.62.85,29.28,2.43-15.56,4.92-31.17,4.64-47,1.19-22.94,3.84-45.74,6.42-68.56,1.93-19.34,6.02-39.87,0-58.77h0Z"/><path class="cls-1" d="m216.28,460.72c.06,14.25,2.23,28.33,7.26,41.67,3.69,7-5.34,10.43-6.44,17.04,3.04-5.71,13.6-6.55,12.25-14.15-3.37-15.05-6.91-30.38-13.08-44.55h0Z"/><path class="cls-1" d="m204.06,451.73c.82,32.51,15.38,75.79,19.73,100.97,4.26-1.15-3.54-28.6-3.35-34.46-4.37-22.4-7.27-45.42-16.38-66.51h0Zm20.31,98.59c0,.05,0,.1.01.15,0-.05,0-.1-.01-.15h0Zm0,.13s0,.04,0,.05c0-.02,0-.04,0-.05h0Zm-.11.45s-.02.04-.03.07c.01-.02.02-.04.03-.07h0Z"/><path class="cls-1" d="m211.61,502.83c-1.54,24.7,4.99,48.86,8.18,73.18,3.56,27.73,7.03,71.73,16.28,90.34-2.37-20.34-5.78-40.6-8.65-60.89-4.29-34.31-5.5-69.46-15.81-102.63h0Z"/><path class="cls-1" d="m232.1,665.19c-26.37,8.92-52.17,22.56-71.5,42.98,24.54-13.02,48.96-26.75,71.5-42.98h0Z"/><path class="cls-1" d="m207.81,681.3c8.16,11.11,24.28,1.84,26.49,20.51,3.95-22.19-13.52-15.29-26.49-20.51h0Z"/><path class="cls-1" d="m243.08,668.66c-4.38.67-8.68,2.13-12.31,4.68,12.99-1.9,21.23-.45,8.55,11.71,8.76-1.28,16.69-15.39,3.76-16.39h0Z"/><path class="cls-1" d="m237.28,686.9c-.84,5.19,7.16,10.31.45,13.11-1.46.88-2.76,2.11-3.06,3.86-.41,2.1.34,4.31,1.35,6.15,6.09,5.9-6.58,7.24.14,13.26,1.91,2.51-.33-1.97-.11-3.3,1.23-1.37,3.62-1.82,4.99-3.27,4.26-2.98-.05-7.16-.8-10.78,9.24-11.43,3.68-8.72-2.96-19.02h0Zm3.81,9.82c0,.09,0,.19-.02.28,0-.09.01-.19.02-.28h0Zm-1.02,8.29c-.03.08-.06.17-.08.25.02-.08.05-.17.08-.25h0Zm.05.09c0,.08-.01.16-.02.24,0-.08,0-.16.02-.24h0Zm1.84,5.19c.03.07.07.14.1.21-.03-.07-.07-.14-.1-.21h0Zm-3.54,2.77s0,.03,0,.05c0-.02,0-.03,0-.05h0Zm-.1.53s-.02.06-.03.09c.01-.03.02-.06.03-.09h0Zm-2.28,6.4c0,.07-.01.14-.01.21,0-.07,0-.14.01-.21h0Z"/><path class="cls-1" d="m237.14,722.32c.77,7-1.15,13.83-.98,20.8.29,6.96,2.91,13.58,3.74,20.43,1.41-13.33,3.56-28.95-2.75-41.23h0Z"/><path class="cls-1" d="m231.31,755.22c10.32,5.55,9.42,7.32,1.41,14.74,14.18-3.89,13.13-14.24-1.41-14.74h0Zm8.47,6.42c0,.07,0,.14-.01.2,0-.07,0-.14.01-.2h0Z"/><path class="cls-1" d="m245.9,623.6c-1.84,15.42-4.52,33.68,5.25,47-1.93-15.62-1.55-31.54-5.25-47h0Z"/><path class="cls-1" d="m226.96,599.4c-.67,15.8,16.54,15.51,20.84,26.83,0,0,0,0,0-.01,0,.02,0,.03,0,.05,0,0,0-.01,0-.02,4.02-10.13-17-16.59-20.85-26.85h0Zm18.7,22.53s.03.04.05.06c-.02-.02-.03-.04-.05-.06h0Zm2.15,4.32s0,0,0-.01c0,0,0,0,0,.01h0Z"/><path class="cls-1" d="m230.05,488.22c-2.02,21.82,1.29,43.6,4.51,65.13,2.31,22.48,4.79,45.1,11.91,66.62-.49-44.22-11.33-87.91-16.42-131.75h0Z"/><path class="cls-1" d="m198.05,403.87c-1.19,6.95-3.44,13.67-3.68,20.77,4.35-5.76,5.88-13.9,3.68-20.77h0Z"/><path class="cls-1" d="m193.79,423.48c-5.26.43-7.14,6.05-7.75,10.5,2.43-2.64,4.36-6.79,8.4-6.96,4.53.1,8.32,3.13,11.79,5.75-2.38-4.63-6.69-9.72-12.43-9.29h0Z"/><path class="cls-1" d="m191.19,355.04c5.73,7.88,17.29,6.62,22.61,14.75-1.73-10.93-14.27-11.39-22.61-14.75h0Z"/><path class="cls-1" d="m193.33,350.7c25.83,5.32,23.7,54.28,35.41,74.04-4.21-22.29-2.87-75.3-35.41-74.04h0Zm1.43.27s.02,0,.04,0c-.01,0-.02,0-.04,0h0Zm19.72,27.46s0,.01,0,.02c0,0,0-.01,0-.02h0Zm.03.09c.03.1.06.2.09.3-.03-.1-.06-.2-.09-.3h0Z"/><path class="cls-1" d="m215.2,394.94c-.74,4.92,9.17,43.95,8.94,33.58-1.16-11.54-1.55-24.01-8.94-33.58h0Z"/><path class="cls-1" d="m218.74,428.87c.84,15.88,2.96,32.17,9.16,46.92,1.77-16.36-4.01-31.79-9.16-46.92h0Z"/><path class="cls-1" d="m226.82,440.62c-.09,8.22.89,16.38,2.45,24.41,3.32-7.98.98-16.89-2.45-24.41h0Z"/><path class="cls-1" d="m227.19,406.16c.31.91.61,1.83.88,2.75-.02-.06-.03-.11-.05-.17.84,10.58,15.57,9.55,16.97,19.21,2.95-11.54-13.34-13.19-17.8-21.8h0Z"/><path class="cls-1" d="m248.3,424.42c-20.75,20.68-14.61,32.94-.29.54,0,0,0,0,0,.01,0-.01.01-.02.02-.04,0,0,0,0,0,.01.09-.18.22-.36.28-.53h0Zm-.28.54s0,0,0,0c0,0,0,0,0-.01,0,0,0,0,0,0h0Z"/><path class="cls-1" d="m237.4,443.42c-.37,6.66-1.23,13.67-3.78,19.85,6.27-4.02,6.8-13.63,3.78-19.85h0Z"/><path class="cls-1" d="m268.37,403.51c-2.08,1.57-3.12,3.29-5.26,1-9.22,5.14-11.28,19.11-17.98,27.24,9.52-4.76,13.09-15.27,17.78-24.03,2.91,1.9,4.46-2.18,5.46-4.21h0Zm-3.82,2.41s.09.02.14.02c-.05,0-.09-.01-.14-.02h0Zm.61.01c-.08.01-.16.02-.24.02.08,0,.16-.01.24-.02h0Z"/><path class="cls-1" d="m266.54,400.72c11.04,10.59,25.1,16.59,39.12,22.16,0,0-.01,0-.02,0,.66.26,1.34.48,2.01.72,0,0-.01,0-.01,0l.15.06s0,0,0,0c.18-.09-1-.83-1.31-1.08,0,0,0,0,.01,0-.02-.02-.04-.03-.06-.05,0,0,.01,0,.02.01-.56-.41-1.13-.81-1.69-1.22.04.03.08.06.11.08-12.29-7.52-24.81-15.68-38.31-20.68h0Zm38.87,21.09s.04.03.06.05c-.02-.02-.04-.03-.06-.05h0Zm.23,1.06s-.05-.02-.07-.03c.02,0,.05.02.07.03h0Zm.81-.32s0,0,0,0c0,0-.02-.01-.03-.02,0,0,.02.01.02.02h0Z"/><path class="cls-1" d="m308.24,424.05c-2.67.86-5.17,2.49-6.14,5.25,2.17-1.51,4.36-3.29,6.14-5.25h0Z"/><path class="cls-1" d="m313.57,427.81c-2.16,1.06-4.26,2.56-5.33,4.8,2.12-1.11,4.01-2.81,5.33-4.8h0Z"/><path class="cls-1" d="m305.77,423.02c2.45,1.96,4.87,4.07,8.11,4.5-2.19-2.12-5.06-3.98-8.11-4.5h0Z"/><path class="cls-1" d="m301.69,430.03c1.03,1.25,2.3,2.27,3.63,3.19-.02-.01-.04-.03-.06-.04,1.11,1.19,7.54,3.22,4.27,1.11.03.02.06.04.09.06-2.34-1.95-5.15-3.2-7.93-4.32h0Zm8.45,4.69s.03.02.04.03c-.01,0-.03-.02-.04-.03h0Z"/><path class="cls-1" d="m304.77,432.16c-4.06,3.32-7.31,8.04-8.39,13.22,3.78-3.68,6.13-8.53,8.39-13.22h0Z"/><path class="cls-1" d="m310.71,435.3c-4,2.99-13.5,21.73-5.57,11.41-.05.07-.1.14-.15.21,2.53-3.49,4.44-7.53,5.72-11.61h0Z"/><path class="cls-1" d="m287.77,446.09c.8,7.32,7.34,11.77,12.07,16.57l-.04-.09c.13.47,0,1,0,1.46,2.66-5.94-9.13-12.29-11.79-17.44,0,0,0,0,0,0-.12-.14-.22-.34-.24-.5h0Zm.26.52s0-.01-.01-.02c0,0,0,.01.01.02h0Zm-.01-.02s0,0,0,0c0,0,0,0,0,0h0Z"/><path class="cls-1" d="m288.23,443.39c6.61-.94,7.78,6.9,11.55,10.58,2.4,3.17,7.44,5.29,7,9.84,3.16-5.5-3.6-10.19-6.14-14.55.05.06.09.13.14.19-2.75-4.14-7.16-9.78-12.54-6.06h0Z"/><path class="cls-1" d="m280.12,455.32c-1.59.09-2.2,3.44-1.46,2.6,0,.01,0,.02,0,.03.07-.28.18-.53.38-.74-.02.02-.04.05-.05.07.22-.23.49-.4.8-.5-.05.02-.09.04-.14.06,3.27-.76,6.53,1.29,9.83,1.31-2.82-1.46-6.05-4.15-9.35-2.82h0Zm-1.38,2.35s-.01.03-.02.04c0-.01.01-.03.02-.04h0Z"/><path class="cls-1" d="m290.72,459.03c2.11,4.22,8.91,4.83,8.07,10.42,3.77-5.76-3.96-8.5-8.07-10.42h0Z"/><path class="cls-1" d="m291.02,453.28c-1.16,1.18-2.08,2.71-1.96,4.42.76-1.37,1.78-2.81,1.96-4.42h0Z"/><path class="cls-1" d="m296.64,457.84c-.59,1.15-1.16,2.37-1.42,3.63.96-.94,1.68-2.27,1.42-3.63h0Z"/><path class="cls-1" d="m274.71,459.5c-1.54.65-.77,5.23-.29,2.35-.01.03-.02.05-.03.08.09-.24.2-.46.34-.67-.03.03-.05.07-.08.1,6.33-1.66,12.7,6.85,18.45,9.43-3.82-5.48-10.93-14.16-18.4-11.29h0Zm.66,1.28s-.04.02-.06.02c.02,0,.04-.02.06-.02h0Zm16.85,8.88s.03.04.04.05c-.01-.02-.03-.04-.04-.05h0Z"/><path class="cls-1" d="m274.16,466.43c-1.35.68-2.43,2.78-.24,1.15-.03.01-.07.03-.1.04,4.62,3.38,7.7,10.35,12.23,14.5,0-.02-.01-.03-.02-.05.52-2.63-5.89-14.71-11.87-15.65h0Zm11.7,15.38s.02.03.03.04c-.01-.01-.02-.03-.03-.04h0Z"/><path class="cls-1" d="m277.43,467.89c3.48,1.91,6.11,4.86,7.64,8.5.42-4.45-2.97-8.81-7.64-8.5h0Z"/><path class="cls-1" d="m273.66,461.69c-.34,2.85,1.51,5.19,4.39,5.39-2.03-1.29-3.33-3.28-4.39-5.39h0Z"/><path class="cls-1" d="m298.62,468.52c-1.93,3.07-2.17,6.91-3.1,10.33,2.48-2.9,3.36-6.61,3.1-10.33h0Z"/><path class="cls-1" d="m292.77,470.9c-.59,2.82-.19,5.73-.51,8.54,1.69-2.49,1.79-5.87.51-8.54h0Z"/><path class="cls-1" d="m285.91,475.45c.06,2.25.04,4.65,1.12,6.67.12-2.28.39-4.78-1.12-6.67h0Z"/><path class="cls-1" d="m272.34,470.8c-.74,7.32,7.4,11.74,6.79,19.29,2.57-5.49.27-10.72-3.92-14.55,0,.01.02.02.03.03-1.14-1.48-2.18-3.07-2.9-4.77h0Zm2.73,4.55s.07.09.1.13c-.03-.04-.07-.09-.1-.13h0Z"/><path class="cls-1" d="m307.32,463.92c-11.38,12.77-17.51,32.32-35.09,37.71,20.56,1.7,29.23-21.69,35.09-37.71h0Zm-3.18,8.51c-.03.08-.07.16-.1.25.03-.08.07-.16.1-.25h0Zm-31.07,28.88s0,0-.01,0c0,0,0,0,.01,0h0Zm31.27-33.66c.05-.06.09-.12.14-.18-.05.06-.09.12-.14.18h0Z"/><path class="cls-1" d="m275.35,481.18c-.69,1.07-1.46,2.06-2.27,3.04.03-.04.06-.07.1-.11-10.68,14.56-21.62,29.69-27.55,46.87,12.16-14.96,23.02-31.68,29.72-49.8h0Z"/><path class="cls-1" d="m280.08,487.04c-.2.23-.4.47-.59.71,0-.01.02-.02.02-.03-12.06,14.28-23.12,29.78-28.96,47.7,11.84-14.54,21.27-31.56,29.53-48.38h0Z"/><path class="cls-1" d="m236.04,527.19c2.66,3.16,9.93,8.09,10.79,1.23-2.73,4.08-6.98-.73-10.79-1.23h0Z"/><path class="cls-1" d="m245.62,531.9c1.32,1.79,4.88,5.04,6.19,1.68-1.61,1.45-2.9-.41-4.54-.96.03.02.07.03.1.05-.17-.08-.34-.16-.51-.24.01,0,.03.01.04.02-.42-.19-.87-.42-1.28-.55h0Z"/><path class="cls-1" d="m272.37,502.23c-3.29,10.77-5.29,21.96-7.92,32.92-1.69,8.19-2.08,20.49-12.73,21.51,20.21,5.01,21.2-41.45,20.65-54.43h0Z"/><path class="cls-1" d="m258.91,554.55c-2.73,3.15-6.97,3.46-10.72,4.67,0,0,0,0,0,0-3.94.22-5.8,3.95-6.78,7.27,4.49-6.24,15.08-3.58,17.49-11.94h0Z"/><path class="cls-1" d="m238.93,548.1c1.06,4.12,5.88,6.79,9.86,5.04-3.73-.35-7.05-2.72-9.86-5.04h0Z"/><path class="cls-1" d="m239.74,553.13c.74,3.67,6.15,5.56,8.34,4.22,0,0,.01,0,.02,0-3.06-.77-5.91-2.27-8.35-4.23h0Zm2.13,1.55s.04.02.06.04c-.02-.01-.04-.02-.06-.04h0Z"/><path class="cls-1" d="m264.08,514.72c-1.73,5.36-.84,11.16-.28,16.65,1.96-5.37,1.9-11.21.28-16.65h0Z"/><path class="cls-1" d="m258.89,524.6c-2.68,6.42-1.58,13.91-4.23,20.25,5.43-4.91,5.54-13.54,4.23-20.25h0Zm-3.58,18.82s0,.02,0,.02c0,0,0-.02,0-.02h0Zm0,.03s0,.03-.01.05c0-.02,0-.03.01-.05h0Z"/><path class="cls-1" d="m241.98,532.03c.47,3.79,2.46,8.74,6.91,8.75-3.4-1.84-4.27-6.12-6.91-8.75h0Zm3.61,5.27s.02.04.03.06c-.01-.02-.02-.04-.03-.06h0Z"/><path class="cls-1" d="m63.52,644.59c3.98,14.55-12.71,26.69-4.97,41.48,0-.02,0-.04-.01-.06.05.18.09.36.14.54,0,0,0,0,0,0,0,0,0,.01,0,.02,0,0,0,0,0,0,1.18-3.24.62-11.95,3.71-16.38,5.25-6.85,7.54-18.9,1.13-25.6h0Zm-4.84,41.98s0,0,0-.01c0,0,0,0,0,.01h0Z"/><path class="cls-1" d="m166.55,567.89c-10.53,13.43-19.75,28.06-31.7,40.29-14.68,13.41-27.17,28.44-37.49,45.37-10.59,14.26-30.44,20.36-37.55,37.16,7.28-8.57,18.37-12.57,27.54-18.77,13.64-8.63,20.47-23.32,29.6-35.87,19.49-20.59,40.96-40.21,49.6-68.17h0Z"/><path class="cls-1" d="m150.11,475.26c-13.19,24.93-16.04,53.61-22.25,80.77-3.23,23.91-11.94,46.93-13.1,71.1,6.92-26.3,14.25-52.55,19.42-79.33,6.51-23.92,13.14-47.85,15.93-72.53h0Z"/><path class="cls-1" d="m61.01,689.19c-5.33,8.73-5.11,18.94-5.71,28.78-.88,11.01-1.74,22.11-.87,33.15.32,8.96,1.1,17.87,2.03,26.78-2.63,8.4-.56,16.14,1.67,24.3.55-7.65.1-15.09,3.69-22.23.73-9.73-1.22-19.58-1.51-29.34-1.31-12.03,1.24-24.06.78-36.11-.76-8.44-1.69-16.93-.08-25.32h0Z"/><path class="cls-1" d="m165.08,710.96c2.1,6.58,14.34,5.63,14.44,12.22-13.61,14.79-32.16,23.62-50.06,32.13-10.97,5.76-21.5,12.72-30.41,21.36-7.61,7.88-13.16,17.57-21.1,25.15-4.97,3.33-15.75,12.3-20.12,4.89,1.28,8.91,12.73,3.97,18.33,2.55,11.18-4.45,16.98-15.9,24.49-24.57,5.66-6.74,12.92-11.86,20.15-16.77,16.54-10.67,35.98-16.32,51.23-29.12,17.47-13.85,18.99-21.5-4.8-26.21.03.02.06.04.1.06-.82-.45-1.6-1.03-2.24-1.68h0Z"/><path class="cls-1" d="m182.74,695.09c-2.14,8.34-2.03,17.28,1.66,25.17.41-8.37,1.1-17.09-1.66-25.17h0Z"/><path class="cls-1" d="m114.19,662.81c-9.64,22.83-14.54,47.17-22.5,70.55-6.92,19.36-14.53,38.64-18.13,58.96,11.33-18.16,17.66-38.65,23.54-59.09-.06.21-.12.42-.18.63.07-.23.13-.46.19-.69-.06.21-.12.42-.18.63,6.61-23.43,11.45-47.38,17.25-70.99h0Zm-13.98,59.38s0,.02,0,.03c.01-.04.02-.07.03-.11,0,.03-.01.05-.02.08h0Zm.02-.08s.01-.05.02-.08c0,.03-.01.05-.02.08h0Zm.02-.08c.04-.13.07-.25.11-.38-.04.12-.07.25-.11.38h0Z"/><path class="cls-1" d="m58.67,806.58c-.74,16.7-11.2,32.38-21.48,44.96,15.48-7.09,29.26-28.04,21.48-44.96h0Zm-18.35,41.76l-.07.07s.05-.05.07-.07h0Z"/><path class="cls-1" d="m43.54,850.82c-6.73.29-6.7,2.06.06,1.87,6.16-.78,6.36-2.18-.06-1.87h0Z"/><path class="cls-1" d="m56.69,826.81c-4.26,12.58,9.67,11.85,16.57,6.23-6.69.56-16.08,3.39-16.57-6.23h0Z"/><path class="cls-1" d="m60.72,813.32c-1.42,7.17,5.39,10.22,10.83,6.18-5.16.72-9.24-1.01-10.83-6.18h0Z"/><path class="cls-1" d="m83.79,797.33c-7.44,10.74-13.52,22.37-17.76,34.73-2.72,5.45-2.94,14.51-10.06,15.93,17.55-.17,22.17-37.35,27.82-50.66h0Z"/><path class="cls-1" d="m87.47,798.19c-.04.17-.09.35-.13.52,0,0,0-.01,0-.02-4.18,14.18-15.2,43.25-26.96,51.76l.04-.02c18.18-2.57,28.55-33.47,27.05-52.24h0Z"/><path class="cls-1" d="m70.5,847.27c-18.05,5.79-18.46,6.2.62,4.2,22.47,4.45,45.64,5.51,67.47-2.52-.07.02-.15.04-.23.06,14.04-3.37-17.15-1-22.72-.73-10.48.46-20.89-1.65-31.4-.91.06,0,.12,0,.18,0-4.65.2-9.32-1.01-13.92-.1h0Zm13.74.1c-.09,0-.18,0-.27,0,.09,0,.18,0,.27,0h0Zm-.29,0h0,0Zm-.02,0c-.16,0-.32,0-.47,0,.16,0,.32,0,.47,0h0Zm7.13-.1c.13,0,.27,0,.4,0-.13,0-.27,0-.4,0h0Zm.4,0s.04,0,.06,0c-.02,0-.04,0-.06,0h0Zm.06,0c.16,0,.31,0,.47,0-.16,0-.31,0-.47,0h0Z"/><path class="cls-1" d="m174.08,846.43c-6.05,2.88-37.27-1.49-19.78,3.94,9.83,4.98,20.18.31,29.78-2.75,7.61-1.63-6.97-1.81-10.01-1.19h0Z"/><path class="cls-1" d="m156.34,835.6c1.89,2.76,11.51,6.96,5.33,9.79,9.55-.7-.32-9.93-5.33-9.79h0Zm5.55,4.82s.04.04.06.05c-.02-.02-.04-.04-.06-.05h0Zm2,3.11s-.01.08-.02.12c0-.04.01-.08.02-.12h0Zm-.02.11s0,.05-.01.07c0-.02,0-.05.01-.07h0Zm-.1.31s-.05.1-.07.14c.02-.05.05-.1.07-.14h0Z"/><path class="cls-1" d="m167.11,836.12c1.64,2.81,4.61,4.61,6.11,7.44-.95,1.29-6.72,1.67-2.26,2.02,10.16.6.73-8.53-3.85-9.46h0Zm6.04,7.22s.03.1.05.15c-.02-.05-.03-.1-.05-.15h0Z"/><path class="cls-1" d="m174.65,835.95c1.19,1.8,2.56,3.43,4.17,4.86-.06-.06-.13-.11-.19-.17.57.65,1.78,1.13,1.62,2.14.01-.07.03-.13.04-.2-5.48,4.97,9.87.16-5.63-6.63h0Zm5.51,6.11s0,.01,0,.02c0,0,0-.01,0-.02h0Zm.01.03s.01.04.02.06c0-.02-.01-.04-.02-.06h0Zm.08.19c0,.05,0,.11.01.16,0-.05,0-.11-.01-.16h0Zm-.02.63s-.05.1-.07.14c.02-.05.05-.1.07-.14h0Zm-.67.75s-.04.03-.07.05c.02-.02.05-.03.07-.05h0Z"/><path class="cls-1" d="m182.14,836.73c.96,1.13,2.15,2.14,2.79,3.49.27-1.76-1.19-3.15-2.79-3.49h0Zm2.39,2.77s.02.02.02.03c0-.01-.02-.02-.02-.03h0Z"/><path class="cls-1" d="m154.81,843.54c-4.06.21-7.94,1.31-11.78,2.56,5.83.9,11.84,1.15,17.73,1.81,7.44,1.15,14.57-1.73,21.89-2.36,0,0-.02,0-.03,0-3.55-2.55-19.98-1.79-27.82-2.01h0Zm27.84,2.01s.02,0,.03,0c0,0-.02,0-.03,0h0Z"/><path class="cls-1" d="m165.34,829.33c-5.82.34-19.14,2.8-19.94,6.85,0,0-.02.01-.02.02,12.63-2.91,26.43-3.21,39.16-.12-5.53-3.95-12.32-6.69-19.2-6.75h0Zm-11.47,5.51c-.11,0-.22.02-.33.02.11,0,.22-.01.33-.02h0Z"/><path class="cls-1" d="m153.78,815.03c-10.19,4.73-.44,1.53,4.65,2.84,7.44.95,12.65,6.43,18.66,10.26-4.88-8.16-12.92-16.54-23.31-13.1h0Z"/><path class="cls-1" d="m153.13,819.59c-3.12.57-8.75,2.55-2.46,2.25,8.42,1.21,17.12,3.47,24.2,8.36-4.38-7.19-13.34-11.6-21.74-10.6h0Z"/><path class="cls-1" d="m147.73,825.42c-9.76,1.71,3.96,2.08,7.75,3.5-.05,0-.09-.02-.14-.03,16.51,4.43-1.38-5.32-7.61-3.47h0Z"/><path class="cls-1" d="m144.65,759.28c-12.5,27.1-1.44,66.25-20.74,88.19,25.88-13.51,14.34-63.02,20.74-88.19h0Z"/><path class="cls-1" d="m129.3,766.1c-7.9,20.45-9.91,67.19-24.62,80.93,22.15-9.59,21.17-59.69,24.62-80.93h0Z"/><path class="cls-1" d="m122.2,766.19c-9.74,19.18-11.28,41.15-17.77,61.48,9.98-19.16,17.04-39.69,17.77-61.48h0Z"/><path class="cls-1" d="m120.82,781.15c-4.44,9.79-5.18,20.78-6.29,31.3,5.09-9.7,7.84-20.35,6.29-31.3h0Z"/><path class="cls-1" d="m113.43,804.7c-5.67,9.09-10.24,19.12-19.28,25.47,11.53-3.08,19.13-13.68,19.28-25.47h0Z"/><path class="cls-1" d="m94.84,789.09c-4.43,16.34-8,32.96-12.68,49.21,8.72-14.81,16.51-31.68,12.68-49.21h0Z"/><path class="cls-1" d="m108.43,777.01c-5.44,8.47-7.4,18.07-8.49,27.89,2.63-4.28,4.4-9.01,6.07-13.73-.05.15-.1.3-.15.46,1.52-4.7,2.79-9.66,2.57-14.62h0Z"/><path class="cls-1" d="m163.3,742.69c-13.92,26.67-16.74,57.14-21.06,86.41,4.59-12.71,5.79-26.47,9.95-39.37,5.54-15.25,9.13-30.97,11.11-47.04h0Zm-16.21,67.33s-.02.08-.02.12c0-.04.02-.08.02-.12h0Z"/><path class="cls-1" d="m149.68,754.38c-3.11,9.37-5.25,19.3-3.95,29.17,2.7-9.52,6.53-19.19,3.95-29.17h0Z"/><path class="cls-1" d="m213.92,847.02c-5.08.18-10.17.37-15.24.79.11,0,.22-.02.33-.02-26,1-22.51,2.5.76,5.21,12.33-.09,24.87.32,37.1-.38,1.44-.38,2.79-1.27,3.99-2.07-9.06,1.84-17.68-4.38-26.94-3.52h0Z"/><path class="cls-1" d="m232.46,731.3c-3.07,28.79-4.3,57.82-.23,86.63,3.24,13.1-2.22,24.01,10.72,32.19-8.88-10.5-1.94-19.25-4.49-31.63-5.48-28.78-1.29-58.49-6.01-87.2h0Z"/><path class="cls-1" d="m211.98,701.89c-10.38,38.11-6.63,78.51-6.27,117.59-.16-39.29,6.3-78.32,6.27-117.59h0Z"/><path class="cls-1" d="m205.49,691.6c-6.74,31.13-2.51,62.99-3.21,94.48.84-4.94.94-10.06,1.36-15.08,0,.06-.01.11-.02.17,2.2-26.44,6.16-53.16,1.86-79.56h0Z"/><path class="cls-1" d="m202.54,688.65c-8.39,38.93-6.65,79.93-4.47,119.5-3.2-39.91,8.42-79.64,4.47-119.5h0Z"/><path class="cls-1" d="m191.83,701.05c-6.59,22.36-5.25,46.1-5.69,69.17-1.31,21.51.97,43.14-.12,64.54,1.86-19.65.1-39.82,2.76-59.59,1.83-24.71,5.59-49.34,3.05-74.12h0Z"/><path class="cls-1" d="m182.38,742.06c-6.96,28.74-3.65,58.36-3.49,87.56,2.01-29.09,4.22-58.37,3.49-87.56h0Z"/><path class="cls-1" d="m174.49,745.3c-7.63,27.4-6.54,55.95-6.72,84.06,1.61-16.46,4.63-32.74,5.98-49.23-.02.22-.04.44-.06.66,1.09-11.78,1.42-23.7.81-35.49h0Z"/><path class="cls-1" d="m223.19,700.32c-5.68,23.48-5.59,47.7-5.73,71.7.69,22.06-.53,44.35,2.77,66.23-2.2-25.47-1.15-51.2.78-76.69,2.01-20.33,5.23-40.86,2.18-61.24h0Z"/><path class="cls-1" d="m213.77,733.43c-6.66,36.89-3.7,74.8-.87,111.94-2.11-37.28,5.83-74.88.87-111.94h0Z"/><path class="cls-1" d="m54.65,853.91c-13.13-.27-26.33.66-39.33,2.52-4.89-.1-6.74,4.22-5.81,8.53,4.82,22.28,3.26,14.07,5.07-2.29-.05.22-.1.44-.14.65,7.22-4.23,19.44-1.03,28.09-4.59,4.34-.63,23.22-5.58,12.12-4.83h0Zm-40.48,8.56s-.04.02-.06.04c.02-.01.04-.02.06-.04h0Z"/><path class="cls-1" d="m83.09,875.19c-6.39.14-12.78.13-19.17.31.17,0,.35-.01.52-.02-15.25.03-76.95,6.23-29.31,7.26,47-2.26,94.25-3.34,141.28-1.15,11.88.4,113.09,6.36,65.81-.79-52.73-6.25-106.1-4.98-159.13-5.61h0Z"/><path class="cls-1" d="m240.09,852.45c3.05,11.97,17.71,19.76,15.81,32.79,8.87-12.91-7.29-24.73-15.81-32.79h0Z"/><path class="cls-1" d="m242.31,857.13c-.94,7.26.07,14.67,2.25,21.6,1.58-7.23,1.03-14.93-2.25-21.6h0Z"/><path class="cls-1" d="m230.53,852.46c-11.91,1.71-7.05,17.56-4.17,25.25.17-5.04.77-10.07.58-15.12-.84-4.33-.1-7.53,3.59-10.13h0Z"/><path class="cls-1" d="m88.58,880.88c-27.39.37-55.31,0-81.8,7.83,24.11,1.72,48.22-1.97,72.37-2.4,30.69-.66,61.35,1.18,92.02,1.74,12.51-.53,124.19,6.62,76-1.51-52.55-5.35-105.78-4.55-158.59-5.67h0Z"/><path class="cls-1" d="m0,889.77c1.66,3.79,3.34,7.58,5.64,11.02-.1-.16-.2-.31-.29-.47,5.02,8.74,1.61,19.9,5.2,29.31,3.43-18.02,6.2-28.02-10.54-39.87h0Z"/><path class="cls-1" d="m258.14,888.21c1.61,7.41,5.5,14.02,7.79,21.19-1.03,7.08-2.96,14.73.29,21.55,4.42-25.58,11.38-19.55-8.08-42.74h0Z"/><path class="cls-1" d="m85.99,922.85c-23.24-.16-46.61-.64-69.22,5.51,23.57,2.58,47.36-.32,71.02-.55,28.75-.81,57.51-.23,86.26.13,10.23.45,103.35,4.6,66.89.05-51.41-4.84-103.32-4.6-154.95-5.14h0Z"/><path class="cls-1" d="m100.62,893.78c-27.24.5-54.95-.2-81.29,7.7,19.8,1.85,39.61-.66,59.34-2.25,25.52-2.04,51.16-1.67,76.74-1.19,29.71,1.12,59.54,1.66,89.02,5.71-3.52-.92-7.16-1.65-10.76-2.34-44.02-5.83-88.69-6.3-133.04-7.64h0Zm135.9,8.96s.02,0,.02,0c0,0-.02,0-.02,0h0Z"/></g></svg>