<?xml version="1.0" encoding="UTF-8"?><svg id="Layer_2" xmlns="http://www.w3.org/2000/svg" viewBox="0 0 1696.2 450.5"><defs><style>.cls-1{fill:none;stroke:#ffcc29;stroke-miterlimit:10;}</style></defs><g id="Layer_1-2"><line class="cls-1" y1="448.38" x2="1696.2" y2="448.38"/><line class="cls-1" x1="836.93" y1="59.54" x2="836.93" y2="70.88"/><line class="cls-1" x1="842.6" y1="65.21" x2="831.26" y2="65.21"/><line class="cls-1" x1="1035.99" x2="1035.99" y2="9.4"/><line class="cls-1" x1="1040.7" y1="4.7" x2="1031.29" y2="4.7"/><line class="cls-1" x1="1601.05" y1="208.59" x2="1601.05" y2="219.93"/><line class="cls-1" x1="1606.72" y1="214.26" x2="1595.38" y2="214.26"/><line class="cls-1" x1="148.6" y1="188.44" x2="148.6" y2="199.78"/><line class="cls-1" x1="154.27" y1="194.11" x2="142.93" y2="194.11"/><line class="cls-1" x1="77.61" y1="302.82" x2="77.61" y2="314.16"/><line class="cls-1" x1="83.28" y1="308.49" x2="71.94" y2="308.49"/><line class="cls-1" x1="1237.38" y1="208.59" x2="1237.38" y2="219.93"/><line class="cls-1" x1="1243.05" y1="214.26" x2="1231.71" y2="214.26"/><line class="cls-1" x1="339.05" y1="263.96" x2="339.05" y2="280.87"/><line class="cls-1" x1="347.5" y1="272.41" x2="330.59" y2="272.41"/><line class="cls-1" x1="988.99" y1="315.02" x2="988.99" y2="331.93"/><line class="cls-1" x1="997.45" y1="323.47" x2="980.54" y2="323.47"/><path class="cls-1" d="m524.73,415.04c-52.34-75.55-87.72-82.25-106.65-82.25"/><path class="cls-1" d="m546.15,448.38c-5.16-8.59-10.17-16.55-15.05-23.92"/><path class="cls-1" d="m297.5,448.38c44.59-73.45,84.05-109.17,120.57-109.17"/><path class="cls-1" d="m303.14,427.36c-3.39,5.19-6.84,10.66-10.36,16.43"/><path class="cls-1" d="m317.27,406.78c-2.06,2.84-4.15,5.8-6.27,8.86"/><path class="cls-1" d="m326.1,415.9c2.2-3.15,4.39-6.19,6.57-9.14"/><path class="cls-1" d="m206.53,406.67c-35.46-45.66-59.86-50.04-73.5-50.04"/><path class="cls-1" d="m221.53,427.56c-2.85-4.26-5.64-8.26-8.36-12.03"/><path class="cls-1" d="m234.69,448.38c-2.26-3.77-4.49-7.38-6.68-10.85"/><path class="cls-1" d="m223.68,418.6c-.75-1.06-1.49-2.09-2.23-3.12"/><path class="cls-1" d="m258.61,342.07c5.47,0,18.47,2.78,39.01,93.9"/><path class="cls-1" d="m223.7,418.6c-1.59,6.46-3.24,13.44-4.93,21.06"/><path class="cls-1" d="m300.27,415.48c-.78-3.13-1.55-6.13-2.31-9"/><path class="cls-1" d="m230.16,428.03c-1.48,6.28-3.01,13.04-4.58,20.35"/><path class="cls-1" d="m283.75,406.32c.77,2.86,1.55,5.85,2.34,9"/><path class="cls-1" d="m237.97,370.2c9.31-20.47,15.57-21.47,16.36-21.71,2.14-.66,3.79-.54,5.28.28"/><path class="cls-1" d="m49.26,420.64c2.28-3.26,4.51-6.35,6.71-9.29"/><path class="cls-1" d="m41.84,448.38c33.56-54.78,63.39-84.39,91.19-84.39,1.43,0,2.85.08,4.29.23"/><path class="cls-1" d="m69.46,419.64c2.33-3.21,4.64-6.28,6.93-9.22"/><path class="cls-1" d="m537.87,424.96c-4.9-.37-9.85-.73-14.83-1.08"/><path class="cls-1" d="m516.54,414.48c5.02.33,10.01.68,14.95,1.04"/><line class="cls-1" x1="262.15" y1="415.15" x2="262.15" y2="406.18"/><line class="cls-1" x1="268.06" y1="415.18" x2="268.06" y2="406.25"/><line class="cls-1" x1="273.98" y1="415.15" x2="273.98" y2="406.33"/><line class="cls-1" x1="279.89" y1="415.31" x2="279.89" y2="406.29"/><line class="cls-1" x1="303.56" y1="415.64" x2="303.56" y2="406.78"/><line class="cls-1" x1="309.47" y1="415.64" x2="309.47" y2="406.78"/><line class="cls-1" x1="315.39" y1="409.4" x2="315.39" y2="406.78"/><line class="cls-1" x1="333.13" y1="416.05" x2="333.13" y2="407.1"/><line class="cls-1" x1="339.05" y1="416.16" x2="339.05" y2="407.21"/><line class="cls-1" x1="344.96" y1="416.3" x2="344.96" y2="407.33"/><line class="cls-1" x1="350.88" y1="416.43" x2="350.88" y2="407.46"/><line class="cls-1" x1="356.79" y1="416.57" x2="356.79" y2="407.62"/><line class="cls-1" x1="362.71" y1="416.72" x2="362.71" y2="407.76"/><line class="cls-1" x1="368.62" y1="416.87" x2="368.62" y2="407.91"/><line class="cls-1" x1="374.54" y1="417.04" x2="374.54" y2="408.07"/><line class="cls-1" x1="380.45" y1="417.21" x2="380.45" y2="408.24"/><line class="cls-1" x1="386.37" y1="417.38" x2="386.37" y2="408.42"/><line class="cls-1" x1="392.28" y1="417.58" x2="392.28" y2="408.61"/><line class="cls-1" x1="398.2" y1="417.76" x2="398.2" y2="408.8"/><line class="cls-1" x1="404.11" y1="417.97" x2="404.11" y2="409"/><line class="cls-1" x1="410.03" y1="418.17" x2="410.03" y2="409.2"/><line class="cls-1" x1="415.95" y1="418.38" x2="415.95" y2="409.44"/><line class="cls-1" x1="421.86" y1="418.6" x2="421.86" y2="409.64"/><line class="cls-1" x1="427.78" y1="418.83" x2="427.78" y2="409.85"/><line class="cls-1" x1="433.69" y1="419.08" x2="433.69" y2="410.14"/><line class="cls-1" x1="439.61" y1="419.32" x2="439.61" y2="410.37"/><line class="cls-1" x1="445.52" y1="419.57" x2="445.52" y2="410.61"/><line class="cls-1" x1="451.44" y1="419.84" x2="451.44" y2="410.87"/><line class="cls-1" x1="457.35" y1="420.11" x2="457.35" y2="411.15"/><line class="cls-1" x1="463.27" y1="420.4" x2="463.27" y2="411.43"/><line class="cls-1" x1="469.18" y1="420.72" x2="469.18" y2="411.79"/><line class="cls-1" x1="475.1" y1="421.02" x2="475.1" y2="412.08"/><line class="cls-1" x1="481.01" y1="421.32" x2="481.01" y2="412.34"/><line class="cls-1" x1="486.93" y1="421.62" x2="486.93" y2="412.69"/><line class="cls-1" x1="492.84" y1="421.97" x2="492.84" y2="413.03"/><line class="cls-1" x1="498.76" y1="422.32" x2="498.76" y2="413.41"/><line class="cls-1" x1="504.67" y1="422.68" x2="504.67" y2="413.72"/><line class="cls-1" x1="510.59" y1="423.05" x2="510.59" y2="414.13"/><line class="cls-1" x1="516.5" y1="423.44" x2="516.5" y2="414.48"/><line class="cls-1" x1="522.42" y1="423.84" x2="522.42" y2="414.88"/><line class="cls-1" x1="528.33" y1="424.26" x2="528.33" y2="415.29"/><line class="cls-1" x1="534.25" y1="424.73" x2="534.25" y2="415.74"/><line class="cls-1" x1="540.17" y1="425.21" x2="540.17" y2="416.18"/><line class="cls-1" x1="546.08" y1="425.6" x2="546.08" y2="416.67"/><line class="cls-1" x1="552" y1="426.09" x2="552" y2="417.16"/><line class="cls-1" x1="557.91" y1="426.59" x2="557.91" y2="417.7"/><line class="cls-1" x1="563.83" y1="427.12" x2="563.83" y2="418.15"/><path class="cls-1" d="m202.43,415.71c1.12-.02,2.38-.04,3.79-.07,3.7-.07,7.29-.11,10.73-.16,4.9-.07,9.75-.12,14.16-.17.73,0,1.45-.01,2.16-.02"/><path class="cls-1" d="m214.76,406.55c-4.71.07-9.65.14-14.81.23-1.61.03-3.01.05-4.27.08"/><path class="cls-1" d="m235.6,406.32c-.7,0-1.41,0-2.13.01-3.52.02-5.32.03-6.67.05"/><line class="cls-1" x1="255.07" y1="415.15" x2="255.07" y2="406.18"/><line class="cls-1" x1="249.16" y1="415.18" x2="249.16" y2="406.25"/><line class="cls-1" x1="243.24" y1="415.15" x2="243.24" y2="406.33"/><line class="cls-1" x1="237.33" y1="415.18" x2="237.33" y2="406.29"/><line class="cls-1" x1="231.35" y1="415.15" x2="231.35" y2="406.33"/><line class="cls-1" x1="225.43" y1="415.31" x2="225.43" y2="406.39"/><line class="cls-1" x1="219.45" y1="415.15" x2="219.45" y2="406.49"/><line class="cls-1" x1="213.54" y1="415.31" x2="213.54" y2="406.67"/><line class="cls-1" x1="207.56" y1="415.15" x2="207.56" y2="406.67"/><line class="cls-1" x1="201.65" y1="415.72" x2="201.65" y2="406.74"/><line class="cls-1" x1="195.67" y1="415.83" x2="195.67" y2="406.85"/><line class="cls-1" x1="189.75" y1="415.93" x2="189.75" y2="406.96"/><line class="cls-1" x1="184.09" y1="416.05" x2="184.09" y2="407.1"/><line class="cls-1" x1="178.17" y1="416.16" x2="178.17" y2="407.21"/><line class="cls-1" x1="172.26" y1="416.3" x2="172.26" y2="407.33"/><line class="cls-1" x1="166.34" y1="416.43" x2="166.34" y2="407.46"/><line class="cls-1" x1="160.43" y1="416.57" x2="160.43" y2="407.62"/><line class="cls-1" x1="154.51" y1="416.72" x2="154.51" y2="407.76"/><line class="cls-1" x1="148.6" y1="416.87" x2="148.6" y2="407.91"/><line class="cls-1" x1="142.68" y1="417.04" x2="142.68" y2="408.07"/><line class="cls-1" x1="136.77" y1="417.21" x2="136.77" y2="408.24"/><line class="cls-1" x1="130.85" y1="417.38" x2="130.85" y2="408.42"/><line class="cls-1" x1="124.94" y1="417.58" x2="124.94" y2="408.61"/><line class="cls-1" x1="119.02" y1="417.76" x2="119.02" y2="408.8"/><line class="cls-1" x1="113.11" y1="417.97" x2="113.11" y2="409"/><line class="cls-1" x1="107.19" y1="418.17" x2="107.19" y2="409.2"/><line class="cls-1" x1="101.27" y1="418.38" x2="101.27" y2="409.44"/><line class="cls-1" x1="95.36" y1="418.6" x2="95.36" y2="409.64"/><line class="cls-1" x1="89.44" y1="418.83" x2="89.44" y2="409.85"/><line class="cls-1" x1="83.53" y1="419.08" x2="83.53" y2="410.14"/><line class="cls-1" x1="77.61" y1="419.32" x2="77.61" y2="410.37"/><line class="cls-1" x1="71.7" y1="419.57" x2="71.7" y2="416.59"/><line class="cls-1" x1="53.95" y1="414.07" x2="53.95" y2="411.43"/><line class="cls-1" x1="48.04" y1="420.72" x2="48.04" y2="411.79"/><line class="cls-1" x1="42.12" y1="421.02" x2="42.12" y2="412.08"/><line class="cls-1" x1="36.21" y1="421.32" x2="36.21" y2="412.34"/><line class="cls-1" x1="30.29" y1="421.62" x2="30.29" y2="412.69"/><line class="cls-1" x1="24.38" y1="421.97" x2="24.38" y2="413.03"/><path class="cls-1" d="m224.5,415.39c-.26,1.06-.53,2.13-.8,3.22"/><path class="cls-1" d="m332.67,406.76c29.37-39.75,56.33-62.79,82.15-66.53,7.04-1.02,10.79-.56,12.95-.19,27.56,4.68,56.85,29.21,88.78,74.43h0c-63.25-4.21-132.02-6.37-184.1-7.41"/><path class="cls-1" d="m300.27,415.48c.94,3.76,1.9,7.72,2.87,11.88,2.66-4.08,5.28-7.98,7.86-11.72h0c-3.71-.06-7.29-.12-10.73-.16Z"/><path class="cls-1" d="m259.69,348.8c-2.97,1.51-11.4,10.09-24.09,57.52h0c9.55-.06,17.35-.14,23.01-.14,6.07,0,14.62.04,25.14.14h0c-8.76-32.69-15.49-46.85-19.8-53.02-1.52-2.18-2.86-3.72-4.35-4.54l.08.03Z"/><path class="cls-1" d="m195.67,406.86c-4.27.08-6.96.13-10.9.21-31.63.65-69.42,1.69-108.39,3.36h0c19.72-25.23,38.09-40.76,55.73-45.18,3.37-.84,7.52-.95,8.68-.82,17.41,1.94,35.48,18.04,54.87,42.43"/><path class="cls-1" d="m18.46,422.32v-8.96c12.43-.74,24.98-1.41,37.51-2.01h0c37.39-50.04,62.96-54.71,77.05-54.71h8.33c13.63,0,38,4.37,73.4,49.92h0c1.53-.02,3.03-.04,4.51-.06,4.47-.06,5.46-.09,7.53-.12,16.41-62.16,27.01-64.31,31.82-64.31h7.5c4.8,0,15.42,2.15,31.85,64.42h0c6.02.09,12.48.18,19.32.3,49.13-67.79,82.59-73.99,100.8-73.99h6.43c18.97,0,54.47,6.72,106.99,82.73h0c12.75.93,25.19,1.95,37.13,3.07v8.96c-9.95-.93-20.24-1.8-30.76-2.6h0c4.77,7.23,9.67,15.02,14.71,23.42h-13.92c-5.28-8.69-10.48-16.85-15.62-24.49h0c-67.59-4.69-142.44-6.96-196.93-7.98h0c-6.91,9.86-13.94,20.68-21.1,32.48h-15c.93-1.55,1.86-3.08,2.78-4.59h0c-2.33-10.63-4.56-20.08-6.69-28.47h.02c-11.61-.13-20.98-.17-27.5-.17-6.11,0-14.73.04-25.34.14v.02c-1.01,4-2.05,8.23-3.11,12.72,4.15,6.23,8.43,12.99,12.84,20.35h-26.13c.64-2.99,1.27-5.9,1.9-8.72-5.54-8.7-10.99-16.69-16.34-23.95h0c-6.64.12-8.62.14-11.31.19-34.67.66-77.57,1.82-121.61,3.78l-.05-.04c-6.22,8.58-12.57,18.16-19.06,28.74h-19.04c6.22-10.37,12.19-19.57,17.89-27.74h0c-10.29.51-20.59,1.07-30.8,1.69h0Z"/><line class="cls-1" x1="421.86" y1="409.64" x2="421.86" y2="339.61"/><line class="cls-1" x1="409.94" y1="409.2" x2="388.52" y2="350.33"/><line class="cls-1" x1="393.89" y1="408.61" x2="362.61" y2="371.32"/><line class="cls-1" x1="362.41" y1="407.62" x2="341.32" y2="395.44"/><line class="cls-1" x1="474.26" y1="411.68" x2="502.33" y2="395.48"/><line class="cls-1" x1="448.15" y1="410.61" x2="480.94" y2="371.54"/><line class="cls-1" x1="433.45" y1="410.1" x2="455.03" y2="350.81"/><line class="cls-1" x1="259.69" y1="406.18" x2="259.69" y2="349.38"/><line class="cls-1" x1="246.67" y1="406.18" x2="240.43" y2="389.02"/><line class="cls-1" x1="272.7" y1="406.18" x2="278.87" y2="389.25"/><line class="cls-1" x1="136.77" y1="408.24" x2="136.77" y2="364.37"/><line class="cls-1" x1="129.27" y1="408.49" x2="116.05" y2="372.18"/><line class="cls-1" x1="119.61" y1="408.64" x2="99.58" y2="384.77"/><line class="cls-1" x1="102.33" y1="409.2" x2="85.43" y2="399.44"/><line class="cls-1" x1="175.08" y1="406.96" x2="189.1" y2="398.87"/><line class="cls-1" x1="154.78" y1="407.62" x2="174.87" y2="383.68"/><line class="cls-1" x1="144.43" y1="408.04" x2="158.04" y2="370.62"/><line class="cls-1" x1="539.51" y1="448.38" x2="534.97" y2="216.14"/><line class="cls-1" x1="530.42" y1="448.38" x2="534.97" y2="216.14"/><line class="cls-1" x1="522.26" y1="418.41" x2="547.68" y2="418.41"/><line class="cls-1" x1="524.8" y1="389.52" x2="545.13" y2="389.52"/><line class="cls-1" x1="526.94" y1="360.62" x2="542.99" y2="360.62"/><line class="cls-1" x1="528.28" y1="331.72" x2="541.66" y2="331.72"/><line class="cls-1" x1="529.89" y1="302.83" x2="540.05" y2="302.83"/><line class="cls-1" x1="534.97" y1="216.14" x2="535.18" y2="220.95"/><polygon class="cls-1" points="593.56 220.95 535.18 220.95 534.97 216.14 524.8 448.38 534.97 448.38 545.13 448.38 536.84 258.95 593.56 258.95 593.56 220.95"/><line class="cls-1" x1="535.18" y1="220.95" x2="536.84" y2="258.95"/><line class="cls-1" x1="566" y1="226.31" x2="588.21" y2="239.95"/><line class="cls-1" x1="566" y1="226.31" x2="543.8" y2="239.95"/><line class="cls-1" x1="566" y1="253.6" x2="543.8" y2="239.95"/><line class="cls-1" x1="566" y1="253.6" x2="588.21" y2="239.95"/><circle class="cls-1" cx="566" cy="239.95" r="8.03"/><path class="cls-1" d="m558.25,237.89c1.71-.65,3.56-1,5.5-1,3.92,0,7.51,1.45,10.24,3.85"/><path class="cls-1" d="m851.18,239.88s-.07,4.18-4.17,7.78c-3.8,3.34-4.17,6.3-4.17,6.3l3.15,17.61,5.19,3.15"/><line class="cls-1" x1="846.45" y1="274.72" x2="866.01" y2="274.72"/><path class="cls-1" d="m851.18,239.88s.07,4.18,4.17,7.78c3.8,3.34,4.17,6.3,4.17,6.3l-3.15,17.61-5.19,3.15"/><path class="cls-1" d="m880.7,239.88s.07,4.18,4.17,7.78c3.8,3.34,4.17,6.3,4.17,6.3l-3.15,17.61-5.19,3.15"/><line class="cls-1" x1="885.43" y1="274.72" x2="865.87" y2="274.72"/><path class="cls-1" d="m880.7,239.88s-.07,4.18-4.17,7.78c-3.8,3.34-4.17,6.3-4.17,6.3l3.15,17.61,5.19,3.15"/><line class="cls-1" x1="865.87" y1="264.53" x2="865.87" y2="400.29"/><polyline class="cls-1" points="865.87 400.29 862.12 400.29 855.91 448.38 865.87 448.38"/><line class="cls-1" x1="863.14" y1="342.56" x2="868.6" y2="342.56"/><line class="cls-1" x1="863.14" y1="347.28" x2="868.6" y2="347.28"/><line class="cls-1" x1="863.14" y1="352.01" x2="868.6" y2="352.01"/><polyline class="cls-1" points="865.87 400.29 869.63 400.29 875.84 448.38 865.87 448.38"/><line class="cls-1" x1="856.95" y1="440.32" x2="874.85" y2="440.32"/><line class="cls-1" x1="864.27" y1="418.26" x2="863.07" y2="436.06"/><line class="cls-1" x1="867.53" y1="418.26" x2="868.73" y2="436.06"/><line class="cls-1" x1="860.44" y1="413.27" x2="871.3" y2="413.27"/><line class="cls-1" x1="842.84" y1="253.97" x2="859.52" y2="253.97"/><line class="cls-1" x1="872.36" y1="253.97" x2="889.04" y2="253.97"/><line class="cls-1" x1="848.03" y1="253.97" x2="851.18" y2="274.72"/><line class="cls-1" x1="854.33" y1="253.97" x2="851.18" y2="274.72"/><line class="cls-1" x1="877.55" y1="253.97" x2="880.7" y2="274.72"/><line class="cls-1" x1="883.85" y1="253.97" x2="880.7" y2="274.72"/><path class="cls-1" d="m847.94,280.56c.65-2.13,2.92-4.17,7.41-4.17s10.52,5.56,10.52,14.09"/><path class="cls-1" d="m883.81,280.56c-.65-2.13-2.92-4.17-7.41-4.17s-10.52,5.56-10.52,14.09"/><polyline class="cls-1" points="1400.97 427.06 1392.7 427.06 1392.7 358.48"/><polyline class="cls-1" points="1435.34 358.48 1435.34 427.06 1427.18 427.06"/><polyline class="cls-1" points="1427.18 206.6 1435.34 206.6 1435.34 345.1"/><polyline class="cls-1" points="1392.7 345.1 1392.7 206.6 1400.97 206.6"/><rect class="cls-1" x="1397.22" y="210.79" width="3.75" height="3.75"/><rect class="cls-1" x="1404.71" y="210.79" width="3.75" height="3.75"/><rect class="cls-1" x="1412.2" y="210.79" width="3.75" height="3.75"/><rect class="cls-1" x="1419.69" y="210.79" width="3.75" height="3.75"/><rect class="cls-1" x="1427.19" y="210.79" width="3.75" height="3.75"/><rect class="cls-1" x="1397.22" y="217.74" width="3.75" height="3.75"/><rect class="cls-1" x="1412.2" y="217.74" width="3.75" height="3.75"/><rect class="cls-1" x="1427.19" y="217.74" width="3.75" height="3.75"/><rect class="cls-1" x="1397.22" y="224.7" width="3.75" height="3.75"/><rect class="cls-1" x="1404.71" y="224.7" width="3.75" height="3.75"/><rect class="cls-1" x="1412.2" y="224.7" width="3.75" height="3.75"/><rect class="cls-1" x="1419.69" y="224.7" width="3.75" height="3.75"/><rect class="cls-1" x="1427.19" y="224.7" width="3.75" height="3.75"/><rect class="cls-1" x="1397.22" y="231.66" width="3.75" height="3.75"/><rect class="cls-1" x="1404.71" y="231.66" width="3.75" height="3.75"/><rect class="cls-1" x="1412.2" y="231.66" width="3.75" height="3.75"/><rect class="cls-1" x="1427.19" y="231.66" width="3.75" height="3.75"/><rect class="cls-1" x="1397.22" y="238.61" width="3.75" height="3.75"/><rect class="cls-1" x="1412.2" y="238.61" width="3.75" height="3.75"/><rect class="cls-1" x="1419.69" y="238.61" width="3.75" height="3.75"/><rect class="cls-1" x="1397.22" y="245.57" width="3.75" height="3.75"/><rect class="cls-1" x="1404.71" y="245.57" width="3.75" height="3.75"/><rect class="cls-1" x="1412.2" y="245.57" width="3.75" height="3.75"/><rect class="cls-1" x="1419.69" y="245.57" width="3.75" height="3.75"/><rect class="cls-1" x="1427.19" y="245.57" width="3.75" height="3.75"/><rect class="cls-1" x="1397.22" y="252.53" width="3.75" height="3.75"/><rect class="cls-1" x="1412.2" y="252.53" width="3.75" height="3.75"/><rect class="cls-1" x="1419.69" y="252.53" width="3.75" height="3.75"/><rect class="cls-1" x="1427.19" y="252.53" width="3.75" height="3.75"/><rect class="cls-1" x="1397.22" y="259.48" width="3.75" height="3.75"/><rect class="cls-1" x="1412.2" y="259.48" width="3.75" height="3.75"/><rect class="cls-1" x="1427.19" y="259.48" width="3.75" height="3.75"/><rect class="cls-1" x="1397.22" y="266.44" width="3.75" height="3.75"/><rect class="cls-1" x="1404.71" y="266.44" width="3.75" height="3.75"/><rect class="cls-1" x="1412.2" y="266.44" width="3.75" height="3.75"/><rect class="cls-1" x="1419.69" y="266.44" width="3.75" height="3.75"/><rect class="cls-1" x="1427.19" y="266.44" width="3.75" height="3.75"/><rect class="cls-1" x="1397.22" y="273.4" width="3.75" height="3.75"/><rect class="cls-1" x="1404.71" y="273.4" width="3.75" height="3.75"/><rect class="cls-1" x="1412.2" y="273.4" width="3.75" height="3.75"/><rect class="cls-1" x="1419.69" y="273.4" width="3.75" height="3.75"/><rect class="cls-1" x="1427.19" y="273.4" width="3.75" height="3.75"/><rect class="cls-1" x="1397.22" y="280.35" width="3.75" height="3.75"/><rect class="cls-1" x="1412.2" y="280.35" width="3.75" height="3.75"/><rect class="cls-1" x="1427.19" y="280.35" width="3.75" height="3.75"/><rect class="cls-1" x="1397.22" y="287.31" width="3.75" height="3.75"/><rect class="cls-1" x="1404.71" y="287.31" width="3.75" height="3.75"/><rect class="cls-1" x="1427.19" y="287.31" width="3.75" height="3.75"/><rect class="cls-1" x="1404.71" y="294.27" width="3.75" height="3.75"/><rect class="cls-1" x="1412.2" y="294.27" width="3.75" height="3.75"/><rect class="cls-1" x="1419.69" y="294.27" width="3.75" height="3.75"/><rect class="cls-1" x="1427.19" y="294.27" width="3.75" height="3.75"/><rect class="cls-1" x="1397.22" y="301.22" width="3.75" height="3.75"/><rect class="cls-1" x="1404.71" y="301.22" width="3.75" height="3.75"/><rect class="cls-1" x="1412.2" y="301.22" width="3.75" height="3.75"/><rect class="cls-1" x="1419.69" y="301.22" width="3.75" height="3.75"/><rect class="cls-1" x="1404.71" y="308.18" width="3.75" height="3.75"/><rect class="cls-1" x="1412.2" y="308.18" width="3.75" height="3.75"/><rect class="cls-1" x="1419.69" y="308.18" width="3.75" height="3.75"/><rect class="cls-1" x="1427.19" y="308.18" width="3.75" height="3.75"/><rect class="cls-1" x="1397.22" y="315.14" width="3.75" height="3.75"/><rect class="cls-1" x="1404.71" y="315.14" width="3.75" height="3.75"/><rect class="cls-1" x="1412.2" y="315.14" width="3.75" height="3.75"/><rect class="cls-1" x="1419.69" y="315.14" width="3.75" height="3.75"/><rect class="cls-1" x="1427.19" y="315.14" width="3.75" height="3.75"/><rect class="cls-1" x="1397.22" y="322.09" width="3.75" height="3.75"/><rect class="cls-1" x="1412.2" y="322.09" width="3.75" height="3.75"/><rect class="cls-1" x="1427.19" y="322.09" width="3.75" height="3.75"/><rect class="cls-1" x="1397.22" y="329.05" width="3.75" height="3.75"/><rect class="cls-1" x="1404.71" y="329.05" width="3.75" height="3.75"/><rect class="cls-1" x="1412.2" y="329.05" width="3.75" height="3.75"/><rect class="cls-1" x="1419.69" y="329.05" width="3.75" height="3.75"/><rect class="cls-1" x="1427.19" y="329.05" width="3.75" height="3.75"/><rect class="cls-1" x="1397.22" y="336.01" width="3.75" height="3.75"/><rect class="cls-1" x="1419.69" y="336.01" width="3.75" height="3.75"/><rect class="cls-1" x="1427.19" y="336.01" width="3.75" height="3.75"/><rect class="cls-1" x="1404.71" y="342.96" width="3.75" height="3.75"/><rect class="cls-1" x="1412.2" y="342.96" width="3.75" height="3.75"/><rect class="cls-1" x="1419.69" y="342.96" width="3.75" height="3.75"/><rect class="cls-1" x="1404.71" y="349.92" width="3.75" height="3.75"/><rect class="cls-1" x="1412.2" y="349.92" width="3.75" height="3.75"/><rect class="cls-1" x="1419.69" y="349.92" width="3.75" height="3.75"/><rect class="cls-1" x="1404.71" y="356.88" width="3.75" height="3.75"/><rect class="cls-1" x="1412.2" y="356.88" width="3.75" height="3.75"/><rect class="cls-1" x="1397.22" y="363.83" width="3.75" height="3.75"/><rect class="cls-1" x="1404.71" y="363.83" width="3.75" height="3.75"/><rect class="cls-1" x="1419.69" y="363.83" width="3.75" height="3.75"/><rect class="cls-1" x="1427.19" y="363.83" width="3.75" height="3.75"/><rect class="cls-1" x="1397.22" y="370.79" width="3.75" height="3.75"/><rect class="cls-1" x="1412.2" y="370.79" width="3.75" height="3.75"/><rect class="cls-1" x="1419.69" y="370.79" width="3.75" height="3.75"/><rect class="cls-1" x="1427.19" y="370.79" width="3.75" height="3.75"/><rect class="cls-1" x="1397.22" y="377.75" width="3.75" height="3.75"/><rect class="cls-1" x="1404.71" y="377.75" width="3.75" height="3.75"/><rect class="cls-1" x="1412.2" y="377.75" width="3.75" height="3.75"/><rect class="cls-1" x="1419.69" y="377.75" width="3.75" height="3.75"/><rect class="cls-1" x="1427.19" y="377.75" width="3.75" height="3.75"/><rect class="cls-1" x="1404.71" y="384.7" width="3.75" height="3.75"/><rect class="cls-1" x="1412.2" y="384.7" width="3.75" height="3.75"/><rect class="cls-1" x="1427.19" y="384.7" width="3.75" height="3.75"/><rect class="cls-1" x="1397.22" y="391.66" width="3.75" height="3.75"/><rect class="cls-1" x="1404.71" y="391.66" width="3.75" height="3.75"/><rect class="cls-1" x="1412.2" y="391.66" width="3.75" height="3.75"/><rect class="cls-1" x="1419.69" y="391.66" width="3.75" height="3.75"/><rect class="cls-1" x="1427.19" y="391.66" width="3.75" height="3.75"/><rect class="cls-1" x="1397.22" y="398.62" width="3.75" height="3.75"/><rect class="cls-1" x="1412.2" y="398.62" width="3.75" height="3.75"/><rect class="cls-1" x="1427.19" y="398.62" width="3.75" height="3.75"/><rect class="cls-1" x="1404.71" y="405.57" width="3.75" height="3.75"/><rect class="cls-1" x="1412.2" y="405.57" width="3.75" height="3.75"/><rect class="cls-1" x="1419.69" y="405.57" width="3.75" height="3.75"/><rect class="cls-1" x="1427.19" y="405.57" width="3.75" height="3.75"/><rect class="cls-1" x="1397.22" y="412.53" width="3.75" height="3.75"/><rect class="cls-1" x="1404.71" y="412.53" width="3.75" height="3.75"/><rect class="cls-1" x="1412.2" y="412.53" width="3.75" height="3.75"/><rect class="cls-1" x="1427.19" y="412.53" width="3.75" height="3.75"/><rect class="cls-1" x="1397.22" y="419.48" width="3.75" height="3.75"/><rect class="cls-1" x="1404.71" y="419.48" width="3.75" height="3.75"/><rect class="cls-1" x="1412.2" y="419.48" width="3.75" height="3.75"/><rect class="cls-1" x="1419.69" y="419.48" width="3.75" height="3.75"/><rect class="cls-1" x="1427.19" y="419.48" width="3.75" height="3.75"/><polyline class="cls-1" points="1364.45 206.6 1368.86 206.6 1368.86 427.06 1364.45 427.06"/><rect class="cls-1" x="1360.7" y="210.79" width="3.75" height="3.75"/><rect class="cls-1" x="1345.72" y="217.74" width="3.75" height="3.75"/><rect class="cls-1" x="1353.21" y="217.74" width="3.75" height="3.75"/><rect class="cls-1" x="1360.7" y="217.74" width="3.75" height="3.75"/><rect class="cls-1" x="1345.72" y="224.7" width="3.75" height="3.75"/><rect class="cls-1" x="1360.7" y="224.7" width="3.75" height="3.75"/><rect class="cls-1" x="1345.72" y="231.66" width="3.75" height="3.75"/><rect class="cls-1" x="1353.21" y="231.66" width="3.75" height="3.75"/><rect class="cls-1" x="1360.7" y="231.66" width="3.75" height="3.75"/><rect class="cls-1" x="1345.72" y="238.61" width="3.75" height="3.75"/><rect class="cls-1" x="1353.21" y="238.61" width="3.75" height="3.75"/><rect class="cls-1" x="1360.7" y="238.61" width="3.75" height="3.75"/><rect class="cls-1" x="1345.72" y="245.57" width="3.75" height="3.75"/><rect class="cls-1" x="1345.72" y="252.53" width="3.75" height="3.75"/><rect class="cls-1" x="1353.21" y="252.53" width="3.75" height="3.75"/><rect class="cls-1" x="1360.7" y="252.53" width="3.75" height="3.75"/><rect class="cls-1" x="1345.72" y="259.48" width="3.75" height="3.75"/><rect class="cls-1" x="1353.21" y="259.48" width="3.75" height="3.75"/><rect class="cls-1" x="1353.21" y="266.44" width="3.75" height="3.75"/><rect class="cls-1" x="1360.7" y="266.44" width="3.75" height="3.75"/><rect class="cls-1" x="1345.72" y="273.4" width="3.75" height="3.75"/><rect class="cls-1" x="1353.21" y="273.4" width="3.75" height="3.75"/><rect class="cls-1" x="1360.7" y="273.4" width="3.75" height="3.75"/><rect class="cls-1" x="1345.72" y="280.35" width="3.75" height="3.75"/><rect class="cls-1" x="1360.7" y="280.35" width="3.75" height="3.75"/><rect class="cls-1" x="1345.72" y="287.31" width="3.75" height="3.75"/><rect class="cls-1" x="1353.21" y="287.31" width="3.75" height="3.75"/><rect class="cls-1" x="1360.7" y="287.31" width="3.75" height="3.75"/><rect class="cls-1" x="1345.72" y="294.27" width="3.75" height="3.75"/><rect class="cls-1" x="1360.7" y="294.27" width="3.75" height="3.75"/><rect class="cls-1" x="1353.21" y="301.22" width="3.75" height="3.75"/><rect class="cls-1" x="1360.7" y="301.22" width="3.75" height="3.75"/><rect class="cls-1" x="1345.72" y="308.18" width="3.75" height="3.75"/><rect class="cls-1" x="1353.21" y="308.18" width="3.75" height="3.75"/><rect class="cls-1" x="1360.7" y="308.18" width="3.75" height="3.75"/><rect class="cls-1" x="1345.72" y="315.14" width="3.75" height="3.75"/><rect class="cls-1" x="1353.21" y="315.14" width="3.75" height="3.75"/><rect class="cls-1" x="1353.21" y="322.09" width="3.75" height="3.75"/><rect class="cls-1" x="1360.7" y="322.09" width="3.75" height="3.75"/><rect class="cls-1" x="1345.72" y="329.05" width="3.75" height="3.75"/><rect class="cls-1" x="1353.21" y="329.05" width="3.75" height="3.75"/><rect class="cls-1" x="1360.7" y="329.05" width="3.75" height="3.75"/><rect class="cls-1" x="1345.72" y="336.01" width="3.75" height="3.75"/><rect class="cls-1" x="1360.7" y="336.01" width="3.75" height="3.75"/><rect class="cls-1" x="1353.21" y="342.96" width="3.75" height="3.75"/><rect class="cls-1" x="1360.7" y="342.96" width="3.75" height="3.75"/><rect class="cls-1" x="1353.21" y="349.92" width="3.75" height="3.75"/><rect class="cls-1" x="1353.21" y="356.88" width="3.75" height="3.75"/><rect class="cls-1" x="1360.7" y="356.88" width="3.75" height="3.75"/><rect class="cls-1" x="1345.72" y="363.83" width="3.75" height="3.75"/><rect class="cls-1" x="1353.21" y="363.83" width="3.75" height="3.75"/><rect class="cls-1" x="1360.7" y="363.83" width="3.75" height="3.75"/><rect class="cls-1" x="1345.72" y="370.79" width="3.75" height="3.75"/><rect class="cls-1" x="1360.7" y="370.79" width="3.75" height="3.75"/><rect class="cls-1" x="1345.72" y="377.75" width="3.75" height="3.75"/><rect class="cls-1" x="1353.21" y="377.75" width="3.75" height="3.75"/><rect class="cls-1" x="1360.7" y="377.75" width="3.75" height="3.75"/><rect class="cls-1" x="1345.72" y="384.7" width="3.75" height="3.75"/><rect class="cls-1" x="1360.7" y="384.7" width="3.75" height="3.75"/><rect class="cls-1" x="1353.21" y="391.66" width="3.75" height="3.75"/><rect class="cls-1" x="1345.72" y="398.62" width="3.75" height="3.75"/><rect class="cls-1" x="1353.21" y="398.62" width="3.75" height="3.75"/><rect class="cls-1" x="1360.7" y="398.62" width="3.75" height="3.75"/><rect class="cls-1" x="1353.21" y="405.57" width="3.75" height="3.75"/><rect class="cls-1" x="1360.7" y="405.57" width="3.75" height="3.75"/><rect class="cls-1" x="1345.72" y="412.53" width="3.75" height="3.75"/><rect class="cls-1" x="1353.21" y="412.53" width="3.75" height="3.75"/><rect class="cls-1" x="1360.7" y="412.53" width="3.75" height="3.75"/><rect class="cls-1" x="1345.72" y="419.48" width="3.75" height="3.75"/><rect class="cls-1" x="1353.21" y="419.48" width="3.75" height="3.75"/><polyline class="cls-1" points="1392.7 345.1 1399.36 345.1 1399.36 358.48 1392.7 358.48"/><polyline class="cls-1" points="1435.34 345.1 1428.79 345.1 1428.79 358.48 1435.34 358.48"/><line class="cls-1" x1="1374.83" y1="183.41" x2="1374.83" y2="448.38"/><line class="cls-1" x1="1386.72" y1="183.41" x2="1386.72" y2="448.38"/><polyline class="cls-1" points="1463.7 206.6 1459.29 206.6 1459.29 427.06 1463.7 427.06"/><rect class="cls-1" x="1478.68" y="210.79" width="3.75" height="3.75" transform="translate(2961.12 425.32) rotate(180)"/><rect class="cls-1" x="1471.19" y="210.79" width="3.75" height="3.75" transform="translate(2946.13 425.32) rotate(180)"/><rect class="cls-1" x="1478.68" y="217.74" width="3.75" height="3.75" transform="translate(2961.12 439.23) rotate(180)"/><rect class="cls-1" x="1463.7" y="217.74" width="3.75" height="3.75" transform="translate(2931.15 439.23) rotate(180)"/><rect class="cls-1" x="1478.68" y="224.7" width="3.75" height="3.75" transform="translate(2961.12 453.15) rotate(180)"/><rect class="cls-1" x="1471.19" y="224.7" width="3.75" height="3.75" transform="translate(2946.13 453.15) rotate(180)"/><rect class="cls-1" x="1463.7" y="224.7" width="3.75" height="3.75" transform="translate(2931.15 453.15) rotate(180)"/><rect class="cls-1" x="1463.7" y="231.66" width="3.75" height="3.75" transform="translate(2931.15 467.06) rotate(180)"/><rect class="cls-1" x="1478.68" y="238.61" width="3.75" height="3.75" transform="translate(2961.12 480.97) rotate(180)"/><rect class="cls-1" x="1471.19" y="238.61" width="3.75" height="3.75" transform="translate(2946.13 480.97) rotate(180)"/><rect class="cls-1" x="1463.7" y="238.61" width="3.75" height="3.75" transform="translate(2931.15 480.97) rotate(180)"/><rect class="cls-1" x="1478.68" y="245.57" width="3.75" height="3.75" transform="translate(2961.12 494.89) rotate(180)"/><rect class="cls-1" x="1463.7" y="245.57" width="3.75" height="3.75" transform="translate(2931.15 494.89) rotate(180)"/><rect class="cls-1" x="1478.68" y="252.53" width="3.75" height="3.75" transform="translate(2961.12 508.8) rotate(180)"/><rect class="cls-1" x="1471.19" y="252.53" width="3.75" height="3.75" transform="translate(2946.13 508.8) rotate(180)"/><rect class="cls-1" x="1463.7" y="252.53" width="3.75" height="3.75" transform="translate(2931.15 508.8) rotate(180)"/><rect class="cls-1" x="1478.68" y="259.48" width="3.75" height="3.75" transform="translate(2961.12 522.71) rotate(180)"/><rect class="cls-1" x="1471.19" y="259.48" width="3.75" height="3.75" transform="translate(2946.13 522.71) rotate(180)"/><rect class="cls-1" x="1463.7" y="259.48" width="3.75" height="3.75" transform="translate(2931.15 522.71) rotate(180)"/><rect class="cls-1" x="1478.68" y="266.44" width="3.75" height="3.75" transform="translate(2961.12 536.63) rotate(180)"/><rect class="cls-1" x="1471.19" y="266.44" width="3.75" height="3.75" transform="translate(2946.13 536.63) rotate(180)"/><rect class="cls-1" x="1478.68" y="273.4" width="3.75" height="3.75" transform="translate(2961.12 550.54) rotate(180)"/><rect class="cls-1" x="1463.7" y="273.4" width="3.75" height="3.75" transform="translate(2931.15 550.54) rotate(180)"/><rect class="cls-1" x="1478.68" y="280.35" width="3.75" height="3.75" transform="translate(2961.12 564.45) rotate(180)"/><rect class="cls-1" x="1471.19" y="280.35" width="3.75" height="3.75" transform="translate(2946.13 564.45) rotate(180)"/><rect class="cls-1" x="1463.7" y="280.35" width="3.75" height="3.75" transform="translate(2931.15 564.45) rotate(180)"/><rect class="cls-1" x="1478.68" y="287.31" width="3.75" height="3.75" transform="translate(2961.12 578.37) rotate(180)"/><rect class="cls-1" x="1471.19" y="287.31" width="3.75" height="3.75" transform="translate(2946.13 578.37) rotate(180)"/><rect class="cls-1" x="1463.7" y="287.31" width="3.75" height="3.75" transform="translate(2931.15 578.37) rotate(180)"/><rect class="cls-1" x="1478.68" y="294.27" width="3.75" height="3.75" transform="translate(2961.12 592.28) rotate(180)"/><rect class="cls-1" x="1463.7" y="294.27" width="3.75" height="3.75" transform="translate(2931.15 592.28) rotate(180)"/><rect class="cls-1" x="1478.68" y="301.22" width="3.75" height="3.75" transform="translate(2961.12 606.19) rotate(180)"/><rect class="cls-1" x="1471.19" y="301.22" width="3.75" height="3.75" transform="translate(2946.13 606.19) rotate(180)"/><rect class="cls-1" x="1463.7" y="301.22" width="3.75" height="3.75" transform="translate(2931.15 606.19) rotate(180)"/><rect class="cls-1" x="1471.19" y="308.18" width="3.75" height="3.75" transform="translate(2946.13 620.1) rotate(180)"/><rect class="cls-1" x="1463.7" y="308.18" width="3.75" height="3.75" transform="translate(2931.15 620.1) rotate(180)"/><rect class="cls-1" x="1478.68" y="315.14" width="3.75" height="3.75" transform="translate(2961.12 634.02) rotate(180)"/><rect class="cls-1" x="1471.19" y="315.14" width="3.75" height="3.75" transform="translate(2946.13 634.02) rotate(180)"/><rect class="cls-1" x="1463.7" y="315.14" width="3.75" height="3.75" transform="translate(2931.15 634.02) rotate(180)"/><rect class="cls-1" x="1478.68" y="322.09" width="3.75" height="3.75" transform="translate(2961.12 647.93) rotate(180)"/><rect class="cls-1" x="1471.19" y="322.09" width="3.75" height="3.75" transform="translate(2946.13 647.93) rotate(180)"/><rect class="cls-1" x="1478.68" y="329.05" width="3.75" height="3.75" transform="translate(2961.12 661.84) rotate(180)"/><rect class="cls-1" x="1471.19" y="329.05" width="3.75" height="3.75" transform="translate(2946.13 661.84) rotate(180)"/><rect class="cls-1" x="1463.7" y="329.05" width="3.75" height="3.75" transform="translate(2931.15 661.84) rotate(180)"/><rect class="cls-1" x="1478.68" y="336.01" width="3.75" height="3.75" transform="translate(2961.12 675.76) rotate(180)"/><rect class="cls-1" x="1471.19" y="336.01" width="3.75" height="3.75" transform="translate(2946.13 675.76) rotate(180)"/><rect class="cls-1" x="1463.7" y="336.01" width="3.75" height="3.75" transform="translate(2931.15 675.76) rotate(180)"/><rect class="cls-1" x="1471.19" y="342.96" width="3.75" height="3.75" transform="translate(2946.13 689.67) rotate(180)"/><rect class="cls-1" x="1463.7" y="342.96" width="3.75" height="3.75" transform="translate(2931.15 689.67) rotate(180)"/><rect class="cls-1" x="1463.7" y="349.92" width="3.75" height="3.75" transform="translate(2931.15 703.58) rotate(180)"/><rect class="cls-1" x="1471.19" y="356.88" width="3.75" height="3.75" transform="translate(2946.13 717.5) rotate(180)"/><rect class="cls-1" x="1463.7" y="356.88" width="3.75" height="3.75" transform="translate(2931.15 717.5) rotate(180)"/><rect class="cls-1" x="1478.68" y="363.83" width="3.75" height="3.75" transform="translate(2961.12 731.41) rotate(180)"/><rect class="cls-1" x="1471.19" y="363.83" width="3.75" height="3.75" transform="translate(2946.13 731.41) rotate(180)"/><rect class="cls-1" x="1471.19" y="370.79" width="3.75" height="3.75" transform="translate(2946.13 745.32) rotate(180)"/><rect class="cls-1" x="1463.7" y="370.79" width="3.75" height="3.75" transform="translate(2931.15 745.32) rotate(180)"/><rect class="cls-1" x="1478.68" y="377.75" width="3.75" height="3.75" transform="translate(2961.12 759.24) rotate(180)"/><rect class="cls-1" x="1463.7" y="377.75" width="3.75" height="3.75" transform="translate(2931.15 759.24) rotate(180)"/><rect class="cls-1" x="1478.68" y="384.7" width="3.75" height="3.75" transform="translate(2961.12 773.15) rotate(180)"/><rect class="cls-1" x="1471.19" y="384.7" width="3.75" height="3.75" transform="translate(2946.13 773.15) rotate(180)"/><rect class="cls-1" x="1463.7" y="384.7" width="3.75" height="3.75" transform="translate(2931.15 773.15) rotate(180)"/><rect class="cls-1" x="1478.68" y="391.66" width="3.75" height="3.75" transform="translate(2961.12 787.06) rotate(180)"/><rect class="cls-1" x="1471.19" y="391.66" width="3.75" height="3.75" transform="translate(2946.13 787.06) rotate(180)"/><rect class="cls-1" x="1471.19" y="398.62" width="3.75" height="3.75" transform="translate(2946.13 800.98) rotate(180)"/><rect class="cls-1" x="1463.7" y="398.62" width="3.75" height="3.75" transform="translate(2931.15 800.98) rotate(180)"/><rect class="cls-1" x="1478.68" y="405.57" width="3.75" height="3.75" transform="translate(2961.12 814.89) rotate(180)"/><rect class="cls-1" x="1471.19" y="405.57" width="3.75" height="3.75" transform="translate(2946.13 814.89) rotate(180)"/><rect class="cls-1" x="1463.7" y="405.57" width="3.75" height="3.75" transform="translate(2931.15 814.89) rotate(180)"/><rect class="cls-1" x="1471.19" y="412.53" width="3.75" height="3.75" transform="translate(2946.13 828.8) rotate(180)"/><rect class="cls-1" x="1463.7" y="412.53" width="3.75" height="3.75" transform="translate(2931.15 828.8) rotate(180)"/><rect class="cls-1" x="1478.68" y="419.48" width="3.75" height="3.75" transform="translate(2961.12 842.72) rotate(180)"/><rect class="cls-1" x="1463.7" y="419.48" width="3.75" height="3.75" transform="translate(2931.15 842.72) rotate(180)"/><line class="cls-1" x1="1453.32" y1="183.41" x2="1453.32" y2="448.38"/><line class="cls-1" x1="1441.43" y1="183.41" x2="1441.43" y2="448.38"/><path class="cls-1" d="m1487.78,345.1v-138.51h-24.08v-23.19h-36.52s0,23.19,0,23.19h-26.22v-23.19h-36.52v23.19h-24.08v138.51h7.49v13.37h-7.49v68.58h24.08s0,21.32,0,21.32h36.52s0-21.32,0-21.32h26.21s0,21.32,0,21.32h36.52v-21.32s24.08,0,24.08,0v-68.58h-7.49v-13.37h7.49Z"/><path class="cls-1" d="m667.75,300.41c-.53,12.64-.99,26.47-.99,36.92,0,26.49,38.26,111.04,38.26,111.04,0,0-40.4-58.6-50.3-96.59"/><path class="cls-1" d="m655.06,328.78c1.54-9.19,3.66-19.16,5.79-28.36"/><path class="cls-1" d="m684.28,300.41c-2.78,18.09-2.95,25.41-2.53,35.59,1.34,32.64,91.51,112.38,91.51,112.38,0,0-81.61-57.53-104.18-95.76"/><path class="cls-1" d="m666.87,327.42s3.09-11.49,9.01-26.97"/><path class="cls-1" d="m821.14,448.38s-97.38-53.75-117.99-72.36"/><path class="cls-1" d="m681.57,327.71c1.96-6.48,6.81-16.76,12.37-27.29"/><line class="cls-1" x1="654.72" y1="304.29" x2="659.96" y2="304.29"/><line class="cls-1" x1="667.59" y1="304.29" x2="674.43" y2="304.29"/><line class="cls-1" x1="683.7" y1="304.29" x2="691.92" y2="304.29"/><line class="cls-1" x1="654.72" y1="300.41" x2="654.72" y2="219.97"/><line class="cls-1" x1="636.26" y1="243.33" x2="673.18" y2="243.33"/><line class="cls-1" x1="649.17" y1="237.78" x2="660.27" y2="248.88"/><line class="cls-1" x1="660.27" y1="237.78" x2="649.17" y2="248.88"/><line class="cls-1" x1="654.72" y1="361.68" x2="657.44" y2="360.68"/><line class="cls-1" x1="672.99" y1="366.67" x2="677.74" y2="364.92"/><line class="cls-1" x1="654.72" y1="373.36" x2="661.37" y2="370.92"/><line class="cls-1" x1="676.4" y1="377.1" x2="685.37" y2="373.81"/><line class="cls-1" x1="654.72" y1="385.04" x2="665.84" y2="380.97"/><line class="cls-1" x1="680.07" y1="387.43" x2="693.62" y2="382.47"/><line class="cls-1" x1="654.72" y1="396.73" x2="670.69" y2="390.87"/><line class="cls-1" x1="712.44" y1="387.25" x2="716.18" y2="385.88"/><line class="cls-1" x1="683.92" y1="397.71" x2="702.36" y2="390.95"/><line class="cls-1" x1="654.72" y1="408.41" x2="675.86" y2="400.66"/><line class="cls-1" x1="720.25" y1="396.07" x2="727.52" y2="393.4"/><line class="cls-1" x1="687.92" y1="407.92" x2="711.47" y2="399.29"/><line class="cls-1" x1="654.72" y1="420.09" x2="681.28" y2="410.35"/><line class="cls-1" x1="728.34" y1="404.79" x2="739.24" y2="400.79"/><line class="cls-1" x1="692.03" y1="418.1" x2="720.9" y2="407.51"/><line class="cls-1" x1="654.72" y1="431.77" x2="686.95" y2="419.96"/><line class="cls-1" x1="736.66" y1="413.42" x2="751.2" y2="408.09"/><line class="cls-1" x1="696.26" y1="428.23" x2="730.6" y2="415.64"/><line class="cls-1" x1="654.72" y1="443.46" x2="692.76" y2="429.51"/><line class="cls-1" x1="745.2" y1="421.97" x2="763.33" y2="415.32"/><line class="cls-1" x1="700.59" y1="438.33" x2="740.55" y2="423.68"/><line class="cls-1" x1="673.17" y1="448.38" x2="698.79" y2="438.99"/><line class="cls-1" x1="753.93" y1="430.45" x2="775.6" y2="422.51"/><line class="cls-1" x1="705.02" y1="448.38" x2="750.72" y2="431.63"/><line class="cls-1" x1="762.84" y1="438.87" x2="787.97" y2="429.66"/><line class="cls-1" x1="736.91" y1="448.38" x2="761.1" y2="439.51"/><line class="cls-1" x1="771.95" y1="447.21" x2="800.44" y2="436.77"/><line class="cls-1" x1="800.65" y1="448.38" x2="813.01" y2="443.85"/><path class="cls-1" d="m641.69,300.41c.53,12.64.99,26.47.99,36.92,0,26.49-38.26,111.04-38.26,111.04,0,0,40.4-58.6,50.3-96.59"/><path class="cls-1" d="m654.38,328.78c-1.54-9.19-3.66-19.16-5.79-28.36"/><path class="cls-1" d="m625.16,300.41c2.78,18.09,2.95,25.41,2.53,35.59-1.34,32.64-91.51,112.38-91.51,112.38,0,0,81.61-57.53,104.18-95.76"/><path class="cls-1" d="m642.57,327.42s-3.09-11.49-9.01-26.97"/><path class="cls-1" d="m488.3,448.38s97.38-53.75,117.99-72.36"/><path class="cls-1" d="m627.86,327.71c-1.96-6.48-6.81-16.76-12.37-27.29"/><line class="cls-1" x1="654.72" y1="304.29" x2="649.48" y2="304.29"/><line class="cls-1" x1="641.85" y1="304.29" x2="635" y2="304.29"/><line class="cls-1" x1="625.74" y1="304.29" x2="617.51" y2="304.29"/><line class="cls-1" x1="654.72" y1="361.68" x2="651.99" y2="360.68"/><line class="cls-1" x1="636.45" y1="366.67" x2="631.7" y2="364.92"/><line class="cls-1" x1="654.72" y1="373.36" x2="648.06" y2="370.92"/><line class="cls-1" x1="633.03" y1="377.1" x2="624.07" y2="373.81"/><line class="cls-1" x1="654.72" y1="385.04" x2="643.6" y2="380.97"/><line class="cls-1" x1="629.37" y1="387.43" x2="615.81" y2="382.47"/><line class="cls-1" x1="654.72" y1="396.73" x2="638.74" y2="390.87"/><line class="cls-1" x1="597" y1="387.25" x2="593.26" y2="385.88"/><line class="cls-1" x1="625.52" y1="397.71" x2="607.08" y2="390.95"/><line class="cls-1" x1="654.72" y1="408.41" x2="633.58" y2="400.66"/><line class="cls-1" x1="589.19" y1="396.07" x2="581.91" y2="393.4"/><line class="cls-1" x1="621.52" y1="407.92" x2="597.96" y2="399.29"/><line class="cls-1" x1="654.72" y1="420.09" x2="628.16" y2="410.35"/><line class="cls-1" x1="581.1" y1="404.79" x2="570.19" y2="400.79"/><line class="cls-1" x1="617.4" y1="418.1" x2="588.54" y2="407.51"/><line class="cls-1" x1="654.72" y1="431.77" x2="622.49" y2="419.96"/><line class="cls-1" x1="572.77" y1="413.42" x2="558.24" y2="408.09"/><line class="cls-1" x1="613.18" y1="428.23" x2="578.83" y2="415.64"/><line class="cls-1" x1="654.72" y1="443.46" x2="616.68" y2="429.51"/><line class="cls-1" x1="564.24" y1="421.97" x2="546.1" y2="415.32"/><line class="cls-1" x1="608.85" y1="438.33" x2="568.89" y2="423.68"/><line class="cls-1" x1="636.27" y1="448.38" x2="610.65" y2="438.99"/><line class="cls-1" x1="555.51" y1="430.45" x2="533.84" y2="422.51"/><line class="cls-1" x1="604.41" y1="448.38" x2="558.72" y2="431.63"/><line class="cls-1" x1="546.6" y1="438.87" x2="521.46" y2="429.66"/><line class="cls-1" x1="572.53" y1="448.38" x2="548.33" y2="439.51"/><line class="cls-1" x1="537.49" y1="447.21" x2="508.99" y2="436.77"/><line class="cls-1" x1="508.79" y1="448.38" x2="496.43" y2="443.85"/><path class="cls-1" d="m696.11,336.27c-1.87-10.54,1.92-21.42,12.35-61.28-4.45,7.17-9.74,16.39-14.52,25.43h-9.67c1.2-7.8,2.89-17.6,5.23-30.5-5.52,10.54-10.08,21.26-13.63,30.54l.02-.04h-8.14c.76-18.06,1.69-33.71,1.69-33.71,0,0-4.33,15.33-8.59,33.71h-12.26c-4.26-18.38-8.59-33.71-8.59-33.71,0,0,.93,15.65,1.69,33.71h0s-8.14,0-8.14,0l.02.04c-3.55-9.29-8.11-20.01-13.63-30.54,2.34,12.9,4.02,22.7,5.23,30.5h-9.67c-4.77-9.04-10.07-18.26-14.52-25.43,10.43,39.87,14.22,50.74,12.35,61.28-7.05,39.75-125.04,112.11-125.04,112.11h332.85s-117.99-72.36-125.04-112.11Z"/><path class="cls-1" d="m1282.05,297.08c-.22-3.64,2.65-4.15,4.46-3.48,3.6,1.34,3.75,7.22,3.75,7.22v47.8"/><polyline class="cls-1" points="1290.26 254.26 1287.41 254.26 1277.42 262.02 1283.84 288.25 1290.26 288.25"/><polyline class="cls-1" points="1290.26 254.26 1293.11 254.26 1303.1 262.02 1296.68 288.25 1290.26 288.25"/><path class="cls-1" d="m1298.46,297.08c.22-3.64-2.65-4.15-4.46-3.48-3.6,1.34-3.75,7.22-3.75,7.22v47.8"/><circle class="cls-1" cx="1290.26" cy="246.9" r="3.08"/><line class="cls-1" x1="1290.26" y1="243.83" x2="1290.26" y2="238.61"/><circle class="cls-1" cx="1290.26" cy="353.71" r="5.08"/><polyline class="cls-1" points="1287.67 358.08 1282.04 448.38 1290.26 448.38"/><polyline class="cls-1" points="1292.85 358.08 1298.48 448.38 1290.26 448.38"/><line class="cls-1" x1="1277.42" y1="262.02" x2="1303.1" y2="262.02"/><polyline class="cls-1" points="1287.17 288.25 1285.16 262.02 1290.26 254.26"/><polyline class="cls-1" points="1293.35 288.25 1295.36 262.02 1290.26 254.26"/><line class="cls-1" x1="1295.75" y1="404.55" x2="1284.77" y2="404.55"/><line class="cls-1" x1="1284.63" y1="406.78" x2="1295.91" y2="406.78"/><line class="cls-1" x1="1290.26" y1="400.09" x2="1290.26" y2="380.64"/><line class="cls-1" x1="1282.35" y1="443.52" x2="1298.17" y2="443.52"/><line class="cls-1" x1="1288.22" y1="412.75" x2="1286.97" y2="438.7"/><line class="cls-1" x1="1292.32" y1="412.75" x2="1293.57" y2="438.7"/><polyline class="cls-1" points="1074.71 424.61 823.79 424.61 855.12 448.38 859.05 448.38 859.05 433.4 853.52 433.4 853.52 447.19"/><line class="cls-1" x1="1043.67" y1="416.05" x2="883.13" y2="416.05"/><line class="cls-1" x1="1167.56" y1="416.05" x2="1122.17" y2="416.05"/><line class="cls-1" x1="1100.75" y1="424.61" x2="1491.74" y2="424.61"/><rect class="cls-1" x="1074.7" y="416.05" width="26.04" height="32.33"/><rect class="cls-1" x="1100.74" y="436.5" width="26.04" height="11.89"/><rect class="cls-1" x="1069.17" y="424.61" width="5.53" height="14.98"/><rect class="cls-1" x="1069.17" y="439.59" width="5.53" height="8.79"/><rect class="cls-1" x="1063.64" y="433.4" width="5.53" height="14.98" transform="translate(2132.81 881.78) rotate(180)"/><rect class="cls-1" x="1063.64" y="424.61" width="5.53" height="8.79" transform="translate(2132.81 858.01) rotate(180)"/><rect class="cls-1" x="1132.32" y="424.61" width="5.53" height="14.98"/><rect class="cls-1" x="1132.32" y="439.59" width="5.53" height="8.79"/><rect class="cls-1" x="1126.79" y="433.4" width="5.53" height="14.98" transform="translate(2259.11 881.78) rotate(180)"/><rect class="cls-1" x="1126.79" y="424.61" width="5.53" height="8.79" transform="translate(2259.11 858.01) rotate(180)"/><rect class="cls-1" x="1143.38" y="424.61" width="5.53" height="14.98"/><rect class="cls-1" x="1143.38" y="439.59" width="5.53" height="8.79"/><rect class="cls-1" x="1137.85" y="433.4" width="5.53" height="14.98" transform="translate(2281.22 881.78) rotate(180)"/><rect class="cls-1" x="1137.85" y="424.61" width="5.53" height="8.79" transform="translate(2281.22 858.01) rotate(180)"/><rect class="cls-1" x="1154.44" y="424.61" width="5.53" height="14.98"/><rect class="cls-1" x="1154.44" y="439.59" width="5.53" height="8.79"/><rect class="cls-1" x="1148.91" y="433.4" width="5.53" height="14.98" transform="translate(2303.34 881.78) rotate(180)"/><rect class="cls-1" x="1148.91" y="424.61" width="5.53" height="8.79" transform="translate(2303.34 858.01) rotate(180)"/><rect class="cls-1" x="1165.49" y="424.61" width="5.53" height="14.98"/><rect class="cls-1" x="1165.49" y="439.59" width="5.53" height="8.79"/><rect class="cls-1" x="1159.97" y="433.4" width="5.53" height="14.98" transform="translate(2325.46 881.78) rotate(180)"/><rect class="cls-1" x="1159.97" y="424.61" width="5.53" height="8.79" transform="translate(2325.46 858.01) rotate(180)"/><rect class="cls-1" x="1176.55" y="424.61" width="5.53" height="14.98"/><rect class="cls-1" x="1176.55" y="439.59" width="5.53" height="8.79"/><rect class="cls-1" x="1171.02" y="433.4" width="5.53" height="14.98" transform="translate(2347.58 881.78) rotate(180)"/><rect class="cls-1" x="1171.02" y="424.61" width="5.53" height="8.79" transform="translate(2347.58 858.01) rotate(180)"/><rect class="cls-1" x="1187.61" y="424.61" width="5.53" height="14.98"/><rect class="cls-1" x="1187.61" y="439.59" width="5.53" height="8.79"/><rect class="cls-1" x="1182.08" y="433.4" width="5.53" height="14.98" transform="translate(2369.7 881.78) rotate(180)"/><rect class="cls-1" x="1182.08" y="424.61" width="5.53" height="8.79" transform="translate(2369.7 858.01) rotate(180)"/><rect class="cls-1" x="1198.67" y="424.61" width="5.53" height="14.98"/><rect class="cls-1" x="1198.67" y="439.59" width="5.53" height="8.79"/><rect class="cls-1" x="1193.14" y="433.4" width="5.53" height="14.98" transform="translate(2391.82 881.78) rotate(180)"/><rect class="cls-1" x="1193.14" y="424.61" width="5.53" height="8.79" transform="translate(2391.82 858.01) rotate(180)"/><rect class="cls-1" x="1209.73" y="424.61" width="5.53" height="14.98"/><rect class="cls-1" x="1209.73" y="439.59" width="5.53" height="8.79"/><rect class="cls-1" x="1204.2" y="433.4" width="5.53" height="14.98" transform="translate(2413.93 881.78) rotate(180)"/><rect class="cls-1" x="1204.2" y="424.61" width="5.53" height="8.79" transform="translate(2413.93 858.01) rotate(180)"/><rect class="cls-1" x="1220.79" y="424.61" width="5.53" height="14.98"/><rect class="cls-1" x="1220.79" y="439.59" width="5.53" height="8.79"/><rect class="cls-1" x="1215.26" y="433.4" width="5.53" height="14.98" transform="translate(2436.05 881.78) rotate(180)"/><rect class="cls-1" x="1215.26" y="424.61" width="5.53" height="8.79" transform="translate(2436.05 858.01) rotate(180)"/><rect class="cls-1" x="1231.85" y="424.61" width="5.53" height="14.98"/><rect class="cls-1" x="1231.85" y="439.59" width="5.53" height="8.79"/><rect class="cls-1" x="1226.32" y="433.4" width="5.53" height="14.98" transform="translate(2458.17 881.78) rotate(180)"/><rect class="cls-1" x="1226.32" y="424.61" width="5.53" height="8.79" transform="translate(2458.17 858.01) rotate(180)"/><rect class="cls-1" x="1242.91" y="424.61" width="5.53" height="14.98"/><rect class="cls-1" x="1242.91" y="439.59" width="5.53" height="8.79"/><rect class="cls-1" x="1237.38" y="433.4" width="5.53" height="14.98" transform="translate(2480.29 881.78) rotate(180)"/><rect class="cls-1" x="1237.38" y="424.61" width="5.53" height="8.79" transform="translate(2480.29 858.01) rotate(180)"/><rect class="cls-1" x="1253.97" y="424.61" width="5.53" height="14.98"/><rect class="cls-1" x="1253.97" y="439.59" width="5.53" height="8.79"/><rect class="cls-1" x="1248.44" y="433.4" width="5.53" height="14.98" transform="translate(2502.41 881.78) rotate(180)"/><rect class="cls-1" x="1248.44" y="424.61" width="5.53" height="8.79" transform="translate(2502.41 858.01) rotate(180)"/><rect class="cls-1" x="1265.03" y="424.61" width="5.53" height="14.98"/><rect class="cls-1" x="1265.03" y="439.59" width="5.53" height="8.79"/><rect class="cls-1" x="1259.5" y="433.4" width="5.53" height="14.98" transform="translate(2524.53 881.78) rotate(180)"/><rect class="cls-1" x="1259.5" y="424.61" width="5.53" height="8.79" transform="translate(2524.53 858.01) rotate(180)"/><rect class="cls-1" x="1276.09" y="424.61" width="5.53" height="14.98"/><rect class="cls-1" x="1276.09" y="439.59" width="5.53" height="8.79"/><rect class="cls-1" x="1270.56" y="433.4" width="5.53" height="14.98" transform="translate(2546.64 881.78) rotate(180)"/><rect class="cls-1" x="1270.56" y="424.61" width="5.53" height="8.79" transform="translate(2546.64 858.01) rotate(180)"/><rect class="cls-1" x="1287.15" y="424.61" width="5.53" height="14.98"/><rect class="cls-1" x="1287.15" y="439.59" width="5.53" height="8.79"/><rect class="cls-1" x="1281.62" y="433.4" width="5.53" height="14.98" transform="translate(2568.76 881.78) rotate(180)"/><rect class="cls-1" x="1281.62" y="424.61" width="5.53" height="8.79" transform="translate(2568.76 858.01) rotate(180)"/><rect class="cls-1" x="1298.21" y="424.61" width="5.53" height="14.98"/><rect class="cls-1" x="1298.21" y="439.59" width="5.53" height="8.79"/><rect class="cls-1" x="1292.68" y="433.4" width="5.53" height="14.98" transform="translate(2590.88 881.78) rotate(180)"/><rect class="cls-1" x="1292.68" y="424.61" width="5.53" height="8.79" transform="translate(2590.88 858.01) rotate(180)"/><rect class="cls-1" x="1309.26" y="424.61" width="5.53" height="14.98"/><rect class="cls-1" x="1309.26" y="439.59" width="5.53" height="8.79"/><rect class="cls-1" x="1303.73" y="433.4" width="5.53" height="14.98" transform="translate(2613 881.78) rotate(180)"/><rect class="cls-1" x="1303.73" y="424.61" width="5.53" height="8.79" transform="translate(2613 858.01) rotate(180)"/><rect class="cls-1" x="1320.32" y="424.61" width="5.53" height="14.98"/><rect class="cls-1" x="1320.32" y="439.59" width="5.53" height="8.79"/><rect class="cls-1" x="1314.79" y="433.4" width="5.53" height="14.98" transform="translate(2635.12 881.78) rotate(180)"/><rect class="cls-1" x="1314.79" y="424.61" width="5.53" height="8.79" transform="translate(2635.12 858.01) rotate(180)"/><rect class="cls-1" x="1331.38" y="424.61" width="5.53" height="14.98"/><rect class="cls-1" x="1331.38" y="439.59" width="5.53" height="8.79"/><rect class="cls-1" x="1325.85" y="433.4" width="5.53" height="14.98" transform="translate(2657.24 881.78) rotate(180)"/><rect class="cls-1" x="1325.85" y="424.61" width="5.53" height="8.79" transform="translate(2657.24 858.01) rotate(180)"/><rect class="cls-1" x="1342.44" y="424.61" width="5.53" height="14.98"/><rect class="cls-1" x="1342.44" y="439.59" width="5.53" height="8.79"/><rect class="cls-1" x="1336.91" y="433.4" width="5.53" height="14.98" transform="translate(2679.35 881.78) rotate(180)"/><rect class="cls-1" x="1336.91" y="424.61" width="5.53" height="8.79" transform="translate(2679.35 858.01) rotate(180)"/><rect class="cls-1" x="1353.5" y="424.61" width="5.53" height="14.98"/><rect class="cls-1" x="1353.5" y="439.59" width="5.53" height="8.79"/><rect class="cls-1" x="1347.97" y="433.4" width="5.53" height="14.98" transform="translate(2701.47 881.78) rotate(180)"/><rect class="cls-1" x="1347.97" y="424.61" width="5.53" height="8.79" transform="translate(2701.47 858.01) rotate(180)"/><rect class="cls-1" x="1364.56" y="424.61" width="5.53" height="14.98"/><rect class="cls-1" x="1364.56" y="439.59" width="5.53" height="8.79"/><rect class="cls-1" x="1359.03" y="433.4" width="5.53" height="14.98" transform="translate(2723.59 881.78) rotate(180)"/><rect class="cls-1" x="1359.03" y="424.61" width="5.53" height="8.79" transform="translate(2723.59 858.01) rotate(180)"/><rect class="cls-1" x="1375.62" y="424.61" width="5.53" height="14.98"/><rect class="cls-1" x="1375.62" y="439.59" width="5.53" height="8.79"/><rect class="cls-1" x="1370.09" y="433.4" width="5.53" height="14.98" transform="translate(2745.71 881.78) rotate(180)"/><rect class="cls-1" x="1370.09" y="424.61" width="5.53" height="8.79" transform="translate(2745.71 858.01) rotate(180)"/><rect class="cls-1" x="1386.68" y="424.61" width="5.53" height="14.98"/><rect class="cls-1" x="1386.68" y="439.59" width="5.53" height="8.79"/><rect class="cls-1" x="1381.15" y="433.4" width="5.53" height="14.98" transform="translate(2767.83 881.78) rotate(180)"/><rect class="cls-1" x="1381.15" y="424.61" width="5.53" height="8.79" transform="translate(2767.83 858.01) rotate(180)"/><rect class="cls-1" x="1397.74" y="424.61" width="5.53" height="14.98"/><rect class="cls-1" x="1397.74" y="439.59" width="5.53" height="8.79"/><rect class="cls-1" x="1392.21" y="433.4" width="5.53" height="14.98" transform="translate(2789.95 881.78) rotate(180)"/><rect class="cls-1" x="1392.21" y="424.61" width="5.53" height="8.79" transform="translate(2789.95 858.01) rotate(180)"/><rect class="cls-1" x="1408.8" y="424.61" width="5.53" height="14.98"/><rect class="cls-1" x="1408.8" y="439.59" width="5.53" height="8.79"/><rect class="cls-1" x="1403.27" y="433.4" width="5.53" height="14.98" transform="translate(2812.06 881.78) rotate(180)"/><rect class="cls-1" x="1403.27" y="424.61" width="5.53" height="8.79" transform="translate(2812.06 858.01) rotate(180)"/><rect class="cls-1" x="1419.86" y="424.61" width="5.53" height="14.98"/><rect class="cls-1" x="1419.86" y="439.59" width="5.53" height="8.79"/><rect class="cls-1" x="1414.33" y="433.4" width="5.53" height="14.98" transform="translate(2834.18 881.78) rotate(180)"/><rect class="cls-1" x="1414.33" y="424.61" width="5.53" height="8.79" transform="translate(2834.18 858.01) rotate(180)"/><rect class="cls-1" x="1430.92" y="424.61" width="5.53" height="14.98"/><rect class="cls-1" x="1430.92" y="439.59" width="5.53" height="8.79"/><rect class="cls-1" x="1425.39" y="433.4" width="5.53" height="14.98" transform="translate(2856.3 881.78) rotate(180)"/><rect class="cls-1" x="1425.39" y="424.61" width="5.53" height="8.79" transform="translate(2856.3 858.01) rotate(180)"/><rect class="cls-1" x="1441.97" y="424.61" width="5.53" height="14.98"/><rect class="cls-1" x="1441.97" y="439.59" width="5.53" height="8.79"/><rect class="cls-1" x="1436.45" y="433.4" width="5.53" height="14.98" transform="translate(2878.42 881.78) rotate(180)"/><rect class="cls-1" x="1436.45" y="424.61" width="5.53" height="8.79" transform="translate(2878.42 858.01) rotate(180)"/><rect class="cls-1" x="1453.03" y="424.61" width="5.53" height="14.98"/><rect class="cls-1" x="1453.03" y="439.59" width="5.53" height="8.79"/><rect class="cls-1" x="1447.5" y="433.4" width="5.53" height="14.98" transform="translate(2900.54 881.78) rotate(180)"/><rect class="cls-1" x="1447.5" y="424.61" width="5.53" height="8.79" transform="translate(2900.54 858.01) rotate(180)"/><rect class="cls-1" x="1464.09" y="424.61" width="5.53" height="14.98"/><rect class="cls-1" x="1464.09" y="439.59" width="5.53" height="8.79"/><rect class="cls-1" x="1458.56" y="433.4" width="5.53" height="14.98" transform="translate(2922.66 881.78) rotate(180)"/><rect class="cls-1" x="1458.56" y="424.61" width="5.53" height="8.79" transform="translate(2922.66 858.01) rotate(180)"/><rect class="cls-1" x="1475.15" y="424.61" width="5.53" height="14.98"/><rect class="cls-1" x="1475.15" y="439.59" width="5.53" height="8.79"/><rect class="cls-1" x="1469.62" y="433.4" width="5.53" height="14.98" transform="translate(2944.78 881.78) rotate(180)"/><rect class="cls-1" x="1469.62" y="424.61" width="5.53" height="8.79" transform="translate(2944.78 858.01) rotate(180)"/><rect class="cls-1" x="1486.21" y="424.61" width="5.53" height="14.98"/><rect class="cls-1" x="1486.21" y="439.59" width="5.53" height="8.79"/><rect class="cls-1" x="1480.68" y="433.4" width="5.53" height="14.98" transform="translate(2966.89 881.78) rotate(180)"/><rect class="cls-1" x="1480.68" y="424.61" width="5.53" height="8.79" transform="translate(2966.89 858.01) rotate(180)"/><rect class="cls-1" x="1058.11" y="424.61" width="5.53" height="14.98"/><rect class="cls-1" x="1058.11" y="439.59" width="5.53" height="8.79"/><rect class="cls-1" x="1052.58" y="433.4" width="5.53" height="14.98" transform="translate(2110.7 881.78) rotate(180)"/><rect class="cls-1" x="1052.58" y="424.61" width="5.53" height="8.79" transform="translate(2110.7 858.01) rotate(180)"/><rect class="cls-1" x="1047.05" y="424.61" width="5.53" height="14.98"/><rect class="cls-1" x="1047.05" y="439.59" width="5.53" height="8.79"/><rect class="cls-1" x="1041.52" y="433.4" width="5.53" height="14.98" transform="translate(2088.58 881.78) rotate(180)"/><rect class="cls-1" x="1041.52" y="424.61" width="5.53" height="8.79" transform="translate(2088.58 858.01) rotate(180)"/><rect class="cls-1" x="1035.99" y="424.61" width="5.53" height="14.98"/><rect class="cls-1" x="1035.99" y="439.59" width="5.53" height="8.79"/><rect class="cls-1" x="1030.47" y="433.4" width="5.53" height="14.98" transform="translate(2066.46 881.78) rotate(180)"/><rect class="cls-1" x="1030.47" y="424.61" width="5.53" height="8.79" transform="translate(2066.46 858.01) rotate(180)"/><rect class="cls-1" x="1024.94" y="424.61" width="5.53" height="14.98"/><rect class="cls-1" x="1024.94" y="439.59" width="5.53" height="8.79"/><rect class="cls-1" x="1019.41" y="433.4" width="5.53" height="14.98" transform="translate(2044.34 881.78) rotate(180)"/><rect class="cls-1" x="1019.41" y="424.61" width="5.53" height="8.79" transform="translate(2044.34 858.01) rotate(180)"/><rect class="cls-1" x="1013.88" y="424.61" width="5.53" height="14.98"/><rect class="cls-1" x="1013.88" y="439.59" width="5.53" height="8.79"/><rect class="cls-1" x="1008.35" y="433.4" width="5.53" height="14.98" transform="translate(2022.22 881.78) rotate(180)"/><rect class="cls-1" x="1008.35" y="424.61" width="5.53" height="8.79" transform="translate(2022.22 858.01) rotate(180)"/><rect class="cls-1" x="1002.82" y="424.61" width="5.53" height="14.98"/><rect class="cls-1" x="1002.82" y="439.59" width="5.53" height="8.79"/><rect class="cls-1" x="997.29" y="433.4" width="5.53" height="14.98" transform="translate(2000.1 881.78) rotate(180)"/><rect class="cls-1" x="997.29" y="424.61" width="5.53" height="8.79" transform="translate(2000.1 858.01) rotate(180)"/><rect class="cls-1" x="991.76" y="424.61" width="5.53" height="14.98"/><rect class="cls-1" x="991.76" y="439.59" width="5.53" height="8.79"/><rect class="cls-1" x="986.23" y="433.4" width="5.53" height="14.98" transform="translate(1977.99 881.78) rotate(180)"/><rect class="cls-1" x="986.23" y="424.61" width="5.53" height="8.79" transform="translate(1977.99 858.01) rotate(180)"/><rect class="cls-1" x="980.7" y="424.61" width="5.53" height="14.98"/><rect class="cls-1" x="980.7" y="439.59" width="5.53" height="8.79"/><rect class="cls-1" x="975.17" y="433.4" width="5.53" height="14.98" transform="translate(1955.87 881.78) rotate(180)"/><rect class="cls-1" x="975.17" y="424.61" width="5.53" height="8.79" transform="translate(1955.87 858.01) rotate(180)"/><rect class="cls-1" x="969.64" y="424.61" width="5.53" height="14.98"/><rect class="cls-1" x="969.64" y="439.59" width="5.53" height="8.79"/><rect class="cls-1" x="964.11" y="433.4" width="5.53" height="14.98" transform="translate(1933.75 881.78) rotate(180)"/><rect class="cls-1" x="964.11" y="424.61" width="5.53" height="8.79" transform="translate(1933.75 858.01) rotate(180)"/><rect class="cls-1" x="958.58" y="424.61" width="5.53" height="14.98"/><rect class="cls-1" x="958.58" y="439.59" width="5.53" height="8.79"/><rect class="cls-1" x="953.05" y="433.4" width="5.53" height="14.98" transform="translate(1911.63 881.78) rotate(180)"/><rect class="cls-1" x="953.05" y="424.61" width="5.53" height="8.79" transform="translate(1911.63 858.01) rotate(180)"/><rect class="cls-1" x="947.52" y="424.61" width="5.53" height="14.98"/><rect class="cls-1" x="947.52" y="439.59" width="5.53" height="8.79"/><rect class="cls-1" x="941.99" y="433.4" width="5.53" height="14.98" transform="translate(1889.51 881.78) rotate(180)"/><rect class="cls-1" x="941.99" y="424.61" width="5.53" height="8.79" transform="translate(1889.51 858.01) rotate(180)"/><rect class="cls-1" x="936.46" y="424.61" width="5.53" height="14.98"/><rect class="cls-1" x="936.46" y="439.59" width="5.53" height="8.79"/><rect class="cls-1" x="930.93" y="433.4" width="5.53" height="14.98" transform="translate(1867.39 881.78) rotate(180)"/><rect class="cls-1" x="930.93" y="424.61" width="5.53" height="8.79" transform="translate(1867.39 858.01) rotate(180)"/><rect class="cls-1" x="925.4" y="424.61" width="5.53" height="14.98"/><rect class="cls-1" x="925.4" y="439.59" width="5.53" height="8.79"/><rect class="cls-1" x="919.87" y="433.4" width="5.53" height="14.98" transform="translate(1845.28 881.78) rotate(180)"/><rect class="cls-1" x="919.87" y="424.61" width="5.53" height="8.79" transform="translate(1845.28 858.01) rotate(180)"/><rect class="cls-1" x="914.34" y="424.61" width="5.53" height="14.98"/><rect class="cls-1" x="914.34" y="439.59" width="5.53" height="8.79"/><rect class="cls-1" x="908.81" y="433.4" width="5.53" height="14.98" transform="translate(1823.16 881.78) rotate(180)"/><rect class="cls-1" x="908.81" y="424.61" width="5.53" height="8.79" transform="translate(1823.16 858.01) rotate(180)"/><rect class="cls-1" x="903.28" y="424.61" width="5.53" height="14.98"/><rect class="cls-1" x="903.28" y="439.59" width="5.53" height="8.79"/><rect class="cls-1" x="897.75" y="433.4" width="5.53" height="14.98" transform="translate(1801.04 881.78) rotate(180)"/><rect class="cls-1" x="897.75" y="424.61" width="5.53" height="8.79" transform="translate(1801.04 858.01) rotate(180)"/><rect class="cls-1" x="892.23" y="424.61" width="5.53" height="14.98"/><rect class="cls-1" x="892.23" y="439.59" width="5.53" height="8.79"/><rect class="cls-1" x="886.7" y="433.4" width="5.53" height="14.98" transform="translate(1778.92 881.78) rotate(180)"/><rect class="cls-1" x="886.7" y="424.61" width="5.53" height="8.79" transform="translate(1778.92 858.01) rotate(180)"/><rect class="cls-1" x="881.17" y="424.61" width="5.53" height="14.98"/><rect class="cls-1" x="881.17" y="439.59" width="5.53" height="8.79"/><rect class="cls-1" x="875.64" y="433.4" width="5.53" height="14.98" transform="translate(1756.8 881.78) rotate(180)"/><rect class="cls-1" x="875.64" y="424.61" width="5.53" height="8.79" transform="translate(1756.8 858.01) rotate(180)"/><rect class="cls-1" x="870.11" y="424.61" width="5.53" height="14.98"/><rect class="cls-1" x="870.11" y="439.59" width="5.53" height="8.79"/><rect class="cls-1" x="864.58" y="433.4" width="5.53" height="14.98" transform="translate(1734.68 881.78) rotate(180)"/><rect class="cls-1" x="864.58" y="424.61" width="5.53" height="8.79" transform="translate(1734.68 858.01) rotate(180)"/><rect class="cls-1" x="859.05" y="424.61" width="5.53" height="14.98"/><rect class="cls-1" x="859.05" y="439.59" width="5.53" height="8.79"/><rect class="cls-1" x="853.52" y="424.61" width="5.53" height="8.79" transform="translate(1712.57 858.01) rotate(180)"/><rect class="cls-1" x="847.99" y="424.61" width="5.53" height="14.98"/><polyline class="cls-1" points="853.52 447.19 853.52 439.59 847.99 439.59"/><polyline class="cls-1" points="847.99 442.97 847.99 433.4 842.46 433.4"/><rect class="cls-1" x="842.46" y="424.61" width="5.53" height="8.79" transform="translate(1690.45 858.01) rotate(180)"/><polyline class="cls-1" points="842.46 438.77 842.46 424.61 836.93 424.61"/><polyline class="cls-1" points="836.93 434.58 836.93 424.61 831.4 424.61 831.4 430.26"/><line class="cls-1" x1="1069.17" y1="419.26" x2="1069.17" y2="421.67"/><line class="cls-1" x1="1052.58" y1="419.26" x2="1052.58" y2="421.67"/><line class="cls-1" x1="1035.99" y1="419.26" x2="1035.99" y2="421.67"/><line class="cls-1" x1="1019.41" y1="419.26" x2="1019.41" y2="421.67"/><line class="cls-1" x1="1002.82" y1="419.26" x2="1002.82" y2="421.67"/><line class="cls-1" x1="986.23" y1="419.26" x2="986.23" y2="421.67"/><line class="cls-1" x1="969.64" y1="419.26" x2="969.64" y2="421.67"/><line class="cls-1" x1="953.05" y1="419.26" x2="953.05" y2="421.67"/><line class="cls-1" x1="936.46" y1="419.26" x2="936.46" y2="421.67"/><line class="cls-1" x1="919.87" y1="419.26" x2="919.87" y2="421.67"/><line class="cls-1" x1="903.28" y1="419.26" x2="903.28" y2="421.67"/><line class="cls-1" x1="886.7" y1="419.26" x2="886.7" y2="421.67"/><line class="cls-1" x1="870.11" y1="419.26" x2="870.11" y2="421.67"/><line class="cls-1" x1="853.52" y1="419.26" x2="853.52" y2="421.67"/><line class="cls-1" x1="836.93" y1="419.26" x2="836.93" y2="421.67"/><line class="cls-1" x1="1126.79" y1="421.67" x2="1126.79" y2="419.26"/><line class="cls-1" x1="1143.38" y1="421.67" x2="1143.38" y2="419.26"/><line class="cls-1" x1="1159.97" y1="421.67" x2="1159.97" y2="419.26"/><line class="cls-1" x1="1176.55" y1="421.67" x2="1176.55" y2="419.26"/><line class="cls-1" x1="1193.14" y1="421.67" x2="1193.14" y2="419.26"/><line class="cls-1" x1="1209.73" y1="421.67" x2="1209.73" y2="419.26"/><line class="cls-1" x1="1226.32" y1="421.67" x2="1226.32" y2="419.26"/><line class="cls-1" x1="1242.91" y1="421.67" x2="1242.91" y2="419.26"/><line class="cls-1" x1="1259.5" y1="421.67" x2="1259.5" y2="419.26"/><line class="cls-1" x1="1276.09" y1="421.67" x2="1276.09" y2="419.26"/><line class="cls-1" x1="1292.68" y1="421.67" x2="1292.68" y2="419.26"/><line class="cls-1" x1="1309.26" y1="421.67" x2="1309.26" y2="419.26"/><line class="cls-1" x1="1325.85" y1="421.67" x2="1325.85" y2="419.26"/><line class="cls-1" x1="1342.44" y1="421.67" x2="1342.44" y2="419.26"/><line class="cls-1" x1="1359.03" y1="421.67" x2="1359.03" y2="419.26"/><line class="cls-1" x1="1375.62" y1="421.67" x2="1375.62" y2="419.26"/><line class="cls-1" x1="1392.21" y1="421.67" x2="1392.21" y2="419.26"/><line class="cls-1" x1="1408.8" y1="421.67" x2="1408.8" y2="419.26"/><line class="cls-1" x1="1425.39" y1="421.67" x2="1425.39" y2="419.26"/><line class="cls-1" x1="1441.97" y1="421.67" x2="1441.97" y2="419.26"/><line class="cls-1" x1="1458.56" y1="421.67" x2="1458.56" y2="419.26"/><line class="cls-1" x1="1475.15" y1="421.67" x2="1475.15" y2="419.26"/><line class="cls-1" x1="1491.74" y1="421.67" x2="1491.74" y2="419.26"/><line class="cls-1" x1="1122.17" y1="416.05" x2="1167.56" y2="416.05"/><line class="cls-1" x1="1122.17" y1="270.76" x2="1122.17" y2="308.49"/><line class="cls-1" x1="1061.12" y1="416.05" x2="1106.52" y2="416.05"/><line class="cls-1" x1="1106.52" y1="308.49" x2="1106.52" y2="270.76"/><line class="cls-1" x1="1106.52" y1="276.34" x2="1122.17" y2="276.34"/><line class="cls-1" x1="1106.52" y1="281.92" x2="1122.17" y2="281.92"/><line class="cls-1" x1="1129.03" y1="403.2" x2="1129.03" y2="395"/><line class="cls-1" x1="1135.37" y1="411.41" x2="1135.37" y2="376.63"/><line class="cls-1" x1="1141.7" y1="399.1" x2="1141.7" y2="384.48"/><line class="cls-1" x1="1148.03" y1="411.41" x2="1148.03" y2="404.99"/><line class="cls-1" x1="1154.36" y1="411.41" x2="1154.36" y2="386.26"/><line class="cls-1" x1="1160.7" y1="397.5" x2="1160.7" y2="378.95"/><line class="cls-1" x1="1160.7" y1="356.02" x2="1160.7" y2="364.23"/><line class="cls-1" x1="1160.7" y1="407.31" x2="1160.7" y2="415.51"/><line class="cls-1" x1="1154.36" y1="347.82" x2="1154.36" y2="382.6"/><line class="cls-1" x1="1148.03" y1="360.13" x2="1148.03" y2="374.75"/><line class="cls-1" x1="1141.7" y1="347.82" x2="1141.7" y2="354.24"/><line class="cls-1" x1="1129.03" y1="361.73" x2="1129.03" y2="380.28"/><line class="cls-1" x1="1129.03" y1="334.89" x2="1129.03" y2="326.68"/><line class="cls-1" x1="1135.37" y1="361.47" x2="1135.37" y2="326.68"/><line class="cls-1" x1="1141.7" y1="330.79" x2="1141.7" y2="316.16"/><line class="cls-1" x1="1154.36" y1="343.09" x2="1154.36" y2="336.67"/><line class="cls-1" x1="1148.03" y1="343.09" x2="1148.03" y2="317.94"/><line class="cls-1" x1="1160.7" y1="329.18" x2="1160.7" y2="310.63"/><line class="cls-1" x1="1160.7" y1="287.71" x2="1160.7" y2="295.91"/><line class="cls-1" x1="1148.03" y1="279.5" x2="1148.03" y2="314.29"/><line class="cls-1" x1="1154.36" y1="291.81" x2="1154.36" y2="306.44"/><line class="cls-1" x1="1141.7" y1="279.5" x2="1141.7" y2="285.92"/><line class="cls-1" x1="1135.37" y1="279.5" x2="1135.37" y2="304.65"/><line class="cls-1" x1="1129.03" y1="293.42" x2="1129.03" y2="311.97"/><line class="cls-1" x1="1160.7" y1="155.13" x2="1160.7" y2="163.34"/><line class="cls-1" x1="1154.36" y1="146.93" x2="1154.36" y2="181.71"/><line class="cls-1" x1="1148.03" y1="159.23" x2="1148.03" y2="173.86"/><line class="cls-1" x1="1148.03" y1="136.63" x2="1148.03" y2="150.14"/><line class="cls-1" x1="1141.7" y1="146.93" x2="1141.7" y2="153.35"/><line class="cls-1" x1="1129.03" y1="136.63" x2="1129.03" y2="143.05"/><line class="cls-1" x1="1135.37" y1="146.93" x2="1135.37" y2="172.08"/><line class="cls-1" x1="1129.03" y1="160.84" x2="1129.03" y2="179.39"/><line class="cls-1" x1="1129.03" y1="202.31" x2="1129.03" y2="194.11"/><line class="cls-1" x1="1135.37" y1="210.52" x2="1135.37" y2="175.73"/><line class="cls-1" x1="1141.7" y1="198.21" x2="1141.7" y2="183.58"/><line class="cls-1" x1="1148.03" y1="210.52" x2="1148.03" y2="204.09"/><line class="cls-1" x1="1160.7" y1="143.05" x2="1160.7" y2="136.63"/><line class="cls-1" x1="1160.7" y1="196.6" x2="1160.7" y2="178.05"/><line class="cls-1" x1="1160.7" y1="223.45" x2="1160.7" y2="231.65"/><line class="cls-1" x1="1154.36" y1="196.87" x2="1154.36" y2="231.65"/><line class="cls-1" x1="1148.03" y1="227.55" x2="1148.03" y2="242.18"/><line class="cls-1" x1="1135.37" y1="215.24" x2="1135.37" y2="221.66"/><line class="cls-1" x1="1141.7" y1="215.24" x2="1141.7" y2="240.39"/><line class="cls-1" x1="1129.03" y1="229.16" x2="1129.03" y2="247.71"/><line class="cls-1" x1="1129.03" y1="270.63" x2="1129.03" y2="262.42"/><line class="cls-1" x1="1141.7" y1="278.83" x2="1141.7" y2="244.05"/><line class="cls-1" x1="1135.37" y1="266.53" x2="1135.37" y2="251.9"/><line class="cls-1" x1="1148.03" y1="278.83" x2="1148.03" y2="272.41"/><line class="cls-1" x1="1154.36" y1="278.83" x2="1154.36" y2="253.68"/><line class="cls-1" x1="1160.7" y1="264.92" x2="1160.7" y2="246.37"/><line class="cls-1" x1="1067.99" y1="403.2" x2="1067.99" y2="395"/><line class="cls-1" x1="1074.32" y1="411.41" x2="1074.32" y2="376.63"/><line class="cls-1" x1="1080.65" y1="399.1" x2="1080.65" y2="384.48"/><line class="cls-1" x1="1086.99" y1="411.41" x2="1086.99" y2="404.99"/><line class="cls-1" x1="1093.32" y1="411.41" x2="1093.32" y2="386.26"/><line class="cls-1" x1="1099.65" y1="397.5" x2="1099.65" y2="378.95"/><line class="cls-1" x1="1099.65" y1="356.02" x2="1099.65" y2="364.23"/><line class="cls-1" x1="1099.65" y1="407.31" x2="1099.65" y2="415.51"/><line class="cls-1" x1="1093.32" y1="347.82" x2="1093.32" y2="382.6"/><line class="cls-1" x1="1086.99" y1="360.13" x2="1086.99" y2="374.75"/><line class="cls-1" x1="1080.65" y1="347.82" x2="1080.65" y2="354.24"/><line class="cls-1" x1="1067.99" y1="361.73" x2="1067.99" y2="380.28"/><line class="cls-1" x1="1067.99" y1="334.89" x2="1067.99" y2="326.68"/><line class="cls-1" x1="1074.32" y1="361.47" x2="1074.32" y2="326.68"/><line class="cls-1" x1="1080.65" y1="330.79" x2="1080.65" y2="316.16"/><line class="cls-1" x1="1093.32" y1="343.09" x2="1093.32" y2="336.67"/><line class="cls-1" x1="1086.99" y1="343.09" x2="1086.99" y2="317.94"/><line class="cls-1" x1="1099.65" y1="329.18" x2="1099.65" y2="310.63"/><line class="cls-1" x1="1099.65" y1="287.71" x2="1099.65" y2="295.91"/><line class="cls-1" x1="1086.99" y1="279.5" x2="1086.99" y2="314.29"/><line class="cls-1" x1="1093.32" y1="291.81" x2="1093.32" y2="306.44"/><line class="cls-1" x1="1080.65" y1="279.5" x2="1080.65" y2="285.92"/><line class="cls-1" x1="1074.32" y1="279.5" x2="1074.32" y2="304.65"/><line class="cls-1" x1="1067.99" y1="293.42" x2="1067.99" y2="311.97"/><line class="cls-1" x1="1099.65" y1="155.13" x2="1099.65" y2="163.34"/><line class="cls-1" x1="1093.32" y1="146.93" x2="1093.32" y2="181.71"/><line class="cls-1" x1="1086.99" y1="159.23" x2="1086.99" y2="173.86"/><line class="cls-1" x1="1086.99" y1="136.63" x2="1086.99" y2="150.14"/><line class="cls-1" x1="1080.65" y1="146.93" x2="1080.65" y2="153.35"/><line class="cls-1" x1="1067.99" y1="136.63" x2="1067.99" y2="143.05"/><line class="cls-1" x1="1074.32" y1="146.93" x2="1074.32" y2="172.08"/><line class="cls-1" x1="1067.99" y1="160.84" x2="1067.99" y2="179.39"/><line class="cls-1" x1="1067.99" y1="202.31" x2="1067.99" y2="194.11"/><line class="cls-1" x1="1074.32" y1="210.52" x2="1074.32" y2="175.73"/><line class="cls-1" x1="1080.65" y1="198.21" x2="1080.65" y2="183.58"/><line class="cls-1" x1="1086.99" y1="210.52" x2="1086.99" y2="204.09"/><line class="cls-1" x1="1099.65" y1="143.05" x2="1099.65" y2="136.63"/><line class="cls-1" x1="1099.65" y1="196.6" x2="1099.65" y2="178.05"/><line class="cls-1" x1="1099.65" y1="223.45" x2="1099.65" y2="231.65"/><line class="cls-1" x1="1093.32" y1="196.87" x2="1093.32" y2="231.65"/><line class="cls-1" x1="1086.99" y1="227.55" x2="1086.99" y2="242.18"/><line class="cls-1" x1="1074.32" y1="215.24" x2="1074.32" y2="221.66"/><line class="cls-1" x1="1080.65" y1="215.24" x2="1080.65" y2="240.39"/><line class="cls-1" x1="1067.99" y1="229.16" x2="1067.99" y2="247.71"/><line class="cls-1" x1="1067.99" y1="270.63" x2="1067.99" y2="262.42"/><line class="cls-1" x1="1080.65" y1="278.83" x2="1080.65" y2="244.05"/><line class="cls-1" x1="1074.32" y1="266.53" x2="1074.32" y2="251.9"/><line class="cls-1" x1="1086.99" y1="278.83" x2="1086.99" y2="272.41"/><line class="cls-1" x1="1093.32" y1="278.83" x2="1093.32" y2="253.68"/><line class="cls-1" x1="1099.65" y1="264.92" x2="1099.65" y2="246.37"/><line class="cls-1" x1="1109.53" y1="276.34" x2="1109.53" y2="281.92"/><line class="cls-1" x1="1112.74" y1="276.34" x2="1112.74" y2="281.92"/><line class="cls-1" x1="1115.95" y1="276.34" x2="1115.95" y2="281.92"/><line class="cls-1" x1="1119.16" y1="276.34" x2="1119.16" y2="281.92"/><line class="cls-1" x1="1106.52" y1="295.91" x2="1122.17" y2="295.91"/><line class="cls-1" x1="1106.52" y1="301.49" x2="1122.17" y2="301.49"/><line class="cls-1" x1="1109.53" y1="295.91" x2="1109.53" y2="301.49"/><line class="cls-1" x1="1112.74" y1="295.91" x2="1112.74" y2="301.49"/><line class="cls-1" x1="1115.95" y1="295.91" x2="1115.95" y2="301.49"/><line class="cls-1" x1="1119.16" y1="295.91" x2="1119.16" y2="301.49"/><line class="cls-1" x1="1106.51" y1="416.05" x2="1061.12" y2="416.05"/><line class="cls-1" x1="1392.39" y1="416.05" x2="1281.43" y2="416.05"/><path class="cls-1" d="m1122.17,416.05h-15.66s0-107.56,0-107.56h15.65v107.56Z"/><path class="cls-1" d="m1392.39,416.05c25.15,0,55.47-37.1,55.47-37.1h-221.9s30.32,37.1,55.47,37.1h-113.87s0-279.42,0-279.42h-45.4v134.13h-15.65v-134.13h-45.4s0,279.42,0,279.42h-17.45c-40.32-34.96-65.65-37.1-80.28-37.1s-39.96,2.14-80.26,37.1h-70.28l42.28,32.33h636.62v-23.77h1.25l14.45-8.56s-115.06,0-115.05,0Z"/><path class="cls-1" d="m1515.37,239.88s-.07,4.18-4.17,7.78c-3.8,3.34-4.17,6.3-4.17,6.3l3.15,17.61,5.19,3.15"/><line class="cls-1" x1="1510.64" y1="274.72" x2="1530.2" y2="274.72"/><path class="cls-1" d="m1515.37,239.88s.07,4.18,4.17,7.78c3.8,3.34,4.17,6.3,4.17,6.3l-3.15,17.61-5.19,3.15"/><path class="cls-1" d="m1544.89,239.88s.07,4.18,4.17,7.78c3.8,3.34,4.17,6.3,4.17,6.3l-3.15,17.61-5.19,3.15"/><line class="cls-1" x1="1549.61" y1="274.72" x2="1530.06" y2="274.72"/><path class="cls-1" d="m1544.89,239.88s-.07,4.18-4.17,7.78c-3.8,3.34-4.17,6.3-4.17,6.3l3.15,17.61,5.19,3.15"/><line class="cls-1" x1="1530.06" y1="264.53" x2="1530.06" y2="400.29"/><polyline class="cls-1" points="1530.06 400.29 1526.31 400.29 1520.1 448.38 1530.06 448.38"/><line class="cls-1" x1="1527.33" y1="342.56" x2="1532.79" y2="342.56"/><line class="cls-1" x1="1527.33" y1="347.28" x2="1532.79" y2="347.28"/><line class="cls-1" x1="1527.33" y1="352.01" x2="1532.79" y2="352.01"/><polyline class="cls-1" points="1530.06 400.29 1533.81 400.29 1540.03 448.38 1530.06 448.38"/><line class="cls-1" x1="1521.14" y1="440.32" x2="1539.04" y2="440.32"/><line class="cls-1" x1="1528.46" y1="418.26" x2="1527.26" y2="436.06"/><line class="cls-1" x1="1531.72" y1="418.26" x2="1532.92" y2="436.06"/><line class="cls-1" x1="1524.63" y1="413.27" x2="1535.49" y2="413.27"/><line class="cls-1" x1="1507.03" y1="253.97" x2="1523.71" y2="253.97"/><line class="cls-1" x1="1536.55" y1="253.97" x2="1553.23" y2="253.97"/><line class="cls-1" x1="1512.22" y1="253.97" x2="1515.37" y2="274.72"/><line class="cls-1" x1="1518.52" y1="253.97" x2="1515.37" y2="274.72"/><line class="cls-1" x1="1541.74" y1="253.97" x2="1544.89" y2="274.72"/><line class="cls-1" x1="1548.04" y1="253.97" x2="1544.89" y2="274.72"/><path class="cls-1" d="m1512.13,280.56c.65-2.13,2.92-4.17,7.41-4.17s10.52,5.56,10.52,14.09"/><path class="cls-1" d="m1548,280.56c-.65-2.13-2.92-4.17-7.41-4.17s-10.52,5.56-10.52,14.09"/><line class="cls-1" x1="1563.68" y1="448.38" x2="1589.72" y2="448.38"/><path class="cls-1" d="m1555.82,391.17c14.52,24.22,33.91,57.21,33.91,57.21"/><path class="cls-1" d="m1671.06,389.16v-133.06l-10.7,34.96s11.06,22.06,0,44.56c5.35,6.81,5.35,22.51,0,28.57,2.36,4.71,4.02,14.38,4.54,24.57h0c-2.94-.21-5.97-.47-9.03-.78.56-9.9,2.2-19.19,4.5-23.79-5.35-6.06-5.35-21.76,0-28.57-11.06-22.51,0-44.56,0-44.56l-10.7-34.96s0,131.19,0,131.19c-9.85-1.21-19.45-3-26.4-5.62-21.76-8.21-38.89-11.77-80.63-12.13,2.77,4.35,7.62,12.34,13.18,21.63h0c-17.47-8.79-57.42-18.42-91.31-19.13,21.76,15.34,99.18,76.34,99.18,76.34h68.14l17.84-17.11v17.11s5.35-10.7,10.7-27.37c5.35,16.67,10.7,27.37,10.7,27.37,0,0,0-37.64,0-37.64l21.76-20.87s-9.4,0-21.76-.72Z"/><line class="cls-1" x1="1671.06" y1="410.75" x2="1671.06" y2="389.16"/><path class="cls-1" d="m1664.9,388.75c.65,12.94-.54,26.72-4.54,32.26"/><line class="cls-1" x1="1649.66" y1="431.27" x2="1649.66" y2="387.29"/><path class="cls-1" d="m1655.86,387.98c-.74,13.16.42,27.39,4.5,33.03"/><line class="cls-1" x1="775.12" y1="448.38" x2="775.12" y2="363.62"/><path class="cls-1" d="m775.11,425.12c.49.15-47.56,0,0-132.95"/><path class="cls-1" d="m775.12,425.12c-.49.15,47.57,0,0-132.95"/><line class="cls-1" x1="1609.17" y1="448.38" x2="1609.17" y2="382.94"/><path class="cls-1" d="m1609.17,430.43c.38.11-36.72,0,0-102.63"/><path class="cls-1" d="m1609.18,430.43c-.38.11,36.72,0,0-102.63"/><line class="cls-1" x1="18.46" y1="448.38" x2="18.46" y2="383.34"/><path class="cls-1" d="m18.46,430.54c.38.11-36.49,0,0-102.01"/><path class="cls-1" d="m18.46,430.54c-.38.11,36.5,0,0-102.01"/><path class="cls-1" d="m1171.47,422.85s-41.84-29.06-17.43-40.68c-10.46-29.06,4.89-54.63,17.43-54.63"/><path class="cls-1" d="m1171.47,422.85s41.84-29.06,17.43-40.68c10.46-29.06-4.89-54.63-17.43-54.63"/><line class="cls-1" x1="1171.47" y1="347.08" x2="1171.47" y2="448.38"/><line class="cls-1" x1="1184.01" y1="394.67" x2="1171.47" y2="407.29"/><line class="cls-1" x1="1158.93" y1="394.67" x2="1171.47" y2="407.29"/><path class="cls-1" d="m692.99,429.92s-30.25-21.01-12.61-29.42c-7.56-21.01,3.54-39.5,12.61-39.5"/><path class="cls-1" d="m692.99,429.92s30.25-21.01,12.61-29.42c7.56-21.01-3.54-39.5-12.61-39.5"/><line class="cls-1" x1="692.99" y1="375.13" x2="692.99" y2="448.38"/><line class="cls-1" x1="702.05" y1="409.54" x2="692.99" y2="418.67"/><line class="cls-1" x1="683.92" y1="409.54" x2="692.99" y2="418.67"/><path class="cls-1" d="m480.94,420.79s-45.21-31.4-18.84-43.96c-11.3-31.4,5.29-59.03,18.84-59.03"/><path class="cls-1" d="m480.94,420.79s45.21-31.4,18.84-43.96c11.3-31.4-5.29-59.03-18.84-59.03"/><line class="cls-1" x1="480.94" y1="338.92" x2="480.94" y2="448.38"/><line class="cls-1" x1="494.49" y1="390.34" x2="480.94" y2="403.98"/><line class="cls-1" x1="467.39" y1="390.34" x2="480.94" y2="403.98"/></g></svg>